<?xml version="1.0" encoding="UTF-8" standalone="no"?><!DOCTYPE svg PUBLIC "-//W3C//DTD SVG 1.1//EN" "http://www.w3.org/Graphics/SVG/1.1/DTD/svg11.dtd"><svg width="100%" height="100%" viewBox="0 0 287 66" version="1.1" xmlns="http://www.w3.org/2000/svg" xmlns:xlink="http://www.w3.org/1999/xlink" xml:space="preserve" xmlns:serif="http://www.serif.com/" style="fill-rule:evenodd;clip-rule:evenodd;stroke-miterlimit:10;"><g><clipPath id="_clip1"><rect x="0.154" y="0.136" width="285.936" height="64.775" clip-rule="nonzero"/></clipPath><g clip-path="url(#_clip1)"><path d="M200.523,0.633l0,63.779l-114.803,0l-0,-63.779l114.803,-0Z" style="fill:#fff;fill-opacity:0.8;"/><path d="M136.744,13.389l-0,38.267l-38.268,0l0,-38.267l38.268,-0Z" style="fill:#939598;"/><path d="M187.768,26.144l-0,12.756l-38.268,0l-0,-12.756l38.268,0Z" style="fill:#d1d3d4;"/><path d="M175.012,13.389l-0,38.267l-12.756,0l-0,-38.267l12.756,-0Z" style="fill:#d1d3d4;"/><path d="M115.695,34.438l3.83,-3.831m-3.83,-0l3.83,3.831" style="fill:none;fill-rule:nonzero;stroke:#231f20;stroke-width:1px;"/><path d="M166.718,34.438l3.831,-3.831m-3.831,-0l3.831,3.831" style="fill:none;fill-rule:nonzero;stroke:#231f20;stroke-width:1px;"/><g transform="matrix(1,0,0,1,-133.256,-561.672)"><text x="144.756px" y="590.361px" style="font-family:'Georgia', serif;font-size:10.909px;fill:#231f20;">eight cell</text><text x="137.046px" y="603.91px" style="font-family:'Georgia', serif;font-size:10.909px;fill:#231f20;">connectivity</text></g><g transform="matrix(1,0,0,1,-133.256,-561.672)"><text x="366.742px" y="590.364px" style="font-family:'Georgia', serif;font-size:10.909px;fill:#231f20;">four cell</text><text x="357.047px" y="603.913px" style="font-family:'Georgia', serif;font-size:10.909px;fill:#231f20;">connectivity</text></g><path d="M66.586,32.523l41.664,-0.001" style="fill:none;fill-rule:nonzero;stroke:#231f20;stroke-width:1px;"/><path d="M112.045,32.522l-3.546,-1.249l0,2.499l3.546,-1.25Z" style="fill:#231f20;fill-rule:nonzero;stroke:#231f20;stroke-width:1px;"/><path d="M219.657,32.523l-41.664,-0.001" style="fill:none;fill-rule:nonzero;stroke:#231f20;stroke-width:1px;"/><path d="M174.198,32.522l3.546,1.25l0,-2.499l-3.546,1.249Z" style="fill:#231f20;fill-rule:nonzero;stroke:#231f20;stroke-width:1px;"/><path d="M200.523,0.633l0,63.779l-114.803,0l-0,-63.779l114.803,-0Z" style="fill:none;stroke:#231f20;stroke-width:1px;"/><path d="M98.476,64.412l0,-63.779" style="fill:none;fill-rule:nonzero;stroke:#231f20;stroke-width:0.5px;"/><path d="M111.232,64.412l0,-63.779" style="fill:none;fill-rule:nonzero;stroke:#231f20;stroke-width:0.5px;"/><path d="M123.988,64.412l-0,-63.779" style="fill:none;fill-rule:nonzero;stroke:#231f20;stroke-width:0.5px;"/><path d="M136.744,64.412l-0,-63.779" style="fill:none;fill-rule:nonzero;stroke:#231f20;stroke-width:0.5px;"/><path d="M149.5,64.412l-0,-63.779" style="fill:none;fill-rule:nonzero;stroke:#231f20;stroke-width:0.5px;"/><path d="M162.256,64.412l-0,-63.779" style="fill:none;fill-rule:nonzero;stroke:#231f20;stroke-width:0.5px;"/><path d="M175.012,64.412l-0,-63.779" style="fill:none;fill-rule:nonzero;stroke:#231f20;stroke-width:0.5px;"/><path d="M187.768,64.412l-0,-63.779" style="fill:none;fill-rule:nonzero;stroke:#231f20;stroke-width:0.5px;"/><path d="M200.523,64.412l0,-63.779" style="fill:none;fill-rule:nonzero;stroke:#231f20;stroke-width:0.5px;"/><path d="M85.72,51.656l114.803,0" style="fill:none;fill-rule:nonzero;stroke:#231f20;stroke-width:0.5px;"/><path d="M85.72,38.9l114.803,0" style="fill:none;fill-rule:nonzero;stroke:#231f20;stroke-width:0.5px;"/><path d="M85.72,26.144l114.803,0" style="fill:none;fill-rule:nonzero;stroke:#231f20;stroke-width:0.5px;"/><path d="M85.72,13.389l114.803,-0" style="fill:none;fill-rule:nonzero;stroke:#231f20;stroke-width:0.5px;"/><path d="M85.72,0.633l114.803,-0" style="fill:none;fill-rule:nonzero;stroke:#231f20;stroke-width:0.5px;"/></g></g></svg>
