<?xml version="1.0" encoding="UTF-8" standalone="no"?><!DOCTYPE svg PUBLIC "-//W3C//DTD SVG 1.1//EN" "http://www.w3.org/Graphics/SVG/1.1/DTD/svg11.dtd"><svg width="100%" height="100%" viewBox="0 0 377 134" version="1.1" xmlns="http://www.w3.org/2000/svg" xmlns:xlink="http://www.w3.org/1999/xlink" xml:space="preserve" xmlns:serif="http://www.serif.com/" style="fill-rule:evenodd;clip-rule:evenodd;stroke-miterlimit:10;"><g><path d="M56.962,90.339l-20.357,8.583" style="fill:none;fill-rule:nonzero;stroke:#231f20;stroke-width:1px;"/><path d="M27.231,107.174l48.099,-48.099l99.198,0l-48.098,48.099l-99.199,-0Z" style="fill:#e6e7e8;fill-opacity:0.7;fill-rule:nonzero;"/><path d="M56.962,90.339l81.431,-34.332" style="fill:none;fill-rule:nonzero;stroke:#231f20;stroke-width:1px;"/><path d="M5.04,127.948l23.545,-0" style="fill:none;fill-rule:nonzero;stroke:#231f20;stroke-width:0.75px;"/><path d="M32.144,127.948l-3.372,-1.162l0,2.323l3.372,-1.161Z" style="fill:#231f20;fill-rule:nonzero;stroke:#231f20;stroke-width:0.75px;"/><path d="M5.04,127.948l4.623,-4.623" style="fill:none;fill-rule:nonzero;stroke:#231f20;stroke-width:0.75px;"/><path d="M12.179,120.808l-3.206,1.563l1.643,1.643l1.563,-3.206Z" style="fill:#231f20;fill-rule:nonzero;stroke:#231f20;stroke-width:0.75px;"/><path d="M5.04,127.948l0,-20.711" style="fill:none;fill-rule:nonzero;stroke:#231f20;stroke-width:0.75px;"/><path d="M5.04,103.678l-1.162,3.372l2.324,0l-1.162,-3.372Z" style="fill:#231f20;fill-rule:nonzero;stroke:#231f20;stroke-width:0.75px;"/><path d="M174.536,33.56l0,25.508l-99.199,-0l0,-25.508l99.199,-0Z" style="fill:none;stroke:#231f20;stroke-width:0.75px;"/><path d="M27.231,107.174l0,-25.508l48.099,-48.099l-0,25.508l-48.099,48.099Z" style="fill:none;fill-rule:nonzero;stroke:#231f20;stroke-width:0.75px;"/><text x="37.396px" y="130.296px" style="font-family:'LucidaGrande', 'Lucida Grande', sans-serif;font-weight:500;font-size:10.909px;fill:#231f20;">x</text><text x="17.068px" y="113.799px" style="font-family:'LucidaGrande', 'Lucida Grande', sans-serif;font-weight:500;font-size:10.909px;fill:#231f20;">y</text><text x="2.264px" y="98.426px" style="font-family:'LucidaGrande', 'Lucida Grande', sans-serif;font-weight:500;font-size:10.909px;fill:#231f20;">z</text><text x="191.384px" y="39.462px" style="font-family:'Georgia', serif;font-size:10.909px;fill:#231f20;">track</text><text x="236.753px" y="130.782px" style="font-family:'LucidaGrande', 'Lucida Grande', sans-serif;font-weight:500;font-size:10.909px;fill:#231f20;">x</text><text x="201.527px" y="93.956px" style="font-family:'LucidaGrande', 'Lucida Grande', sans-serif;font-weight:500;font-size:10.909px;fill:#231f20;">y</text><text x="351.608px" y="58.078px" style="font-family:'Georgia', serif;font-size:10.909px;fill:#231f20;">track</text><path d="M27.231,81.662l48.103,-48.103l99.208,-0l-48.103,48.103l-99.208,-0Z" style="fill:#fff;fill-opacity:0.8;fill-rule:nonzero;"/><path d="M59.8,65.628l8.017,-8.018l16.535,0l-8.018,8.018l-16.534,-0Z" style="fill:#6c748e;fill-rule:nonzero;"/><path d="M76.334,65.628l8.018,-8.018l16.534,0l-8.017,8.018l-16.535,-0Z" style="fill:#53899f;fill-rule:nonzero;"/><path d="M92.869,65.628l8.017,-8.018l16.535,0l-8.018,8.018l-16.534,-0Z" style="fill:#7aac90;fill-rule:nonzero;"/><path d="M117.421,57.61l8.017,-8.017l16.534,0l-8.017,8.017l-16.534,0Z" style="fill:#fddf3f;fill-rule:nonzero;"/><path d="M27.231,81.662l48.103,-48.103l99.208,-0l-48.103,48.103l-99.208,-0Z" style="fill:none;fill-rule:nonzero;stroke:#231f20;stroke-width:0.75px;"/><path d="M43.766,81.662l48.103,-48.103" style="fill:none;fill-rule:nonzero;stroke:#231f20;stroke-width:0.5px;"/><path d="M60.3,81.662l48.103,-48.103" style="fill:none;fill-rule:nonzero;stroke:#231f20;stroke-width:0.5px;"/><path d="M76.835,81.662l48.103,-48.103" style="fill:none;fill-rule:nonzero;stroke:#231f20;stroke-width:0.5px;"/><path d="M93.369,81.662l48.103,-48.103" style="fill:none;fill-rule:nonzero;stroke:#231f20;stroke-width:0.5px;"/><path d="M109.904,81.662l48.103,-48.103" style="fill:none;fill-rule:nonzero;stroke:#231f20;stroke-width:0.5px;"/><path d="M35.248,73.645l99.208,-0" style="fill:none;fill-rule:nonzero;stroke:#231f20;stroke-width:0.5px;"/><path d="M43.265,65.628l99.208,-0" style="fill:none;fill-rule:nonzero;stroke:#231f20;stroke-width:0.5px;"/><path d="M51.283,57.61l99.207,0" style="fill:none;fill-rule:nonzero;stroke:#231f20;stroke-width:0.5px;"/><path d="M59.3,49.593l99.208,0" style="fill:none;fill-rule:nonzero;stroke:#231f20;stroke-width:0.5px;"/><path d="M67.317,41.576l99.208,0" style="fill:none;fill-rule:nonzero;stroke:#231f20;stroke-width:0.5px;"/><path d="M43.265,65.628l8.018,-8.018l16.534,0l-8.017,8.018l-16.535,-0Z" style="fill:none;fill-rule:nonzero;stroke:#ed1c24;stroke-width:1px;"/><path d="M109.403,65.628l8.018,-8.018l16.534,0l-8.017,8.018l-16.535,-0Z" style="fill:none;fill-rule:nonzero;stroke:#ed1c24;stroke-width:1px;"/><path d="M133.955,57.61l8.017,-8.017l16.545,0l-8.018,8.017l-16.544,0Z" style="fill:none;fill-rule:nonzero;stroke:#ed1c24;stroke-width:1px;"/><path d="M56.965,64.826l81.438,-8.821" style="fill:none;fill-rule:nonzero;stroke:#231f20;stroke-width:1px;stroke-dasharray:2.99,2.99;"/><path d="M126.43,81.666l-0,25.508l-99.199,-0l0,-25.508l99.199,-0Z" style="fill:#fff;fill-opacity:0.3;stroke:#231f20;stroke-width:0.75px;"/><path d="M126.445,107.174l-0,-25.508l48.099,-48.099l-0,25.508l-48.099,48.099Z" style="fill:none;fill-rule:nonzero;stroke:#231f20;stroke-width:0.75px;"/><path d="M138.393,56.007l43.836,-18.481" style="fill:none;fill-rule:nonzero;stroke:#231f20;stroke-width:1px;"/><path d="M185.725,36.051l-3.752,0.226l0.97,2.303l2.782,-2.529Z" style="fill:#231f20;fill-rule:nonzero;stroke:#231f20;stroke-width:1px;"/><path d="M204.399,128.434l23.545,0" style="fill:none;fill-rule:nonzero;stroke:#231f20;stroke-width:0.75px;"/><path d="M231.503,128.434l-3.372,-1.162l-0,2.324l3.372,-1.162Z" style="fill:#231f20;fill-rule:nonzero;stroke:#231f20;stroke-width:0.75px;"/><path d="M204.399,128.434l-0,-23.545" style="fill:none;fill-rule:nonzero;stroke:#231f20;stroke-width:0.75px;"/><path d="M204.399,101.33l-1.162,3.372l2.324,-0l-1.162,-3.372Z" style="fill:#231f20;fill-rule:nonzero;stroke:#231f20;stroke-width:0.75px;"/><path d="M324.873,22.134l-0,85.04l-99.214,-0l-0,-85.04l99.214,-0Z" style="fill:#fff;fill-opacity:0.8;"/><path d="M258.73,64.654l-0,14.173l-16.536,0l0,-14.173l16.536,-0Z" style="fill:#6c748e;"/><path d="M275.265,64.654l0,14.173l-16.535,0l-0,-14.173l16.535,-0Z" style="fill:#53899f;"/><path d="M291.801,64.654l-0,14.173l-16.536,0l0,-14.173l16.536,-0Z" style="fill:#7aac90;"/><path d="M308.336,50.48l0,14.174l-16.535,-0l-0,-14.174l16.535,0Z" style="fill:#fddf3f;"/><path d="M324.873,22.134l-0,85.04l-99.214,-0l-0,-85.04l99.214,-0Z" style="fill:none;stroke:#231f20;stroke-width:0.75px;"/><path d="M242.194,107.174l0,-85.04" style="fill:none;fill-rule:nonzero;stroke:#231f20;stroke-width:0.5px;"/><path d="M258.73,107.174l-0,-85.04" style="fill:none;fill-rule:nonzero;stroke:#231f20;stroke-width:0.5px;"/><path d="M275.265,107.174l0,-85.04" style="fill:none;fill-rule:nonzero;stroke:#231f20;stroke-width:0.5px;"/><path d="M291.801,107.174l-0,-85.04" style="fill:none;fill-rule:nonzero;stroke:#231f20;stroke-width:0.5px;"/><path d="M308.336,107.174l0,-85.04" style="fill:none;fill-rule:nonzero;stroke:#231f20;stroke-width:0.5px;"/><path d="M225.659,93.001l99.214,-0" style="fill:none;fill-rule:nonzero;stroke:#231f20;stroke-width:0.5px;"/><path d="M225.659,78.827l99.214,0" style="fill:none;fill-rule:nonzero;stroke:#231f20;stroke-width:0.5px;"/><path d="M225.659,64.654l99.214,-0" style="fill:none;fill-rule:nonzero;stroke:#231f20;stroke-width:0.5px;"/><path d="M225.659,50.48l99.214,0" style="fill:none;fill-rule:nonzero;stroke:#231f20;stroke-width:0.5px;"/><path d="M225.659,36.307l99.214,-0" style="fill:none;fill-rule:nonzero;stroke:#231f20;stroke-width:0.5px;"/><path d="M242.194,64.654l0,14.173l-16.535,0l-0,-14.173l16.535,-0Z" style="fill:none;stroke:#ed1c24;stroke-width:1px;"/><path d="M308.336,64.654l0,14.173l-16.535,0l-0,-14.173l16.535,-0Z" style="fill:none;stroke:#ed1c24;stroke-width:1px;"/><path d="M324.873,50.48l-0,14.174l-16.537,-0l0,-14.174l16.537,0Z" style="fill:none;stroke:#ed1c24;stroke-width:1px;"/><path d="M209.512,83.645l29.045,-6.236" style="fill:none;fill-rule:nonzero;stroke:#231f20;stroke-width:1px;"/><path d="M238.557,77.409l72.614,-15.59" style="fill:none;fill-rule:nonzero;stroke:#231f20;stroke-width:1px;stroke-dasharray:2.99,2.99;"/><path d="M311.171,61.819l30.977,-6.651" style="fill:none;fill-rule:nonzero;stroke:#231f20;stroke-width:1px;"/><path d="M345.859,54.371l-3.73,-0.477l0.525,2.443l3.205,-1.966Z" style="fill:#231f20;fill-rule:nonzero;stroke:#231f20;stroke-width:1px;"/><rect x="136.366" y="5.125" width="8.504" height="5.669" style="fill:none;stroke:#ed1c24;stroke-width:1px;"/><text x="149.377px" y="10.902px" style="font-family:'Georgia', serif;font-size:10.909px;fill:#231f20;">energy below threshold</text></g></svg>
