<?xml version="1.0" encoding="UTF-8" standalone="no"?><!DOCTYPE svg PUBLIC "-//W3C//DTD SVG 1.1//EN" "http://www.w3.org/Graphics/SVG/1.1/DTD/svg11.dtd"><svg width="100%" height="100%" viewBox="0 0 199 199" version="1.1" xmlns="http://www.w3.org/2000/svg" xmlns:xlink="http://www.w3.org/1999/xlink" xml:space="preserve" xmlns:serif="http://www.serif.com/" style="fill-rule:evenodd;clip-rule:evenodd;stroke-miterlimit:10;"><g><clipPath id="_clip1"><rect x="0.14" y="0.211" width="198.425" height="198.425" clip-rule="nonzero"/></clipPath><g clip-path="url(#_clip1)"><path d="M56.403,175.212c1.758,-9.972 -1.939,-20.128 -9.695,-26.637c-6.418,-5.385 -14.893,-7.656 -23.144,-6.202" style="fill:none;fill-rule:nonzero;stroke:#231f20;stroke-width:1px;"/><path d="M84.319,180.134c3.517,-19.944 -3.877,-40.256 -19.39,-53.274c-12.836,-10.77 -29.786,-15.312 -46.287,-12.403" style="fill:none;fill-rule:nonzero;stroke:#231f20;stroke-width:1px;"/><path d="M112.236,185.057c5.275,-29.917 -5.816,-60.385 -29.086,-79.911c-19.254,-16.156 -44.678,-22.969 -69.43,-18.606" style="fill:none;fill-rule:nonzero;stroke:#231f20;stroke-width:1px;"/><path d="M140.152,189.979c7.033,-39.889 -7.754,-80.513 -38.781,-106.548c-25.672,-21.54 -59.571,-30.625 -92.574,-24.807" style="fill:none;fill-rule:nonzero;stroke:#231f20;stroke-width:1px;"/><path d="M168.069,194.901c8.791,-49.861 -9.694,-100.641 -48.477,-133.185c-32.09,-26.925 -74.464,-38.282 -115.717,-31.008" style="fill:none;fill-rule:nonzero;stroke:#231f20;stroke-width:1px;"/><path d="M23.23,181.321c51.32,-38.672 83.833,-97.331 88.957,-155.916" style="fill:none;fill-rule:nonzero;stroke:#8cc63f;stroke-width:1px;"/><path d="M112.518,21.624l-1.554,3.424l2.489,0.218l-0.935,-3.642Z" style="fill:#8cc63f;fill-rule:nonzero;stroke:#8cc63f;stroke-width:1px;"/><text x="100.396px" y="15.703px" style="font-family:'Georgia', serif;font-size:10.909px;fill:#8cc63f;">track</text><path d="M125.759,109.612c-0,-0.825 -0.67,-1.495 -1.495,-1.495c-0.825,0 -1.494,0.67 -1.494,1.495c-0,0.824 0.669,1.494 1.494,1.494c0.825,0 1.495,-0.67 1.495,-1.494Z" style="fill:#d1d3d4;stroke:#6c6e70;stroke-width:1px;"/><path d="M50.812,58.839c-0,-0.825 -0.67,-1.495 -1.494,-1.495c-0.825,0 -1.495,0.67 -1.495,1.495c0,0.824 0.67,1.494 1.495,1.494c0.824,-0 1.494,-0.67 1.494,-1.494Z" style="fill:#d1d3d4;stroke:#6c6e70;stroke-width:1px;"/><path d="M57.982,174.7c-0,-0.825 -0.67,-1.495 -1.495,-1.495c-0.825,0 -1.494,0.67 -1.494,1.495c-0,0.825 0.669,1.494 1.494,1.494c0.825,0 1.495,-0.669 1.495,-1.494Z" style="fill:#d1d3d4;stroke:#6c6e70;stroke-width:1px;"/><path d="M111.419,145.819c0,-0.824 -0.669,-1.494 -1.494,-1.494c-0.825,-0 -1.495,0.67 -1.495,1.494c0,0.825 0.67,1.495 1.495,1.495c0.825,-0 1.494,-0.67 1.494,-1.495Z" style="fill:#d1d3d4;stroke:#6c6e70;stroke-width:1px;"/><path d="M40.287,143.884c-0,-0.825 -0.67,-1.494 -1.495,-1.494c-0.825,-0 -1.494,0.669 -1.494,1.494c-0,0.825 0.669,1.495 1.494,1.495c0.825,-0 1.495,-0.67 1.495,-1.495Z" style="fill:#d1d3d4;stroke:#6c6e70;stroke-width:1px;"/><path d="M135.046,127.659c0,-0.825 -0.67,-1.495 -1.494,-1.495c-0.825,0 -1.495,0.67 -1.495,1.495c0,0.825 0.67,1.494 1.495,1.494c0.824,0 1.494,-0.669 1.494,-1.494Z" style="fill:#d1d3d4;stroke:#6c6e70;stroke-width:1px;"/><path d="M26.65,28.601c0,-0.825 -0.669,-1.494 -1.494,-1.494c-0.825,-0 -1.494,0.669 -1.494,1.494c-0,0.825 0.669,1.495 1.494,1.495c0.825,-0 1.494,-0.67 1.494,-1.495Z" style="fill:#d1d3d4;stroke:#6c6e70;stroke-width:1px;"/><path d="M62.016,61.529c0,-0.825 -0.669,-1.494 -1.494,-1.494c-0.825,-0 -1.494,0.669 -1.494,1.494c-0,0.825 0.669,1.494 1.494,1.494c0.825,0 1.494,-0.669 1.494,-1.494Z" style="fill:#d1d3d4;stroke:#6c6e70;stroke-width:1px;"/><path d="M58.127,173.652c-0,-0.825 -0.67,-1.495 -1.495,-1.495c-0.825,0 -1.494,0.67 -1.494,1.495c-0,0.825 0.669,1.494 1.494,1.494c0.825,0 1.495,-0.669 1.495,-1.494Z" style="fill:#d1d3d4;stroke:#6c6e70;stroke-width:1px;"/><path d="M52.842,153.532c-0,-0.825 -0.67,-1.495 -1.495,-1.495c-0.824,0 -1.494,0.67 -1.494,1.495c-0,0.824 0.67,1.494 1.494,1.494c0.825,-0 1.495,-0.67 1.495,-1.494Z" style="fill:#d1d3d4;stroke:#6c6e70;stroke-width:1px;"/><path d="M85.883,179.715c-0,-0.825 -0.67,-1.495 -1.494,-1.495c-0.825,0 -1.495,0.67 -1.495,1.495c0,0.825 0.67,1.494 1.495,1.494c0.824,0 1.494,-0.669 1.494,-1.494Z" style="fill:#d1d3d4;stroke:#6c6e70;stroke-width:1px;"/><path d="M43.901,145.598c0,-0.825 -0.669,-1.495 -1.494,-1.495c-0.825,0 -1.495,0.67 -1.495,1.495c0,0.825 0.67,1.494 1.495,1.494c0.825,0 1.494,-0.669 1.494,-1.494Z" style="fill:#d1d3d4;stroke:#6c6e70;stroke-width:1px;"/><path d="M83.969,152.993c0,-0.825 -0.669,-1.495 -1.494,-1.495c-0.825,0 -1.494,0.67 -1.494,1.495c-0,0.824 0.669,1.494 1.494,1.494c0.825,-0 1.494,-0.67 1.494,-1.494Z" style="fill:#d1d3d4;stroke:#6c6e70;stroke-width:1px;"/><path d="M72.635,96.723c-0,-0.825 -0.67,-1.495 -1.495,-1.495c-0.824,0 -1.494,0.67 -1.494,1.495c-0,0.825 0.67,1.494 1.494,1.494c0.825,0 1.495,-0.669 1.495,-1.494Z" style="fill:#d1d3d4;stroke:#6c6e70;stroke-width:1px;"/><path d="M102.894,126.525c-0,-0.825 -0.67,-1.494 -1.495,-1.494c-0.824,-0 -1.494,0.669 -1.494,1.494c-0,0.825 0.67,1.495 1.494,1.495c0.825,-0 1.495,-0.67 1.495,-1.495Z" style="fill:#d1d3d4;stroke:#6c6e70;stroke-width:1px;"/><path d="M135.01,75.129c-0,-0.825 -0.67,-1.494 -1.495,-1.494c-0.824,-0 -1.494,0.669 -1.494,1.494c-0,0.825 0.67,1.495 1.494,1.495c0.825,-0 1.495,-0.67 1.495,-1.495Z" style="fill:#d1d3d4;stroke:#6c6e70;stroke-width:1px;"/><path d="M63.227,124.37c-0,-0.825 -0.67,-1.495 -1.495,-1.495c-0.825,0 -1.494,0.67 -1.494,1.495c-0,0.825 0.669,1.494 1.494,1.494c0.825,0 1.495,-0.669 1.495,-1.494Z" style="fill:#d1d3d4;stroke:#6c6e70;stroke-width:1px;"/><path d="M96.871,45.34c-0,-0.824 -0.67,-1.494 -1.495,-1.494c-0.824,-0 -1.494,0.67 -1.494,1.494c-0,0.825 0.67,1.495 1.494,1.495c0.825,-0 1.495,-0.67 1.495,-1.495Z" style="fill:#d1d3d4;stroke:#6c6e70;stroke-width:1px;"/><path d="M46.269,115.99c-0,-0.825 -0.67,-1.495 -1.495,-1.495c-0.825,0 -1.494,0.67 -1.494,1.495c-0,0.825 0.669,1.494 1.494,1.494c0.825,0 1.495,-0.669 1.495,-1.494Z" style="fill:#d1d3d4;stroke:#6c6e70;stroke-width:1px;"/><path d="M86.67,170.774c0,-0.825 -0.669,-1.494 -1.494,-1.494c-0.825,-0 -1.495,0.669 -1.495,1.494c0,0.825 0.67,1.495 1.495,1.495c0.825,-0 1.494,-0.67 1.494,-1.495Z" style="fill:#d1d3d4;stroke:#6c6e70;stroke-width:1px;"/><path d="M81.396,69.233c-0,-0.824 -0.67,-1.494 -1.495,-1.494c-0.824,-0 -1.494,0.67 -1.494,1.494c-0,0.825 0.67,1.495 1.494,1.495c0.825,-0 1.495,-0.67 1.495,-1.495Z" style="fill:#d1d3d4;stroke:#6c6e70;stroke-width:1px;"/><path d="M30.233,141.946c-0,-0.825 -0.67,-1.495 -1.495,-1.495c-0.825,0 -1.494,0.67 -1.494,1.495c-0,0.824 0.669,1.494 1.494,1.494c0.825,-0 1.495,-0.67 1.495,-1.494Z" style="fill:#d1d3d4;stroke:#6c6e70;stroke-width:1px;"/><path d="M77.612,139.545c-0,-0.825 -0.67,-1.494 -1.494,-1.494c-0.825,-0 -1.495,0.669 -1.495,1.494c0,0.825 0.67,1.494 1.495,1.494c0.824,0 1.494,-0.669 1.494,-1.494Z" style="fill:#d1d3d4;stroke:#6c6e70;stroke-width:1px;"/><path d="M132.923,122.766c0,-0.825 -0.669,-1.494 -1.494,-1.494c-0.825,-0 -1.495,0.669 -1.495,1.494c0,0.825 0.67,1.494 1.495,1.494c0.825,0 1.494,-0.669 1.494,-1.494Z" style="fill:#d1d3d4;stroke:#6c6e70;stroke-width:1px;"/><path d="M159.355,112.416c0,-0.825 -0.669,-1.494 -1.494,-1.494c-0.825,-0 -1.495,0.669 -1.495,1.494c0,0.825 0.67,1.495 1.495,1.495c0.825,-0 1.494,-0.67 1.494,-1.495Z" style="fill:#d1d3d4;stroke:#6c6e70;stroke-width:1px;"/><path d="M127.611,67.553c0,-0.824 -0.669,-1.494 -1.494,-1.494c-0.825,-0 -1.495,0.67 -1.495,1.494c0,0.825 0.67,1.495 1.495,1.495c0.825,-0 1.494,-0.67 1.494,-1.495Z" style="fill:#d1d3d4;stroke:#6c6e70;stroke-width:1px;"/><path d="M25.025,85.399c0,-0.825 -0.669,-1.495 -1.494,-1.495c-0.825,0 -1.495,0.67 -1.495,1.495c0,0.824 0.67,1.494 1.495,1.494c0.825,-0 1.494,-0.67 1.494,-1.494Z" style="fill:#d1d3d4;stroke:#6c6e70;stroke-width:1px;"/><path d="M55.792,158.574c-0,-0.824 -0.67,-1.494 -1.495,-1.494c-0.824,0 -1.494,0.67 -1.494,1.494c-0,0.825 0.67,1.495 1.494,1.495c0.825,-0 1.495,-0.67 1.495,-1.495Z" style="fill:#d1d3d4;stroke:#6c6e70;stroke-width:1px;"/><path d="M106.023,50.691c0,-0.825 -0.669,-1.495 -1.494,-1.495c-0.825,0 -1.495,0.67 -1.495,1.495c0,0.825 0.67,1.494 1.495,1.494c0.825,0 1.494,-0.669 1.494,-1.494Z" style="fill:#d1d3d4;stroke:#6c6e70;stroke-width:1px;"/><path d="M158.862,111.33c0,-0.824 -0.67,-1.494 -1.494,-1.494c-0.825,0 -1.495,0.67 -1.495,1.494c0,0.825 0.67,1.495 1.495,1.495c0.824,-0 1.494,-0.67 1.494,-1.495Z" style="fill:#d1d3d4;stroke:#6c6e70;stroke-width:1px;"/><path d="M71.057,95.83c-0,-0.825 -0.67,-1.494 -1.495,-1.494c-0.824,-0 -1.494,0.669 -1.494,1.494c0,0.825 0.67,1.495 1.494,1.495c0.825,-0 1.495,-0.67 1.495,-1.495Z" style="fill:#d1d3d4;stroke:#6c6e70;stroke-width:1px;"/><path d="M155.056,103.627c-0,-0.825 -0.67,-1.494 -1.495,-1.494c-0.824,-0 -1.494,0.669 -1.494,1.494c-0,0.825 0.67,1.494 1.494,1.494c0.825,0 1.495,-0.669 1.495,-1.494Z" style="fill:#d1d3d4;stroke:#6c6e70;stroke-width:1px;"/><path d="M51.961,152.392c0,-0.825 -0.669,-1.495 -1.494,-1.495c-0.825,0 -1.495,0.67 -1.495,1.495c0,0.825 0.67,1.494 1.495,1.494c0.825,0 1.494,-0.669 1.494,-1.494Z" style="fill:#d1d3d4;stroke:#6c6e70;stroke-width:1px;"/><path d="M49.327,87.484c0,-0.825 -0.67,-1.495 -1.494,-1.495c-0.825,0 -1.495,0.67 -1.495,1.495c0,0.825 0.67,1.494 1.495,1.494c0.824,0 1.494,-0.669 1.494,-1.494Z" style="fill:#d1d3d4;stroke:#6c6e70;stroke-width:1px;"/><path d="M69.285,129.435c-0,-0.825 -0.67,-1.495 -1.495,-1.495c-0.824,0 -1.494,0.67 -1.494,1.495c-0,0.825 0.67,1.494 1.494,1.494c0.825,0 1.495,-0.669 1.495,-1.494Z" style="fill:#d1d3d4;stroke:#6c6e70;stroke-width:1px;"/><path d="M86.61,172.934c0,-0.825 -0.669,-1.494 -1.494,-1.494c-0.825,-0 -1.494,0.669 -1.494,1.494c-0,0.825 0.669,1.495 1.494,1.495c0.825,-0 1.494,-0.67 1.494,-1.495Z" style="fill:#d1d3d4;stroke:#6c6e70;stroke-width:1px;"/><path d="M70.19,34.388c-0,-0.824 -0.67,-1.494 -1.495,-1.494c-0.825,0 -1.494,0.67 -1.494,1.494c-0,0.825 0.669,1.495 1.494,1.495c0.825,-0 1.495,-0.67 1.495,-1.495Z" style="fill:#d1d3d4;stroke:#6c6e70;stroke-width:1px;"/><path d="M170.268,190.444c0,-0.825 -0.67,-1.495 -1.494,-1.495c-0.825,0 -1.495,0.67 -1.495,1.495c0,0.825 0.67,1.494 1.495,1.494c0.824,0 1.494,-0.669 1.494,-1.494Z" style="fill:#d1d3d4;stroke:#6c6e70;stroke-width:1px;"/><path d="M99.572,121.418c-0,-0.825 -0.67,-1.495 -1.494,-1.495c-0.825,0 -1.495,0.67 -1.495,1.495c0,0.825 0.67,1.494 1.495,1.494c0.824,0 1.494,-0.669 1.494,-1.494Z" style="fill:#d1d3d4;stroke:#6c6e70;stroke-width:1px;"/><path d="M97.776,118.955c0,-0.825 -0.67,-1.495 -1.494,-1.495c-0.825,0 -1.495,0.67 -1.495,1.495c0,0.825 0.67,1.494 1.495,1.494c0.824,0 1.494,-0.669 1.494,-1.494Z" style="fill:#d1d3d4;stroke:#6c6e70;stroke-width:1px;"/><path d="M73.885,134.425c0,-0.824 -0.669,-1.494 -1.494,-1.494c-0.825,0 -1.495,0.67 -1.495,1.494c0,0.825 0.67,1.495 1.495,1.495c0.825,-0 1.494,-0.67 1.494,-1.495Z" style="fill:#d1d3d4;stroke:#6c6e70;stroke-width:1px;"/><path d="M126.148,110.222c-0,-0.824 -0.67,-1.494 -1.494,-1.494c-0.825,-0 -1.495,0.67 -1.495,1.494c0,0.825 0.67,1.495 1.495,1.495c0.824,-0 1.494,-0.67 1.494,-1.495Z" style="fill:#d1d3d4;stroke:#6c6e70;stroke-width:1px;"/><path d="M102.581,126.014c0,-0.825 -0.67,-1.495 -1.494,-1.495c-0.825,0 -1.495,0.67 -1.495,1.495c0,0.825 0.67,1.494 1.495,1.494c0.824,0 1.494,-0.669 1.494,-1.494Z" style="fill:#d1d3d4;stroke:#6c6e70;stroke-width:1px;"/><path d="M65.525,62.622c0,-0.824 -0.669,-1.494 -1.494,-1.494c-0.825,0 -1.495,0.67 -1.495,1.494c0,0.825 0.67,1.495 1.495,1.495c0.825,-0 1.494,-0.67 1.494,-1.495Z" style="fill:#d1d3d4;stroke:#6c6e70;stroke-width:1px;"/><path d="M86.643,168.481c0,-0.825 -0.669,-1.495 -1.494,-1.495c-0.825,0 -1.494,0.67 -1.494,1.495c-0,0.825 0.669,1.494 1.494,1.494c0.825,0 1.494,-0.669 1.494,-1.494Z" style="fill:#d1d3d4;stroke:#6c6e70;stroke-width:1px;"/><path d="M49.909,150.133c0,-0.825 -0.669,-1.495 -1.494,-1.495c-0.825,0 -1.495,0.67 -1.495,1.495c0,0.824 0.67,1.494 1.495,1.494c0.825,0 1.494,-0.67 1.494,-1.494Z" style="fill:#d1d3d4;stroke:#6c6e70;stroke-width:1px;"/><path d="M28.419,113.621c0,-0.825 -0.669,-1.494 -1.494,-1.494c-0.825,-0 -1.494,0.669 -1.494,1.494c-0,0.825 0.669,1.495 1.494,1.495c0.825,-0 1.494,-0.67 1.494,-1.495Z" style="fill:#d1d3d4;stroke:#6c6e70;stroke-width:1px;"/><path d="M105.384,130.979c-0,-0.825 -0.67,-1.495 -1.494,-1.495c-0.825,0 -1.495,0.67 -1.495,1.495c0,0.824 0.67,1.494 1.495,1.494c0.824,-0 1.494,-0.67 1.494,-1.494Z" style="fill:#d1d3d4;stroke:#6c6e70;stroke-width:1px;"/><path d="M86.602,173.114c-0,-0.825 -0.67,-1.494 -1.495,-1.494c-0.824,-0 -1.494,0.669 -1.494,1.494c0,0.825 0.67,1.495 1.494,1.495c0.825,-0 1.495,-0.67 1.495,-1.495Z" style="fill:#d1d3d4;stroke:#6c6e70;stroke-width:1px;"/><path d="M152.512,99.064c0,-0.825 -0.669,-1.495 -1.494,-1.495c-0.825,0 -1.494,0.67 -1.494,1.495c-0,0.825 0.669,1.494 1.494,1.494c0.825,0 1.494,-0.669 1.494,-1.494Z" style="fill:#d1d3d4;stroke:#6c6e70;stroke-width:1px;"/><path d="M35.95,57.062c-0,-0.825 -0.67,-1.495 -1.494,-1.495c-0.825,0 -1.495,0.67 -1.495,1.495c0,0.824 0.67,1.494 1.495,1.494c0.824,0 1.494,-0.67 1.494,-1.494Z" style="fill:#d1d3d4;stroke:#6c6e70;stroke-width:1px;"/><path d="M58.203,167.65c0,-0.825 -0.669,-1.494 -1.494,-1.494c-0.825,-0 -1.495,0.669 -1.495,1.494c0,0.825 0.67,1.494 1.495,1.494c0.825,0 1.494,-0.669 1.494,-1.494Z" style="fill:#d1d3d4;stroke:#6c6e70;stroke-width:1px;"/><path d="M98.705,46.333c-0,-0.825 -0.67,-1.494 -1.495,-1.494c-0.825,-0 -1.494,0.669 -1.494,1.494c-0,0.825 0.669,1.494 1.494,1.494c0.825,0 1.495,-0.669 1.495,-1.494Z" style="fill:#d1d3d4;stroke:#6c6e70;stroke-width:1px;"/><path d="M140.42,144.618c-0,-0.825 -0.67,-1.495 -1.494,-1.495c-0.825,0 -1.495,0.67 -1.495,1.495c0,0.825 0.67,1.494 1.495,1.494c0.824,0 1.494,-0.669 1.494,-1.494Z" style="fill:#d1d3d4;stroke:#6c6e70;stroke-width:1px;"/><path d="M85.41,158.39c-0,-0.825 -0.67,-1.495 -1.495,-1.495c-0.824,0 -1.494,0.67 -1.494,1.495c-0,0.825 0.67,1.494 1.494,1.494c0.825,0 1.495,-0.669 1.495,-1.494Z" style="fill:#d1d3d4;stroke:#6c6e70;stroke-width:1px;"/><path d="M45.549,115.778c-0,-0.825 -0.67,-1.495 -1.495,-1.495c-0.824,0 -1.494,0.67 -1.494,1.495c-0,0.825 0.67,1.494 1.494,1.494c0.825,0 1.495,-0.669 1.495,-1.494Z" style="fill:#d1d3d4;stroke:#6c6e70;stroke-width:1px;"/><path d="M25.653,142.277c-0,-0.825 -0.67,-1.495 -1.495,-1.495c-0.825,0 -1.494,0.67 -1.494,1.495c-0,0.825 0.669,1.494 1.494,1.494c0.825,0 1.495,-0.669 1.495,-1.494Z" style="fill:#d1d3d4;stroke:#6c6e70;stroke-width:1px;"/><path d="M48.23,148.6c-0,-0.825 -0.67,-1.495 -1.495,-1.495c-0.825,0 -1.494,0.67 -1.494,1.495c-0,0.824 0.669,1.494 1.494,1.494c0.825,0 1.495,-0.67 1.495,-1.494Z" style="fill:#d1d3d4;stroke:#6c6e70;stroke-width:1px;"/><path d="M138.517,137.496c-0,-0.824 -0.67,-1.494 -1.495,-1.494c-0.824,0 -1.494,0.67 -1.494,1.494c-0,0.825 0.67,1.495 1.494,1.495c0.825,-0 1.495,-0.67 1.495,-1.495Z" style="fill:#d1d3d4;stroke:#6c6e70;stroke-width:1px;"/><path d="M30.699,141.954c-0,-0.825 -0.67,-1.495 -1.494,-1.495c-0.825,0 -1.495,0.67 -1.495,1.495c0,0.825 0.67,1.494 1.495,1.494c0.824,0 1.494,-0.669 1.494,-1.494Z" style="fill:#d1d3d4;stroke:#6c6e70;stroke-width:1px;"/><path d="M31.483,56.916c-0,-0.824 -0.67,-1.494 -1.495,-1.494c-0.825,-0 -1.494,0.67 -1.494,1.494c-0,0.825 0.669,1.495 1.494,1.495c0.825,-0 1.495,-0.67 1.495,-1.495Z" style="fill:#d1d3d4;stroke:#6c6e70;stroke-width:1px;"/><path d="M111.462,145.963c-0,-0.824 -0.67,-1.494 -1.494,-1.494c-0.825,-0 -1.495,0.67 -1.495,1.494c0,0.825 0.67,1.495 1.495,1.495c0.824,-0 1.494,-0.67 1.494,-1.495Z" style="fill:#d1d3d4;stroke:#6c6e70;stroke-width:1px;"/><path d="M171.7,168.724c-0,-0.825 -0.67,-1.494 -1.495,-1.494c-0.824,-0 -1.494,0.669 -1.494,1.494c-0,0.825 0.67,1.494 1.494,1.494c0.825,0 1.495,-0.669 1.495,-1.494Z" style="fill:#d1d3d4;stroke:#6c6e70;stroke-width:1px;"/><path d="M44.873,146.171c-0,-0.824 -0.67,-1.494 -1.495,-1.494c-0.824,0 -1.494,0.67 -1.494,1.494c-0,0.825 0.67,1.495 1.494,1.495c0.825,-0 1.495,-0.67 1.495,-1.495Z" style="fill:#d1d3d4;stroke:#6c6e70;stroke-width:1px;"/><path d="M50.151,150.374c-0,-0.825 -0.67,-1.495 -1.495,-1.495c-0.825,0 -1.494,0.67 -1.494,1.495c-0,0.824 0.669,1.494 1.494,1.494c0.825,-0 1.495,-0.67 1.495,-1.494Z" style="fill:#d1d3d4;stroke:#6c6e70;stroke-width:1px;"/><path d="M103.396,49.058c-0,-0.825 -0.67,-1.494 -1.495,-1.494c-0.825,-0 -1.494,0.669 -1.494,1.494c-0,0.825 0.669,1.494 1.494,1.494c0.825,0 1.495,-0.669 1.495,-1.494Z" style="fill:#d1d3d4;stroke:#6c6e70;stroke-width:1px;"/><path d="M40.05,114.499c-0,-0.825 -0.67,-1.494 -1.495,-1.494c-0.825,-0 -1.494,0.669 -1.494,1.494c-0,0.825 0.669,1.495 1.494,1.495c0.825,-0 1.495,-0.67 1.495,-1.495Z" style="fill:#d1d3d4;stroke:#6c6e70;stroke-width:1px;"/><path d="M58.07,60.442c-0,-0.824 -0.67,-1.494 -1.494,-1.494c-0.825,-0 -1.495,0.67 -1.495,1.494c0,0.825 0.67,1.495 1.495,1.495c0.824,-0 1.494,-0.67 1.494,-1.495Z" style="fill:#d1d3d4;stroke:#6c6e70;stroke-width:1px;"/><path d="M60.006,31.778c-0,-0.825 -0.67,-1.494 -1.495,-1.494c-0.825,-0 -1.494,0.669 -1.494,1.494c-0,0.825 0.669,1.495 1.494,1.495c0.825,-0 1.495,-0.67 1.495,-1.495Z" style="fill:#d1d3d4;stroke:#6c6e70;stroke-width:1px;"/><path d="M46.892,147.542c0,-0.825 -0.669,-1.495 -1.494,-1.495c-0.825,0 -1.495,0.67 -1.495,1.495c0,0.825 0.67,1.494 1.495,1.494c0.825,0 1.494,-0.669 1.494,-1.494Z" style="fill:#d1d3d4;stroke:#6c6e70;stroke-width:1px;"/><path d="M143.017,179.119c-0,-0.825 -0.67,-1.495 -1.494,-1.495c-0.825,0 -1.495,0.67 -1.495,1.495c0,0.824 0.67,1.494 1.495,1.494c0.824,0 1.494,-0.67 1.494,-1.494Z" style="fill:#d1d3d4;stroke:#6c6e70;stroke-width:1px;"/><path d="M54.265,155.669c0,-0.825 -0.669,-1.494 -1.494,-1.494c-0.825,-0 -1.495,0.669 -1.495,1.494c0,0.825 0.67,1.495 1.495,1.495c0.825,-0 1.494,-0.67 1.494,-1.495Z" style="fill:#d1d3d4;stroke:#6c6e70;stroke-width:1px;"/><path d="M120.193,101.606c-0,-0.825 -0.67,-1.494 -1.495,-1.494c-0.824,-0 -1.494,0.669 -1.494,1.494c-0,0.825 0.67,1.495 1.494,1.495c0.825,-0 1.495,-0.67 1.495,-1.495Z" style="fill:#d1d3d4;stroke:#6c6e70;stroke-width:1px;"/><path d="M123.996,106.909c-0,-0.825 -0.67,-1.494 -1.495,-1.494c-0.825,-0 -1.494,0.669 -1.494,1.494c-0,0.825 0.669,1.495 1.494,1.495c0.825,-0 1.495,-0.67 1.495,-1.495Z" style="fill:#d1d3d4;stroke:#6c6e70;stroke-width:1px;"/><path d="M69.998,64.204c-0,-0.825 -0.67,-1.495 -1.495,-1.495c-0.825,0 -1.494,0.67 -1.494,1.495c-0,0.825 0.669,1.494 1.494,1.494c0.825,0 1.495,-0.669 1.495,-1.494Z" style="fill:#d1d3d4;stroke:#6c6e70;stroke-width:1px;"/><path d="M103.204,83.723c0,-0.824 -0.669,-1.494 -1.494,-1.494c-0.825,-0 -1.494,0.67 -1.494,1.494c-0,0.825 0.669,1.495 1.494,1.495c0.825,-0 1.494,-0.67 1.494,-1.495Z" style="fill:#d1d3d4;stroke:#6c6e70;stroke-width:1px;"/><path d="M29.314,113.602c-0,-0.825 -0.67,-1.494 -1.494,-1.494c-0.825,-0 -1.495,0.669 -1.495,1.494c0,0.825 0.67,1.495 1.495,1.495c0.824,-0 1.494,-0.67 1.494,-1.495Z" style="fill:#d1d3d4;stroke:#6c6e70;stroke-width:1px;"/><path d="M35.436,57.039c0,-0.825 -0.67,-1.494 -1.494,-1.494c-0.825,-0 -1.495,0.669 -1.495,1.494c0,0.825 0.67,1.495 1.495,1.495c0.824,-0 1.494,-0.67 1.494,-1.495Z" style="fill:#d1d3d4;stroke:#6c6e70;stroke-width:1px;"/><path d="M144.699,87.059c-0,-0.825 -0.67,-1.495 -1.495,-1.495c-0.825,0 -1.494,0.67 -1.494,1.495c-0,0.824 0.669,1.494 1.494,1.494c0.825,0 1.495,-0.67 1.495,-1.494Z" style="fill:#d1d3d4;stroke:#6c6e70;stroke-width:1px;"/><path d="M86.668,169.553c-0,-0.825 -0.67,-1.495 -1.495,-1.495c-0.825,0 -1.494,0.67 -1.494,1.495c-0,0.824 0.669,1.494 1.494,1.494c0.825,0 1.495,-0.67 1.495,-1.494Z" style="fill:#d1d3d4;stroke:#6c6e70;stroke-width:1px;"/><path d="M28.486,170.29l23.923,-15.186l14.013,-26.945l10.842,-27.53l4.454,-30.454l4.417,-29.365" style="fill:none;fill-rule:nonzero;stroke:#726379;stroke-width:1px;"/><path d="M77.264,100.629l16.259,-23.221l13.89,-24.836" style="fill:none;fill-rule:nonzero;stroke:#706f88;stroke-width:1px;"/><path d="M52.409,155.104l25.176,-13.161l20.563,-20.431l25.433,-12.978l21.007,-19.54" style="fill:none;fill-rule:nonzero;stroke:#667892;stroke-width:1px;"/><path d="M77.585,141.943l16.046,-26.317l15.032,-25.513l20.045,-20.044" style="fill:none;fill-rule:nonzero;stroke:#5d8199;stroke-width:1px;"/><path d="M108.663,90.113l10.929,-28.397" style="fill:none;fill-rule:nonzero;stroke:#53899f;stroke-width:1px;"/><path d="M28.486,170.29l20.045,-20.044l22.342,-17.624" style="fill:none;fill-rule:nonzero;stroke:#4e949f;stroke-width:1px;"/><path d="M48.531,150.246l17.891,-22.087" style="fill:none;fill-rule:nonzero;stroke:#65a398;stroke-width:1px;"/><path d="M70.873,132.622l22.758,-16.996l29.95,-7.092" style="fill:none;fill-rule:nonzero;stroke:#91b684;stroke-width:1px;"/><path d="M70.873,132.622l6.391,-31.993" style="fill:none;fill-rule:nonzero;stroke:#c7cc62;stroke-width:1px;"/><path d="M86.316,107.938l22.347,-17.825" style="fill:none;fill-rule:nonzero;stroke:#e5d94f;stroke-width:1px;"/><path d="M86.316,107.938l7.207,-30.53l-7.388,-36.598" style="fill:none;fill-rule:nonzero;stroke:#adc276;stroke-width:1px;"/><path d="M52.409,155.104l18.464,-22.482l15.443,-24.684l12.253,-26.749l8.844,-28.617" style="fill:none;fill-rule:nonzero;stroke:#fddf3f;stroke-width:1px;"/><path d="M50.523,150.246c0,-1.1 -0.893,-1.993 -1.992,-1.993c-1.1,-0 -1.993,0.893 -1.993,1.993c0,1.099 0.893,1.992 1.993,1.992c1.099,0 1.992,-0.893 1.992,-1.992Z" style="fill:#f58038;"/><path d="M68.414,128.159c0,-1.1 -0.892,-1.993 -1.992,-1.993c-1.1,0 -1.993,0.893 -1.993,1.993c0,1.1 0.893,1.992 1.993,1.992c1.1,0 1.992,-0.892 1.992,-1.992Z" style="fill:#f58038;"/><path d="M79.256,100.629c0,-1.1 -0.892,-1.993 -1.992,-1.993c-1.1,0 -1.993,0.893 -1.993,1.993c0,1.099 0.893,1.992 1.993,1.992c1.1,0 1.992,-0.893 1.992,-1.992Z" style="fill:#f58038;"/><path d="M83.711,70.175c-0,-1.1 -0.893,-1.993 -1.993,-1.993c-1.1,-0 -1.992,0.893 -1.992,1.993c-0,1.099 0.892,1.992 1.992,1.992c1.1,0 1.993,-0.893 1.993,-1.992Z" style="fill:#f58038;"/><path d="M88.128,40.81c-0,-1.1 -0.893,-1.993 -1.993,-1.993c-1.1,-0 -1.992,0.893 -1.992,1.993c-0,1.099 0.892,1.992 1.992,1.992c1.1,0 1.993,-0.893 1.993,-1.992Z" style="fill:#f58038;"/><path d="M79.577,141.943c0,-1.1 -0.893,-1.993 -1.992,-1.993c-1.1,0 -1.993,0.893 -1.993,1.993c0,1.1 0.893,1.992 1.993,1.992c1.099,0 1.992,-0.892 1.992,-1.992Z" style="fill:#f58038;"/><path d="M95.623,115.626c0,-1.099 -0.893,-1.992 -1.992,-1.992c-1.1,-0 -1.993,0.893 -1.993,1.992c0,1.1 0.893,1.993 1.993,1.993c1.099,0 1.992,-0.893 1.992,-1.993Z" style="fill:#f58038;"/><path d="M110.656,90.113c0,-1.1 -0.893,-1.993 -1.993,-1.993c-1.099,0 -1.992,0.893 -1.992,1.993c-0,1.1 0.893,1.992 1.992,1.992c1.1,0 1.993,-0.892 1.993,-1.992Z" style="fill:#f58038;"/><path d="M130.7,70.069c0,-1.1 -0.893,-1.993 -1.992,-1.993c-1.1,-0 -1.993,0.893 -1.993,1.993c0,1.099 0.893,1.992 1.993,1.992c1.099,0 1.992,-0.893 1.992,-1.992Z" style="fill:#f58038;"/><path d="M100.14,121.512c0,-1.099 -0.893,-1.992 -1.992,-1.992c-1.1,-0 -1.993,0.893 -1.993,1.992c0,1.1 0.893,1.993 1.993,1.993c1.099,0 1.992,-0.893 1.992,-1.993Z" style="fill:#f58038;"/><path d="M125.573,108.534c0,-1.1 -0.892,-1.993 -1.992,-1.993c-1.1,0 -1.993,0.893 -1.993,1.993c0,1.099 0.893,1.992 1.993,1.992c1.1,0 1.992,-0.893 1.992,-1.992Z" style="fill:#f58038;"/><path d="M146.581,88.994c-0,-1.099 -0.893,-1.992 -1.993,-1.992c-1.099,-0 -1.992,0.893 -1.992,1.992c-0,1.1 0.893,1.993 1.992,1.993c1.1,-0 1.993,-0.893 1.993,-1.993Z" style="fill:#f58038;"/><path d="M121.585,61.716c-0,-1.099 -0.893,-1.992 -1.993,-1.992c-1.1,-0 -1.993,0.893 -1.993,1.992c0,1.1 0.893,1.993 1.993,1.993c1.1,-0 1.993,-0.893 1.993,-1.993Z" style="fill:#f58038;"/><path d="M95.515,77.408c0,-1.099 -0.892,-1.992 -1.992,-1.992c-1.1,-0 -1.993,0.893 -1.993,1.992c0,1.1 0.893,1.993 1.993,1.993c1.1,-0 1.992,-0.893 1.992,-1.993Z" style="fill:#f58038;"/><path d="M54.402,155.104c-0,-1.1 -0.893,-1.993 -1.993,-1.993c-1.1,0 -1.993,0.893 -1.993,1.993c0,1.099 0.893,1.992 1.993,1.992c1.1,0 1.993,-0.893 1.993,-1.992Z" style="fill:#8cc63f;"/><path d="M72.866,132.622c0,-1.1 -0.893,-1.993 -1.993,-1.993c-1.099,0 -1.992,0.893 -1.992,1.993c-0,1.1 0.893,1.992 1.992,1.992c1.1,0 1.993,-0.892 1.993,-1.992Z" style="fill:#8cc63f;"/><path d="M88.309,107.938c-0,-1.099 -0.893,-1.992 -1.993,-1.992c-1.1,-0 -1.992,0.893 -1.992,1.992c-0,1.1 0.892,1.993 1.992,1.993c1.1,-0 1.993,-0.893 1.993,-1.993Z" style="fill:#8cc63f;"/><path d="M100.562,81.189c-0,-1.1 -0.893,-1.993 -1.993,-1.993c-1.1,0 -1.992,0.893 -1.992,1.993c-0,1.099 0.892,1.992 1.992,1.992c1.1,0 1.993,-0.893 1.993,-1.992Z" style="fill:#8cc63f;"/><path d="M109.405,52.572c0,-1.1 -0.893,-1.993 -1.992,-1.993c-1.1,0 -1.993,0.893 -1.993,1.993c0,1.099 0.893,1.992 1.993,1.992c1.099,0 1.992,-0.893 1.992,-1.992Z" style="fill:#8cc63f;"/></g></g></svg>
