<?xml version="1.0" encoding="UTF-8" standalone="no"?><!DOCTYPE svg PUBLIC "-//W3C//DTD SVG 1.1//EN" "http://www.w3.org/Graphics/SVG/1.1/DTD/svg11.dtd"><svg width="100%" height="100%" viewBox="0 0 221 167" version="1.1" xmlns="http://www.w3.org/2000/svg" xmlns:xlink="http://www.w3.org/1999/xlink" xml:space="preserve" xmlns:serif="http://www.serif.com/" style="fill-rule:evenodd;clip-rule:evenodd;stroke-miterlimit:10;"><g><clipPath id="_clip1"><rect x="0.122" y="0.04" width="220.219" height="166.008" clip-rule="nonzero"/></clipPath><g clip-path="url(#_clip1)"><path d="M0.619,23.546l80.868,29.408" style="fill:none;fill-rule:nonzero;stroke:#00aeef;stroke-width:1px;"/><path d="M0.619,23.546l145.037,88.713" style="fill:none;fill-rule:nonzero;stroke:#8cc63f;stroke-width:1px;"/><path d="M48.094,105.37l-0,-73.69l66.786,-31.143l0,73.691l-66.786,31.142Z" style="fill:#d1d3d4;fill-opacity:0.8;fill-rule:nonzero;stroke:#939598;stroke-width:1px;"/><path d="M83.834,51.859c0,-1.43 -1.051,-2.1 -2.347,-1.495c-1.296,0.604 -2.347,2.254 -2.347,3.684c-0,1.431 1.051,2.1 2.347,1.496c1.296,-0.605 2.347,-2.254 2.347,-3.685Z" style="fill:#00aeef;fill-rule:nonzero;"/><path d="M87.355,50.217c0,-2.86 -2.627,-3.954 -5.868,-2.443c-3.241,1.511 -5.868,5.055 -5.868,7.916c-0,2.861 2.627,3.955 5.868,2.444c3.241,-1.512 5.868,-5.056 5.868,-7.917Z" style="fill:#00aeef;fill-opacity:0.4;fill-rule:nonzero;stroke:#00aeef;stroke-width:1px;"/><path d="M68.807,80.974c0,-1.431 -1.051,-2.1 -2.347,-1.496c-1.296,0.605 -2.347,2.254 -2.347,3.685c-0,1.43 1.051,2.1 2.347,1.495c1.296,-0.604 2.347,-2.254 2.347,-3.684Z" style="fill:#f58038;fill-rule:nonzero;"/><path d="M78.196,76.595c0,-5.721 -5.254,-7.909 -11.736,-4.887c-6.482,3.023 -11.736,10.111 -11.736,15.833c-0,5.721 5.254,7.909 11.736,4.887c6.482,-3.023 11.736,-10.111 11.736,-15.833Z" style="fill:#f58038;fill-opacity:0.4;fill-rule:nonzero;stroke:#f58038;stroke-width:1px;"/><path d="M77.156,66.027c-0,-1.43 -1.051,-2.1 -2.348,-1.495c-1.296,0.604 -2.347,2.254 -2.347,3.684c0,1.431 1.051,2.1 2.347,1.496c1.297,-0.605 2.348,-2.255 2.348,-3.685Z" style="fill:#8cc63f;fill-rule:nonzero;"/><path d="M83.024,63.291c-0,-3.576 -3.678,-4.76 -8.216,-2.644c-4.537,2.116 -8.215,6.729 -8.215,10.305c-0,3.576 3.678,4.76 8.215,2.644c4.538,-2.115 8.216,-6.729 8.216,-10.305Z" style="fill:#8cc63f;fill-opacity:0.4;fill-rule:nonzero;stroke:#8cc63f;stroke-width:1px;"/><path d="M69.868,102.586l-28.453,13.268l0,-31.394" style="fill:none;fill-rule:nonzero;stroke:#231f20;stroke-width:1px;"/><path d="M73.307,100.982l-3.742,0.366l1.056,2.265l2.686,-2.631Z" style="fill:#231f20;fill-rule:nonzero;stroke:#231f20;stroke-width:1px;"/><path d="M41.415,80.665l-1.249,3.546l2.499,-0l-1.25,-3.546Z" style="fill:#231f20;fill-rule:nonzero;stroke:#231f20;stroke-width:1px;"/><g transform="matrix(1,0,0,1,-166.146,-323.832)"><text x="245.089px" y="435.824px" style="font-family:'LucidaGrande', 'Lucida Grande', sans-serif;font-weight:500;font-size:10.909px;fill:#231f20;">l</text><text x="248.344px" y="437.46px" style="font-family:'Monaco';font-size:7.97px;fill:#231f20;">0</text></g><g transform="matrix(1,0,0,1,-166.146,-323.832)"><text x="195.441px" y="405.81px" style="font-family:'LucidaGrande', 'Lucida Grande', sans-serif;font-weight:500;font-size:10.909px;fill:#231f20;">l</text><text x="198.696px" y="407.447px" style="font-family:'Monaco';font-size:7.97px;fill:#231f20;">1</text></g><path d="M74.807,67.124l58.922,6.214" style="fill:none;fill-rule:nonzero;stroke:#00aeef;stroke-width:1px;"/><path d="M74.807,67.124l57.252,23.575" style="fill:none;fill-rule:nonzero;stroke:#8cc63f;stroke-width:1px;"/><path d="M95.326,135.46l0,-73.69l66.787,-31.143l-0,73.691l-66.787,31.142Z" style="fill:#d1d3d4;fill-opacity:0.8;fill-rule:nonzero;stroke:#939598;stroke-width:1px;"/><path d="M136.075,72.245c0,-1.431 -1.05,-2.1 -2.347,-1.496c-1.296,0.605 -2.347,2.254 -2.347,3.685c-0,1.43 1.051,2.1 2.347,1.495c1.297,-0.604 2.347,-2.254 2.347,-3.684Z" style="fill:#00aeef;fill-rule:nonzero;"/><path d="M139.596,70.603c0,-5.722 -2.627,-9.135 -5.868,-7.623c-3.241,1.511 -5.868,7.374 -5.868,13.096c-0,5.721 2.627,9.134 5.868,7.623c3.241,-1.511 5.868,-7.375 5.868,-13.096Z" style="fill:#00aeef;fill-opacity:0.4;fill-rule:nonzero;stroke:#00aeef;stroke-width:1px;"/><path d="M131.067,100.372c-0,-1.43 -1.051,-2.1 -2.348,-1.495c-1.296,0.604 -2.347,2.254 -2.347,3.684c0,1.43 1.051,2.1 2.347,1.495c1.297,-0.604 2.348,-2.254 2.348,-3.684Z" style="fill:#f58038;fill-rule:nonzero;"/><path d="M132.24,99.825c0,-2.861 -1.576,-4.445 -3.521,-3.538c-1.944,0.906 -3.521,3.96 -3.521,6.821c0,2.861 1.577,4.445 3.521,3.538c1.945,-0.906 3.521,-3.961 3.521,-6.821Z" style="fill:#f58038;fill-opacity:0.4;fill-rule:nonzero;stroke:#f58038;stroke-width:1px;"/><path d="M134.406,89.603c0,-1.43 -1.051,-2.1 -2.347,-1.495c-1.297,0.604 -2.347,2.254 -2.347,3.684c-0,1.431 1.05,2.1 2.347,1.496c1.296,-0.605 2.347,-2.254 2.347,-3.685Z" style="fill:#8cc63f;fill-rule:nonzero;"/><path d="M136.753,88.509c0,-3.576 -2.101,-5.495 -4.694,-4.286c-2.593,1.209 -4.695,5.088 -4.695,8.664c0,3.576 2.102,5.495 4.695,4.286c2.593,-1.209 4.694,-5.088 4.694,-8.664Z" style="fill:#8cc63f;fill-opacity:0.4;fill-rule:nonzero;stroke:#8cc63f;stroke-width:1px;"/><path d="M132.059,90.699l53.912,6.707" style="fill:none;fill-rule:nonzero;stroke:#00aeef;stroke-width:1px;"/><path d="M132.059,90.699l33.873,19.737" style="fill:none;fill-rule:nonzero;stroke:#8cc63f;stroke-width:1px;"/><path d="M142.559,165.551l-0,-73.691l66.786,-31.143l0,73.691l-66.786,31.143Z" style="fill:#d1d3d4;fill-opacity:0.8;fill-rule:nonzero;stroke:#939598;stroke-width:1px;"/><path d="M188.317,96.314c0,-1.43 -1.051,-2.1 -2.347,-1.495c-1.296,0.604 -2.347,2.254 -2.347,3.684c-0,1.431 1.051,2.1 2.347,1.496c1.296,-0.605 2.347,-2.254 2.347,-3.685Z" style="fill:#00aeef;fill-rule:nonzero;"/><path d="M195.359,93.031c0,-6.437 -4.204,-9.695 -9.389,-7.277c-5.186,2.418 -9.389,9.596 -9.389,16.033c-0,6.437 4.203,9.695 9.389,7.276c5.185,-2.418 9.389,-9.596 9.389,-16.032Z" style="fill:#00aeef;fill-opacity:0.4;fill-rule:nonzero;stroke:#00aeef;stroke-width:1px;"/><path d="M158.263,117.698c0,-1.431 -1.051,-2.1 -2.347,-1.496c-1.297,0.605 -2.348,2.254 -2.348,3.685c0,1.43 1.051,2.1 2.348,1.495c1.296,-0.604 2.347,-2.254 2.347,-3.684Z" style="fill:#f58038;fill-rule:nonzero;"/><path d="M162.958,115.508c-0,-2.86 -3.153,-3.709 -7.042,-1.896c-3.889,1.814 -7.042,5.603 -7.042,8.464c-0,2.861 3.153,3.709 7.042,1.896c3.889,-1.814 7.042,-5.603 7.042,-8.464Z" style="fill:#f58038;fill-opacity:0.4;fill-rule:nonzero;stroke:#f58038;stroke-width:1px;"/><path d="M168.281,109.342c0,-1.43 -1.051,-2.1 -2.347,-1.495c-1.297,0.604 -2.347,2.254 -2.347,3.684c-0,1.43 1.05,2.1 2.347,1.495c1.296,-0.604 2.347,-2.254 2.347,-3.684Z" style="fill:#8cc63f;fill-rule:nonzero;"/><path d="M170.628,108.247c0,-3.576 -2.101,-5.494 -4.694,-4.285c-2.593,1.209 -4.695,5.088 -4.695,8.664c0,3.576 2.102,5.494 4.695,4.285c2.593,-1.209 4.694,-5.088 4.694,-8.664Z" style="fill:#8cc63f;fill-opacity:0.4;fill-rule:nonzero;stroke:#8cc63f;stroke-width:1px;"/><path d="M165.932,110.436l48.789,17.742" style="fill:none;fill-rule:nonzero;stroke:#8cc63f;stroke-width:1px;"/><path d="M218.288,129.475l-2.906,-2.386l-0.854,2.349l3.76,0.037Z" style="fill:#8cc63f;fill-rule:nonzero;stroke:#8cc63f;stroke-width:1px;"/></g></g></svg>
