<?xml version="1.0" encoding="UTF-8" standalone="no"?><!DOCTYPE svg PUBLIC "-//W3C//DTD SVG 1.1//EN" "http://www.w3.org/Graphics/SVG/1.1/DTD/svg11.dtd"><svg width="100%" height="100%" viewBox="0 0 210 144" version="1.1" xmlns="http://www.w3.org/2000/svg" xmlns:xlink="http://www.w3.org/1999/xlink" xml:space="preserve" xmlns:serif="http://www.serif.com/" style="fill-rule:evenodd;clip-rule:evenodd;stroke-miterlimit:10;"><g><clipPath id="_clip1"><rect x="0.156" y="0.105" width="209.416" height="142.743" clip-rule="nonzero"/></clipPath><g clip-path="url(#_clip1)"><path d="M0.154,82.502l79.901,29.081l60.363,-42.266l-79.9,-29.081l-60.364,42.266Z" style="fill:#e6e7e8;fill-rule:nonzero;"/><path d="M56.97,71.063l40.813,-28.578" style="fill:none;fill-rule:nonzero;stroke:#231f20;stroke-width:1px;"/><path d="M100.892,40.308l-3.622,1.011l1.434,2.047l2.188,-3.058Z" style="fill:#231f20;fill-rule:nonzero;stroke:#231f20;stroke-width:1px;"/><path d="M56.97,71.063l-0,-45.572" style="fill:none;fill-rule:nonzero;stroke:#231f20;stroke-width:1px;"/><path d="M56.97,21.696l-1.25,3.546l2.499,-0l-1.249,-3.546Z" style="fill:#231f20;fill-rule:nonzero;stroke:#231f20;stroke-width:1px;"/><path d="M56.97,71.063l101.426,36.917" style="fill:none;fill-rule:nonzero;stroke:#231f20;stroke-width:1px;"/><path d="M161.962,109.278l-2.904,-2.387l-0.855,2.348l3.759,0.039Z" style="fill:#231f20;fill-rule:nonzero;stroke:#231f20;stroke-width:1px;"/><path d="M56.97,71.063l-53.275,-19.391" style="fill:none;fill-rule:nonzero;stroke:#231f20;stroke-width:1px;"/><path d="M132.881,74.604c-0,-21.132 -10.135,-31.166 -22.637,-22.412c-12.501,8.753 -22.636,32.98 -22.636,54.111c0,21.132 10.135,31.166 22.636,22.413c12.502,-8.754 22.637,-32.98 22.637,-54.112Z" style="fill:#00aeef;fill-opacity:0.2;fill-rule:nonzero;stroke:#231f20;stroke-width:1px;stroke-dasharray:2.99,2.99;"/><path d="M110.244,90.454l-7.742,-30.534" style="fill:none;fill-rule:nonzero;stroke:#231f20;stroke-width:1px;"/><path d="M41.879,81.629l53.267,19.388" style="fill:none;fill-rule:nonzero;stroke:#231f20;stroke-width:1px;"/><path d="M110.237,90.45l-15.091,10.567" style="fill:none;fill-rule:nonzero;stroke:#231f20;stroke-width:1px;stroke-dasharray:2.99,2.99;"/><path d="M56.97,71.063l-15.091,10.566" style="fill:none;fill-rule:nonzero;stroke:#231f20;stroke-width:1px;stroke-dasharray:2.99,2.99;"/><text x="106.383px" y="35.225px" style="font-family:'LucidaGrande', 'Lucida Grande', sans-serif;font-weight:500;font-size:10.909px;fill:#231f20;">x</text><text x="54.1px" y="13.785px" style="font-family:'LucidaGrande', 'Lucida Grande', sans-serif;font-weight:500;font-size:10.909px;fill:#231f20;">y</text><text x="167.653px" y="112.193px" style="font-family:'LucidaGrande', 'Lucida Grande', sans-serif;font-weight:500;font-size:10.909px;fill:#231f20;">z</text><g transform="matrix(1,0,0,1,-171.514,-352.56)"><text x="282.022px" y="430.717px" style="font-family:'LucidaGrande', 'Lucida Grande', sans-serif;font-weight:500;font-size:10.909px;fill:#231f20;">d</text><text x="287.7px" y="432.353px" style="font-family:'Monaco';font-size:7.97px;fill:#231f20;">0</text></g><g transform="matrix(1,0,0,1,-171.514,-352.56)"><text x="226.087px" y="452.714px" style="font-family:'LucidaGrande', 'Lucida Grande', sans-serif;font-weight:500;font-size:10.909px;fill:#231f20;">z</text><text x="231.161px" y="454.35px" style="font-family:'Monaco';font-size:7.97px;fill:#231f20;">0</text></g><path d="M68.514,142.351c4.851,-34.519 11.582,-55.728 33.988,-82.431" style="fill:none;fill-rule:nonzero;stroke:#f58038;stroke-width:1px;"/><path d="M102.502,59.92c16.98,-18.857 37.801,-20.922 57.423,-17.462" style="fill:none;fill-rule:nonzero;stroke:#f58038;stroke-width:1px;"/><path d="M163.662,43.117l-3.275,-1.846l-0.434,2.461l3.709,-0.615Z" style="fill:#f58038;fill-rule:nonzero;stroke:#f58038;stroke-width:1px;"/><path d="M102.502,59.92l34.288,-38.08" style="fill:none;fill-rule:nonzero;stroke:#00aeef;stroke-width:1px;"/><path d="M139.329,19.02l-3.301,1.799l1.857,1.672l1.444,-3.471Z" style="fill:#00aeef;fill-rule:nonzero;stroke:#00aeef;stroke-width:1px;"/><text x="169.427px" y="46.345px" style="font-family:'Georgia', serif;font-size:10.909px;fill:#f58038;">particle</text><text x="144.571px" y="11.535px" style="font-family:'LucidaGrande', 'Lucida Grande', sans-serif;font-weight:500;font-size:10.909px;fill:#00aeef;">p<tspan x="144.659px " y="11.535px ">~</tspan></text><g transform="matrix(1,0,0,1,-171.514,-352.56)"><text x="265.49px" y="405.467px" style="font-family:'LucidaGrande', 'Lucida Grande', sans-serif;font-weight:500;font-size:10.909px;fill:#8cc63f;">~</text><text x="266.413px" y="408.346px" style="font-family:'LucidaGrande', 'Lucida Grande', sans-serif;font-weight:500;font-size:10.909px;fill:#8cc63f;">l</text></g><path d="M104.495,59.92c-0,-1.1 -0.893,-1.993 -1.993,-1.993c-1.1,0 -1.992,0.893 -1.992,1.993c-0,1.1 0.892,1.992 1.992,1.992c1.1,0 1.993,-0.892 1.993,-1.992Z" style="fill:#8cc63f;"/><path d="M56.97,71.063l45.532,-11.143" style="fill:none;fill-rule:nonzero;stroke:#8cc63f;stroke-width:1px;stroke-dasharray:2.99,2.99;"/></g></g></svg>
