<?xml version="1.0" encoding="UTF-8" standalone="no"?><!DOCTYPE svg PUBLIC "-//W3C//DTD SVG 1.1//EN" "http://www.w3.org/Graphics/SVG/1.1/DTD/svg11.dtd"><svg width="100%" height="100%" viewBox="0 0 309 163" version="1.1" xmlns="http://www.w3.org/2000/svg" xmlns:xlink="http://www.w3.org/1999/xlink" xml:space="preserve" xmlns:serif="http://www.serif.com/" style="fill-rule:evenodd;clip-rule:evenodd;stroke-miterlimit:10;"><g><clipPath id="_clip1"><rect x="0.201" y="0.117" width="307.962" height="162.608" clip-rule="nonzero"/></clipPath><g clip-path="url(#_clip1)"><path d="M278.754,114.566c-26.275,-13.615 -40.71,-21.841 -74.999,-28.493" style="fill:none;fill-rule:nonzero;stroke:#8cc63f;stroke-width:1px;"/><path d="M292.36,97.558c-15.121,-17.459 -22.714,-27.954 -33.832,-48.059" style="fill:none;fill-rule:nonzero;stroke:#f58038;stroke-width:1px;"/><path d="M41.491,140.079l37.069,-0" style="fill:none;fill-rule:nonzero;stroke:#231f20;stroke-width:1px;"/><path d="M82.355,140.079l-3.546,-1.25l-0,2.499l3.546,-1.249Z" style="fill:#231f20;fill-rule:nonzero;stroke:#231f20;stroke-width:1px;"/><path d="M41.491,140.079l0,-37.069" style="fill:none;fill-rule:nonzero;stroke:#231f20;stroke-width:1px;"/><path d="M41.491,99.215l-1.249,3.546l2.499,-0l-1.25,-3.546Z" style="fill:#231f20;fill-rule:nonzero;stroke:#231f20;stroke-width:1px;"/><path d="M41.491,140.079l-22.846,8.315" style="fill:none;fill-rule:nonzero;stroke:#231f20;stroke-width:1px;"/><path d="M15.079,149.692l3.759,-0.039l-0.854,-2.348l-2.905,2.387Z" style="fill:#231f20;fill-rule:nonzero;stroke:#231f20;stroke-width:1px;"/><path d="M43.484,140.079c-0,-1.1 -0.893,-1.993 -1.993,-1.993c-1.1,0 -1.992,0.893 -1.992,1.993c-0,1.099 0.892,1.992 1.992,1.992c1.1,0 1.993,-0.893 1.993,-1.992Z" style="fill:#231f20;"/><path d="M147.792,118.819l68.032,-85.041l91.843,-8.504l-68.032,85.04l-91.843,8.505Z" style="fill:#dcddde;fill-rule:nonzero;stroke:#231f20;stroke-width:1px;"/><path d="M147.792,118.819l68.032,-85.041" style="fill:none;fill-rule:nonzero;stroke:#231f20;stroke-width:0.5px;"/><path d="M156.976,117.968l68.032,-85.04" style="fill:none;fill-rule:nonzero;stroke:#231f20;stroke-width:0.5px;"/><path d="M166.16,117.118l68.032,-85.041" style="fill:none;fill-rule:nonzero;stroke:#231f20;stroke-width:0.5px;"/><path d="M175.344,116.267l68.032,-85.04" style="fill:none;fill-rule:nonzero;stroke:#231f20;stroke-width:0.5px;"/><path d="M184.528,115.417l68.033,-85.041" style="fill:none;fill-rule:nonzero;stroke:#231f20;stroke-width:0.5px;"/><path d="M193.713,114.566l68.032,-85.04" style="fill:none;fill-rule:nonzero;stroke:#231f20;stroke-width:0.5px;"/><path d="M202.897,113.716l68.032,-85.041" style="fill:none;fill-rule:nonzero;stroke:#231f20;stroke-width:0.5px;"/><path d="M212.081,112.865l68.032,-85.04" style="fill:none;fill-rule:nonzero;stroke:#231f20;stroke-width:0.5px;"/><path d="M221.265,112.015l68.032,-85.04" style="fill:none;fill-rule:nonzero;stroke:#231f20;stroke-width:0.5px;"/><path d="M230.449,111.165l68.033,-85.041" style="fill:none;fill-rule:nonzero;stroke:#231f20;stroke-width:0.5px;"/><path d="M239.634,110.314l68.032,-85.04" style="fill:none;fill-rule:nonzero;stroke:#231f20;stroke-width:0.5px;"/><path d="M147.792,118.819l91.843,-8.505" style="fill:none;fill-rule:nonzero;stroke:#231f20;stroke-width:0.5px;"/><path d="M154.595,110.315l91.843,-8.505" style="fill:none;fill-rule:nonzero;stroke:#231f20;stroke-width:0.5px;"/><path d="M161.398,101.811l91.843,-8.505" style="fill:none;fill-rule:nonzero;stroke:#231f20;stroke-width:0.5px;"/><path d="M168.201,93.307l91.843,-8.505" style="fill:none;fill-rule:nonzero;stroke:#231f20;stroke-width:0.5px;"/><path d="M175.004,84.803l91.843,-8.505" style="fill:none;fill-rule:nonzero;stroke:#231f20;stroke-width:0.5px;"/><path d="M181.807,76.299l91.843,-8.505" style="fill:none;fill-rule:nonzero;stroke:#231f20;stroke-width:0.5px;"/><path d="M188.61,67.795l91.844,-8.504" style="fill:none;fill-rule:nonzero;stroke:#231f20;stroke-width:0.5px;"/><path d="M195.413,59.291l91.844,-8.504" style="fill:none;fill-rule:nonzero;stroke:#231f20;stroke-width:0.5px;"/><path d="M202.216,50.787l91.844,-8.504" style="fill:none;fill-rule:nonzero;stroke:#231f20;stroke-width:0.5px;"/><path d="M209.02,42.283l91.843,-8.504" style="fill:none;fill-rule:nonzero;stroke:#231f20;stroke-width:0.5px;"/><path d="M215.823,33.779l91.843,-8.504" style="fill:none;fill-rule:nonzero;stroke:#231f20;stroke-width:0.5px;"/><path d="M133.797,128.173c-0,-1.1 -0.893,-1.993 -1.993,-1.993c-1.099,0 -1.992,0.893 -1.992,1.993c-0,1.1 0.893,1.992 1.992,1.992c1.1,0 1.993,-0.892 1.993,-1.992Z" style="fill:#231f20;"/><path d="M131.804,128.173l71.43,-89.288" style="fill:none;fill-rule:nonzero;stroke:#231f20;stroke-width:1px;"/><path d="M205.605,35.922l-3.191,1.988l1.951,1.561l1.24,-3.549Z" style="fill:#231f20;fill-rule:nonzero;stroke:#231f20;stroke-width:1px;"/><path d="M131.804,128.173l95.6,-8.853" style="fill:none;fill-rule:nonzero;stroke:#231f20;stroke-width:1px;"/><path d="M231.182,118.971l-3.645,-0.918l0.23,2.488l3.415,-1.57Z" style="fill:#231f20;fill-rule:nonzero;stroke:#231f20;stroke-width:1px;"/><path d="M131.804,128.173l-16.093,-15.776" style="fill:none;fill-rule:nonzero;stroke:#231f20;stroke-width:1px;"/><path d="M113.001,109.74l1.657,3.375l1.75,-1.785l-3.407,-1.59Z" style="fill:#231f20;fill-rule:nonzero;stroke:#231f20;stroke-width:1px;"/><path d="M186.569,91.606l6.803,-8.504l9.185,-0.85l-6.804,8.503l-9.184,0.851Z" style="fill:#aed476;fill-rule:nonzero;stroke:#86ac52;stroke-width:1px;"/><path d="M188.95,99.259l6.803,-8.504l9.185,-0.85l-6.803,8.504l-9.185,0.85Z" style="fill:#aed476;fill-rule:nonzero;stroke:#86ac52;stroke-width:1px;"/><path d="M195.753,90.755l6.804,-8.503l9.184,-0.851l-6.803,8.504l-9.185,0.85Z" style="fill:#aed476;fill-rule:nonzero;stroke:#86ac52;stroke-width:1px;"/><path d="M202.557,82.252l6.803,-8.504l9.184,-0.851l-6.803,8.504l-9.184,0.851Z" style="fill:#aed476;fill-rule:nonzero;stroke:#86ac52;stroke-width:1px;"/><path d="M204.938,89.905l6.803,-8.504l9.184,-0.85l-6.803,8.504l-9.184,0.85Z" style="fill:#aed476;fill-rule:nonzero;stroke:#86ac52;stroke-width:1px;"/><path d="M211.741,81.401l6.803,-8.504l9.184,-0.85l-6.803,8.504l-9.184,0.85Z" style="fill:#aed476;fill-rule:nonzero;stroke:#86ac52;stroke-width:1px;"/><path d="M243.715,62.692l6.804,-8.504l9.184,-0.85l-6.803,8.504l-9.185,0.85Z" style="fill:#f9a36d;fill-rule:nonzero;stroke:#cc7e4d;stroke-width:1px;"/><path d="M250.519,54.188l6.803,-8.503l9.184,-0.851l-6.803,8.504l-9.184,0.85Z" style="fill:#f9a36d;fill-rule:nonzero;stroke:#cc7e4d;stroke-width:1px;"/><path d="M259.703,53.338l6.803,-8.504l9.184,-0.85l-6.803,8.504l-9.184,0.85Z" style="fill:#f9a36d;fill-rule:nonzero;stroke:#cc7e4d;stroke-width:1px;"/><path d="M248.137,46.535l6.804,-8.504l9.184,-0.85l-6.803,8.504l-9.185,0.85Z" style="fill:#f9a36d;fill-rule:nonzero;stroke:#cc7e4d;stroke-width:1px;"/><path d="M211.401,49.937l6.803,-8.504l9.184,-0.851l-6.803,8.504l-9.184,0.851Z" style="fill:#00c0f3;fill-rule:nonzero;stroke:#009bca;stroke-width:1px;"/><path d="M204.598,58.441l6.803,-8.504l9.184,-0.851l-6.803,8.504l-9.184,0.851Z" style="fill:#00c0f3;fill-rule:nonzero;stroke:#009bca;stroke-width:1px;"/><text x="88.146px" y="142.427px" style="font-family:'LucidaGrande', 'Lucida Grande', sans-serif;font-weight:500;font-size:10.909px;fill:#231f20;">x</text><text x="38.623px" y="91.303px" style="font-family:'LucidaGrande', 'Lucida Grande', sans-serif;font-weight:500;font-size:10.909px;fill:#231f20;">y</text><text x="3.837px" y="159.089px" style="font-family:'LucidaGrande', 'Lucida Grande', sans-serif;font-weight:500;font-size:10.909px;fill:#231f20;">z</text><g transform="matrix(1,0,0,1,-122.196,-390.224)"><text x="324.841px" y="419.083px" style="font-family:'LucidaGrande', 'Lucida Grande', sans-serif;font-weight:500;font-size:10.909px;fill:#231f20;">l</text><text x="328.096px" y="420.72px" style="font-family:'Monaco';font-size:7.97px;fill:#231f20;">1</text></g><g transform="matrix(1,0,0,1,-122.196,-390.224)"><text x="359.161px" y="512.012px" style="font-family:'LucidaGrande', 'Lucida Grande', sans-serif;font-weight:500;font-size:10.909px;fill:#231f20;">l</text><text x="362.416px" y="513.648px" style="font-family:'Monaco';font-size:7.97px;fill:#231f20;">0</text></g><g transform="matrix(1,0,0,1,-122.196,-390.224)"><text x="221.852px" y="493.034px" style="font-family:'LucidaGrande', 'Lucida Grande', sans-serif;font-weight:500;font-size:10.909px;fill:#231f20;">l</text><text x="225.107px" y="494.671px" style="font-family:'LucidaGrande', 'Lucida Grande', sans-serif;font-weight:500;font-size:7.97px;fill:#231f20;">z</text></g><path d="M41.807,137.612c16.679,-125.091 89.995,-136.999 89.995,-17.381" style="fill:none;fill-rule:nonzero;stroke:#231f20;stroke-width:1px;"/><path d="M131.802,124.026l1.25,-3.546l-2.499,0l1.249,3.546Z" style="fill:#231f20;fill-rule:nonzero;stroke:#231f20;stroke-width:1px;"/><g transform="matrix(1,0,0,1,-122.196,-390.224)"><text x="162.603px" y="419.934px" style="font-family:'LucidaGrande', 'Lucida Grande', sans-serif;font-weight:500;font-size:10.909px;fill:#231f20;">T</text><text x="169.424px" y="422.2px" style="font-family:'Georgia', serif;font-size:7.97px;fill:#231f20;">gl<tspan x="175.652px " y="422.2px ">o</tspan>b</text><text x="184.3px" y="422.2px" style="font-family:'LucidaGrande', 'Lucida Grande', sans-serif;font-weight:500;font-size:7.97px;fill:#231f20;">!</text><text x="192.546px" y="422.2px" style="font-family:'Georgia', serif;font-size:7.97px;fill:#231f20;">lo<tspan x="199.01px " y="422.2px ">c</tspan></text><text x="206.076px" y="419.934px" style="font-family:'LucidaGrande', 'Lucida Grande', sans-serif;font-weight:500;font-size:10.909px;fill:#231f20;">=</text></g><g transform="matrix(1,0,0,1,-122.196,-390.224)"><text x="217.786px" y="419.934px" style="font-family:'LucidaGrande', 'Lucida Grande', sans-serif;font-weight:500;font-size:10.909px;fill:#231f20;">T</text><text x="224.567px" y="421.57px" style="font-family:'Georgia', serif;font-size:7.97px;fill:#231f20;">tr<tspan x="230.412px 234.343px 238.966px " y="421.57px 421.57px 421.57px ">ans</tspan></text></g><g transform="matrix(1,0,0,1,-122.196,-390.224)"><text x="250.723px" y="419.934px" style="font-family:'LucidaGrande', 'Lucida Grande', sans-serif;font-weight:500;font-size:10.909px;fill:#231f20;">T</text><text x="257.406px" y="421.57px" style="font-family:'Georgia', serif;font-size:7.97px;fill:#231f20;">r<tspan x="260.514px 264.654px " y="421.57px 421.57px ">ot</tspan></text></g><path d="M205.369,85.923c0.66,-0.825 0.473,-1.427 -0.418,-1.345c-0.892,0.083 -2.15,0.819 -2.81,1.644c-0.66,0.826 -0.473,1.428 0.418,1.345c0.892,-0.082 2.15,-0.818 2.81,-1.644Z" style="fill:#ed1c24;fill-rule:nonzero;"/><path d="M260.142,49.35c0.661,-0.825 0.473,-1.427 -0.418,-1.345c-0.891,0.083 -2.149,0.819 -2.809,1.644c-0.661,0.825 -0.473,1.427 0.418,1.345c0.891,-0.083 2.149,-0.819 2.809,-1.644Z" style="fill:#ed1c24;fill-rule:nonzero;"/><path d="M217.617,49.351c0.66,-0.825 0.473,-1.428 -0.418,-1.345c-0.892,0.082 -2.15,0.818 -2.81,1.644c-0.66,0.825 -0.473,1.427 0.419,1.345c0.891,-0.083 2.149,-0.819 2.809,-1.644Z" style="fill:#ed1c24;fill-rule:nonzero;"/><path d="M203.755,86.073c-23.756,-4.609 -40.587,-4.111 -65.843,-1.773" style="fill:none;fill-rule:nonzero;stroke:#8cc63f;stroke-width:1px;"/><path d="M134.134,84.65l3.645,0.917l-0.23,-2.488l-3.415,1.571Z" style="fill:#8cc63f;fill-rule:nonzero;stroke:#8cc63f;stroke-width:1px;"/><path d="M258.528,49.499c-6.669,-12.061 -5.991,-21.724 -3.739,-33.749" style="fill:none;fill-rule:nonzero;stroke:#f58038;stroke-width:1px;"/><path d="M255.488,12.02l-1.881,3.255l2.456,0.46l-0.575,-3.715Z" style="fill:#f58038;fill-rule:nonzero;stroke:#f58038;stroke-width:1px;"/><path d="M216.003,49.5c-13.798,-10.655 -25.757,-15.434 -49.905,-11.496" style="fill:none;fill-rule:nonzero;stroke:#00aeef;stroke-width:1px;"/><path d="M162.353,38.614l3.7,0.663l-0.402,-2.467l-3.298,1.804Z" style="fill:#00aeef;fill-rule:nonzero;stroke:#00aeef;stroke-width:1px;"/></g></g></svg>
