<?xml version="1.0" encoding="UTF-8" standalone="no"?><!DOCTYPE svg PUBLIC "-//W3C//DTD SVG 1.1//EN" "http://www.w3.org/Graphics/SVG/1.1/DTD/svg11.dtd"><svg width="100%" height="100%" viewBox="0 0 202 108" version="1.1" xmlns="http://www.w3.org/2000/svg" xmlns:xlink="http://www.w3.org/1999/xlink" xml:space="preserve" xmlns:serif="http://www.serif.com/" style="fill-rule:evenodd;clip-rule:evenodd;stroke-miterlimit:10;"><g><clipPath id="_clip1"><rect x="0.111" y="0.069" width="201.728" height="106.927" clip-rule="nonzero"/></clipPath><g clip-path="url(#_clip1)"><path d="M23.468,61.688l47.185,0" style="fill:none;fill-rule:nonzero;stroke:#8cc63f;stroke-width:2.34px;"/><path d="M75.318,61.688l-4.106,-1.589l0,3.179l4.106,-1.59Z" style="fill:#8cc63f;fill-rule:nonzero;stroke:#8cc63f;stroke-width:2.23px;"/><path d="M156.828,61.688l-47.185,0" style="fill:none;fill-rule:nonzero;stroke:#8cc63f;stroke-width:2.34px;"/><path d="M104.978,61.688l4.106,1.59l-0,-3.179l-4.106,1.589Z" style="fill:#8cc63f;fill-rule:nonzero;stroke:#8cc63f;stroke-width:2.23px;"/><path d="M96.816,61.688c-0.009,-7.095 2.908,-12.161 9.049,-15.716" style="fill:none;fill-rule:nonzero;stroke:#23373b;stroke-width:0.78px;stroke-dasharray:2.34,2.34;"/><path d="M96.816,61.688c8.69,15.052 21.118,22.227 34.223,22.227" style="fill:none;fill-rule:nonzero;stroke:#23373b;stroke-width:0.78px;"/><path d="M134.015,83.915l-2.78,-0.98l-0,1.96l2.78,-0.98Z" style="fill:#23373b;fill-rule:nonzero;stroke:#23373b;stroke-width:0.78px;"/><path d="M96.816,61.688l6.977,39.569" style="fill:none;fill-rule:nonzero;stroke:#23373b;stroke-width:0.78px;stroke-dasharray:2.34,2.34;"/><path d="M104.31,104.188l0.482,-2.909l-1.93,0.341l1.448,2.568Z" style="fill:#23373b;fill-rule:nonzero;stroke:#23373b;stroke-width:0.78px;"/><path d="M96.816,61.688c-3.016,-17.107 1.897,-30.607 11.93,-39.025" style="fill:none;fill-rule:nonzero;stroke:#23373b;stroke-width:0.78px;"/><path d="M111.025,20.75l-2.759,1.037l1.259,1.501l1.5,-2.538Z" style="fill:#23373b;fill-rule:nonzero;stroke:#23373b;stroke-width:0.78px;"/><path d="M96.816,61.688l-31.203,-54.045" style="fill:none;fill-rule:nonzero;stroke:#23373b;stroke-width:0.78px;stroke-dasharray:2.34,2.34;"/><path d="M64.125,5.066l0.542,2.898l1.697,-0.98l-2.239,-1.918Z" style="fill:#23373b;fill-rule:nonzero;stroke:#23373b;stroke-width:0.78px;"/><path d="M105.865,45.972c13.676,-9.276 21.073,-14.735 30.634,-22.395" style="fill:none;fill-rule:nonzero;stroke:#999;stroke-width:0.78px;"/><path d="M138.821,21.716l-2.782,0.974l1.225,1.529l1.557,-2.503Z" style="fill:#999;fill-rule:nonzero;stroke:#999;stroke-width:0.78px;"/><path d="M105.865,45.972c13.452,-13.158 21.675,-19.801 33.803,-27.828" style="fill:none;fill-rule:nonzero;stroke:#999;stroke-width:0.78px;"/><path d="M142.149,16.502l-2.859,0.717l1.081,1.634l1.778,-2.351Z" style="fill:#999;fill-rule:nonzero;stroke:#999;stroke-width:0.78px;"/><path d="M105.865,45.972c10.978,-10.064 17.153,-15.666 25.055,-22.759" style="fill:none;fill-rule:nonzero;stroke:#999;stroke-width:0.78px;"/><path d="M133.135,21.226l-2.724,1.128l1.309,1.458l1.415,-2.586Z" style="fill:#999;fill-rule:nonzero;stroke:#999;stroke-width:0.78px;"/><path d="M105.865,45.972c11.485,-15.828 18.86,-24.155 30.052,-34.559" style="fill:none;fill-rule:nonzero;stroke:#999;stroke-width:0.78px;"/><path d="M138.097,9.387l-2.704,1.175l1.334,1.436l1.37,-2.611Z" style="fill:#999;fill-rule:nonzero;stroke:#999;stroke-width:0.78px;"/><path d="M105.865,45.972c10.389,-15.588 16.822,-24.01 26.32,-34.911" style="fill:none;fill-rule:nonzero;stroke:#999;stroke-width:0.78px;"/><path d="M134.14,8.817l-2.565,1.453l1.477,1.287l1.088,-2.74Z" style="fill:#999;fill-rule:nonzero;stroke:#999;stroke-width:0.78px;"/><path d="M105.865,45.972c9.662,-11.192 14.546,-17.975 19.913,-27.013" style="fill:none;fill-rule:nonzero;stroke:#999;stroke-width:0.78px;"/><path d="M127.297,16.401l-2.262,1.89l1.685,1.001l0.577,-2.891Z" style="fill:#999;fill-rule:nonzero;stroke:#999;stroke-width:0.78px;"/><path d="M105.865,45.972c11.349,-14.644 16.775,-23.842 22.412,-36.932" style="fill:none;fill-rule:nonzero;stroke:#999;stroke-width:0.78px;"/><path d="M129.454,6.307l-1.999,2.166l1.799,0.775l0.2,-2.941Z" style="fill:#999;fill-rule:nonzero;stroke:#999;stroke-width:0.78px;"/><path d="M105.865,45.972c7.011,-15.145 11.099,-23.484 16.809,-34.507" style="fill:none;fill-rule:nonzero;stroke:#999;stroke-width:0.78px;"/><path d="M124.043,8.823l-2.149,2.018l1.74,0.901l0.409,-2.919Z" style="fill:#999;fill-rule:nonzero;stroke:#999;stroke-width:0.78px;"/><path d="M105.865,45.972c5.236,-18.775 9.847,-29.088 18.04,-41.911" style="fill:none;fill-rule:nonzero;stroke:#999;stroke-width:0.78px;"/><path d="M125.507,1.554l-2.322,1.815l1.651,1.055l0.671,-2.87Z" style="fill:#999;fill-rule:nonzero;stroke:#999;stroke-width:0.78px;"/><path d="M105.865,45.972c7.92,-15.309 11.354,-24.521 14.386,-37.123" style="fill:none;fill-rule:nonzero;stroke:#999;stroke-width:0.78px;"/><path d="M120.947,5.956l-1.603,2.474l1.905,0.458l-0.302,-2.932Z" style="fill:#999;fill-rule:nonzero;stroke:#999;stroke-width:0.78px;"/><path d="M83.48,61.688c-11.166,-13.307 -24.665,-18.22 -37.563,-15.946" style="fill:none;fill-rule:nonzero;stroke:#23373b;stroke-width:0.78px;"/><path d="M42.986,46.259l2.909,0.482l-0.341,-1.93l-2.568,1.448Z" style="fill:#23373b;fill-rule:nonzero;stroke:#23373b;stroke-width:0.78px;"/><path d="M83.48,61.688c3.016,17.108 -1.897,30.607 -11.93,39.026" style="fill:none;fill-rule:nonzero;stroke:#23373b;stroke-width:0.78px;"/><path d="M69.271,102.626l2.759,-1.036l-1.259,-1.501l-1.5,2.537Z" style="fill:#23373b;fill-rule:nonzero;stroke:#23373b;stroke-width:0.78px;"/><path d="M98.378,61.688c0,-0.862 -0.7,-1.562 -1.562,-1.562c-0.862,-0 -1.562,0.7 -1.562,1.562c-0,0.863 0.7,1.563 1.562,1.563c0.862,-0 1.562,-0.7 1.562,-1.563Z" style="fill:#00aeef;"/><path d="M107.427,45.972c0,-0.863 -0.7,-1.563 -1.562,-1.563c-0.863,0 -1.563,0.7 -1.563,1.563c0,0.862 0.7,1.562 1.563,1.562c0.862,0 1.562,-0.7 1.562,-1.562Z" style="fill:#f58038;"/><path d="M85.042,61.688c0,-0.862 -0.7,-1.562 -1.562,-1.562c-0.862,-0 -1.562,0.7 -1.562,1.562c-0,0.863 0.7,1.563 1.562,1.563c0.862,-0 1.562,-0.7 1.562,-1.563Z" style="fill:#98479b;"/><path d="M90.597,59.425c-10.144,-3.692 -11.471,-20.355 -27.834,-26.311" style="fill:none;fill-rule:nonzero;stroke:#00aeef;stroke-width:0.78px;"/><path d="M93.393,60.443l-2.277,-1.872l-0.67,1.841l2.947,0.031Z" style="fill:#00aeef;fill-rule:nonzero;stroke:#00aeef;stroke-width:0.78px;"/><path d="M110.934,50.226c1.573,1.319 8.672,2.571 16.82,-0.395" style="fill:none;fill-rule:nonzero;stroke:#f58038;stroke-width:0.78px;"/><path d="M108.655,48.313l1.5,2.538l1.26,-1.501l-2.76,-1.037Z" style="fill:#f58038;fill-rule:nonzero;stroke:#f58038;stroke-width:0.78px;"/><path d="M78.41,65.942c-8.244,6.918 -2.105,25.554 -17.157,34.244" style="fill:none;fill-rule:nonzero;stroke:#98479b;stroke-width:0.78px;"/><path d="M80.69,64.03l-2.76,1.036l1.26,1.501l1.5,-2.537Z" style="fill:#98479b;fill-rule:nonzero;stroke:#98479b;stroke-width:0.78px;"/><text x="14.209px" y="63.087px" style="font-family:'Helvetica-Oblique', 'Helvetica';font-style:italic;font-size:8.554px;fill:#8cc63f;">p</text><text x="160.85px" y="63.087px" style="font-family:'Helvetica-Oblique', 'Helvetica';font-style:italic;font-size:8.554px;fill:#8cc63f;">p</text><text x="2.962px" y="35.265px" style="font-family:'Helvetica';font-size:8.554px;fill:#00aeef;">Primary Vertex</text><text x="130.995px" y="52.066px" style="font-family:'Helvetica';font-size:8.554px;fill:#f58038;">Secondary Vertex</text><text x="4.288px" y="102.362px" style="font-family:'Helvetica';font-size:8.554px;fill:#98479b;">Pile-up Vertex</text></g></g></svg>
