<?xml version="1.0" encoding="UTF-8" standalone="no"?>
<!DOCTYPE svg PUBLIC "-//W3C//DTD SVG 1.1//EN" "http://www.w3.org/Graphics/SVG/1.1/DTD/svg11.dtd">
<svg width="100%" height="100%" viewBox="0 0 2729 1349" version="1.1" xmlns="http://www.w3.org/2000/svg" xmlns:xlink="http://www.w3.org/1999/xlink" xml:space="preserve" xmlns:serif="http://www.serif.com/" style="fill-rule:evenodd;clip-rule:evenodd;stroke-linecap:round;stroke-linejoin:round;stroke-miterlimit:1.5;">
    <g transform="matrix(1,0,0,1,0,-1741)">
        <g id="Discs" transform="matrix(0.925026,0,0,1,804.766,-0.246916)">
            <rect x="-869.993" y="1741.25" width="2950.01" height="1348.37" style="fill:none;"/>
            <g transform="matrix(1.08105,0,0,1,70.5131,-2.27374e-13)">
                <g transform="matrix(1,0,0,1,-994.147,-97.438)">
                    <path d="M683.667,1925.41C946.155,1925.41 1159.26,2138.52 1159.26,2401.01C1159.26,2663.5 946.155,2876.61 683.667,2876.61C421.178,2876.61 208.071,2663.5 208.071,2401.01C208.071,2138.52 421.178,1925.41 683.667,1925.41ZM683.667,2044.31C880.533,2044.31 1040.36,2204.14 1040.36,2401.01C1040.36,2597.88 880.533,2757.71 683.667,2757.71C486.8,2757.71 326.97,2597.88 326.97,2401.01C326.97,2204.14 486.8,2044.31 683.667,2044.31Z" style="fill:rgb(233,233,233);stroke:black;stroke-width:8.33px;"/>
                </g>
                <g transform="matrix(0.748902,0,0,0.748902,-822.479,505.452)">
                    <path d="M683.667,1925.41C946.155,1925.41 1159.26,2138.52 1159.26,2401.01C1159.26,2663.5 946.155,2876.61 683.667,2876.61C421.178,2876.61 208.071,2663.5 208.071,2401.01C208.071,2138.52 421.178,1925.41 683.667,1925.41ZM683.667,2100.17C849.706,2100.17 984.509,2234.97 984.509,2401.01C984.509,2567.05 849.706,2701.85 683.667,2701.85C517.627,2701.85 382.824,2567.05 382.824,2401.01C382.824,2234.97 517.627,2100.17 683.667,2100.17Z" style="fill:rgb(191,191,191);stroke:black;stroke-width:11.13px;"/>
                </g>
            </g>
            <g transform="matrix(1.08105,0,0,1,743.01,-54.8747)">
                <g transform="matrix(1,0,0,1,-994.147,-97.438)">
                    <path d="M918.467,2814.61L859.767,2711.21C971.395,2647.84 1040.36,2529.37 1040.36,2401.01C1040.36,2306.41 1002.78,2215.68 935.89,2148.79L1019.96,2064.71C1109.16,2153.91 1159.26,2274.88 1159.26,2401.01C1159.26,2572.16 1067.3,2730.11 918.467,2814.61Z" style="fill:rgb(233,233,233);stroke:black;stroke-width:8.33px;"/>
                </g>
                <g transform="matrix(0.748902,0,0,0.748902,-822.479,505.452)">
                    <path d="M918.467,2814.61L832.192,2662.63C926.34,2609.19 984.509,2509.27 984.509,2401.01C984.509,2321.22 952.814,2244.7 896.395,2188.28L1019.96,2064.71C1109.16,2153.91 1159.26,2274.88 1159.26,2401.01C1159.26,2572.16 1067.3,2730.11 918.467,2814.61Z" style="fill:rgb(191,191,191);stroke:black;stroke-width:11.13px;"/>
                </g>
            </g>
            <g transform="matrix(1.08105,0,0,1,-908.091,93.4809)">
                <g transform="matrix(125,0,0,125,535.374,2896.11)">
                </g>
                <text x="465.854px" y="2896.11px" style="font-family:'ArialMT', 'Arial', sans-serif;font-size:125px;">1</text>
            </g>
            <g transform="matrix(1.08105,0,0,1,170.604,93.4809)">
                <g transform="matrix(125,0,0,125,535.374,2896.11)">
                </g>
                <text x="465.854px" y="2896.11px" style="font-family:'ArialMT', 'Arial', sans-serif;font-size:125px;">2</text>
            </g>
            <g transform="matrix(1.08105,0,0,1,1016.05,91.8939)">
                <g transform="matrix(125,0,0,125,535.374,2896.11)">
                </g>
                <text x="465.854px" y="2896.11px" style="font-family:'ArialMT', 'Arial', sans-serif;font-size:125px;">3</text>
            </g>
            <g transform="matrix(6.61952e-17,1,-1.08105,6.12323e-17,3956.28,2597.83)">
                <g transform="matrix(1,0,0,1,-994.147,-97.438)">
                    <path d="M683.667,1925.41L683.667,2163.21C552.335,2163.21 445.869,2269.68 445.869,2401.01L208.071,2401.01C208.071,2138.35 421.002,1925.42 683.667,1925.41Z" style="fill:rgb(233,233,233);stroke:black;stroke-width:8.33px;"/>
                </g>
                <g transform="matrix(1,0,0,1,-994.147,-97.438)">
                    <path d="M1046.7,2708.25L865.185,2554.63C901.524,2511.69 921.465,2457.26 921.465,2401.01C921.465,2269.68 814.999,2163.21 683.667,2163.21L683.667,1925.41C946.331,1925.41 1159.26,2138.35 1159.26,2401.01C1159.26,2513.51 1119.38,2622.38 1046.7,2708.25Z" style="fill:rgb(191,191,191);stroke:black;stroke-width:8.33px;"/>
                </g>
            </g>
        </g>
    </g>
</svg>
