<?xml version="1.0" encoding="utf-8"?>
<!DOCTYPE svg PUBLIC "-//W3C//DTD SVG 1.1//EN" "http://www.w3.org/Graphics/SVG/1.1/DTD/svg11.dtd">
<svg version="1.0" xmlns="http://www.w3.org/2000/svg" xmlns:xlink="http://www.w3.org/1999/xlink" x="0px" y="0px" width="436.6px" height="331px"
	 viewBox="-79 255.9 436.6 331" style="enable-background:new -79 255.9 436.6 331;" xml:space="preserve">
	<style type="text/css">
		.grey{fill:#ffffff;}
		.blue{fill:#ffffff;}
	</style>
	<path class="grey" d="M293.2,545c-0.2,0.8-0.3,1.8-0.3,2.8c0,5.6,2.8,10.5,7,13.4l-2.6,1.8l-9.7,5.6l-10,4.9l-10.3,4.2l-10.5,3.4
		l-10.7,2.5l-10.8,1.8l-10.9,1.1l-11,0.4l-11-0.4l-6.5-0.9c3.3-3,5.2-7.2,5.2-11.9c0-1.8-0.3-3.5-0.8-5l3.3,0.3l9.9,0.3l9.9-0.3
		l9.7-1l9.6-1.6l9.6-2.3l9.3-3l9.2-3.7l8.9-4.3l8.5-4.9L293.2,545z M104,516l4.9,6.1l7,7.5l7.4,6.9l7.8,6.2l8.2,5.6l8.5,4.9l8.9,4.3
		l9.2,3.7l6.9,2.2c-2.3,2.8-3.8,6.5-3.8,10.4c0,2.5,0.6,4.9,1.5,7l0,0l-10.5-3.4l-10.3-4.2l-10-4.9l-9.7-5.6l-9.3-6.2l-8.9-7
		l-8.4-7.8l-7.9-8.5l-7.2-9.4l-0.3-0.5c0.7,0.1,1.4,0.1,2.2,0.1C95.9,523.8,101.1,520.6,104,516z M309.9,531.5l2-1.8l7-7.5l6.5-8.2
		l6-8.9l5.5-9.6l5-10.6l15.7,7.4l-5.3,11.2l-6.1,10.8l-6.8,10l-7.3,9.1l-7.6,8.2C322.1,535.9,316.4,531.7,309.9,531.5z M59.3,403.1
		c2.8,2.4,6.5,3.9,10.6,3.9c2.3,0,4.6-0.5,6.5-1.4l-0.8,5l-1.1,10.3l-0.3,10.6l0.6,10.6l1.4,10.7l2.3,10.8l3.3,10.7l4.2,11l2.8,6.1
		c-6.5,0.5-11.9,4.9-14.1,10.8l-4.7-10L65.3,480l-3.7-12.2l-2.5-12.2l-1.5-12L57,431.7l0.3-11.8l1.2-11.6L59.3,403.1z M67.2,374.5
		l4.2-10l5.1-10l5.8-9.6l6.5-9.2l7-8.8l7.6-8.2l8.2-7.6l8.8-7l9.2-6.5l9.6-5.8l10.1-5.1l7.9-3.4c-0.8,1.8-1.2,4.1-1.2,6.2
		c0,4.3,1.6,8.3,4.5,11.2l-3.9,1.6l-8.9,4.6l-8.5,5.2l-8.2,5.8l-7.7,6.2L116,331l-6.9,7.3l-6.4,7.7l-5.8,8.2l-5.2,8.5l-4.6,8.9
		l-3.9,9.3l0,0c-3-4.2-7.8-6.9-13.3-6.9C69,374.3,68,374.4,67.2,374.5z M181.3,275.9l0.4-0.1l11.4-2l11.6-1.2l12.2-0.3l8.1,1.2
		l4.2-17.6l44.6,37.3l-56.7,13.4l3.9-16.2l-5.2-0.8l-10,0.3l-10.3,1.1l-6.9,1.2c0.1-0.8,0.2-1.6,0.2-2.5
		C188.6,283.8,185.7,278.7,181.3,275.9z"/>
	<circle class="blue" cx="172.3" cy="289.5" r="10"/>
	<circle class="blue" cx="90.1" cy="507.5" r="10"/>
	<circle class="blue" cx="69.9" cy="390.7" r="10"/>
	<circle class="blue" cx="185.3" cy="573.8" r="10"/>
	<circle class="blue" cx="309.3" cy="547.9" r="10"/>
	<path class="blue" d="M149.2,346.2v40.3h27.3v13.8h-27.3v90.4c0,5.9,0.7,10,2,12.2c1.8,3.4,5.6,5.1,11.2,5.5
		c3.4,0.2,7.9-0.1,13.9-0.8v13.9c-1.5,0-3.9,0.1-7.2,0.3c-3.3,0.2-5.7,0.3-7.4,0.3c-10.9,0-18.5-2.2-22.7-6.5
		c-4.2-4.3-6.4-12.2-6.4-23.6v-91.7h-23.4v-13.8h23.6v-40.1h16.4V346.2L149.2,346.2z"/>
	<path class="blue" d="M296.7,425.7h-16.4c-0.4-9.7-4.1-17.2-10.9-22.3c-6.2-4.7-14.2-7-24.2-7c-8.5,0-15.6,1.6-21.3,4.9
		c-6.9,4.2-10.4,10.2-10.4,18.2c0,10.9,9.3,18.4,27.8,22.6l21.9,4.9c25.4,5.7,38.2,18.1,38.2,37c0,13.3-5.8,23.6-17.4,30.9
		c-10.1,6.2-22.2,9.3-36.3,9.3c-34.3,0-52.7-15.8-55.1-47.3h16.5c0.7,10.8,4.6,18.9,11.9,24.7c7.2,5.8,16.5,8.8,27.6,8.8
		c9.2,0,17.3-1.8,24.2-5.7c8.3-4.7,12.4-11.2,12.4-19.7c0-11.9-9.9-20-29.3-24.3l-21.1-4.7c-12.2-2.7-21.1-6.5-26.8-11.2
		c-7.2-5.9-10.7-14.1-10.7-24.6c0-12.6,5.5-22.3,16.4-29.1c9.2-5.7,20.6-8.5,34-8.5c13.9,0,25.4,3.5,34.3,10.7
		C291.3,400.9,296.3,411.6,296.7,425.7z"/>
	<path class="blue" d="M-56.8,427.4h-16.4c0.7-15.1,6.2-26.6,16.4-34.3c9.2-7,21.9-10.7,38-10.7c33,0,49.4,14.3,49.4,43.1v71.2
		c0,6.5,3.3,9.9,9.6,9.9c1.8,0,3.5-0.4,5.2-1.1v13.8c-3.4,0.7-6.9,1.1-10.7,1.1c-7.8,0-13.1-2.2-15.9-6.5c-2.2-3.5-3.4-9.2-3.4-16.9
		h-0.5C8.7,506.6,2.3,513.3-4,517.3c-7.8,4.7-17.7,7-29.9,7c-13.1,0-23.7-3.3-31.7-9.6c-8.9-6.9-13.4-16.6-13.4-29.5
		c0-16.6,7.5-28,22.6-34C-49,448-32.5,445-7,442c7.8-0.8,13-2.2,15.6-4.2c3.7-2.6,5.5-7.2,5.5-13.9c0-18.3-11.6-27.6-35-27.6
		C-44.4,396.6-56.3,406.7-56.8,427.4z M14.1,468.5v-21.2h-0.5c-1.4,2.6-6,4.6-13.8,6c-9.6,1.4-19.1,2.8-28.6,4.5
		c-10.8,1.8-18.7,4.5-23.9,7.8c-6.5,4.5-9.9,10.8-9.9,18.7c0,7.8,3.1,14.2,9.1,19.1s12.9,7.4,21,7.4c13,0,24-3.9,33.1-11.6
		C9.5,491.3,14.1,481.2,14.1,468.5z"/>
</svg>
