<?xml version="1.0" encoding="UTF-8" standalone="no"?>
<!DOCTYPE svg PUBLIC "-//W3C//DTD SVG 1.1//EN" "http://www.w3.org/Graphics/SVG/1.1/DTD/svg11.dtd">
<svg width="100%" height="100%" viewBox="0 0 404 285" version="1.1" xmlns="http://www.w3.org/2000/svg" xmlns:xlink="http://www.w3.org/1999/xlink" xml:space="preserve" xmlns:serif="http://www.serif.com/" style="fill-rule:evenodd;clip-rule:evenodd;stroke-linejoin:round;stroke-miterlimit:2;">
    <g transform="matrix(1,0,0,1,0,-381)">
        <g id="b-w" serif:id="b/w" transform="matrix(0.812131,0,0,0.80349,-1183.21,-452.938)">
            <rect x="1456.92" y="1038.87" width="497.322" height="352.804" style="fill:none;"/>
            <g transform="matrix(1.23133,0,0,1.24457,1498.55,1040.17)">
                <path d="M278.341,218.957C278.23,219.593 278.171,220.248 278.171,220.916C278.171,224.784 280.118,228.201 283.084,230.239L281.27,231.469L274.565,235.327L267.641,238.669L260.53,241.495L253.263,243.806L245.873,245.602L238.39,246.885L230.847,247.654L223.272,247.911L215.698,247.654L211.175,247.193C213.394,245.128 214.783,242.183 214.783,238.916C214.783,237.705 214.592,236.538 214.238,235.443L216.511,235.675L223.273,235.904L230.034,235.675L236.766,234.988L243.439,233.845L250.024,232.244L256.491,230.187L262.812,227.676L268.957,224.71L274.902,221.289L278.341,218.957ZM147.093,198.86L150.426,203.056L155.293,208.299L160.469,213.084L165.928,217.414L171.643,221.289L177.588,224.71L183.733,227.676L190.054,230.188L194.783,231.691C193.153,233.651 192.171,236.17 192.171,238.916C192.171,240.667 192.571,242.326 193.283,243.806L193.282,243.806L186.015,241.495L178.904,238.669L171.98,235.327L165.275,231.469L158.823,227.095L152.656,222.204L146.81,216.799L141.317,210.881L136.211,204.454L135.989,204.124C136.475,204.188 136.972,204.222 137.477,204.222C141.537,204.222 145.099,202.077 147.093,198.86ZM289.828,209.616L291.252,208.299L296.118,203.057L300.65,197.352L304.818,191.184L308.597,184.545L312.052,177.231L322.902,182.357L319.251,190.085L315.019,197.52L310.334,204.454L305.228,210.881L299.926,216.594C298.269,212.598 294.386,209.755 289.828,209.616ZM116.154,120.527C118.128,122.207 120.685,123.222 123.477,123.222C125.098,123.222 126.64,122.88 128.035,122.264L127.407,125.73L126.674,132.835L126.489,140.065L126.876,147.398L127.855,154.821L129.451,162.311L131.687,169.856L134.59,177.437L136.579,181.646C132.069,182.001 128.3,185.007 126.831,189.105L123.546,182.152L120.314,173.712L117.812,165.271L116.02,156.858L114.917,148.501L114.481,140.228L114.689,132.066L115.517,124.042L116.154,120.527ZM121.602,100.766L124.538,93.847L128.097,86.895L132.128,80.23L136.606,73.873L141.51,67.848L146.814,62.178L152.496,56.885L158.533,51.992L164.902,47.523L171.581,43.501L178.545,39.951L184.009,37.641C183.469,38.96 183.171,40.403 183.171,41.916C183.171,44.934 184.357,47.678 186.287,49.706L183.613,50.836L177.409,53.999L171.45,57.587L165.765,61.576L160.373,65.947L155.296,70.676L150.556,75.744L146.176,81.125L142.179,86.798L138.585,92.742L135.416,98.932L132.693,105.347L132.688,105.363C130.637,102.487 127.274,100.61 123.477,100.61C122.838,100.61 122.211,100.664 121.602,100.766ZM200.646,32.442L200.923,32.371L208.795,30.95L216.833,30.124L225.314,29.909L230.914,30.776L233.793,18.654L264.66,44.484L225.476,53.68L228.133,42.488L224.542,41.932L217.599,42.108L210.478,42.84L205.64,43.713C205.734,43.128 205.783,42.527 205.783,41.916C205.783,37.951 203.737,34.461 200.646,32.442Z" style="fill:white;fill-rule:nonzero;"/>
            </g>
            <g transform="matrix(1.25785,0,0,1.27137,1330.93,324.223)">
                <circle cx="323.636" cy="604.157" r="6.744" style="fill:white;"/>
            </g>
            <g transform="matrix(1.25785,0,0,1.27137,1260.74,512.153)">
                <circle cx="323.636" cy="604.157" r="6.744" style="fill:white;"/>
            </g>
            <g transform="matrix(1.25785,0,0,1.27137,1260.74,512.153)">
                <circle cx="323.636" cy="604.157" r="6.744" style="fill:white;"/>
            </g>
            <g transform="matrix(1.25785,0,0,1.27137,1243.5,411.343)">
                <circle cx="323.636" cy="604.157" r="6.744" style="fill:white;"/>
            </g>
            <g transform="matrix(1.25785,0,0,1.27137,1342.01,569.403)">
                <circle cx="323.636" cy="604.157" r="6.744" style="fill:white;"/>
            </g>
            <g transform="matrix(1.25785,0,0,1.27137,1447.9,547.001)">
                <circle cx="323.636" cy="604.157" r="6.744" style="fill:white;"/>
            </g>
            <g transform="matrix(1.23133,0,0,1.24457,1498.55,1040.17)">
                <text x="149.68px" y="201.916px" style="font-family:'HelveticaNeue-Light', 'Helvetica Neue';font-weight:300;font-size:180px;fill:white;">ts</text>
            </g>
            <g transform="matrix(1.23133,0,0,1.24457,1498.55,1040.17)">
                <text x="14.555px" y="201.916px" style="font-family:'HelveticaNeue-Light', 'Helvetica Neue';font-weight:300;font-size:180px;fill:white;">a</text>
            </g>
        </g>
    </g>
</svg>
