<?xml version="1.0" encoding="UTF-8" standalone="no"?>
<svg
   xmlns:dc="http://purl.org/dc/elements/1.1/"
   xmlns:cc="http://creativecommons.org/ns#"
   xmlns:rdf="http://www.w3.org/1999/02/22-rdf-syntax-ns#"
   xmlns:svg="http://www.w3.org/2000/svg"
   xmlns="http://www.w3.org/2000/svg"
   xmlns:sodipodi="http://sodipodi.sourceforge.net/DTD/sodipodi-0.dtd"
   xmlns:inkscape="http://www.inkscape.org/namespaces/inkscape"
   inkscape:version="1.0 (4035a4fb49, 2020-05-01)"
   sodipodi:docname="acts_logo_colored.svg"
   id="svg43"
   style="clip-rule:evenodd;fill-rule:evenodd;stroke-linejoin:round;stroke-miterlimit:2"
   xml:space="preserve"
   version="1.1"
   viewBox="0 0 299.99999 300"
   height="300"
   width="300"><metadata
   id="metadata49"><rdf:RDF><cc:Work
       rdf:about=""><dc:format>image/svg+xml</dc:format><dc:type
         rdf:resource="http://purl.org/dc/dcmitype/StillImage" /><dc:title></dc:title></cc:Work></rdf:RDF></metadata><defs
   id="defs47" /><sodipodi:namedview
   fit-margin-bottom="0"
   fit-margin-right="0"
   fit-margin-left="0"
   fit-margin-top="0"
   inkscape:current-layer="svg43"
   inkscape:window-maximized="0"
   inkscape:window-y="23"
   inkscape:window-x="26"
   inkscape:cy="164.73267"
   inkscape:cx="143.43901"
   inkscape:zoom="1.9699747"
   showgrid="false"
   id="namedview45"
   inkscape:window-height="956"
   inkscape:window-width="1783"
   inkscape:pageshadow="2"
   inkscape:pageopacity="0"
   guidetolerance="10"
   gridtolerance="10"
   objecttolerance="10"
   borderopacity="1"
   bordercolor="#666666"
   pagecolor="#ffffff" />
    <path
   d="m 252.22982,235.67446 c -0.111,0.636 -0.17,1.291 -0.17,1.959 0,3.868 1.947,7.285 4.91301,9.323 l -1.814,1.23 -6.70501,3.858 -6.92401,3.342 -7.11101,2.82599 -7.26701,2.311 -7.39001,1.796 -7.48301,1.283 -7.54301,0.769 -7.57501,0.257 -7.57401,-0.257 -4.52301,-0.461 c 2.21901,-2.065 3.60801,-5.01 3.60801,-8.27699 0,-1.211 -0.191,-2.378 -0.545,-3.473 l 2.273,0.232 6.76201,0.229 6.76101,-0.229 6.73201,-0.687 6.67301,-1.143 6.58501,-1.601 6.467,-2.057 6.32101,-2.511 6.14501,-2.966 5.94501,-3.421 z m -131.24817,-20.09699 3.33301,4.196 4.867,5.243 5.17601,4.785 5.45901,4.33 5.715,3.87499 5.94501,3.421 6.14501,2.966 6.32101,2.512 4.729,1.503 c -1.63,1.96 -2.612,4.479 -2.612,7.225 0,1.75099 0.4,3.40999 1.112,4.88999 h -10e-4 l -7.26701,-2.311 -7.11101,-2.82599 -6.92401,-3.342 -6.70501,-3.858 -6.452,-4.374 -6.16701,-4.891 -5.84601,-5.40499 -5.49301,-5.918 -5.106,-6.427 -0.222,-0.33 c 0.486,0.064 0.983,0.098 1.488,0.098 4.06,0 7.62201,-2.145 9.61601,-5.362 z m 142.73519,10.756 1.424,-1.317 4.866,-5.242 4.53201,-5.705 4.16801,-6.16799 3.779,-6.639 3.45501,-7.314 10.85001,5.126 -3.651,7.728 -4.23201,7.43499 -4.68501,6.934 -5.106,6.427 -5.30201,5.713 c -1.657,-3.996 -5.54001,-6.839 -10.09801,-6.978 z M 90.042609,137.24451 c 1.974,1.68 4.53101,2.695 7.32301,2.695 1.621,0 3.163001,-0.342 4.558011,-0.958 l -0.628,3.466 -0.73301,7.10499 -0.185,7.23 0.387,7.333 0.97901,7.42299 1.596,7.49 2.236,7.545 2.903,7.58099 1.98901,4.209 c -4.51001,0.355 -8.27901,3.361 -9.74802,7.459 l -3.285001,-6.953 -3.232,-8.43999 -2.50201,-8.441 -1.792,-8.413 -1.103,-8.35699 -0.436,-8.273 0.208,-8.162 0.828,-8.02399 z m 5.44801,-19.76099 2.936,-6.919 3.559011,-6.952 4.031,-6.664998 4.47801,-6.356997 4.904,-6.024997 5.30401,-5.669998 5.68201,-5.292997 6.03701,-4.892998 6.369,-4.468998 6.67901,-4.021998 6.96401,-3.549999 5.46401,-2.309999 c -0.54,1.319 -0.838,2.761999 -0.838,4.274998 0,3.017999 1.186,5.761998 3.116,7.789997 l -2.674,1.129999 -6.20401,3.162999 -5.95901,3.587998 -5.685,3.988999 -5.39201,4.370998 -5.07701,4.728997 -4.74,5.067998 -4.38001,5.380998 -3.99701,5.672998 -3.594,5.944 -3.169,6.19 -2.72301,6.415 -0.005,0.016 c -2.051,-2.876 -5.414,-4.753 -9.211011,-4.753 -0.639,0 -1.266,0.054 -1.875,0.156 z m 79.044101,-68.323976 0.277,-0.071 7.87201,-1.421 8.03801,-0.825999 8.48101,-0.215 5.60001,0.866999 2.879,-12.121994 30.86704,25.829988 -39.18405,9.195996 2.65701,-11.191995 -3.59101,-0.556 -6.94301,0.176 -7.12101,0.732 -4.838,0.873 c 0.094,-0.585 0.143,-1.186 0.143,-1.797 0,-3.964998 -2.04601,-7.454996 -5.13701,-9.473995 z"
   style="fill:#929292;fill-opacity:1;fill-rule:nonzero"
   id="path4" /><g
   id="g10"
   transform="matrix(1.021539,0,0,1.0215331,-162.24094,-558.53869)">
                <circle
   id="circle8"
   style="fill:#02a2ff;fill-opacity:1"
   r="6.744"
   cy="604.15698"
   cx="323.63599" />
            </g><g
   style="fill:#02a2ff;fill-opacity:1"
   id="g18"
   transform="matrix(1.021539,0,0,1.0215331,-219.24441,-407.53882)">
                <circle
   id="circle16"
   style="fill:#02a2ff;fill-opacity:1"
   r="6.744"
   cy="604.15698"
   cx="323.63599" />
            </g><g
   style="fill:#02a2ff;fill-opacity:1"
   id="g22"
   transform="matrix(1.021539,0,0,1.0215331,-233.24555,-488.53864)">
                <circle
   id="circle20"
   style="fill:#02a2ff;fill-opacity:1"
   r="6.744"
   cy="604.15698"
   cx="323.63599" />
            </g><g
   id="g26"
   transform="matrix(1.021539,0,0,1.0215331,-153.24253,-361.53901)">
                <circle
   id="circle24"
   style="fill:#02a2ff;fill-opacity:1"
   r="6.744"
   cy="604.15698"
   cx="323.63599" />
            </g><g
   style="fill:#02a2ff;fill-opacity:1"
   id="g30"
   transform="matrix(1.021539,0,0,1.0215331,-67.245979,-379.5388)">
                <circle
   id="circle28"
   style="fill:#02a2ff;fill-opacity:1"
   r="6.744"
   cy="604.15698"
   cx="323.63599" />
            </g><text
   x="123.56848"
   y="218.63365"
   style="font-weight:300;font-size:180px;font-family:HelveticaNeue-Light, 'Helvetica Neue';fill:#02a2ff;fill-opacity:1"
   id="text32">ts</text><g
   style="fill:#02a2ff;fill-opacity:1"
   id="g38"
   transform="matrix(1.0000013,0,0,0.99999955,-26.111543,16.717558)">
                <text
   id="text36"
   style="font-weight:300;font-size:180px;font-family:HelveticaNeue-Light, 'Helvetica Neue';fill:#02a2ff;fill-opacity:1"
   y="201.916"
   x="14.555">a</text>
            </g>
</svg>
