<?xml version="1.0" encoding="UTF-8" standalone="no"?>
<svg
   xmlns:dc="http://purl.org/dc/elements/1.1/"
   xmlns:cc="http://creativecommons.org/ns#"
   xmlns:rdf="http://www.w3.org/1999/02/22-rdf-syntax-ns#"
   xmlns:svg="http://www.w3.org/2000/svg"
   xmlns="http://www.w3.org/2000/svg"
   xmlns:sodipodi="http://sodipodi.sourceforge.net/DTD/sodipodi-0.dtd"
   xmlns:inkscape="http://www.inkscape.org/namespaces/inkscape"
   version="1.1"
   viewBox="0 0 1280 720"
   fill="none"
   stroke="none"
   stroke-linecap="square"
   stroke-miterlimit="10"
   id="svg1102"
   sodipodi:docname="tripletsFormation.svg"
   width="1280"
   height="720"
   inkscape:version="1.0.1 (c497b03c, 2020-09-10)">
  <metadata
     id="metadata1108">
    <rdf:RDF>
      <cc:Work
         rdf:about="">
        <dc:format>image/svg+xml</dc:format>
        <dc:type
           rdf:resource="http://purl.org/dc/dcmitype/StillImage" />
        <dc:title />
      </cc:Work>
    </rdf:RDF>
  </metadata>
  <defs
     id="defs1106">
    <clipPath
       id="g15c27fcd395_0_0.0-8">
      <path
         d="M 0,0 H 960 V 540 H 0 Z"
         clip-rule="nonzero"
         id="path833-0" />
    </clipPath>
  </defs>
  <sodipodi:namedview
     pagecolor="#ffffff"
     bordercolor="#666666"
     borderopacity="1"
     objecttolerance="10"
     gridtolerance="10"
     guidetolerance="10"
     inkscape:pageopacity="0"
     inkscape:pageshadow="2"
     inkscape:window-width="1920"
     inkscape:window-height="1027"
     id="namedview1104"
     showgrid="false"
     units="px"
     inkscape:zoom="0.94444444"
     inkscape:cx="606"
     inkscape:cy="378"
     inkscape:window-x="0"
     inkscape:window-y="25"
     inkscape:window-maximized="1"
     inkscape:current-layer="g1102"
     inkscape:document-rotation="0" />
  <clipPath
     id="g15c27fcd395_0_0.0">
    <path
       d="M 0,0 H 960 V 540 H 0 Z"
       clip-rule="nonzero"
       id="path833" />
  </clipPath>
  <g
     clip-path="url(#g15c27fcd395_0_0.0-8)"
     id="g1100"
     transform="matrix(1.2882353,0,0,1.2882353,-13.058826,13.764706)">
    <path
       fill="#000000"
       fill-opacity="0"
       d="m 0,123.87139 h 960 v 64.85039 H 0 Z"
       fill-rule="evenodd"
       id="path838" />
    <g
       id="g1102"
       transform="matrix(1.3018362,0,0,1.3018362,169.59312,-41.373434)">
      <path
         fill="#ffffff"
         d="m 361.88954,147.2493 0.26562,-5.9375 h 18.26563 l 0.26562,5.9375 h -1.9375 l -0.73437,-4.26563 h -5.09375 q -0.0312,2.125 -0.0625,4.29688 -0.0156,2.15625 -0.0156,4.35937 v 1.64063 q 0,2.125 0.0156,4.28125 0.0312,2.14062 0.0625,4.3125 l 3.39062,0.375 v 1.35937 h -10.0625 v -1.35937 l 3.40625,-0.375 q 0.0625,-2.125 0.0625,-4.28125 0,-2.15625 0,-4.3125 v -1.64063 q 0,-2.15625 0,-4.32812 0,-2.17188 -0.0625,-4.32813 h -5.10937 l -0.73438,4.26563 z m 26.09369,1.625 q -0.9375,0 -1.89063,0.53125 -0.95312,0.53125 -1.64062,1.70312 -0.67188,1.17188 -0.875,3.09375 h 6.0625 q 1.20312,0 1.57812,-0.48437 0.39063,-0.5 0.39063,-1.23438 0,-0.96875 -0.48438,-1.78125 -0.48437,-0.82812 -1.29687,-1.32812 -0.8125,-0.5 -1.84375,-0.5 z m -0.0312,15.17187 q -3.375,0 -5.40625,-2.1875 -2.03125,-2.1875 -2.03125,-6.01562 0,-2.5625 1.04687,-4.45313 1.04688,-1.90625 2.79688,-2.96875 1.75,-1.07812 3.82812,-1.07812 1.71875,0 3.125,0.76562 1.40625,0.76563 2.23438,2.1875 0.82812,1.42188 0.82812,3.45313 0,0.5625 -0.0625,1.04687 -0.0625,0.48438 -0.17187,0.8125 h -10.625 q 0.0625,3.0625 1.53125,4.67188 1.46875,1.59375 3.85937,1.59375 1.60938,0 2.67188,-0.64063 1.0625,-0.65625 1.96875,-1.6875 l 0.79687,0.625 q -0.9375,1.76563 -2.53125,2.82813 -1.59375,1.04687 -3.85937,1.04687 z m 9.38794,-0.4375 v -1.20312 l 2.46875,-0.46875 q 0.0312,-1.26563 0.0469,-2.71875 0.0156,-1.46875 0.0156,-2.60938 v -1.59375 q 0,-1.375 -0.0156,-2.26562 -0.0156,-0.90625 -0.0781,-1.90625 l -2.625,-0.29688 v -1.17187 l 4.65625,-2.03125 0.5,0.32812 0.26562,2.70313 q 1.17188,-1.32813 2.73438,-2.17188 1.5625,-0.85937 3.09375,-0.85937 1.57812,0 2.5625,0.73437 0.98437,0.73438 1.40625,2.40625 1.26562,-1.57812 2.82812,-2.35937 1.57813,-0.78125 3.20313,-0.78125 2.03125,0 3.14062,1.375 1.125,1.35937 1.125,4.45312 v 3.4375 q 0,1.14063 0.0156,2.60938 0.0312,1.45312 0.0625,2.71875 l 2.32812,0.46875 v 1.20312 h -7.73437 v -1.20312 l 2.46875,-0.46875 q 0.0312,-1.23438 0.0469,-2.70313 0.0156,-1.48437 0.0156,-2.625 v -2.89062 q 0,-2.34375 -0.67188,-3.15625 -0.65625,-0.8125 -2.125,-0.8125 -1.03125,0 -2.125,0.46875 -1.07812,0.45312 -2.34375,1.625 0.0312,0.375 0.0469,0.79687 0.0156,0.40625 0.0156,0.875 v 3.09375 q 0,1.14063 0.0156,2.60938 0.0312,1.45312 0.0625,2.71875 l 2.32812,0.46875 v 1.20312 h -7.73437 v -1.20312 l 2.46875,-0.46875 q 0.0312,-1.23438 0.0469,-2.70313 0.0156,-1.48437 0.0156,-2.625 v -2.82812 q 0,-2.26563 -0.64063,-3.14063 -0.625,-0.89062 -2.09375,-0.89062 -1.125,0 -2.15625,0.46875 -1.03125,0.45312 -2.26562,1.53125 v 4.85937 q 0,1.09375 0.0156,2.57813 0.0156,1.48437 0.0469,2.75 l 2.29687,0.46875 v 1.20312 z m 29.37234,7.96875 v -1.17187 l 2.65625,-0.46875 q 0.0312,-1.35938 0.0469,-2.71875 0.0312,-1.34375 0.0312,-2.67188 v -9.53125 q 0,-1.375 -0.0312,-2.26562 -0.0156,-0.90625 -0.0781,-1.90625 l -2.625,-0.29688 v -1.17187 l 4.65625,-2.03125 0.5,0.32812 0.20313,2.17188 q 2.375,-2.5 5.03125,-2.5 1.79687,0 3.23437,1 1.4375,1 2.28125,2.85937 0.85938,1.84375 0.85938,4.4375 0,2.5625 -0.90625,4.45313 -0.90625,1.875 -2.45313,2.92187 -1.54687,1.03125 -3.51562,1.03125 -1.125,0 -2.25,-0.46875 -1.10938,-0.46875 -2.1875,-1.70312 v 2.64062 q 0,1.32813 0.0156,2.67188 0.0312,1.35937 0.0625,2.71875 l 3.03125,0.5 v 1.17187 z m 9.59375,-22.32812 q -0.76562,0 -1.76562,0.39062 -1,0.375 -2.26563,1.4375 v 9.35938 q 0.9375,0.90625 1.82813,1.3125 0.90625,0.39062 1.82812,0.39062 1.875,0 3.20313,-1.5 1.34375,-1.5 1.34375,-4.73437 0,-3.1875 -1.17188,-4.92188 -1.17187,-1.73437 -3,-1.73437 z m 9.15943,14.35937 v -1.20312 l 2.67187,-0.46875 q 0.0312,-1.35938 0.0469,-2.67188 0.0156,-1.32812 0.0156,-2.65625 v -14.625 l -2.73437,-0.34375 v -1.15625 l 5.20312,-1.5 0.46875,0.26563 -0.14062,4.73437 v 12.625 q 0,1.32813 0.0156,2.67188 0.0312,1.32812 0.0625,2.65625 l 2.65625,0.46875 v 1.20312 z m 22.62964,0.32813 q -1.1875,0 -2,-0.6875 -0.79688,-0.70313 -1,-1.875 -1.35938,1.32812 -2.39063,2 -1.03122,0.67187 -2.49997,0.67187 -1.84375,0 -3.15625,-1.04687 -1.3125,-1.0625 -1.3125,-3.125 0,-0.96875 0.45313,-1.79688 0.45312,-0.82812 1.64062,-1.625 1.20313,-0.8125 3.4375,-1.60937 0.76563,-0.26563 1.7656,-0.5625 1,-0.29688 2,-0.53125 v -0.84375 q 0,-2.42188 -0.73438,-3.21875 -0.73437,-0.8125 -2.39059,-0.8125 -0.375,0 -0.82813,0.0312 -0.4375,0.0312 -0.98437,0.17187 l -0.625,2.17188 q -0.46875,1.59375 -1.73438,1.59375 -1.40625,0 -1.5625,-1.35938 0.46875,-1.90625 2.21875,-3.01562 1.75,-1.125 4.28122,-1.125 2.625,0 3.89063,1.32812 1.26562,1.3125 1.26562,4.46875 v 7.10938 q 0,1.0625 0.32813,1.51562 0.34375,0.4375 0.875,0.4375 0.4375,0 0.73437,-0.1875 0.29688,-0.20312 0.5625,-0.54687 l 0.67188,0.73437 q -0.59375,0.96875 -1.3125,1.35938 -0.71875,0.375 -1.59375,0.375 z m -9.3906,-4.5625 q 0,1.32812 0.76563,1.90625 0.76562,0.5625 1.89062,0.5625 0.5,0 0.9531,-0.125 0.45312,-0.14063 1.07812,-0.51563 0.64063,-0.39062 1.64063,-1.125 v -5.09375 q -0.85938,0.21875 -1.70313,0.51563 -0.82812,0.28125 -1.35934,0.48437 -1.4375,0.5625 -2.14063,1.17188 -0.6875,0.59375 -0.90625,1.15625 -0.21875,0.5625 -0.21875,1.0625 z m 19.32334,4.67187 q -1.73438,0 -2.76563,-0.9375 -1.03125,-0.9375 -1.03125,-2.85937 0,-0.64063 0.0156,-1.25 0.0156,-0.625 0.0156,-1.59375 v -7.85938 h -2.76562 v -1.46875 l 2.96875,-0.35937 0.85937,-4.46875 h 2 l -0.1875,4.53125 h 4.5 v 1.76562 h -4.53125 v 10.32813 q 0,1.26562 0.5,1.85937 0.5,0.57813 1.32813,0.57813 0.5625,0 1.07812,-0.23438 0.51563,-0.23437 1.15625,-0.67187 l 0.79688,0.875 q -1.35938,1.76562 -3.9375,1.76562 z m 12.97229,-15.17187 q -0.9375,0 -1.89063,0.53125 -0.95312,0.53125 -1.64062,1.70312 -0.67188,1.17188 -0.875,3.09375 h 6.0625 q 1.20312,0 1.57812,-0.48437 0.39063,-0.5 0.39063,-1.23438 0,-0.96875 -0.48438,-1.78125 -0.48437,-0.82812 -1.29687,-1.32812 -0.8125,-0.5 -1.84375,-0.5 z m -0.0312,15.17187 q -3.375,0 -5.40625,-2.1875 -2.03125,-2.1875 -2.03125,-6.01562 0,-2.5625 1.04687,-4.45313 1.04688,-1.90625 2.79688,-2.96875 1.75,-1.07812 3.82812,-1.07812 1.71875,0 3.125,0.76562 1.40625,0.76563 2.23438,2.1875 0.82812,1.42188 0.82812,3.45313 0,0.5625 -0.0625,1.04687 -0.0625,0.48438 -0.17187,0.8125 h -10.625 q 0.0625,3.0625 1.53125,4.67188 1.46875,1.59375 3.85937,1.59375 1.60938,0 2.67188,-0.64063 1.0625,-0.65625 1.96875,-1.6875 l 0.79687,0.625 q -0.9375,1.76563 -2.53125,2.82813 -1.59375,1.04687 -3.85937,1.04687 z"
         fill-rule="nonzero"
         id="path840" />
      <path
         fill="#eeeeee"
         d="M 39.485496,295.18499 H 529.7599 v 30.53247 H 39.485496 Z"
         fill-rule="evenodd"
         id="path842" />
      <path
         stroke="#595959"
         stroke-width="1"
         stroke-linejoin="round"
         stroke-linecap="butt"
         d="M 39.485496,295.18499 H 529.7599 v 30.53247 H 39.485496 Z"
         fill-rule="evenodd"
         id="path844" />
      <path
         fill="#000000"
         fill-opacity="0"
         d="m 39.495236,294.07362 v 31.46835"
         fill-rule="evenodd"
         id="path846" />
      <path
         stroke="#595959"
         stroke-width="1"
         stroke-linejoin="round"
         stroke-linecap="butt"
         d="m 39.495236,294.07362 v 31.46835"
         fill-rule="evenodd"
         id="path848" />
      <path
         fill="#000000"
         fill-opacity="0"
         d="m 84.065636,294.07362 v 31.46835"
         fill-rule="evenodd"
         id="path850" />
      <path
         stroke="#595959"
         stroke-width="1"
         stroke-linejoin="round"
         stroke-linecap="butt"
         d="m 84.065636,294.07362 v 31.46835"
         fill-rule="evenodd"
         id="path852" />
      <path
         fill="#000000"
         fill-opacity="0"
         d="m 128.63605,294.07362 v 31.46835"
         fill-rule="evenodd"
         id="path854" />
      <path
         stroke="#595959"
         stroke-width="1"
         stroke-linejoin="round"
         stroke-linecap="butt"
         d="m 128.63605,294.07362 v 31.46835"
         fill-rule="evenodd"
         id="path856" />
      <path
         fill="#000000"
         fill-opacity="0"
         d="m 173.20644,294.07362 v 31.46835"
         fill-rule="evenodd"
         id="path858" />
      <path
         stroke="#595959"
         stroke-width="1"
         stroke-linejoin="round"
         stroke-linecap="butt"
         d="m 173.20644,294.07362 v 31.46835"
         fill-rule="evenodd"
         id="path860" />
      <path
         fill="#000000"
         fill-opacity="0"
         d="m 217.77686,294.07362 v 31.46835"
         fill-rule="evenodd"
         id="path862" />
      <path
         stroke="#595959"
         stroke-width="1"
         stroke-linejoin="round"
         stroke-linecap="butt"
         d="m 217.77686,294.07362 v 31.46835"
         fill-rule="evenodd"
         id="path864" />
      <path
         fill="#000000"
         fill-opacity="0"
         d="m 262.34724,294.07362 v 31.46835"
         fill-rule="evenodd"
         id="path866" />
      <path
         stroke="#595959"
         stroke-width="1"
         stroke-linejoin="round"
         stroke-linecap="butt"
         d="m 262.34724,294.07362 v 31.46835"
         fill-rule="evenodd"
         id="path868" />
      <path
         fill="#000000"
         fill-opacity="0"
         d="m 306.91764,294.07362 v 31.46835"
         fill-rule="evenodd"
         id="path870" />
      <path
         stroke="#595959"
         stroke-width="1"
         stroke-linejoin="round"
         stroke-linecap="butt"
         d="m 306.91764,294.07362 v 31.46835"
         fill-rule="evenodd"
         id="path872" />
      <path
         fill="#000000"
         fill-opacity="0"
         d="m 351.48804,294.07362 v 31.46835"
         fill-rule="evenodd"
         id="path874" />
      <path
         stroke="#595959"
         stroke-width="1"
         stroke-linejoin="round"
         stroke-linecap="butt"
         d="m 351.48804,294.07362 v 31.46835"
         fill-rule="evenodd"
         id="path876" />
      <path
         fill="#000000"
         fill-opacity="0"
         d="m 396.05844,294.07362 v 31.46835"
         fill-rule="evenodd"
         id="path878" />
      <path
         stroke="#595959"
         stroke-width="1"
         stroke-linejoin="round"
         stroke-linecap="butt"
         d="m 396.05844,294.07362 v 31.46835"
         fill-rule="evenodd"
         id="path880" />
      <path
         fill="#000000"
         fill-opacity="0"
         d="m 440.62884,294.07362 v 31.46835"
         fill-rule="evenodd"
         id="path882" />
      <path
         stroke="#595959"
         stroke-width="1"
         stroke-linejoin="round"
         stroke-linecap="butt"
         d="m 440.62884,294.07362 v 31.46835"
         fill-rule="evenodd"
         id="path884" />
      <path
         fill="#000000"
         fill-opacity="0"
         d="m 485.19924,294.07362 v 31.46835"
         fill-rule="evenodd"
         id="path886" />
      <path
         stroke="#595959"
         stroke-width="1"
         stroke-linejoin="round"
         stroke-linecap="butt"
         d="m 485.19924,294.07362 v 31.46835"
         fill-rule="evenodd"
         id="path888" />
      <path
         fill="#000000"
         fill-opacity="0"
         d="m 529.76964,294.07362 v 31.46835"
         fill-rule="evenodd"
         id="path890" />
      <path
         stroke="#595959"
         stroke-width="1"
         stroke-linejoin="round"
         stroke-linecap="butt"
         d="m 529.76964,294.07362 v 31.46835"
         fill-rule="evenodd"
         id="path892" />
      <path
         fill="#eeeeee"
         d="M 39.485496,206.04417 H 529.7599 v 30.53247 H 39.485496 Z"
         fill-rule="evenodd"
         id="path894" />
      <path
         stroke="#595959"
         stroke-width="1"
         stroke-linejoin="round"
         stroke-linecap="butt"
         d="M 39.485496,206.04417 H 529.7599 v 30.53247 H 39.485496 Z"
         fill-rule="evenodd"
         id="path896" />
      <path
         fill="#000000"
         fill-opacity="0"
         d="m 39.495236,204.93283 v 31.46834"
         fill-rule="evenodd"
         id="path898" />
      <path
         stroke="#595959"
         stroke-width="1"
         stroke-linejoin="round"
         stroke-linecap="butt"
         d="m 39.495236,204.93283 v 31.46834"
         fill-rule="evenodd"
         id="path900" />
      <path
         fill="#000000"
         fill-opacity="0"
         d="m 84.065636,204.93283 v 31.46834"
         fill-rule="evenodd"
         id="path902" />
      <path
         stroke="#595959"
         stroke-width="1"
         stroke-linejoin="round"
         stroke-linecap="butt"
         d="m 84.065636,204.93283 v 31.46834"
         fill-rule="evenodd"
         id="path904" />
      <path
         fill="#000000"
         fill-opacity="0"
         d="m 128.63605,204.93283 v 31.46834"
         fill-rule="evenodd"
         id="path906" />
      <path
         stroke="#595959"
         stroke-width="1"
         stroke-linejoin="round"
         stroke-linecap="butt"
         d="m 128.63605,204.93283 v 31.46834"
         fill-rule="evenodd"
         id="path908" />
      <path
         fill="#000000"
         fill-opacity="0"
         d="m 173.20644,204.93283 v 31.46834"
         fill-rule="evenodd"
         id="path910" />
      <path
         stroke="#595959"
         stroke-width="1"
         stroke-linejoin="round"
         stroke-linecap="butt"
         d="m 173.20644,204.93283 v 31.46834"
         fill-rule="evenodd"
         id="path912" />
      <path
         fill="#000000"
         fill-opacity="0"
         d="m 217.77686,204.93283 v 31.46834"
         fill-rule="evenodd"
         id="path914" />
      <path
         stroke="#595959"
         stroke-width="1"
         stroke-linejoin="round"
         stroke-linecap="butt"
         d="m 217.77686,204.93283 v 31.46834"
         fill-rule="evenodd"
         id="path916" />
      <path
         fill="#000000"
         fill-opacity="0"
         d="m 262.34724,204.93283 v 31.46834"
         fill-rule="evenodd"
         id="path918" />
      <path
         stroke="#595959"
         stroke-width="1"
         stroke-linejoin="round"
         stroke-linecap="butt"
         d="m 262.34724,204.93283 v 31.46834"
         fill-rule="evenodd"
         id="path920" />
      <path
         fill="#000000"
         fill-opacity="0"
         d="m 306.91764,204.93283 v 31.46834"
         fill-rule="evenodd"
         id="path922" />
      <path
         stroke="#595959"
         stroke-width="1"
         stroke-linejoin="round"
         stroke-linecap="butt"
         d="m 306.91764,204.93283 v 31.46834"
         fill-rule="evenodd"
         id="path924" />
      <path
         fill="#000000"
         fill-opacity="0"
         d="m 351.48804,204.93283 v 31.46834"
         fill-rule="evenodd"
         id="path926" />
      <path
         stroke="#595959"
         stroke-width="1"
         stroke-linejoin="round"
         stroke-linecap="butt"
         d="m 351.48804,204.93283 v 31.46834"
         fill-rule="evenodd"
         id="path928" />
      <path
         fill="#000000"
         fill-opacity="0"
         d="m 396.05844,204.93283 v 31.46834"
         fill-rule="evenodd"
         id="path930" />
      <path
         stroke="#595959"
         stroke-width="1"
         stroke-linejoin="round"
         stroke-linecap="butt"
         d="m 396.05844,204.93283 v 31.46834"
         fill-rule="evenodd"
         id="path932" />
      <path
         fill="#000000"
         fill-opacity="0"
         d="m 440.62884,204.93283 v 31.46834"
         fill-rule="evenodd"
         id="path934" />
      <path
         stroke="#595959"
         stroke-width="1"
         stroke-linejoin="round"
         stroke-linecap="butt"
         d="m 440.62884,204.93283 v 31.46834"
         fill-rule="evenodd"
         id="path936" />
      <path
         fill="#000000"
         fill-opacity="0"
         d="m 485.19924,204.93283 v 31.46834"
         fill-rule="evenodd"
         id="path938" />
      <path
         stroke="#595959"
         stroke-width="1"
         stroke-linejoin="round"
         stroke-linecap="butt"
         d="m 485.19924,204.93283 v 31.46834"
         fill-rule="evenodd"
         id="path940" />
      <path
         fill="#000000"
         fill-opacity="0"
         d="m 529.76964,204.93283 v 31.46834"
         fill-rule="evenodd"
         id="path942" />
      <path
         stroke="#595959"
         stroke-width="1"
         stroke-linejoin="round"
         stroke-linecap="butt"
         d="m 529.76964,204.93283 v 31.46834"
         fill-rule="evenodd"
         id="path944" />
      <path
         fill="#eeeeee"
         d="M 39.495236,108.54642 H 529.76962 v 30.53249 H 39.495236 Z"
         fill-rule="evenodd"
         id="path946" />
      <path
         stroke="#595959"
         stroke-width="1"
         stroke-linejoin="round"
         stroke-linecap="butt"
         d="M 39.495236,108.54642 H 529.76962 v 30.53249 H 39.495236 Z"
         fill-rule="evenodd"
         id="path948" />
      <path
         fill="#000000"
         fill-opacity="0"
         d="m 39.495236,107.43508 v 31.46835"
         fill-rule="evenodd"
         id="path950" />
      <path
         stroke="#595959"
         stroke-width="1"
         stroke-linejoin="round"
         stroke-linecap="butt"
         d="m 39.495236,107.43508 v 31.46835"
         fill-rule="evenodd"
         id="path952" />
      <path
         fill="#000000"
         fill-opacity="0"
         d="m 84.065636,107.43508 v 31.46835"
         fill-rule="evenodd"
         id="path954" />
      <path
         stroke="#595959"
         stroke-width="1"
         stroke-linejoin="round"
         stroke-linecap="butt"
         d="m 84.065636,107.43508 v 31.46835"
         fill-rule="evenodd"
         id="path956" />
      <path
         fill="#000000"
         fill-opacity="0"
         d="m 128.63605,107.43508 v 31.46835"
         fill-rule="evenodd"
         id="path958" />
      <path
         stroke="#595959"
         stroke-width="1"
         stroke-linejoin="round"
         stroke-linecap="butt"
         d="m 128.63605,107.43508 v 31.46835"
         fill-rule="evenodd"
         id="path960" />
      <path
         fill="#000000"
         fill-opacity="0"
         d="m 173.20644,107.43508 v 31.46835"
         fill-rule="evenodd"
         id="path962" />
      <path
         stroke="#595959"
         stroke-width="1"
         stroke-linejoin="round"
         stroke-linecap="butt"
         d="m 173.20644,107.43508 v 31.46835"
         fill-rule="evenodd"
         id="path964" />
      <path
         fill="#000000"
         fill-opacity="0"
         d="m 217.77686,107.43508 v 31.46835"
         fill-rule="evenodd"
         id="path966" />
      <path
         stroke="#595959"
         stroke-width="1"
         stroke-linejoin="round"
         stroke-linecap="butt"
         d="m 217.77686,107.43508 v 31.46835"
         fill-rule="evenodd"
         id="path968" />
      <path
         fill="#000000"
         fill-opacity="0"
         d="m 262.34724,107.43508 v 31.46835"
         fill-rule="evenodd"
         id="path970" />
      <path
         stroke="#595959"
         stroke-width="1"
         stroke-linejoin="round"
         stroke-linecap="butt"
         d="m 262.34724,107.43508 v 31.46835"
         fill-rule="evenodd"
         id="path972" />
      <path
         fill="#000000"
         fill-opacity="0"
         d="m 306.91764,107.43508 v 31.46835"
         fill-rule="evenodd"
         id="path974" />
      <path
         stroke="#595959"
         stroke-width="1"
         stroke-linejoin="round"
         stroke-linecap="butt"
         d="m 306.91764,107.43508 v 31.46835"
         fill-rule="evenodd"
         id="path976" />
      <path
         fill="#000000"
         fill-opacity="0"
         d="m 351.48804,107.43508 v 31.46835"
         fill-rule="evenodd"
         id="path978" />
      <path
         stroke="#595959"
         stroke-width="1"
         stroke-linejoin="round"
         stroke-linecap="butt"
         d="m 351.48804,107.43508 v 31.46835"
         fill-rule="evenodd"
         id="path980" />
      <path
         fill="#000000"
         fill-opacity="0"
         d="m 396.05844,107.43508 v 31.46835"
         fill-rule="evenodd"
         id="path982" />
      <path
         stroke="#595959"
         stroke-width="1"
         stroke-linejoin="round"
         stroke-linecap="butt"
         d="m 396.05844,107.43508 v 31.46835"
         fill-rule="evenodd"
         id="path984" />
      <path
         fill="#000000"
         fill-opacity="0"
         d="m 440.62884,107.43508 v 31.46835"
         fill-rule="evenodd"
         id="path986" />
      <path
         stroke="#595959"
         stroke-width="1"
         stroke-linejoin="round"
         stroke-linecap="butt"
         d="m 440.62884,107.43508 v 31.46835"
         fill-rule="evenodd"
         id="path988" />
      <path
         fill="#000000"
         fill-opacity="0"
         d="m 485.19924,107.43508 v 31.46835"
         fill-rule="evenodd"
         id="path990" />
      <path
         stroke="#595959"
         stroke-width="1"
         stroke-linejoin="round"
         stroke-linecap="butt"
         d="m 485.19924,107.43508 v 31.46835"
         fill-rule="evenodd"
         id="path992" />
      <path
         fill="#000000"
         fill-opacity="0"
         d="m 529.76964,107.43508 v 31.46835"
         fill-rule="evenodd"
         id="path994" />
      <path
         stroke="#595959"
         stroke-width="1"
         stroke-linejoin="round"
         stroke-linecap="butt"
         d="m 529.76964,107.43508 v 31.46835"
         fill-rule="evenodd"
         id="path996" />
      <path
         fill="#f9cb9c"
         d="m 263.34158,108.23203 h 43.57605 v 30.53248 h -43.57605 z"
         fill-rule="evenodd"
         id="path998" />
      <path
         stroke="#595959"
         stroke-width="1"
         stroke-linejoin="round"
         stroke-linecap="butt"
         d="m 263.34158,108.23203 h 43.57605 v 30.53248 h -43.57605 z"
         fill-rule="evenodd"
         id="path1000" />
      <path
         fill="#f9cb9c"
         d="m 307.91199,108.23203 h 43.57605 v 30.53248 h -43.57605 z"
         fill-rule="evenodd"
         id="path1002" />
      <path
         stroke="#595959"
         stroke-width="1"
         stroke-linejoin="round"
         stroke-linecap="butt"
         d="m 307.91199,108.23203 h 43.57605 v 30.53248 h -43.57605 z"
         fill-rule="evenodd"
         id="path1004" />
      <path
         fill="#f9cb9c"
         d="m 218.77118,108.23203 h 43.57605 v 30.53248 h -43.57605 z"
         fill-rule="evenodd"
         id="path1006" />
      <path
         stroke="#595959"
         stroke-width="1"
         stroke-linejoin="round"
         stroke-linecap="butt"
         d="m 218.77118,108.23203 h 43.57605 v 30.53248 h -43.57605 z"
         fill-rule="evenodd"
         id="path1008" />
      <path
         fill="#f9cb9c"
         d="m 263.34158,205.72979 h 43.57605 v 30.53247 h -43.57605 z"
         fill-rule="evenodd"
         id="path1010" />
      <path
         stroke="#595959"
         stroke-width="1"
         stroke-linejoin="round"
         stroke-linecap="butt"
         d="m 263.34158,205.72979 h 43.57605 v 30.53247 h -43.57605 z"
         fill-rule="evenodd"
         id="path1012" />
      <path
         fill="#f9cb9c"
         d="m 263.34158,294.87059 h 43.57605 v 30.53247 h -43.57605 z"
         fill-rule="evenodd"
         id="path1014" />
      <path
         stroke="#595959"
         stroke-width="1"
         stroke-linejoin="round"
         stroke-linecap="butt"
         d="m 263.34158,294.87059 h 43.57605 v 30.53247 h -43.57605 z"
         fill-rule="evenodd"
         id="path1016" />
      <path
         fill="#a4c2f4"
         d="m 352.48239,205.72979 h 43.57605 v 30.53247 h -43.57605 z"
         fill-rule="evenodd"
         id="path1018" />
      <path
         stroke="#595959"
         stroke-width="1"
         stroke-linejoin="round"
         stroke-linecap="butt"
         d="m 352.48239,205.72979 h 43.57605 v 30.53247 h -43.57605 z"
         fill-rule="evenodd"
         id="path1020" />
      <path
         fill="#a4c2f4"
         d="m 397.0528,109.16058 h 43.57605 v 30.53248 H 397.0528 Z"
         fill-rule="evenodd"
         id="path1022" />
      <path
         stroke="#595959"
         stroke-width="1"
         stroke-linejoin="round"
         stroke-linecap="butt"
         d="m 397.0528,109.16058 h 43.57605 v 30.53248 H 397.0528 Z"
         fill-rule="evenodd"
         id="path1024" />
      <path
         fill="#a4c2f4"
         d="m 352.48239,109.16058 h 43.57605 v 30.53248 h -43.57605 z"
         fill-rule="evenodd"
         id="path1026" />
      <path
         stroke="#595959"
         stroke-width="1"
         stroke-linejoin="round"
         stroke-linecap="butt"
         d="m 352.48239,109.16058 h 43.57605 v 30.53248 h -43.57605 z"
         fill-rule="evenodd"
         id="path1028" />
      <path
         fill="#a4c2f4"
         d="m 307.91199,294.87059 h 43.57605 v 30.53247 h -43.57605 z"
         fill-rule="evenodd"
         id="path1030" />
      <path
         stroke="#595959"
         stroke-width="1"
         stroke-linejoin="round"
         stroke-linecap="butt"
         d="m 307.91199,294.87059 h 43.57605 v 30.53247 h -43.57605 z"
         fill-rule="evenodd"
         id="path1032" />
      <path
         fill="#a4c2f4"
         d="m 352.48239,294.87059 h 43.57605 v 30.53247 h -43.57605 z"
         fill-rule="evenodd"
         id="path1034" />
      <path
         stroke="#595959"
         stroke-width="1"
         stroke-linejoin="round"
         stroke-linecap="butt"
         d="m 352.48239,294.87059 h 43.57605 v 30.53247 h -43.57605 z"
         fill-rule="evenodd"
         id="path1036" />
      <path
         fill="#000000"
         fill-opacity="0"
         d="M 289.59924,393.29445 284.04254,47.903095"
         fill-rule="evenodd"
         id="path1038" />
      <path
         stroke="#ff9900"
         stroke-width="2"
         stroke-linejoin="round"
         stroke-linecap="butt"
         stroke-dasharray="2, 6"
         d="M 289.59924,393.29445 284.1528,54.756355"
         fill-rule="evenodd"
         id="path1040" />
      <path
         fill="#ff9900"
         stroke="#ff9900"
         stroke-width="2"
         stroke-linecap="butt"
         d="m 284.1528,54.756375 2.28506,2.212696 -2.34826,-6.142555 -2.14948,6.214916 z"
         fill-rule="evenodd"
         id="path1042" />
      <path
         fill="#ffab40"
         d="m 277.27228,221.30066 v 0 c 0,-3.47267 3.02466,-6.28781 6.75577,-6.28781 v 0 c 3.73108,0 6.75574,2.81514 6.75574,6.28781 v 0 c 0,3.47267 -3.02466,6.28783 -6.75574,6.28783 v 0 c -3.73111,0 -6.75577,-2.81516 -6.75577,-6.28783 z"
         fill-rule="evenodd"
         id="path1044" />
      <path
         stroke="#000000"
         stroke-width="1"
         stroke-linejoin="round"
         stroke-linecap="butt"
         d="m 277.27228,221.30066 v 0 c 0,-3.47267 3.02466,-6.28781 6.75577,-6.28781 v 0 c 3.73108,0 6.75574,2.81514 6.75574,6.28781 v 0 c 0,3.47267 -3.02466,6.28783 -6.75574,6.28783 v 0 c -3.73111,0 -6.75577,-2.81516 -6.75577,-6.28783 z"
         fill-rule="evenodd"
         id="path1046" />
      <path
         fill="#000000"
         fill-opacity="0"
         d="M 294.37628,395.66719 456.33878,56.066495"
         fill-rule="evenodd"
         id="path1048" />
      <path
         stroke="#0000ff"
         stroke-width="2"
         stroke-linejoin="round"
         stroke-linecap="butt"
         stroke-dasharray="2, 6"
         d="M 294.37624,395.66719 453.38826,62.253075"
         fill-rule="evenodd"
         id="path1050" />
      <path
         fill="#0000ff"
         stroke="#0000ff"
         stroke-width="2"
         stroke-linecap="butt"
         d="m 453.38824,62.253085 1.06192,2.99831 0.63001,-6.545879 -4.69022,4.609478 z"
         fill-rule="evenodd"
         id="path1052" />
      <path
         fill="#4a86e8"
         d="m 371.00974,222.43512 v 0 c 0,-3.47267 3.02463,-6.28783 6.75574,-6.28783 v 0 c 3.73111,0 6.75573,2.81516 6.75573,6.28783 v 0 c 0,3.47266 -3.02462,6.28781 -6.75573,6.28781 v 0 c -3.73111,0 -6.75574,-2.81515 -6.75574,-6.28781 z"
         fill-rule="evenodd"
         id="path1054" />
      <path
         stroke="#000000"
         stroke-width="1"
         stroke-linejoin="round"
         stroke-linecap="butt"
         d="m 371.00974,222.43512 v 0 c 0,-3.47267 3.02463,-6.28783 6.75574,-6.28783 v 0 c 3.73111,0 6.75573,2.81516 6.75573,6.28783 v 0 c 0,3.47266 -3.02462,6.28781 -6.75573,6.28781 v 0 c -3.73111,0 -6.75574,-2.81515 -6.75574,-6.28781 z"
         fill-rule="evenodd"
         id="path1056" />
      <path
         fill="#000000"
         fill-opacity="0"
         d="m 258.93039,365.08382 h 98.26547 v 53.34412 h -98.26547 z"
         fill-rule="evenodd"
         id="path1058" />
      <path
         fill="#595959"
         d="m 290.97748,400.96382 v -2.79687 h 2.79687 v 2.79687 z"
         fill-rule="nonzero"
         id="path1060" />
      <path
         fill="#595959"
         d="m 310.65854,400.96382 v -14.3125 h 1.90625 v 14.3125 z m 5.24414,0 v -14.3125 h 5.39063 q 1.4375,0 2.1875,0.125 1.04687,0.1875 1.76562,0.6875 0.71875,0.48438 1.14063,1.375 0.4375,0.89063 0.4375,1.95313 0,1.82812 -1.17188,3.09375 -1.15625,1.25 -4.1875,1.25 h -3.67187 v 5.82812 z m 1.89063,-7.51562 h 3.70312 q 1.82813,0 2.59375,-0.67188 0.78125,-0.6875 0.78125,-1.9375 0,-0.89062 -0.45312,-1.53125 -0.45313,-0.64062 -1.1875,-0.84375 -0.48438,-0.125 -1.78125,-0.125 h -3.65625 z"
         fill-rule="nonzero"
         id="path1062" />
      <path
         fill="#000000"
         fill-opacity="0"
         d="M 10.103146,44.794695 V 426.09971"
         fill-rule="evenodd"
         id="path1064" />
      <path
         stroke="#000000"
         stroke-width="2"
         stroke-linejoin="round"
         stroke-linecap="butt"
         d="M 10.103146,51.648865 V 418.51974"
         fill-rule="evenodd"
         id="path1066" />
      <path
         fill="#000000"
         stroke="#000000"
         stroke-width="2"
         stroke-linecap="butt"
         d="m 10.103146,51.648865 2.249168,2.249168 -2.249168,-6.179535 -2.2491648,6.179535 z"
         fill-rule="evenodd"
         id="path1068" />
      <path
         fill="#000000"
         stroke="#000000"
         stroke-width="2"
         stroke-linecap="butt"
         d="m 10.103146,425.09975 c -1.8170168,0 -3.2899968,-1.47299 -3.2899968,-3.29001 0,-1.81702 1.47298,-3.29001 3.2899968,-3.29001 1.817017,0 3.290001,1.47299 3.290001,3.29001 0,1.81702 -1.472984,3.29001 -3.290001,3.29001 z"
         fill-rule="nonzero"
         id="path1070" />
      <path
         fill="#000000"
         fill-opacity="0"
         d="M 547.66564,422.06619 H 6.0943362"
         fill-rule="evenodd"
         id="path1072" />
      <path
         stroke="#000000"
         stroke-width="2"
         stroke-linejoin="round"
         stroke-linecap="butt"
         d="M 540.81144,422.06621 H 13.674336"
         fill-rule="evenodd"
         id="path1074" />
      <path
         fill="#000000"
         stroke="#000000"
         stroke-width="2"
         stroke-linecap="butt"
         d="m 540.81144,422.06621 -2.24915,2.24915 6.17951,-2.24915 -6.17951,-2.24918 z"
         fill-rule="evenodd"
         id="path1076" />
      <path
         fill="#000000"
         stroke="#000000"
         stroke-width="2"
         stroke-linecap="butt"
         d="m 7.0943162,422.06621 c 0,-1.81702 1.472984,-3.29001 3.2900008,-3.29001 1.817017,0 3.289997,1.47299 3.289997,3.29001 0,1.81702 -1.472981,3.28998 -3.289997,3.28998 -1.8170168,0 -3.2900008,-1.47296 -3.2900008,-3.28998 z"
         fill-rule="nonzero"
         id="path1078" />
      <path
         fill="#000000"
         fill-opacity="0"
         d="m -15.974744,16.539774 h 42.113766 v 43.63454 h -42.113766 z"
         fill-rule="evenodd"
         id="path1080" />
      <path
         fill="#000000"
         d="m -6.2716198,35.3804 v -0.546875 h 3.078125 V 36.4429 q 0.703125,-0.9375 1.40625,-1.359375 0.71875,-0.4375 1.45312498,-0.4375 0.640625,0 1.203125,0.375 0.56250002,0.375 0.93750002,1.21875 l -1.29687502,0.78125 q -0.296875,-0.71875 -0.6875,-1 -0.375,-0.28125 -0.84374998,-0.28125 -0.5,0 -0.984375,0.328125 -0.484375,0.3125 -1.09375,1.1875 v 5.859375 q 0,0.703125 0.0625,0.84375 0.0625,0.125 0.375,0.140625 l 1.5,0.125 v 0.515625 h -5.109375 V 44.22415 l 1.09375,-0.125 q 0.328125,-0.04687 0.375,-0.15625 0.0625,-0.125 0.0625,-0.828125 v -6.65625 q 0,-0.703125 -0.0625,-0.8125 -0.04687,-0.125 -0.375,-0.171875 z"
         fill-rule="nonzero"
         id="path1082" />
      <path
         fill="#000000"
         fill-opacity="0"
         d="m 564.7897,417.13968 h 42.11377 v 43.63455 H 564.7897 Z"
         fill-rule="evenodd"
         id="path1084" />
      <path
         fill="#000000"
         d="m 531.67844,441.21761 h 0.51562 v 2.85937 h -7.375 v -0.5 l 5.35938,-8.76562 h -3 q -0.67188,0 -0.82813,0.0937 -0.14062,0.0937 -0.25,0.4375 l -0.54687,1.6875 h -0.51563 v -2.85938 h 6.95313 v 0.5 l -5.3125,8.76563 h 3.375 q 0.67187,0 0.82812,-0.0781 0.15625,-0.0781 0.25,-0.4375 z"
         fill-rule="nonzero"
         id="path1086" />
      <path
         fill="#000000"
         fill-opacity="0"
         d="M 31.243096,166.67593 H 302.87686 v 38.77975 H 31.243096 Z"
         fill-rule="evenodd"
         id="path1088" />
      <path
         fill="#000000"
         d="m 49.586846,190.61406 v 0.42187 h -3.78125 v -0.42187 l 0.890625,-0.0937 q 0.25,-0.0312 0.296875,-0.125 0.04687,-0.0937 0.04687,-0.65625 v -3.98438 q 0,-1.1875 -0.359375,-1.67187 -0.359375,-0.48438 -1.046875,-0.48438 -0.5,0 -1.125,0.32813 -0.609375,0.3125 -1.15625,1.21875 v 4.59375 q 0,0.5625 0.04687,0.65625 0.04687,0.0937 0.296875,0.125 l 0.890625,0.0937 v 0.42187 h -3.78125 v -0.42187 l 0.875,-0.0937 q 0.265625,-0.0312 0.3125,-0.125 0.04687,-0.0937 0.04687,-0.65625 v -5.32813 q 0,-0.5625 -0.04687,-0.65625 -0.04687,-0.0937 -0.3125,-0.125 l -0.875,-0.0781 v -0.4375 h 2.46875 v 1.29687 q 0.546875,-0.75 1.265625,-1.09375 0.71875,-0.35937 1.421875,-0.35937 1.71875,0 2.21875,1.57812 0.59375,-0.82812 1.3125,-1.20312 0.73438,-0.375 1.46875,-0.375 1.14063,0 1.76563,0.73437 0.64062,0.71875 0.64062,2.04688 v 4 q 0,0.5625 0.0469,0.65625 0.0469,0.0937 0.29687,0.125 l 0.89063,0.0937 v 0.42187 h -3.78125 v -0.42187 l 0.875,-0.0937 q 0.26562,-0.0312 0.3125,-0.125 0.0469,-0.0937 0.0469,-0.65625 v -3.98438 q 0,-1.1875 -0.35937,-1.67187 -0.35938,-0.48438 -1.04688,-0.48438 -0.5,0 -1.140625,0.32813 -0.625,0.32812 -1.1875,1.26562 0.01563,0.125 0.01563,0.26563 0.01563,0.14062 0.01563,0.28125 v 4 q 0,0.5625 0.04687,0.65625 0.04687,0.0937 0.3125,0.125 z m 7.81378,-9.29688 q -0.39062,0 -0.64062,-0.23437 -0.25,-0.25 -0.25,-0.65625 0,-0.375 0.25,-0.60938 0.25,-0.25 0.64062,-0.25 0.375,0 0.625,0.25 0.25,0.23438 0.25,0.60938 0,0.40625 -0.25,0.65625 -0.25,0.23437 -0.625,0.23437 z m -1.875,2.23438 v -0.4375 h 2.54688 v 6.625 q 0,0.5625 0.0469,0.65625 0.0469,0.0937 0.29688,0.125 l 0.89062,0.0937 v 0.42187 h -3.78125 v -0.42187 l 0.875,-0.0937 q 0.26563,-0.0312 0.3125,-0.125 0.0469,-0.0937 0.0469,-0.65625 v -5.32813 q 0,-0.5625 -0.0469,-0.65625 -0.0469,-0.0937 -0.3125,-0.125 z m 13.04964,7.07812 v 0.40625 h -2.45313 v -1.26562 q -0.5,0.73437 -1.10937,1.07812 -0.59375,0.34375 -1.32813,0.34375 -1.375,0 -2.14062,-1.03125 -0.75,-1.03125 -0.75,-2.92187 v -0.3125 q 0,-1.8125 0.875,-2.89063 0.89062,-1.07812 2.45312,-1.07812 1.125,0 1.90625,0.70312 v -3.17187 q 0,-0.5625 -0.0469,-0.65625 -0.0469,-0.0937 -0.29688,-0.125 l -0.875,-0.0781 v -0.4375 h 2.53125 v 10.54688 q 0,0.5625 0.0469,0.65625 0.0625,0.0937 0.3125,0.125 z m -6.34375,-2.90625 q 0,1.5 0.4375,2.20313 0.4375,0.70312 1.21875,0.70312 0.51562,0 1.0625,-0.3125 0.54687,-0.32812 1.07812,-1.29687 v -4.57813 q -0.70312,-0.9375 -1.82812,-0.9375 -1.03125,0 -1.5,0.78125 -0.46875,0.78125 -0.46875,2.15625 z m 15.62376,2.90625 v 0.40625 h -2.45312 v -1.26562 q -0.5,0.73437 -1.10938,1.07812 -0.59375,0.34375 -1.32812,0.34375 -1.375,0 -2.14063,-1.03125 -0.75,-1.03125 -0.75,-2.92187 v -0.3125 q 0,-1.8125 0.875,-2.89063 0.89063,-1.07812 2.45313,-1.07812 1.125,0 1.90625,0.70312 v -3.17187 q 0,-0.5625 -0.0469,-0.65625 -0.0469,-0.0937 -0.29687,-0.125 l -0.875,-0.0781 v -0.4375 h 2.53125 v 10.54688 q 0,0.5625 0.0469,0.65625 0.0625,0.0937 0.3125,0.125 z m -6.34375,-2.90625 q 0,1.5 0.4375,2.20313 0.4375,0.70312 1.21875,0.70312 0.51563,0 1.0625,-0.3125 0.54688,-0.32812 1.07813,-1.29687 v -4.57813 q -0.70313,-0.9375 -1.82813,-0.9375 -1.03125,0 -1.5,0.78125 -0.46875,0.78125 -0.46875,2.15625 z m 7.24877,-8.09375 v -0.4375 h 2.53125 v 10.54688 q 0,0.5625 0.0469,0.65625 0.0625,0.0937 0.3125,0.125 l 0.875,0.0937 v 0.42187 h -3.76563 v -0.42187 l 0.875,-0.0937 q 0.25,-0.0312 0.29688,-0.125 0.0625,-0.0937 0.0625,-0.65625 v -9.25 q 0,-0.5625 -0.0625,-0.65625 -0.0469,-0.0937 -0.29688,-0.125 z m 11.60988,9.57813 q -0.28125,1.09375 -1.07812,1.54687 -0.79688,0.4375 -1.75,0.4375 -1.78125,0 -2.65625,-1.07812 -0.875,-1.07813 -0.875,-2.89063 v -0.3125 q 0,-1.79687 0.84375,-2.875 0.84375,-1.07812 2.45312,-1.07812 0.875,0 1.57813,0.35937 0.71875,0.34375 1.14062,1.03125 0.42188,0.6875 0.42188,1.71875 0,0.46875 -0.0937,1 h -4.90625 v 0.48438 q 0,1.67187 0.51562,2.40625 0.51563,0.71875 1.6875,0.71875 0.73438,0 1.21875,-0.375 0.5,-0.39063 0.65625,-1.32813 z m -3.0625,-5.73438 q -0.9375,0 -1.40625,0.71875 -0.45312,0.71875 -0.45312,2.35938 h 3.59375 v -0.0469 q 0.0312,-0.20312 0.0469,-0.40625 0.0156,-0.20312 0.0156,-0.35937 0,-1.20313 -0.5,-1.73438 -0.48438,-0.53125 -1.29688,-0.53125 z m 8.17266,-3.84375 v -0.4375 h 2.53125 v 10.54688 q 0,0.5625 0.0469,0.65625 0.0625,0.0937 0.3125,0.125 l 0.875,0.0937 v 0.42187 h -3.76562 v -0.42187 l 0.875,-0.0937 q 0.25,-0.0312 0.29687,-0.125 0.0625,-0.0937 0.0625,-0.65625 v -9.25 q 0,-0.5625 -0.0625,-0.65625 -0.0469,-0.0937 -0.29687,-0.125 z m 11.391134,11.51563 q -1.25,0 -1.46875,-1.15625 -0.5625,0.64062 -1.23438,0.92187 -0.67187,0.28125 -1.32812,0.28125 -1.125,0 -1.65625,-0.625 -0.53125,-0.625 -0.53125,-1.5 0,-0.9375 0.64062,-1.48437 0.65625,-0.5625 2.26563,-0.5625 h 1.79687 v -1.29688 q 0,-1.28125 -0.4375,-1.76562 -0.4375,-0.48438 -1.1875,-0.48438 -0.48437,0 -0.875,0.1875 -0.375,0.1875 -0.54687,0.70313 -0.15625,0.5 -0.0312,1.45312 l -1.26563,-0.1875 q -0.0781,-0.75 0.20313,-1.34375 0.28125,-0.60937 0.92187,-0.96875 0.65625,-0.35937 1.625,-0.35937 1.17188,0 1.79688,0.39062 0.625,0.39063 0.85937,1.01563 0.25,0.625 0.25,1.35937 v 3.59375 q 0,0.82813 0.1875,1.03125 0.1875,0.20313 0.40625,0.20313 0.15625,0 0.3125,-0.0625 0.15625,-0.0781 0.34375,-0.23438 l 0.29688,0.39063 q -0.25,0.21875 -0.57813,0.35937 -0.32812,0.14063 -0.76562,0.14063 z m -3.59375,-0.625 q 0.45312,0 0.96875,-0.25 0.53125,-0.25 1.10937,-1 v -1.73438 h -1.625 q -0.89062,0 -1.3125,0.35938 -0.40625,0.35937 -0.40625,1.10937 0,0.71875 0.3125,1.125 0.3125,0.39063 0.95313,0.39063 z m 9.14588,1.3125 q -0.35937,0.98437 -0.78125,1.59375 -0.40625,0.625 -0.98437,0.89062 -0.57813,0.28125 -1.4375,0.28125 v -1.28125 q 1.15625,0 1.73437,-0.35937 0.59375,-0.35938 0.95313,-1.32813 l 0.20312,-0.59375 h -0.45312 l -2.35938,-6.71875 q -0.15625,-0.46875 -0.23437,-0.54687 -0.0781,-0.0937 -0.34375,-0.125 l -0.8125,-0.0937 v -0.4375 h 3.64062 v 0.4375 l -0.8125,0.0937 q -0.21875,0.0156 -0.25,0.10937 -0.0312,0.0937 0.125,0.5625 l 1.92188,5.53125 1.9375,-5.54687 q 0.14062,-0.46875 0.10937,-0.54688 -0.0156,-0.0781 -0.25,-0.10937 l -0.84375,-0.0937 v -0.4375 h 2.9375 v 0.4375 l -0.82812,0.0937 q -0.23438,0.0312 -0.3125,0.10937 -0.0781,0.0781 -0.23438,0.54688 z m 11.01864,-2.625 q -0.28125,1.09375 -1.07813,1.54687 -0.79687,0.4375 -1.75,0.4375 -1.78125,0 -2.65625,-1.07812 -0.875,-1.07813 -0.875,-2.89063 v -0.3125 q 0,-1.79687 0.84375,-2.875 0.84375,-1.07812 2.45313,-1.07812 0.875,0 1.57812,0.35937 0.71875,0.34375 1.14063,1.03125 0.42187,0.6875 0.42187,1.71875 0,0.46875 -0.0937,1 h -4.90625 v 0.48438 q 0,1.67187 0.51563,2.40625 0.51562,0.71875 1.6875,0.71875 0.73437,0 1.21875,-0.375 0.5,-0.39063 0.65625,-1.32813 z m -3.0625,-5.73438 q -0.9375,0 -1.40625,0.71875 -0.45313,0.71875 -0.45313,2.35938 h 3.59375 v -0.0469 q 0.0312,-0.20312 0.0469,-0.40625 0.0156,-0.20312 0.0156,-0.35937 0,-1.20313 -0.5,-1.73438 -0.48437,-0.53125 -1.29687,-0.53125 z m 4.65002,0.0781 v -0.4375 h 2.46875 v 1.28125 q 0.54687,-0.75 1.10937,-1.09375 0.57813,-0.34375 1.17188,-0.34375 0.51562,0 0.95312,0.3125 0.45313,0.29687 0.76563,0.96875 l -1.04688,0.625 q -0.23437,-0.57813 -0.54687,-0.79688 -0.29688,-0.23437 -0.67188,-0.23437 -0.39062,0 -0.79687,0.26562 -0.39063,0.25 -0.85938,0.95313 v 4.6875 q 0,0.5625 0.0469,0.67187 0.0469,0.0937 0.29687,0.10938 l 1.20313,0.0937 v 0.42187 h -4.09375 v -0.42187 l 0.875,-0.0937 q 0.26562,-0.0312 0.3125,-0.125 0.0469,-0.0937 0.0469,-0.65625 v -5.32813 q 0,-0.5625 -0.0469,-0.65625 -0.0469,-0.0937 -0.3125,-0.125 z"
         fill-rule="nonzero"
         id="path1090" />
      <path
         fill="#000000"
         fill-opacity="0"
         d="M 34.646451,67.967555 H 306.28025 V 108.38506 H 34.646451 Z"
         fill-rule="evenodd"
         id="path1092" />
      <path
         fill="#000000"
         d="m 52.224576,89.138805 v 0.34375 q 0,1.953125 -0.98438,3.125 -0.96875,1.171875 -2.781245,1.171875 -1.78125,0 -2.765625,-1.171875 -0.96875,-1.171875 -0.96875,-3.125 v -0.34375 q 0,-1.9375 0.96875,-3.109375 0.96875,-1.171875 2.765625,-1.171875 1.812495,0 2.781245,1.171875 0.98438,1.171875 0.98438,3.109375 z m -1.5625,-0.34375 q 0,-1.8125 -0.5625,-2.59375 -0.5625,-0.796875 -1.640625,-0.796875 -1.046875,0 -1.609375,0.796875 -0.5625,0.78125 -0.5625,2.59375 v 1.03125 q 0,1.828125 0.5625,2.625 0.5625,0.78125 1.609375,0.78125 1.078125,0 1.640625,-0.78125 0.5625,-0.796875 0.5625,-2.625 z m 12.51108,4.359375 v 0.453125 h -2.67188 V 92.21693 q -0.59375,0.8125 -1.375,1.1875 -0.76562,0.375 -1.53125,0.375 -1.23437,0 -1.92187,-0.78125 -0.67188,-0.796875 -0.67188,-2.234375 V 86.43568 q 0,-0.609375 -0.0625,-0.703125 -0.0469,-0.109375 -0.32812,-0.140625 l -0.95313,-0.09375 v -0.46875 h 2.76563 v 5.71875 q 0,1.28125 0.39062,1.8125 0.39063,0.53125 1.125,0.53125 0.5625,0 1.21875,-0.34375 0.67188,-0.359375 1.26563,-1.34375 v -4.96875 q 0,-0.609375 -0.0625,-0.71875 -0.0469,-0.109375 -0.32813,-0.125 l -1.29687,-0.09375 v -0.46875 h 3.10937 v 7.171875 q 0,0.609375 0.0469,0.71875 0.0469,0.09375 0.32812,0.140625 z m 6.83261,-1.3125 q -0.26563,1 -0.82813,1.46875 -0.54687,0.46875 -1.40625,0.46875 -0.84375,0 -1.35937,-0.375 -0.51563,-0.375 -0.76563,-0.96875 -0.23437,-0.609375 -0.23437,-1.265625 V 86.43568 q 0,-0.609375 -0.0469,-0.703125 -0.0469,-0.109375 -0.32812,-0.140625 l -0.95313,-0.09375 v -0.46875 h 1.32813 v -2.265625 l 1.42187,-0.296875 v 2.5625 h 2.82813 v 0.5625 h -2.82813 v 5.71875 q 0,1.078125 0.29688,1.5 0.3125,0.421875 0.8125,0.421875 0.5,0 0.76562,-0.375 0.26563,-0.390625 0.39063,-1.265625 z m 8.3622,-0.203125 q -0.3125,1.171875 -1.17188,1.65625 -0.85937,0.484375 -1.89062,0.484375 -1.92188,0 -2.875,-1.171875 -0.95313,-1.171875 -0.95313,-3.125 v -0.34375 q 0,-1.9375 0.90625,-3.109375 0.92188,-1.171875 2.67188,-1.171875 0.9375,0 1.70312,0.390625 0.78125,0.375 1.23438,1.125 0.46875,0.734375 0.46875,1.84375 0,0.515625 -0.10938,1.09375 h -5.3125 v 0.515625 q 0,1.828125 0.5625,2.625 0.5625,0.78125 1.82813,0.78125 0.79687,0 1.3125,-0.421875 0.53125,-0.421875 0.70312,-1.4375 z m -3.3125,-6.234375 q -1.01563,0 -1.51563,0.78125 -0.5,0.78125 -0.5,2.5625 h 3.89063 v -0.04687 q 0.0312,-0.21875 0.0469,-0.4375 0.0312,-0.21875 0.0312,-0.390625 0,-1.296875 -0.54687,-1.875 -0.53125,-0.59375 -1.40625,-0.59375 z m 5.03471,0.09375 v -0.46875 h 2.67188 v 1.390625 q 0.59375,-0.8125 1.20312,-1.1875 0.625,-0.375 1.26563,-0.375 0.5625,0 1.04687,0.328125 0.48438,0.328125 0.8125,1.0625 l -1.125,0.671875 q -0.26562,-0.625 -0.59375,-0.859375 -0.32812,-0.25 -0.73437,-0.25 -0.42188,0 -0.85938,0.28125 -0.42187,0.265625 -0.9375,1.03125 v 5.078125 q 0,0.609375 0.0469,0.71875 0.0625,0.109375 0.34375,0.140625 l 1.29687,0.09375 v 0.453125 h -4.4375 V 93.15443 l 0.95313,-0.09375 q 0.28125,-0.04687 0.32812,-0.140625 0.0469,-0.109375 0.0469,-0.71875 V 86.43568 q 0,-0.609375 -0.0469,-0.703125 -0.0469,-0.109375 -0.32812,-0.140625 z m 11.41547,-4.25 v -0.46875 h 2.75 v 11.421875 q 0,0.609375 0.0469,0.71875 0.0625,0.09375 0.34375,0.140625 l 0.95313,0.09375 v 0.453125 h -4.09375 V 93.15443 l 0.95312,-0.09375 q 0.28125,-0.04687 0.32813,-0.140625 0.0469,-0.109375 0.0469,-0.71875 V 82.18568 q 0,-0.609375 -0.0469,-0.703125 -0.0469,-0.109375 -0.32813,-0.140625 z m 12.342744,12.484375 q -1.35938,0 -1.59375,-1.25 -0.60938,0.6875 -1.34375,1 -0.71875,0.296875 -1.437504,0.296875 -1.20313,0 -1.78125,-0.671875 -0.57813,-0.671875 -0.57813,-1.625 0,-1.03125 0.70313,-1.625 0.70312,-0.59375 2.437504,-0.59375 h 1.95312 v -1.40625 q 0,-1.390625 -0.48437,-1.921875 -0.46875,-0.53125 -1.28125,-0.53125 -0.515634,0 -0.937504,0.21875 -0.40625,0.203125 -0.59375,0.75 -0.17188,0.546875 -0.0469,1.578125 l -1.35937,-0.203125 q -0.0937,-0.8125 0.20312,-1.453125 0.3125,-0.65625 1.01563,-1.046875 0.70312,-0.390625 1.765624,-0.390625 1.26563,0 1.9375,0.421875 0.67188,0.421875 0.9375,1.109375 0.26563,0.671875 0.26563,1.46875 v 3.890625 q 0,0.890625 0.20312,1.125 0.20313,0.21875 0.4375,0.21875 0.15625,0 0.32813,-0.07813 0.1875,-0.07813 0.39062,-0.25 l 0.3125,0.421875 q -0.26562,0.234375 -0.625,0.390625 -0.34375,0.15625 -0.82812,0.15625 z M 99.957756,93.06068 q 0.484384,0 1.046884,-0.265625 0.5625,-0.28125 1.20312,-1.09375 V 89.81068 h -1.76562 q -0.968754,0 -1.406254,0.390625 -0.4375,0.390625 -0.4375,1.203125 0,0.78125 0.32812,1.21875 0.34375,0.4375 1.03125,0.4375 z m 9.906474,1.40625 q -0.39063,1.0625 -0.84375,1.71875 -0.45313,0.671875 -1.07813,0.96875 -0.60937,0.3125 -1.54687,0.3125 v -1.375 q 1.25,0 1.89062,-0.390625 0.64063,-0.390625 1.01563,-1.453125 l 0.21875,-0.640625 h -0.5 l -2.54688,-7.28125 q -0.17187,-0.5 -0.26562,-0.59375 -0.0781,-0.09375 -0.35938,-0.125 l -0.875,-0.109375 v -0.46875 h 3.95313 v 0.46875 l -0.89063,0.109375 q -0.23437,0.01563 -0.28125,0.125 -0.0312,0.09375 0.14063,0.59375 l 2.07812,6 2.09375,-6.015625 q 0.15625,-0.5 0.125,-0.578125 -0.0156,-0.09375 -0.28125,-0.125 l -0.89062,-0.109375 v -0.46875 h 3.17187 v 0.46875 l -0.89062,0.109375 q -0.25,0.03125 -0.34375,0.125 -0.0937,0.07813 -0.26563,0.578125 z m 11.92753,-2.828125 q -0.3125,1.171875 -1.17187,1.65625 -0.85938,0.484375 -1.89063,0.484375 -1.92187,0 -2.875,-1.171875 -0.95312,-1.171875 -0.95312,-3.125 v -0.34375 q 0,-1.9375 0.90625,-3.109375 0.92187,-1.171875 2.67187,-1.171875 0.9375,0 1.70313,0.390625 0.78125,0.375 1.23437,1.125 0.46875,0.734375 0.46875,1.84375 0,0.515625 -0.10937,1.09375 h -5.3125 v 0.515625 q 0,1.828125 0.5625,2.625 0.5625,0.78125 1.82812,0.78125 0.79688,0 1.3125,-0.421875 0.53125,-0.421875 0.70313,-1.4375 z m -3.3125,-6.234375 q -1.01562,0 -1.51562,0.78125 -0.5,0.78125 -0.5,2.5625 h 3.89062 v -0.04687 q 0.0312,-0.21875 0.0469,-0.4375 0.0312,-0.21875 0.0312,-0.390625 0,-1.296875 -0.54688,-1.875 -0.53125,-0.59375 -1.40625,-0.59375 z m 5.03472,0.09375 v -0.46875 h 2.67187 v 1.390625 q 0.59375,-0.8125 1.20313,-1.1875 0.625,-0.375 1.26562,-0.375 0.5625,0 1.04688,0.328125 0.48437,0.328125 0.8125,1.0625 l -1.125,0.671875 q -0.26563,-0.625 -0.59375,-0.859375 -0.32813,-0.25 -0.73438,-0.25 -0.42187,0 -0.85937,0.28125 -0.42188,0.265625 -0.9375,1.03125 v 5.078125 q 0,0.609375 0.0469,0.71875 0.0625,0.109375 0.34375,0.140625 l 1.29688,0.09375 v 0.453125 h -4.4375 V 93.15443 l 0.95312,-0.09375 q 0.28125,-0.04687 0.32813,-0.140625 0.0469,-0.109375 0.0469,-0.71875 V 86.43568 q 0,-0.609375 -0.0469,-0.703125 -0.0469,-0.109375 -0.32813,-0.140625 z"
         fill-rule="nonzero"
         id="path1094" />
      <path
         fill="#000000"
         fill-opacity="0"
         d="M 33.187776,257.97639 H 304.82158 V 298.3939 H 33.187776 Z"
         fill-rule="evenodd"
         id="path1096" />
      <path
         fill="#000000"
         d="m 44.828396,273.10079 q -0.421875,0 -0.6875,-0.26563 -0.265625,-0.28125 -0.265625,-0.70312 0,-0.42188 0.265625,-0.67188 0.265625,-0.26562 0.6875,-0.26562 0.40625,0 0.671875,0.26562 0.28125,0.25 0.28125,0.67188 0,0.42187 -0.28125,0.70312 -0.265625,0.26563 -0.671875,0.26563 z m -2.03125,2.40625 v -0.46875 h 2.75 v 7.17187 q 0,0.60938 0.04687,0.71875 0.0625,0.0937 0.34375,0.14063 l 0.953125,0.0937 v 0.45312 h -4.093745 v -0.45307 l 0.953125,-0.0937 q 0.28125,-0.0469 0.328125,-0.14063 0.04687,-0.10937 0.04687,-0.71875 v -5.76562 q 0,-0.60938 -0.04687,-0.70313 -0.04687,-0.10937 -0.328125,-0.14062 z m 14.86858,7.65625 v 0.45312 h -4.09375 v -0.45312 l 0.95312,-0.0937 q 0.28125,-0.0469 0.32813,-0.14063 0.0469,-0.10937 0.0469,-0.71875 v -4.3125 q 0,-1.28125 -0.42187,-1.8125 -0.40625,-0.53125 -1.1875,-0.53125 -0.5625,0 -1.26563,0.35938 -0.6875,0.34375 -1.29687,1.34375 v 4.95312 q 0,0.60938 0.0469,0.71875 0.0625,0.0937 0.34375,0.14063 l 0.95313,0.0937 v 0.45312 h -4.093814 v -0.45312 l 0.953125,-0.0937 q 0.28125,-0.0469 0.328125,-0.14063 0.04687,-0.10937 0.04687,-0.71875 v -5.76562 q 0,-0.60938 -0.04687,-0.70313 -0.04687,-0.10937 -0.328125,-0.14062 l -0.953125,-0.0937 v -0.46885 h 2.671874 v 1.40625 q 0.625,-0.82813 1.40625,-1.20313 0.78125,-0.375 1.57813,-0.375 1.29687,0 1.98437,0.79688 0.70313,0.78125 0.70313,2.21875 v 4.32812 q 0,0.60938 0.0469,0.71875 0.0625,0.0937 0.34375,0.14063 z m 10.69139,0 v 0.45312 h -4.09375 v -0.45312 l 0.95312,-0.0937 q 0.28125,-0.0469 0.32813,-0.14063 0.0469,-0.10937 0.0469,-0.71875 v -4.3125 q 0,-1.28125 -0.42187,-1.8125 -0.40625,-0.53125 -1.1875,-0.53125 -0.5625,0 -1.26563,0.35938 -0.6875,0.34375 -1.29687,1.34375 v 4.95312 q 0,0.60938 0.0469,0.71875 0.0625,0.0937 0.34375,0.14063 l 0.95313,0.0937 v 0.45312 h -4.09375 v -0.45312 l 0.95312,-0.0937 q 0.28125,-0.0469 0.32813,-0.14063 0.0469,-0.10937 0.0469,-0.71875 v -5.76562 q 0,-0.60938 -0.0469,-0.70313 -0.0469,-0.10937 -0.32813,-0.14062 l -0.95312,-0.0937 v -0.46885 h 2.67187 v 1.40625 q 0.625,-0.82813 1.40625,-1.20313 0.78125,-0.375 1.57813,-0.375 1.29687,0 1.98437,0.79688 0.70313,0.78125 0.70313,2.21875 v 4.32812 q 0,0.60938 0.0469,0.71875 0.0625,0.0937 0.34375,0.14063 z m 8.37889,-1.51563 q -0.3125,1.17188 -1.17188,1.65625 -0.85937,0.48438 -1.89062,0.48438 -1.92188,0 -2.875,-1.17188 -0.95313,-1.17187 -0.95313,-3.125 v -0.34375 q 0,-1.9375 0.90625,-3.10937 0.92188,-1.17188 2.67188,-1.17188 0.9375,0 1.70312,0.39063 0.78125,0.375 1.23438,1.125 0.46875,0.73437 0.46875,1.84375 0,0.51562 -0.10938,1.09375 h -5.3125 v 0.51562 q 0,1.82813 0.5625,2.625 0.5625,0.78125 1.82813,0.78125 0.79687,0 1.3125,-0.42187 0.53125,-0.42188 0.70312,-1.4375 z m -3.3125,-6.23437 q -1.01563,0 -1.51563,0.78125 -0.5,0.78125 -0.5,2.5625 h 3.89063 v -0.0469 q 0.0312,-0.21875 0.0469,-0.4375 0.0312,-0.21875 0.0312,-0.39062 0,-1.29688 -0.54687,-1.875 -0.53125,-0.59375 -1.40625,-0.59375 z m 5.03471,0.0937 v -0.4687 h 2.67188 v 1.39062 q 0.59375,-0.8125 1.20312,-1.1875 0.625,-0.375 1.26563,-0.375 0.5625,0 1.04687,0.32813 0.48438,0.32812 0.8125,1.0625 l -1.125,0.67187 q -0.26562,-0.625 -0.59375,-0.85937 -0.32812,-0.25 -0.73437,-0.25 -0.42188,0 -0.85938,0.28125 -0.42187,0.26562 -0.9375,1.03125 v 5.07812 q 0,0.60938 0.0469,0.71875 0.0625,0.10938 0.34375,0.14063 l 1.29687,0.0937 v 0.45312 h -4.4375 v -0.45307 l 0.95313,-0.0937 q 0.28125,-0.0469 0.32812,-0.14063 0.0469,-0.10937 0.0469,-0.71875 v -5.76562 q 0,-0.60938 -0.0469,-0.70313 -0.0469,-0.10937 -0.32812,-0.14062 z m 11.41547,-4.25 v -0.4687 h 2.75 v 11.42187 q 0,0.60938 0.0469,0.71875 0.0625,0.0937 0.34375,0.14063 l 0.95313,0.0937 v 0.45312 h -4.09375 v -0.45307 l 0.95312,-0.0937 q 0.28125,-0.0469 0.32813,-0.14063 0.0469,-0.10937 0.0469,-0.71875 v -10.01562 q 0,-0.60938 -0.0469,-0.70313 -0.0469,-0.10937 -0.32813,-0.14062 z m 12.342744,12.48437 q -1.35937,0 -1.59375,-1.25 -0.60937,0.6875 -1.343754,1 -0.71875,0.29688 -1.4375,0.29688 -1.20312,0 -1.78125,-0.67188 -0.57812,-0.67187 -0.57812,-1.625 0,-1.03125 0.70312,-1.625 0.70313,-0.59375 2.4375,-0.59375 h 1.953134 v -1.40625 q 0,-1.39062 -0.48438,-1.92187 -0.468754,-0.53125 -1.281254,-0.53125 -0.51562,0 -0.9375,0.21875 -0.40625,0.20312 -0.59375,0.75 -0.17187,0.54687 -0.0469,1.57812 l -1.35938,-0.20312 q -0.0937,-0.8125 0.20313,-1.45313 0.3125,-0.65625 1.01562,-1.04687 0.70313,-0.39063 1.76563,-0.39063 1.265624,0 1.937504,0.42188 0.67187,0.42187 0.9375,1.10937 0.26562,0.67188 0.26562,1.46875 v 3.89063 q 0,0.89062 0.20313,1.125 0.20312,0.21875 0.4375,0.21875 0.15625,0 0.32812,-0.0781 0.1875,-0.0781 0.39063,-0.25 l 0.3125,0.42188 q -0.26563,0.23437 -0.625,0.39062 -0.34375,0.15625 -0.82813,0.15625 z m -3.890624,-0.67187 q 0.48437,0 1.04687,-0.26563 0.5625,-0.28125 1.203134,-1.09375 v -1.89062 h -1.765634 q -0.96875,0 -1.40625,0.39062 -0.4375,0.39063 -0.4375,1.20313 0,0.78125 0.32813,1.21875 0.34375,0.4375 1.03125,0.4375 z m 9.906464,1.40625 q -0.39063,1.0625 -0.84375,1.71875 -0.45313,0.67187 -1.07813,0.96875 -0.60937,0.3125 -1.54687,0.3125 v -1.375 q 1.25,0 1.89062,-0.39063 0.64063,-0.39062 1.01563,-1.45312 l 0.21875,-0.64063 h -0.5 l -2.54688,-7.28125 q -0.17187,-0.5 -0.26562,-0.59375 -0.0781,-0.0937 -0.35938,-0.125 l -0.875,-0.10937 v -0.4687 h 3.95313 v 0.46875 l -0.89063,0.10937 q -0.23437,0.0156 -0.28125,0.125 -0.0312,0.0937 0.14063,0.59375 l 2.07812,6 2.09375,-6.01562 q 0.15625,-0.5 0.125,-0.57813 -0.0156,-0.0937 -0.28125,-0.125 l -0.89062,-0.10937 v -0.46875 h 3.17187 v 0.46875 l -0.89062,0.10937 q -0.25,0.0312 -0.34375,0.125 -0.0937,0.0781 -0.26563,0.57813 z m 11.92754,-2.82813 q -0.3125,1.17188 -1.17188,1.65625 -0.85937,0.48438 -1.89062,0.48438 -1.92188,0 -2.875,-1.17188 -0.95313,-1.17187 -0.95313,-3.125 v -0.34375 q 0,-1.9375 0.90625,-3.10937 0.92188,-1.17188 2.67188,-1.17188 0.9375,0 1.70312,0.39063 0.78125,0.375 1.23438,1.125 0.46875,0.73437 0.46875,1.84375 0,0.51562 -0.10938,1.09375 h -5.3125 v 0.51562 q 0,1.82813 0.5625,2.625 0.5625,0.78125 1.82813,0.78125 0.79687,0 1.3125,-0.42187 0.53125,-0.42188 0.70312,-1.4375 z m -3.3125,-6.23437 q -1.01563,0 -1.51563,0.78125 -0.5,0.78125 -0.5,2.5625 h 3.89063 v -0.0469 q 0.0312,-0.21875 0.0469,-0.4375 0.0312,-0.21875 0.0312,-0.39062 0,-1.29688 -0.54687,-1.875 -0.53125,-0.59375 -1.40625,-0.59375 z m 5.03471,0.0937 v -0.46865 h 2.67187 v 1.39062 q 0.59375,-0.8125 1.20313,-1.1875 0.625,-0.375 1.26562,-0.375 0.5625,0 1.04688,0.32813 0.48437,0.32812 0.8125,1.0625 l -1.125,0.67187 q -0.26563,-0.625 -0.59375,-0.85937 -0.32813,-0.25 -0.73438,-0.25 -0.42187,0 -0.85937,0.28125 -0.42188,0.26562 -0.9375,1.03125 v 5.07812 q 0,0.60938 0.0469,0.71875 0.0625,0.10938 0.34375,0.14063 l 1.29688,0.0937 v 0.45312 h -4.4375 v -0.45307 l 0.95312,-0.0937 q 0.28125,-0.0469 0.32813,-0.14063 0.0469,-0.10937 0.0469,-0.71875 v -5.76562 q 0,-0.60938 -0.0469,-0.70313 -0.0469,-0.10937 -0.32813,-0.14062 z"
         fill-rule="nonzero"
         id="path1098" />
    </g>
  </g>
</svg>
