<?xml version="1.0" encoding="UTF-8" standalone="no"?><!DOCTYPE svg PUBLIC "-//W3C//DTD SVG 1.1//EN" "http://www.w3.org/Graphics/SVG/1.1/DTD/svg11.dtd"><svg width="100%" height="100%" viewBox="0 0 74 20" version="1.1" xmlns="http://www.w3.org/2000/svg" xmlns:xlink="http://www.w3.org/1999/xlink" xml:space="preserve" xmlns:serif="http://www.serif.com/" style="fill-rule:evenodd;clip-rule:evenodd;stroke-miterlimit:10;"><g><clipPath id="_clip1"><rect x="0.235" y="0.2" width="73.476" height="18.893" clip-rule="nonzero"/></clipPath><g clip-path="url(#_clip1)"><g><clipPath id="_clip2"><rect x="0.235" y="3.781" width="34.794" height="12.556" clip-rule="nonzero"/></clipPath><g clip-path="url(#_clip2)"><text x="18.282px" y="15.455px" style="font-family:'Helvetica';font-size:2.004px;fill:#23373b;">(a)</text><path d="M30.092,14.929c-5.846,-5.846 -15.325,-5.846 -21.171,-0" style="fill:none;fill-rule:nonzero;stroke:#23373b;stroke-width:0.18px;"/><path d="M33.621,11.4c-7.795,-7.795 -20.434,-7.795 -28.229,0" style="fill:none;fill-rule:nonzero;stroke:#23373b;stroke-width:0.18px;"/><path d="M29.21,15.811c-5.359,-5.359 -14.048,-5.359 -19.407,0" style="fill:none;fill-rule:nonzero;stroke:#4d4d4d;stroke-width:0.18px;"/><path d="M34.503,10.518c-8.282,-8.282 -21.711,-8.282 -29.993,0" style="fill:none;fill-rule:nonzero;stroke:#4d4d4d;stroke-width:0.18px;"/><path d="M34.147,11.4c0,-0.29 -0.236,-0.526 -0.526,-0.526c-0.29,0 -0.526,0.236 -0.526,0.526c-0,0.291 0.236,0.527 0.526,0.527c0.29,-0 0.526,-0.236 0.526,-0.527Z" style="fill:#ff993e;stroke:#23373b;stroke-width:0.07px;"/><path d="M29.095,7.73c-0,-0.291 -0.236,-0.527 -0.526,-0.527c-0.291,0 -0.526,0.236 -0.526,0.527c-0,0.29 0.235,0.526 0.526,0.526c0.29,-0 0.526,-0.236 0.526,-0.526Z" style="fill:#ff993e;stroke:#23373b;stroke-width:0.07px;"/><path d="M23.155,5.8c0,-0.291 -0.235,-0.526 -0.526,-0.526c-0.29,-0 -0.526,0.235 -0.526,0.526c0,0.29 0.236,0.526 0.526,0.526c0.291,-0 0.526,-0.236 0.526,-0.526Z" style="fill:#ff993e;stroke:#23373b;stroke-width:0.07px;"/><path d="M16.91,5.8c0,-0.291 -0.235,-0.526 -0.526,-0.526c-0.29,-0 -0.526,0.235 -0.526,0.526c-0,0.29 0.236,0.526 0.526,0.526c0.291,-0 0.526,-0.236 0.526,-0.526Z" style="fill:#ff993e;stroke:#23373b;stroke-width:0.07px;"/><path d="M10.971,7.73c-0,-0.291 -0.236,-0.527 -0.526,-0.527c-0.291,0 -0.527,0.236 -0.527,0.527c0,0.29 0.236,0.526 0.527,0.526c0.29,-0 0.526,-0.236 0.526,-0.526Z" style="fill:#ff993e;stroke:#23373b;stroke-width:0.07px;"/><path d="M5.918,11.4c0,-0.29 -0.235,-0.526 -0.526,-0.526c-0.29,0 -0.526,0.236 -0.526,0.526c0,0.291 0.236,0.527 0.526,0.527c0.291,-0 0.526,-0.236 0.526,-0.527Z" style="fill:#ff993e;stroke:#23373b;stroke-width:0.07px;"/><path d="M31.745,11.28l-0.777,-0.449c-0.263,-0.152 -0.599,-0.062 -0.75,0.201l-0.2,0.345c-0.151,0.263 -0.061,0.598 0.201,0.75l0.778,0.449c0.263,0.152 0.598,0.062 0.75,-0.201l0.199,-0.345c0.152,-0.263 0.062,-0.599 -0.201,-0.75Z" style="fill:#ff993e;fill-rule:nonzero;stroke:#23373b;stroke-width:0.07px;"/><path d="M33.585,14.314l-6.165,-3.56c-0.087,-0.05 -0.199,-0.02 -0.25,0.067l-0.066,0.115c-0.051,0.088 -0.021,0.2 0.067,0.25l6.165,3.56c0.087,0.05 0.199,0.02 0.25,-0.067l0.066,-0.115c0.051,-0.088 0.021,-0.2 -0.067,-0.25Z" style="fill:#56b356;fill-rule:nonzero;stroke:#23373b;stroke-width:0.07px;"/><path d="M28.031,11.825l4.322,2.495l-0.375,0.648l-4.321,-2.495l0.374,-0.648Z" style="fill:#ff993e;stroke:#23373b;stroke-width:0.07px;"/><path d="M31.631,12.962l1.512,0.873l-0.764,-2.169l-0.748,1.296Z" style="fill:#ff993e;fill-rule:nonzero;stroke:#23373b;stroke-width:0.07px;"/><path d="M32.51,12.951c0.085,-0.146 0.034,-0.334 -0.112,-0.419c-0.147,-0.085 -0.335,-0.034 -0.42,0.112c-0.084,0.147 -0.034,0.335 0.113,0.42c0.146,0.084 0.334,0.034 0.419,-0.113Z" style="fill:#fff;stroke:#23373b;stroke-width:0.07px;"/><path d="M30.486,10.532l-2.865,0.095" style="fill:none;fill-rule:nonzero;stroke:#ff993e;stroke-width:0.37px;"/><path d="M24.583,7.441l-0.895,-0.079c-0.302,-0.026 -0.568,0.197 -0.595,0.499l-0.034,0.398c-0.027,0.302 0.197,0.568 0.499,0.595l0.894,0.078c0.302,0.026 0.569,-0.197 0.595,-0.499l0.035,-0.398c0.026,-0.302 -0.197,-0.568 -0.499,-0.594Z" style="fill:#ff993e;fill-rule:nonzero;stroke:#23373b;stroke-width:0.07px;"/><path d="M27.533,9.413l-7.092,-0.621c-0.101,-0.008 -0.19,0.066 -0.199,0.167l-0.011,0.132c-0.009,0.101 0.066,0.19 0.166,0.198l7.092,0.621c0.101,0.009 0.19,-0.066 0.199,-0.167l0.011,-0.132c0.009,-0.101 -0.066,-0.19 -0.166,-0.198Z" style="fill:#56b356;fill-rule:nonzero;stroke:#23373b;stroke-width:0.07px;"/><path d="M21.447,9.505l4.971,0.434l-0.065,0.746l-4.971,-0.435l0.065,-0.745Z" style="fill:#ff993e;stroke:#23373b;stroke-width:0.07px;"/><path d="M25.19,9.014l1.74,0.152l-1.61,-1.643l-0.13,1.491Z" style="fill:#ff993e;fill-rule:nonzero;stroke:#23373b;stroke-width:0.07px;"/><path d="M25.982,8.633c0.015,-0.169 -0.11,-0.318 -0.279,-0.333c-0.168,-0.015 -0.317,0.11 -0.332,0.279c-0.015,0.169 0.11,0.318 0.279,0.333c0.169,0.014 0.318,-0.111 0.332,-0.279Z" style="fill:#fff;stroke:#23373b;stroke-width:0.07px;"/><path d="M23.125,7.295l-2.556,1.297" style="fill:none;fill-rule:nonzero;stroke:#ff993e;stroke-width:0.37px;"/><path d="M16.47,6.989l-0.844,0.307c-0.285,0.103 -0.432,0.418 -0.328,0.703l0.136,0.375c0.104,0.285 0.419,0.432 0.704,0.328l0.844,-0.307c0.284,-0.103 0.431,-0.418 0.328,-0.703l-0.137,-0.375c-0.103,-0.285 -0.418,-0.432 -0.703,-0.328Z" style="fill:#ff993e;fill-rule:nonzero;stroke:#23373b;stroke-width:0.07px;"/><path d="M19.977,7.529l-6.69,2.435c-0.095,0.034 -0.144,0.139 -0.11,0.234l0.046,0.125c0.034,0.095 0.139,0.144 0.234,0.11l6.69,-2.435c0.095,-0.034 0.144,-0.139 0.11,-0.234l-0.046,-0.125c-0.034,-0.095 -0.139,-0.144 -0.234,-0.11Z" style="fill:#56b356;fill-rule:nonzero;stroke:#23373b;stroke-width:0.07px;"/><path d="M14.5,10.184l4.689,-1.706l0.256,0.703l-4.69,1.707l-0.255,-0.704Z" style="fill:#ff993e;stroke:#23373b;stroke-width:0.07px;"/><path d="M17.685,8.158l1.641,-0.597l-2.153,-0.81l0.512,1.407Z" style="fill:#ff993e;fill-rule:nonzero;stroke:#23373b;stroke-width:0.07px;"/><path d="M18.242,7.478c-0.058,-0.16 -0.235,-0.242 -0.394,-0.184c-0.159,0.058 -0.241,0.234 -0.183,0.393c0.058,0.16 0.234,0.242 0.393,0.184c0.159,-0.058 0.242,-0.234 0.184,-0.393Z" style="fill:#fff;stroke:#23373b;stroke-width:0.07px;"/><path d="M15.087,7.473l-1.769,2.255" style="fill:none;fill-rule:nonzero;stroke:#ff993e;stroke-width:0.37px;"/><path d="M8.924,10.008l-0.635,0.635c-0.214,0.214 -0.214,0.562 0,0.777l0.282,0.282c0.215,0.214 0.563,0.214 0.777,-0l0.635,-0.635c0.214,-0.215 0.214,-0.562 -0,-0.777l-0.282,-0.282c-0.215,-0.214 -0.562,-0.214 -0.777,0Z" style="fill:#ff993e;fill-rule:nonzero;stroke:#23373b;stroke-width:0.07px;"/><path d="M12.331,9.016l-5.034,5.034c-0.071,0.071 -0.071,0.187 0,0.259l0.094,0.094c0.072,0.071 0.188,0.071 0.259,-0l5.034,-5.034c0.072,-0.071 0.072,-0.187 0,-0.259l-0.094,-0.094c-0.071,-0.071 -0.187,-0.071 -0.259,0Z" style="fill:#56b356;fill-rule:nonzero;stroke:#23373b;stroke-width:0.07px;"/><path d="M8.49,13.737l3.528,-3.528l0.529,0.529l-3.528,3.528l-0.529,-0.529Z" style="fill:#ff993e;stroke:#23373b;stroke-width:0.07px;"/><path d="M10.52,10.555l1.235,-1.235l-2.293,0.176l1.058,1.059Z" style="fill:#ff993e;fill-rule:nonzero;stroke:#23373b;stroke-width:0.07px;"/><path d="M10.737,9.702c-0.12,-0.119 -0.314,-0.119 -0.434,0c-0.12,0.12 -0.12,0.315 0,0.434c0.12,0.12 0.314,0.12 0.434,0c0.12,-0.119 0.12,-0.314 0,-0.434Z" style="fill:#fff;stroke:#23373b;stroke-width:0.07px;"/><path d="M7.876,11.031l-0.65,2.792" style="fill:none;fill-rule:nonzero;stroke:#ff993e;stroke-width:0.37px;"/></g></g><g><clipPath id="_clip3"><rect x="41.477" y="3.781" width="31.044" height="12.556" clip-rule="nonzero"/></clipPath><g clip-path="url(#_clip3)"><text x="55.774px" y="15.455px" style="font-family:'Helvetica';font-size:2.004px;fill:#23373b;">(b)</text><path d="M71.64,11.4c-0,-0.29 -0.236,-0.526 -0.527,-0.526c-0.29,0 -0.526,0.236 -0.526,0.526c0,0.291 0.236,0.527 0.526,0.527c0.291,-0 0.527,-0.236 0.527,-0.527Z" style="fill:#f2f2f2;stroke:#808080;stroke-width:0.07px;"/><path d="M66.587,7.73c0,-0.291 -0.236,-0.527 -0.526,-0.527c-0.29,0 -0.526,0.236 -0.526,0.527c-0,0.29 0.236,0.526 0.526,0.526c0.29,-0 0.526,-0.236 0.526,-0.526Z" style="fill:#f2f2f2;stroke:#808080;stroke-width:0.07px;"/><path d="M60.648,5.8c-0,-0.291 -0.236,-0.526 -0.527,-0.526c-0.29,-0 -0.526,0.235 -0.526,0.526c0,0.29 0.236,0.526 0.526,0.526c0.291,-0 0.527,-0.236 0.527,-0.526Z" style="fill:#f2f2f2;stroke:#808080;stroke-width:0.07px;"/><path d="M54.403,5.8c-0,-0.291 -0.236,-0.526 -0.527,-0.526c-0.29,-0 -0.526,0.235 -0.526,0.526c0,0.29 0.236,0.526 0.526,0.526c0.291,-0 0.527,-0.236 0.527,-0.526Z" style="fill:#f2f2f2;stroke:#808080;stroke-width:0.07px;"/><path d="M48.463,7.73c0,-0.291 -0.236,-0.527 -0.526,-0.527c-0.291,0 -0.526,0.236 -0.526,0.527c-0,0.29 0.235,0.526 0.526,0.526c0.29,-0 0.526,-0.236 0.526,-0.526Z" style="fill:#f2f2f2;stroke:#808080;stroke-width:0.07px;"/><path d="M43.411,11.4c-0,-0.29 -0.236,-0.526 -0.526,-0.526c-0.291,0 -0.527,0.236 -0.527,0.526c0,0.291 0.236,0.527 0.527,0.527c0.29,-0 0.526,-0.236 0.526,-0.527Z" style="fill:#f2f2f2;stroke:#808080;stroke-width:0.07px;"/><path d="M67.585,14.929c-5.847,-5.846 -15.326,-5.846 -21.172,-0" style="fill:none;fill-rule:nonzero;stroke:#17becf;stroke-width:0.27px;stroke-dasharray:0.55,0.55;"/><path d="M71.113,11.4c-7.795,-7.795 -20.433,-7.795 -28.228,0" style="fill:none;fill-rule:nonzero;stroke:#17becf;stroke-width:0.27px;stroke-dasharray:0.55,0.55;"/><path d="M66.703,15.811c-5.359,-5.359 -14.049,-5.359 -19.408,0" style="fill:none;fill-rule:nonzero;stroke:#1f77b4;stroke-width:0.27px;stroke-dasharray:0.55,0.55;"/><path d="M71.995,10.518c-8.282,-8.282 -21.71,-8.282 -29.993,0" style="fill:none;fill-rule:nonzero;stroke:#1f77b4;stroke-width:0.27px;stroke-dasharray:0.55,0.55;"/><path d="M69.238,11.28l-0.778,-0.449c-0.262,-0.152 -0.598,-0.062 -0.75,0.201l-0.199,0.345c-0.152,0.263 -0.062,0.598 0.201,0.75l0.777,0.449c0.263,0.152 0.599,0.062 0.75,-0.201l0.2,-0.345c0.151,-0.263 0.061,-0.599 -0.201,-0.75Z" style="fill:#f2f2f2;fill-rule:nonzero;stroke:#808080;stroke-width:0.07px;"/><path d="M71.078,14.314l-6.165,-3.56c-0.088,-0.05 -0.2,-0.02 -0.25,0.067l-0.067,0.115c-0.05,0.088 -0.02,0.2 0.067,0.25l6.165,3.56c0.088,0.05 0.2,0.02 0.25,-0.067l0.067,-0.115c0.05,-0.088 0.02,-0.2 -0.067,-0.25Z" style="fill:#56b356;fill-rule:nonzero;stroke:#000;stroke-width:0.07px;"/><path d="M65.524,11.825l4.321,2.495l-0.374,0.648l-4.322,-2.495l0.375,-0.648Z" style="fill:#f2f2f2;stroke:#808080;stroke-width:0.07px;"/><path d="M69.123,12.962l1.513,0.873l-0.764,-2.169l-0.749,1.296Z" style="fill:#d9d9d9;fill-rule:nonzero;stroke:#808080;stroke-width:0.07px;"/><path d="M70.002,12.951c0.085,-0.146 0.035,-0.334 -0.112,-0.419c-0.147,-0.085 -0.335,-0.034 -0.419,0.112c-0.085,0.147 -0.035,0.335 0.112,0.42c0.147,0.084 0.335,0.034 0.419,-0.113Z" style="fill:#fff;stroke:#808080;stroke-width:0.07px;"/><path d="M67.978,10.532l-2.865,0.095" style="fill:none;fill-rule:nonzero;stroke:#f2f2f2;stroke-width:0.37px;"/><path d="M62.075,7.441l-0.894,-0.079c-0.302,-0.026 -0.569,0.197 -0.595,0.499l-0.035,0.398c-0.026,0.302 0.197,0.568 0.499,0.595l0.895,0.078c0.302,0.026 0.568,-0.197 0.594,-0.499l0.035,-0.398c0.027,-0.302 -0.197,-0.568 -0.499,-0.594Z" style="fill:#f2f2f2;fill-rule:nonzero;stroke:#808080;stroke-width:0.07px;"/><path d="M65.025,9.413l-7.092,-0.621c-0.101,-0.008 -0.189,0.066 -0.198,0.167l-0.012,0.132c-0.009,0.101 0.066,0.19 0.167,0.198l7.092,0.621c0.1,0.009 0.189,-0.066 0.198,-0.167l0.011,-0.132c0.009,-0.101 -0.065,-0.19 -0.166,-0.198Z" style="fill:#56b356;fill-rule:nonzero;stroke:#000;stroke-width:0.07px;"/><path d="M58.939,9.505l4.971,0.434l-0.065,0.746l-4.971,-0.435l0.065,-0.745Z" style="fill:#f2f2f2;stroke:#808080;stroke-width:0.07px;"/><path d="M62.682,9.014l1.74,0.152l-1.609,-1.643l-0.131,1.491Z" style="fill:#d9d9d9;fill-rule:nonzero;stroke:#808080;stroke-width:0.07px;"/><path d="M63.475,8.633c0.014,-0.169 -0.111,-0.318 -0.279,-0.333c-0.169,-0.015 -0.318,0.11 -0.333,0.279c-0.015,0.169 0.11,0.318 0.279,0.333c0.169,0.014 0.318,-0.111 0.333,-0.279Z" style="fill:#fff;stroke:#808080;stroke-width:0.07px;"/><path d="M60.618,7.295l-2.557,1.297" style="fill:none;fill-rule:nonzero;stroke:#f2f2f2;stroke-width:0.37px;"/><path d="M53.962,6.989l-0.844,0.307c-0.285,0.103 -0.432,0.418 -0.328,0.703l0.136,0.375c0.104,0.285 0.419,0.432 0.704,0.328l0.844,-0.307c0.285,-0.103 0.432,-0.418 0.328,-0.703l-0.136,-0.375c-0.104,-0.285 -0.419,-0.432 -0.704,-0.328Z" style="fill:#f2f2f2;fill-rule:nonzero;stroke:#808080;stroke-width:0.07px;"/><path d="M57.469,7.529l-6.69,2.435c-0.095,0.034 -0.144,0.139 -0.11,0.234l0.046,0.125c0.034,0.095 0.139,0.144 0.234,0.11l6.691,-2.435c0.095,-0.034 0.144,-0.139 0.109,-0.234l-0.046,-0.125c-0.034,-0.095 -0.139,-0.144 -0.234,-0.11Z" style="fill:#56b356;fill-rule:nonzero;stroke:#000;stroke-width:0.07px;"/><path d="M51.992,10.184l4.689,-1.706l0.256,0.703l-4.689,1.707l-0.256,-0.704Z" style="fill:#f2f2f2;stroke:#808080;stroke-width:0.07px;"/><path d="M55.177,8.158l1.641,-0.597l-2.153,-0.81l0.512,1.407Z" style="fill:#d9d9d9;fill-rule:nonzero;stroke:#808080;stroke-width:0.07px;"/><path d="M55.734,7.478c-0.058,-0.16 -0.234,-0.242 -0.393,-0.184c-0.16,0.058 -0.242,0.234 -0.184,0.393c0.058,0.16 0.234,0.242 0.394,0.184c0.159,-0.058 0.241,-0.234 0.183,-0.393Z" style="fill:#fff;stroke:#808080;stroke-width:0.07px;"/><path d="M52.58,7.473l-1.77,2.255" style="fill:none;fill-rule:nonzero;stroke:#f2f2f2;stroke-width:0.37px;"/><path d="M46.417,10.008l-0.635,0.635c-0.215,0.214 -0.215,0.562 -0,0.777l0.282,0.282c0.214,0.214 0.562,0.214 0.776,-0l0.635,-0.635c0.215,-0.215 0.215,-0.562 0,-0.777l-0.282,-0.282c-0.214,-0.214 -0.562,-0.214 -0.776,0Z" style="fill:#f2f2f2;fill-rule:nonzero;stroke:#808080;stroke-width:0.07px;"/><path d="M49.824,9.016l-5.035,5.034c-0.071,0.071 -0.071,0.187 0,0.259l0.094,0.094c0.072,0.071 0.188,0.071 0.259,-0l5.034,-5.034c0.072,-0.071 0.072,-0.187 0,-0.259l-0.094,-0.094c-0.071,-0.071 -0.187,-0.071 -0.258,0Z" style="fill:#56b356;fill-rule:nonzero;stroke:#000;stroke-width:0.07px;"/><path d="M45.982,13.737l3.529,-3.528l0.529,0.529l-3.529,3.528l-0.529,-0.529Z" style="fill:#f2f2f2;stroke:#808080;stroke-width:0.07px;"/><path d="M48.012,10.555l1.235,-1.235l-2.293,0.176l1.058,1.059Z" style="fill:#d9d9d9;fill-rule:nonzero;stroke:#808080;stroke-width:0.07px;"/><path d="M48.229,9.702c-0.119,-0.119 -0.314,-0.119 -0.434,0c-0.119,0.12 -0.119,0.315 0,0.434c0.12,0.12 0.315,0.12 0.434,0c0.12,-0.119 0.12,-0.314 0,-0.434Z" style="fill:#fff;stroke:#808080;stroke-width:0.07px;"/><path d="M45.369,11.031l-0.651,2.792" style="fill:none;fill-rule:nonzero;stroke:#f2f2f2;stroke-width:0.37px;"/><path d="M70.572,14.523c-3.926,-4.848 -10.143,-7.235 -16.305,-6.259c-4.262,0.675 -8.126,2.906 -10.841,6.259" style="fill:none;fill-rule:nonzero;stroke:#d62728;stroke-width:0.27px;"/></g></g><text x="52.709px" y="2.311px" style="font-family:'Helvetica';font-size:2.004px;fill:#23373b;">Approach</text><text x="31.513px" y="18.008px" style="font-family:'Helvetica';font-size:2.004px;fill:#23373b;">Representative</text><text x="50.035px" y="18.199px" style="font-family:'Helvetica';font-size:2.004px;fill:#23373b;">Volume bounds</text><path d="M38.253,15.811l-0,-1.288l3.805,0" style="fill:none;fill-rule:nonzero;stroke:#23373b;stroke-width:0.18px;"/><path d="M42.755,14.523l-0.651,-0.229l-0,0.459l0.651,-0.23Z" style="fill:#23373b;fill-rule:nonzero;stroke:#23373b;stroke-width:0.18px;"/><path d="M49.276,17.498l-1.981,0l0,-0.502" style="fill:none;fill-rule:nonzero;stroke:#23373b;stroke-width:0.18px;"/><path d="M47.295,16.298l-0.229,0.652l0.459,-0l-0.23,-0.652Z" style="fill:#23373b;fill-rule:nonzero;stroke:#23373b;stroke-width:0.18px;"/><path d="M64.722,17.498l8.898,0l0,-6.98l-0.44,0" style="fill:none;fill-rule:nonzero;stroke:#23373b;stroke-width:0.18px;"/><path d="M72.483,10.518l0.651,0.23l0,-0.459l-0.651,0.229Z" style="fill:#23373b;fill-rule:nonzero;stroke:#23373b;stroke-width:0.18px;"/><path d="M56.999,3.433l-0,0.754" style="fill:none;fill-rule:nonzero;stroke:#23373b;stroke-width:0.18px;"/><path d="M56.999,4.884l0.229,-0.652l-0.459,0l0.23,0.652Z" style="fill:#23373b;fill-rule:nonzero;stroke:#23373b;stroke-width:0.18px;"/><path d="M18.189,0.371l-8.735,-0c-0.202,-0 -0.366,0.164 -0.366,0.366l-0,2.122c-0,0.203 0.164,0.366 0.366,0.366l8.735,0c0.202,0 0.366,-0.163 0.366,-0.366l-0,-2.122c-0,-0.202 -0.164,-0.366 -0.366,-0.366Z" style="fill:#56b356;fill-rule:nonzero;"/><path d="M28.445,0.391l-7.621,0c-0.202,0 -0.366,0.164 -0.366,0.366l0,2.082c0,0.202 0.164,0.366 0.366,0.366l7.621,-0c0.202,-0 0.366,-0.164 0.366,-0.366l0,-2.082c0,-0.202 -0.164,-0.366 -0.366,-0.366Z" style="fill:#ff993e;fill-rule:nonzero;"/><g transform="matrix(0.24,0,0,0.24,-17.4522,-8.38405)"><text x="113.365px" y="45.415px" style="font-family:'Helvetica';font-size:8.35px;fill:#23373b;">Sensitive</text><text x="160.743px" y="45.338px" style="font-family:'Helvetica';font-size:8.35px;fill:#23373b;">Passive</text></g></g></g></svg>
