<?xml version="1.0" encoding="UTF-8" standalone="no"?><!DOCTYPE svg PUBLIC "-//W3C//DTD SVG 1.1//EN" "http://www.w3.org/Graphics/SVG/1.1/DTD/svg11.dtd"><svg width="100%" height="100%" viewBox="0 0 281 192" version="1.1" xmlns="http://www.w3.org/2000/svg" xmlns:xlink="http://www.w3.org/1999/xlink" xml:space="preserve" xmlns:serif="http://www.serif.com/" style="fill-rule:evenodd;clip-rule:evenodd;stroke-miterlimit:10;"><g><clipPath id="_clip1"><rect x="0.145" y="0.116" width="280.192" height="191.225" clip-rule="nonzero"/></clipPath><g clip-path="url(#_clip1)"><path d="M133.828,95.729l84.977,-39.626" style="fill:none;fill-rule:nonzero;stroke:#231f20;stroke-width:1px;"/><path d="M222.245,54.499l-3.742,0.366l1.056,2.265l2.686,-2.631Z" style="fill:#231f20;fill-rule:nonzero;stroke:#231f20;stroke-width:1px;"/><path d="M133.828,95.729l0,-71.085" style="fill:none;fill-rule:nonzero;stroke:#231f20;stroke-width:1px;"/><path d="M133.828,20.849l-1.25,3.546l2.5,0l-1.25,-3.546Z" style="fill:#231f20;fill-rule:nonzero;stroke:#231f20;stroke-width:1px;"/><text x="227.88px" y="56.148px" style="font-family:'LucidaGrande', 'Lucida Grande', sans-serif;font-weight:500;font-size:10.909px;fill:#231f20;">x</text><text x="130.958px" y="12.938px" style="font-family:'LucidaGrande', 'Lucida Grande', sans-serif;font-weight:500;font-size:10.909px;fill:#231f20;">y</text><path d="M0.641,47.252l226.418,82.41" style="fill:none;fill-rule:nonzero;stroke:#231f20;stroke-width:1px;"/><path d="M0.641,47.252l39.956,14.543" style="fill:none;fill-rule:nonzero;stroke:#231f20;stroke-width:1px;"/><path d="M77.099,44.774c-0,-28.599 -16.342,-44.161 -36.502,-34.76c-20.159,9.4 -36.501,40.203 -36.501,68.802c-0,28.598 16.342,44.161 36.501,34.76c20.16,-9.4 36.502,-40.204 36.502,-68.802Zm-18.521,8.636c0,-14.088 -8.05,-21.754 -17.981,-17.123c-9.931,4.631 -17.981,19.805 -17.981,33.893c0,14.087 8.05,21.754 17.981,17.123c9.931,-4.631 17.981,-19.805 17.981,-33.893Z" style="fill:#fdd5b8;"/><path d="M58.578,53.41c0,-14.088 -8.05,-21.754 -17.981,-17.123c-9.931,4.631 -17.981,19.805 -17.981,33.893c0,14.087 8.05,21.754 17.981,17.123c9.931,-4.631 17.981,-19.805 17.981,-33.893Zm18.521,-8.636c-0,-28.599 -16.342,-44.161 -36.502,-34.76c-20.159,9.4 -36.501,40.203 -36.501,68.802c-0,28.598 16.342,44.161 36.501,34.76c20.16,-9.4 36.502,-40.204 36.502,-68.802Z" style="fill:none;fill-rule:nonzero;stroke:#f58038;stroke-width:1px;"/><path d="M61.495,44.439l12.191,-10.125l-14.784,-21.973l-6.744,18.22l9.337,13.878Z" style="fill:#d1d3d4;fill-rule:nonzero;stroke:#231f20;stroke-width:1px;"/><path d="M41.951,30.616l0.791,-18.188l-23.92,22.18l8.022,10.016l15.107,-14.008Z" style="fill:#d1d3d4;fill-rule:nonzero;stroke:#231f20;stroke-width:1px;"/><path d="M20.536,59.883l-11.702,-1.116l0,35.679l11.702,-12.03l0,-22.533Z" style="fill:#d1d3d4;fill-rule:nonzero;stroke:#231f20;stroke-width:1px;"/><path d="M26.844,91.792l-8.022,17.498l23.92,-0.128l-0.791,-17.451l-15.107,0.081Z" style="fill:#d1d3d4;fill-rule:nonzero;stroke:#231f20;stroke-width:1px;"/><path d="M52.158,82.247l6.744,11.93l14.784,-35.761l-12.191,1.245l-9.337,22.586Z" style="fill:#d1d3d4;fill-rule:nonzero;stroke:#231f20;stroke-width:1px;"/><path d="M60.658,63.707l11.702,1.116l0,-35.679l-11.702,12.029l0,22.534Z" style="fill:#d1d3d4;fill-rule:nonzero;stroke:#231f20;stroke-width:1px;"/><path d="M54.35,31.798l8.023,-17.499l-23.92,0.129l0.79,17.451l15.107,-0.081Z" style="fill:#d1d3d4;fill-rule:nonzero;stroke:#231f20;stroke-width:1px;"/><path d="M29.036,41.343l-6.744,-11.931l-14.784,35.761l12.191,-1.244l9.337,-22.586Z" style="fill:#d1d3d4;fill-rule:nonzero;stroke:#231f20;stroke-width:1px;"/><path d="M19.699,79.151l-12.191,10.125l14.784,21.973l6.744,-18.22l-9.337,-13.878Z" style="fill:#d1d3d4;fill-rule:nonzero;stroke:#231f20;stroke-width:1px;"/><path d="M39.243,92.974l-0.79,18.187l23.92,-22.179l-8.023,-10.017l-15.107,14.009Z" style="fill:#d1d3d4;fill-rule:nonzero;stroke:#231f20;stroke-width:1px;"/><path d="M60.658,63.707l11.702,1.116l0,-35.679l-11.702,12.029l0,22.534Z" style="fill:#d1d3d4;fill-rule:nonzero;stroke:#231f20;stroke-width:1px;"/><path d="M40.597,61.795l26.638,9.695" style="fill:none;fill-rule:nonzero;stroke:#231f20;stroke-width:1px;"/><path d="M103.736,54.469c-0,-28.598 -16.342,-44.161 -36.501,-34.76c-20.16,9.4 -36.502,40.204 -36.502,68.802c0,28.599 16.342,44.161 36.502,34.76c20.159,-9.4 36.501,-40.203 36.501,-68.802Zm-18.52,8.636c-0,-14.087 -8.051,-21.754 -17.981,-17.123c-9.931,4.631 -17.982,19.805 -17.982,33.893c0,14.088 8.051,21.754 17.982,17.123c9.93,-4.631 17.981,-19.805 17.981,-33.893Z" style="fill:#aae1fa;"/><path d="M85.216,63.105c-0,-14.087 -8.051,-21.754 -17.981,-17.123c-9.931,4.631 -17.982,19.805 -17.982,33.893c0,14.088 8.051,21.754 17.982,17.123c9.93,-4.631 17.981,-19.805 17.981,-33.893Zm18.52,-8.636c-0,-28.598 -16.342,-44.161 -36.501,-34.76c-20.16,9.4 -36.502,40.204 -36.502,68.802c0,28.599 16.342,44.161 36.502,34.76c20.159,-9.4 36.501,-40.203 36.501,-68.802Z" style="fill:none;fill-rule:nonzero;stroke:#00aeef;stroke-width:1px;"/><path d="M88.133,54.134l12.19,-10.125l-14.784,-21.973l-6.744,18.22l9.338,13.878Z" style="fill:#d1d3d4;fill-rule:nonzero;stroke:#231f20;stroke-width:1px;"/><path d="M68.589,40.311l0.79,-18.187l-23.92,22.179l8.023,10.017l15.107,-14.009Z" style="fill:#d1d3d4;fill-rule:nonzero;stroke:#231f20;stroke-width:1px;"/><path d="M47.174,69.578l-11.703,-1.116l0,35.679l11.703,-12.029l-0,-22.534Z" style="fill:#d1d3d4;fill-rule:nonzero;stroke:#231f20;stroke-width:1px;"/><path d="M53.482,101.487l-8.023,17.499l23.92,-0.129l-0.79,-17.451l-15.107,0.081Z" style="fill:#d1d3d4;fill-rule:nonzero;stroke:#231f20;stroke-width:1px;"/><path d="M78.795,91.942l6.744,11.931l14.784,-35.761l-12.19,1.244l-9.338,22.586Z" style="fill:#d1d3d4;fill-rule:nonzero;stroke:#231f20;stroke-width:1px;"/><path d="M87.296,73.402l11.702,1.116l-0,-35.679l-11.702,12.03l-0,22.533Z" style="fill:#d1d3d4;fill-rule:nonzero;stroke:#231f20;stroke-width:1px;"/><path d="M80.988,41.493l8.022,-17.498l-23.92,0.128l0.79,17.451l15.108,-0.081Z" style="fill:#d1d3d4;fill-rule:nonzero;stroke:#231f20;stroke-width:1px;"/><path d="M55.674,51.038l-6.744,-11.93l-14.784,35.761l12.19,-1.245l9.338,-22.586Z" style="fill:#d1d3d4;fill-rule:nonzero;stroke:#231f20;stroke-width:1px;"/><path d="M46.336,88.846l-12.19,10.125l14.784,21.973l6.744,-18.22l-9.338,-13.878Z" style="fill:#d1d3d4;fill-rule:nonzero;stroke:#231f20;stroke-width:1px;"/><path d="M65.88,102.669l-0.79,18.188l23.92,-22.18l-8.022,-10.016l-15.108,14.008Z" style="fill:#d1d3d4;fill-rule:nonzero;stroke:#231f20;stroke-width:1px;"/><path d="M87.296,73.402l11.702,1.116l-0,-35.679l-11.702,12.03l-0,22.533Z" style="fill:#d1d3d4;fill-rule:nonzero;stroke:#231f20;stroke-width:1px;"/><path d="M67.235,71.49l26.637,9.696" style="fill:none;fill-rule:nonzero;stroke:#231f20;stroke-width:1px;"/><path d="M130.373,64.164c0,-28.598 -16.342,-44.16 -36.501,-34.76c-20.16,9.401 -36.502,40.204 -36.502,68.803c0,28.598 16.342,44.16 36.502,34.76c20.159,-9.401 36.501,-40.204 36.501,-68.803Zm-18.52,8.637c-0,-14.088 -8.05,-21.754 -17.981,-17.124c-9.931,4.631 -17.981,19.805 -17.981,33.893c-0,14.088 8.05,21.754 17.981,17.124c9.931,-4.631 17.981,-19.805 17.981,-33.893Z" style="fill:#daebc1;"/><path d="M111.853,72.801c-0,-14.088 -8.05,-21.754 -17.981,-17.124c-9.931,4.631 -17.981,19.805 -17.981,33.893c-0,14.088 8.05,21.754 17.981,17.124c9.931,-4.631 17.981,-19.805 17.981,-33.893Zm18.52,-8.637c0,-28.598 -16.342,-44.16 -36.501,-34.76c-20.16,9.401 -36.502,40.204 -36.502,68.803c0,28.598 16.342,44.16 36.502,34.76c20.159,-9.401 36.501,-40.204 36.501,-68.803Z" style="fill:none;fill-rule:nonzero;stroke:#8cc63f;stroke-width:1px;"/><path d="M114.77,63.829l12.191,-10.124l-14.784,-21.973l-6.744,18.219l9.337,13.878Z" style="fill:#d1d3d4;fill-rule:nonzero;stroke:#231f20;stroke-width:1px;"/><path d="M95.226,50.007l0.79,-18.188l-23.92,22.179l8.023,10.017l15.107,-14.008Z" style="fill:#d1d3d4;fill-rule:nonzero;stroke:#231f20;stroke-width:1px;"/><path d="M73.811,79.273l-11.702,-1.115l-0,35.678l11.702,-12.029l-0,-22.534Z" style="fill:#d1d3d4;fill-rule:nonzero;stroke:#231f20;stroke-width:1px;"/><path d="M80.119,111.182l-8.023,17.499l23.92,-0.129l-0.79,-17.451l-15.107,0.081Z" style="fill:#d1d3d4;fill-rule:nonzero;stroke:#231f20;stroke-width:1px;"/><path d="M105.433,101.638l6.744,11.93l14.784,-35.761l-12.191,1.245l-9.337,22.586Z" style="fill:#d1d3d4;fill-rule:nonzero;stroke:#231f20;stroke-width:1px;"/><path d="M113.933,83.098l11.702,1.115l0,-35.678l-11.702,12.029l-0,22.534Z" style="fill:#d1d3d4;fill-rule:nonzero;stroke:#231f20;stroke-width:1px;"/><path d="M107.625,51.189l8.022,-17.499l-23.92,0.129l0.791,17.451l15.107,-0.081Z" style="fill:#d1d3d4;fill-rule:nonzero;stroke:#231f20;stroke-width:1px;"/><path d="M82.311,60.733l-6.744,-11.93l-14.784,35.761l12.191,-1.245l9.337,-22.586Z" style="fill:#d1d3d4;fill-rule:nonzero;stroke:#231f20;stroke-width:1px;"/><path d="M72.974,98.542l-12.191,10.124l14.784,21.973l6.744,-18.219l-9.337,-13.878Z" style="fill:#d1d3d4;fill-rule:nonzero;stroke:#231f20;stroke-width:1px;"/><path d="M92.518,112.364l-0.791,18.188l23.92,-22.179l-8.022,-10.017l-15.107,14.008Z" style="fill:#d1d3d4;fill-rule:nonzero;stroke:#231f20;stroke-width:1px;"/><path d="M113.933,83.098l11.702,1.115l0,-35.678l-11.702,12.029l-0,22.534Z" style="fill:#d1d3d4;fill-rule:nonzero;stroke:#231f20;stroke-width:1px;"/><path d="M93.872,81.186l79.912,29.086" style="fill:none;fill-rule:nonzero;stroke:#231f20;stroke-width:1px;"/><path d="M210.286,93.25c-0,-28.598 -16.342,-44.16 -36.502,-34.76c-20.159,9.401 -36.501,40.204 -36.501,68.803c-0,28.598 16.342,44.16 36.501,34.76c20.16,-9.401 36.502,-40.204 36.502,-68.803Zm-18.521,8.637c0,-14.088 -8.05,-21.754 -17.981,-17.124c-9.931,4.631 -17.981,19.805 -17.981,33.893c0,14.088 8.05,21.754 17.981,17.124c9.931,-4.631 17.981,-19.805 17.981,-33.893Z" style="fill:#daebc1;"/><path d="M191.765,101.887c0,-14.088 -8.05,-21.754 -17.981,-17.124c-9.931,4.631 -17.981,19.805 -17.981,33.893c0,14.088 8.05,21.754 17.981,17.124c9.931,-4.631 17.981,-19.805 17.981,-33.893Zm18.521,-8.637c-0,-28.598 -16.342,-44.16 -36.502,-34.76c-20.159,9.401 -36.501,40.204 -36.501,68.803c-0,28.598 16.342,44.16 36.501,34.76c20.16,-9.401 36.502,-40.204 36.502,-68.803Z" style="fill:none;fill-rule:nonzero;stroke:#8cc63f;stroke-width:1px;"/><path d="M194.682,92.915l12.191,-10.124l-14.784,-21.973l-6.744,18.219l9.337,13.878Z" style="fill:#d1d3d4;fill-rule:nonzero;stroke:#231f20;stroke-width:1px;"/><path d="M175.138,79.093l0.791,-18.188l-23.92,22.179l8.022,10.017l15.107,-14.008Z" style="fill:#d1d3d4;fill-rule:nonzero;stroke:#231f20;stroke-width:1px;"/><path d="M153.723,108.359l-11.702,-1.115l0,35.678l11.702,-12.029l0,-22.534Z" style="fill:#d1d3d4;fill-rule:nonzero;stroke:#231f20;stroke-width:1px;"/><path d="M160.031,140.268l-8.022,17.499l23.92,-0.129l-0.791,-17.451l-15.107,0.081Z" style="fill:#d1d3d4;fill-rule:nonzero;stroke:#231f20;stroke-width:1px;"/><path d="M185.345,130.724l6.744,11.93l14.784,-35.761l-12.191,1.245l-9.337,22.586Z" style="fill:#d1d3d4;fill-rule:nonzero;stroke:#231f20;stroke-width:1px;"/><path d="M193.845,112.184l11.702,1.115l0,-35.678l-11.702,12.029l0,22.534Z" style="fill:#d1d3d4;fill-rule:nonzero;stroke:#231f20;stroke-width:1px;"/><path d="M187.537,80.275l8.023,-17.499l-23.92,0.129l0.79,17.451l15.107,-0.081Z" style="fill:#d1d3d4;fill-rule:nonzero;stroke:#231f20;stroke-width:1px;"/><path d="M162.223,89.819l-6.744,-11.93l-14.784,35.761l12.191,-1.245l9.337,-22.586Z" style="fill:#d1d3d4;fill-rule:nonzero;stroke:#231f20;stroke-width:1px;"/><path d="M152.886,127.628l-12.191,10.124l14.784,21.973l6.744,-18.219l-9.337,-13.878Z" style="fill:#d1d3d4;fill-rule:nonzero;stroke:#231f20;stroke-width:1px;"/><path d="M172.43,141.45l-0.79,18.188l23.92,-22.179l-8.023,-10.017l-15.107,14.008Z" style="fill:#d1d3d4;fill-rule:nonzero;stroke:#231f20;stroke-width:1px;"/><path d="M193.845,112.184l11.702,1.115l0,-35.678l-11.702,12.029l0,22.534Z" style="fill:#d1d3d4;fill-rule:nonzero;stroke:#231f20;stroke-width:1px;"/><path d="M173.784,110.272l-76.4,35.626" style="fill:none;fill-rule:nonzero;stroke:#231f20;stroke-width:1px;stroke-dasharray:2.99,2.99;"/><path d="M173.784,110.272l26.638,9.695" style="fill:none;fill-rule:nonzero;stroke:#231f20;stroke-width:1px;"/><path d="M236.923,102.946c0,-28.599 -16.342,-44.161 -36.501,-34.76c-20.16,9.4 -36.502,40.203 -36.502,68.802c0,28.598 16.342,44.161 36.502,34.76c20.159,-9.4 36.501,-40.204 36.501,-68.802Zm-18.52,8.636c-0,-14.088 -8.051,-21.754 -17.981,-17.123c-9.931,4.631 -17.981,19.805 -17.981,33.893c-0,14.087 8.05,21.754 17.981,17.123c9.93,-4.631 17.981,-19.805 17.981,-33.893Z" style="fill:#aae1fa;"/><path d="M218.403,111.582c-0,-14.088 -8.051,-21.754 -17.981,-17.123c-9.931,4.631 -17.981,19.805 -17.981,33.893c-0,14.087 8.05,21.754 17.981,17.123c9.93,-4.631 17.981,-19.805 17.981,-33.893Zm18.52,-8.636c0,-28.599 -16.342,-44.161 -36.501,-34.76c-20.16,9.4 -36.502,40.203 -36.502,68.802c0,28.598 16.342,44.161 36.502,34.76c20.159,-9.4 36.501,-40.204 36.501,-68.802Z" style="fill:none;fill-rule:nonzero;stroke:#00aeef;stroke-width:1px;"/><path d="M221.32,102.611l12.19,-10.125l-14.784,-21.973l-6.744,18.22l9.338,13.878Z" style="fill:#d1d3d4;fill-rule:nonzero;stroke:#231f20;stroke-width:1px;"/><path d="M201.776,88.788l0.79,-18.188l-23.92,22.18l8.023,10.016l15.107,-14.008Z" style="fill:#d1d3d4;fill-rule:nonzero;stroke:#231f20;stroke-width:1px;"/><path d="M180.361,118.055l-11.703,-1.116l0,35.679l11.703,-12.03l-0,-22.533Z" style="fill:#d1d3d4;fill-rule:nonzero;stroke:#231f20;stroke-width:1px;"/><path d="M186.669,149.964l-8.023,17.498l23.92,-0.128l-0.79,-17.451l-15.107,0.081Z" style="fill:#d1d3d4;fill-rule:nonzero;stroke:#231f20;stroke-width:1px;"/><path d="M211.982,140.419l6.744,11.93l14.784,-35.761l-12.19,1.245l-9.338,22.586Z" style="fill:#d1d3d4;fill-rule:nonzero;stroke:#231f20;stroke-width:1px;"/><path d="M220.483,121.879l11.702,1.116l-0,-35.679l-11.702,12.029l-0,22.534Z" style="fill:#d1d3d4;fill-rule:nonzero;stroke:#231f20;stroke-width:1px;"/><path d="M214.175,89.97l8.022,-17.498l-23.92,0.128l0.79,17.451l15.108,-0.081Z" style="fill:#d1d3d4;fill-rule:nonzero;stroke:#231f20;stroke-width:1px;"/><path d="M188.861,99.515l-6.744,-11.931l-14.784,35.761l12.19,-1.244l9.338,-22.586Z" style="fill:#d1d3d4;fill-rule:nonzero;stroke:#231f20;stroke-width:1px;"/><path d="M179.523,137.323l-12.19,10.125l14.784,21.973l6.744,-18.22l-9.338,-13.878Z" style="fill:#d1d3d4;fill-rule:nonzero;stroke:#231f20;stroke-width:1px;"/><path d="M199.067,151.146l-0.79,18.187l23.92,-22.179l-8.022,-10.017l-15.108,14.009Z" style="fill:#d1d3d4;fill-rule:nonzero;stroke:#231f20;stroke-width:1px;"/><path d="M220.483,121.879l11.702,1.116l-0,-35.679l-11.702,12.029l-0,22.534Z" style="fill:#d1d3d4;fill-rule:nonzero;stroke:#231f20;stroke-width:1px;"/><path d="M200.422,119.967l-85.391,39.818" style="fill:none;fill-rule:nonzero;stroke:#231f20;stroke-width:1px;stroke-dasharray:2.99,2.99;"/><path d="M200.422,119.967l26.637,9.695" style="fill:none;fill-rule:nonzero;stroke:#231f20;stroke-width:1px;"/><path d="M263.56,112.641c0,-28.598 -16.342,-44.161 -36.501,-34.76c-20.16,9.4 -36.502,40.204 -36.502,68.802c0,28.599 16.342,44.161 36.502,34.761c20.159,-9.401 36.501,-40.204 36.501,-68.803Zm-18.52,8.636c-0,-14.087 -8.05,-21.754 -17.981,-17.123c-9.931,4.631 -17.981,19.805 -17.981,33.893c-0,14.088 8.05,21.754 17.981,17.123c9.931,-4.631 17.981,-19.805 17.981,-33.893Z" style="fill:#fdd5b8;"/><path d="M245.04,121.277c-0,-14.087 -8.05,-21.754 -17.981,-17.123c-9.931,4.631 -17.981,19.805 -17.981,33.893c-0,14.088 8.05,21.754 17.981,17.123c9.931,-4.631 17.981,-19.805 17.981,-33.893Zm18.52,-8.636c0,-28.598 -16.342,-44.161 -36.501,-34.76c-20.16,9.4 -36.502,40.204 -36.502,68.802c0,28.599 16.342,44.161 36.502,34.761c20.159,-9.401 36.501,-40.204 36.501,-68.803Z" style="fill:none;fill-rule:nonzero;stroke:#f58038;stroke-width:1px;"/><path d="M247.957,112.306l12.191,-10.125l-14.784,-21.973l-6.744,18.22l9.337,13.878Z" style="fill:#d1d3d4;fill-rule:nonzero;stroke:#231f20;stroke-width:1px;"/><path d="M228.413,98.483l0.79,-18.187l-23.92,22.179l8.023,10.017l15.107,-14.009Z" style="fill:#d1d3d4;fill-rule:nonzero;stroke:#231f20;stroke-width:1px;"/><path d="M206.998,127.75l-11.702,-1.116l-0,35.679l11.702,-12.029l-0,-22.534Z" style="fill:#d1d3d4;fill-rule:nonzero;stroke:#231f20;stroke-width:1px;"/><path d="M213.306,159.659l-8.023,17.499l23.92,-0.129l-0.79,-17.451l-15.107,0.081Z" style="fill:#d1d3d4;fill-rule:nonzero;stroke:#231f20;stroke-width:1px;"/><path d="M238.62,150.114l6.744,11.931l14.784,-35.761l-12.191,1.244l-9.337,22.586Z" style="fill:#d1d3d4;fill-rule:nonzero;stroke:#231f20;stroke-width:1px;"/><path d="M247.12,131.574l11.702,1.116l0,-35.679l-11.702,12.03l-0,22.533Z" style="fill:#d1d3d4;fill-rule:nonzero;stroke:#231f20;stroke-width:1px;"/><path d="M240.812,99.665l8.022,-17.498l-23.92,0.128l0.791,17.451l15.107,-0.081Z" style="fill:#d1d3d4;fill-rule:nonzero;stroke:#231f20;stroke-width:1px;"/><path d="M215.498,109.21l-6.744,-11.93l-14.784,35.761l12.191,-1.245l9.337,-22.586Z" style="fill:#d1d3d4;fill-rule:nonzero;stroke:#231f20;stroke-width:1px;"/><path d="M206.161,147.018l-12.191,10.125l14.784,21.973l6.744,-18.22l-9.337,-13.878Z" style="fill:#d1d3d4;fill-rule:nonzero;stroke:#231f20;stroke-width:1px;"/><path d="M225.705,160.841l-0.791,18.188l23.92,-22.18l-8.022,-10.016l-15.107,14.008Z" style="fill:#d1d3d4;fill-rule:nonzero;stroke:#231f20;stroke-width:1px;"/><path d="M247.12,131.574l11.702,1.116l0,-35.679l-11.702,12.03l-0,22.533Z" style="fill:#d1d3d4;fill-rule:nonzero;stroke:#231f20;stroke-width:1px;"/><path d="M227.059,129.662l-94.381,44.011" style="fill:none;fill-rule:nonzero;stroke:#231f20;stroke-width:1px;stroke-dasharray:2.99,2.99;"/><path d="M227.059,129.662l34.833,12.679" style="fill:none;fill-rule:nonzero;stroke:#231f20;stroke-width:1px;"/><path d="M265.458,143.639l-2.904,-2.387l-0.855,2.348l3.759,0.039Z" style="fill:#231f20;fill-rule:nonzero;stroke:#231f20;stroke-width:1px;"/><path d="M133.828,95.729l-76.4,35.626" style="fill:none;fill-rule:nonzero;stroke:#231f20;stroke-width:1px;stroke-dasharray:2.99,2.99;"/><path d="M53.616,133.715l38.546,14.029" style="fill:none;fill-rule:nonzero;stroke:#8cc63f;stroke-width:1.11px;"/><path d="M55.594,132.599l-4.424,2.062" style="fill:none;fill-rule:nonzero;stroke:#8cc63f;stroke-width:0.5px;"/><path d="M90.184,148.861l4.424,-2.063" style="fill:none;fill-rule:nonzero;stroke:#8cc63f;stroke-width:0.5px;"/><g transform="matrix(1,0,0,1,-136.137,-444.026)"><text x="407.285px" y="590.579px" style="font-family:'LucidaGrande', 'Lucida Grande', sans-serif;font-weight:500;font-size:10.909px;fill:#231f20;">z</text><text x="233.136px" y="596.545px" style="font-family:'LucidaGrande', 'Lucida Grande', sans-serif;font-weight:500;font-size:10.909px;fill:#231f20;">z</text><text x="238.209px" y="598.181px" style="font-family:'Monaco';font-size:7.97px;fill:#231f20;">1</text></g><path d="M44.625,137.908l65.18,23.722" style="fill:none;fill-rule:nonzero;stroke:#00aeef;stroke-width:1.11px;"/><path d="M46.603,136.791l-4.424,2.063" style="fill:none;fill-rule:nonzero;stroke:#00aeef;stroke-width:0.5px;"/><path d="M107.827,162.747l4.424,-2.063" style="fill:none;fill-rule:nonzero;stroke:#00aeef;stroke-width:0.5px;"/><g transform="matrix(1,0,0,1,-136.137,-444.026)"><text x="250.778px" y="610.431px" style="font-family:'LucidaGrande', 'Lucida Grande', sans-serif;font-weight:500;font-size:10.909px;fill:#231f20;">z</text><text x="255.852px" y="612.067px" style="font-family:'Monaco';font-size:7.97px;fill:#231f20;">2</text></g><path d="M35.635,142.1l91.813,33.416" style="fill:none;fill-rule:nonzero;stroke:#f58038;stroke-width:1.11px;"/><path d="M37.613,140.983l-4.424,2.063" style="fill:none;fill-rule:nonzero;stroke:#f58038;stroke-width:0.5px;"/><path d="M125.47,176.633l4.424,-2.063" style="fill:none;fill-rule:nonzero;stroke:#f58038;stroke-width:0.5px;"/><g transform="matrix(1,0,0,1,-136.137,-444.026)"><text x="268.421px" y="624.316px" style="font-family:'LucidaGrande', 'Lucida Grande', sans-serif;font-weight:500;font-size:10.909px;fill:#231f20;">z</text><text x="273.495px" y="625.953px" style="font-family:'Monaco';font-size:7.97px;fill:#231f20;">3</text></g></g></g></svg>
