<?xml version="1.0" encoding="UTF-8" standalone="no"?><!DOCTYPE svg PUBLIC "-//W3C//DTD SVG 1.1//EN" "http://www.w3.org/Graphics/SVG/1.1/DTD/svg11.dtd"><svg width="100%" height="100%" viewBox="0 0 308 166" version="1.1" xmlns="http://www.w3.org/2000/svg" xmlns:xlink="http://www.w3.org/1999/xlink" xml:space="preserve" xmlns:serif="http://www.serif.com/" style="fill-rule:evenodd;clip-rule:evenodd;stroke-miterlimit:10;"><g><clipPath id="_clip1"><rect x="0.139" y="0.149" width="306.939" height="164.748" clip-rule="nonzero"/></clipPath><g clip-path="url(#_clip1)"><path d="M147.196,103.641l42.536,-24.558" style="fill:none;fill-rule:nonzero;stroke:#231f20;stroke-width:0.24px;"/><path d="M193.019,77.186l-3.696,0.691l1.249,2.164l2.447,-2.855Z" style="fill:#231f20;fill-rule:nonzero;stroke:#231f20;stroke-width:0.24px;"/><path d="M147.196,103.641l0,-48.123" style="fill:none;fill-rule:nonzero;stroke:#231f20;stroke-width:0.24px;"/><path d="M147.196,51.723l-1.249,3.546l2.499,-0l-1.25,-3.546Z" style="fill:#231f20;fill-rule:nonzero;stroke:#231f20;stroke-width:0.24px;"/><text x="191.335px" y="72.224px" style="font-family:'LucidaGrande', 'Lucida Grande', sans-serif;font-weight:500;font-size:10.909px;fill:#231f20;">x</text><text x="144.326px" y="43.812px" style="font-family:'LucidaGrande', 'Lucida Grande', sans-serif;font-weight:500;font-size:10.909px;fill:#231f20;">y</text><path d="M0.636,77.799l214.955,37.902" style="fill:none;fill-rule:nonzero;stroke:#231f20;stroke-width:0.24px;"/><path d="M33.856,83.657l0,-71.433" style="fill:none;fill-rule:nonzero;stroke:#231f20;stroke-width:0.24px;stroke-dasharray:0.72,0.72;"/><path d="M49.488,86.413l-9.771,-1.723" style="fill:none;fill-rule:nonzero;stroke:#231f20;stroke-width:0.24px;"/><path d="M57.158,74.622c-0,-20.019 -7.808,-31.739 -17.439,-26.178c-9.632,5.561 -17.439,26.296 -17.439,46.315c-0,20.019 7.807,31.739 17.439,26.178c9.631,-5.56 17.439,-26.296 17.439,-46.315Zm-8.849,5.109c0,-9.862 -3.846,-15.635 -8.59,-12.896c-4.745,2.739 -8.591,12.954 -8.591,22.815c-0,9.862 3.846,15.635 8.591,12.896c4.744,-2.739 8.59,-12.954 8.59,-22.815Z" style="fill:#bbbdc0;"/><path d="M48.309,79.731c0,-9.862 -3.846,-15.635 -8.59,-12.896c-4.745,2.739 -8.591,12.954 -8.591,22.815c-0,9.862 3.846,15.635 8.591,12.896c4.744,-2.739 8.59,-12.954 8.59,-22.815Zm8.849,-5.109c-0,-20.019 -7.808,-31.739 -17.439,-26.178c-9.632,5.561 -17.439,26.296 -17.439,46.315c-0,20.019 7.807,31.739 17.439,26.178c9.631,-5.56 17.439,-26.296 17.439,-46.315Z" style="fill:none;fill-rule:nonzero;stroke:#231f20;stroke-width:0.24px;"/><path d="M39.717,84.69l19.541,3.446" style="fill:none;fill-rule:nonzero;stroke:#231f20;stroke-width:0.24px;"/><path d="M76.699,78.068c-0,-20.019 -7.808,-31.739 -17.439,-26.179c-9.631,5.561 -17.439,26.297 -17.439,46.316c0,20.019 7.808,31.739 17.439,26.178c9.631,-5.561 17.439,-26.297 17.439,-46.315Zm-8.848,5.108c-0,-9.861 -3.846,-15.635 -8.591,-12.895c-4.745,2.739 -8.591,12.954 -8.591,22.815c0,9.862 3.846,15.635 8.591,12.896c4.745,-2.74 8.591,-12.954 8.591,-22.816Z" style="fill:#bbbdc0;"/><path d="M67.851,83.176c-0,-9.861 -3.846,-15.635 -8.591,-12.895c-4.745,2.739 -8.591,12.954 -8.591,22.815c0,9.862 3.846,15.635 8.591,12.896c4.745,-2.74 8.591,-12.954 8.591,-22.816Zm8.848,-5.108c-0,-20.019 -7.808,-31.739 -17.439,-26.179c-9.631,5.561 -17.439,26.297 -17.439,46.316c0,20.019 7.808,31.739 17.439,26.178c9.631,-5.561 17.439,-26.297 17.439,-46.315Z" style="fill:none;fill-rule:nonzero;stroke:#231f20;stroke-width:0.24px;"/><path d="M59.258,88.136l19.542,3.446" style="fill:none;fill-rule:nonzero;stroke:#231f20;stroke-width:0.24px;"/><path d="M96.24,81.513c0,-20.019 -7.807,-31.739 -17.439,-26.178c-9.631,5.561 -17.439,26.297 -17.439,46.315c0,20.019 7.808,31.739 17.439,26.179c9.632,-5.561 17.439,-26.297 17.439,-46.316Zm-8.848,5.109c0,-9.862 -3.846,-15.635 -8.591,-12.896c-4.744,2.739 -8.59,12.954 -8.59,22.816c-0,9.861 3.846,15.635 8.59,12.895c4.745,-2.739 8.591,-12.954 8.591,-22.815Z" style="fill:#bbbdc0;"/><path d="M87.392,86.622c0,-9.862 -3.846,-15.635 -8.591,-12.896c-4.744,2.739 -8.59,12.954 -8.59,22.816c-0,9.861 3.846,15.635 8.59,12.895c4.745,-2.739 8.591,-12.954 8.591,-22.815Zm8.848,-5.109c0,-20.019 -7.807,-31.739 -17.439,-26.178c-9.631,5.561 -17.439,26.297 -17.439,46.315c0,20.019 7.808,31.739 17.439,26.179c9.632,-5.561 17.439,-26.297 17.439,-46.316Z" style="fill:none;fill-rule:nonzero;stroke:#231f20;stroke-width:0.24px;"/><path d="M86.618,92.96l-0,-71.433" style="fill:none;fill-rule:nonzero;stroke:#231f20;stroke-width:0.24px;stroke-dasharray:0.72,0.72;"/><path d="M90.526,93.649l0,-71.433" style="fill:none;fill-rule:nonzero;stroke:#231f20;stroke-width:0.24px;stroke-dasharray:0.72,0.72;"/><path d="M78.801,91.582l68.395,12.059" style="fill:none;fill-rule:nonzero;stroke:#231f20;stroke-width:0.24px;"/><path d="M208.936,104.815c-0,-14.792 -5.769,-23.452 -12.886,-19.343c-7.117,4.109 -12.886,19.431 -12.886,34.223c-0,14.792 5.769,23.453 12.886,19.344c7.117,-4.109 12.886,-19.431 12.886,-34.224Z" style="fill:#e6e7e8;fill-rule:nonzero;"/><path d="M191.015,139.816c6.551,1.998 14.116,-8.723 16.896,-23.944c2.781,-15.222 -0.275,-29.181 -6.826,-31.178" style="fill:none;fill-rule:nonzero;stroke:#231f20;stroke-width:0.24px;"/><path d="M147.196,103.641l68.395,12.06" style="fill:none;fill-rule:nonzero;stroke:#231f20;stroke-width:0.24px;"/><path d="M103.379,67.462l97.707,17.228c-6.552,-1.998 -14.119,8.724 -16.9,23.948c-2.781,15.224 0.276,29.185 6.828,31.183l-97.707,-17.228c-6.552,-1.998 -9.609,-15.959 -6.828,-31.183c2.781,-15.224 10.348,-25.946 16.9,-23.948" style="fill:#bbbdc0;fill-rule:nonzero;stroke:#231f20;stroke-width:0.24px;"/><path d="M93.308,122.588c6.551,1.998 14.116,-8.723 16.896,-23.944c2.781,-15.222 -0.275,-29.181 -6.826,-31.178" style="fill:none;fill-rule:nonzero;stroke:#939598;stroke-width:0.24px;stroke-dasharray:0.72,0.72;"/><path d="M103.379,67.462l97.707,17.228c-6.552,-1.998 -14.119,8.724 -16.9,23.948c-2.781,15.224 0.276,29.185 6.828,31.183l-97.707,-17.228c-6.552,-1.998 -9.609,-15.959 -6.828,-31.183c2.781,-15.224 10.348,-25.946 16.9,-23.948" style="fill:none;fill-rule:nonzero;stroke:#231f20;stroke-width:0.24px;"/><g><clipPath id="_clip2"><path d="M103.379,67.462l97.707,17.228c-6.552,-1.998 -14.119,8.724 -16.9,23.948c-2.781,15.224 0.276,29.185 6.828,31.183l-97.707,-17.228c-6.552,-1.998 -9.609,-15.959 -6.828,-31.183c2.781,-15.224 10.348,-25.946 16.9,-23.948l-0,0Z" clip-rule="nonzero"/></clipPath><g clip-path="url(#_clip2)"><path d="M69.031,89.859l156.331,27.565" style="fill:none;fill-rule:nonzero;stroke:#231f20;stroke-width:0.24px;stroke-dasharray:0.72,0.72;"/><path d="M147.196,103.641l38.24,-22.077" style="fill:none;fill-rule:nonzero;stroke:#231f20;stroke-width:0.24px;stroke-dasharray:0.72,0.72;"/><path d="M188.722,79.666l-3.695,0.691l1.249,2.164l2.446,-2.855Z" style="fill:#231f20;fill-rule:nonzero;stroke:#231f20;stroke-width:0.24px;"/><path d="M147.196,103.641l0,-48.123" style="fill:none;fill-rule:nonzero;stroke:#231f20;stroke-width:0.24px;stroke-dasharray:0.72,0.72;"/></g></g><path d="M203.866,113.633l0,-71.433" style="fill:none;fill-rule:nonzero;stroke:#231f20;stroke-width:0.24px;stroke-dasharray:0.72,0.72;"/><path d="M207.775,114.323l-0,-71.434" style="fill:none;fill-rule:nonzero;stroke:#231f20;stroke-width:0.24px;stroke-dasharray:0.72,0.72;"/><path d="M196.051,112.255l19.542,3.446" style="fill:none;fill-rule:nonzero;stroke:#231f20;stroke-width:0.24px;"/><path d="M233.03,105.632c0,-20.019 -7.807,-31.739 -17.439,-26.178c-9.631,5.561 -17.439,26.297 -17.439,46.315c0,20.019 7.808,31.739 17.439,26.179c9.632,-5.561 17.439,-26.297 17.439,-46.316Zm-8.848,5.109c-0,-9.862 -3.846,-15.635 -8.591,-12.896c-4.744,2.739 -8.59,12.954 -8.59,22.816c-0,9.861 3.846,15.635 8.59,12.895c4.745,-2.739 8.591,-12.954 8.591,-22.815Z" style="fill:#bbbdc0;"/><path d="M224.182,110.741c-0,-9.862 -3.846,-15.635 -8.591,-12.896c-4.744,2.739 -8.59,12.954 -8.59,22.816c-0,9.861 3.846,15.635 8.59,12.895c4.745,-2.739 8.591,-12.954 8.591,-22.815Zm8.848,-5.109c0,-20.019 -7.807,-31.739 -17.439,-26.178c-9.631,5.561 -17.439,26.297 -17.439,46.315c0,20.019 7.808,31.739 17.439,26.179c9.632,-5.561 17.439,-26.297 17.439,-46.316Z" style="fill:none;fill-rule:nonzero;stroke:#231f20;stroke-width:0.24px;"/><path d="M215.593,115.701l19.541,3.446" style="fill:none;fill-rule:nonzero;stroke:#231f20;stroke-width:0.24px;"/><path d="M252.572,109.078c-0,-20.019 -7.808,-31.739 -17.439,-26.178c-9.632,5.56 -17.439,26.296 -17.439,46.315c-0,20.019 7.807,31.739 17.439,26.178c9.631,-5.561 17.439,-26.296 17.439,-46.315Zm-8.849,5.108c0,-9.861 -3.846,-15.635 -8.59,-12.895c-4.745,2.739 -8.591,12.954 -8.591,22.815c0,9.862 3.846,15.635 8.591,12.896c4.744,-2.739 8.59,-12.954 8.59,-22.816Z" style="fill:#bbbdc0;"/><path d="M243.723,114.186c0,-9.861 -3.846,-15.635 -8.59,-12.895c-4.745,2.739 -8.591,12.954 -8.591,22.815c0,9.862 3.846,15.635 8.591,12.896c4.744,-2.739 8.59,-12.954 8.59,-22.816Zm8.849,-5.108c-0,-20.019 -7.808,-31.739 -17.439,-26.178c-9.632,5.56 -17.439,26.296 -17.439,46.315c-0,20.019 7.807,31.739 17.439,26.178c9.631,-5.561 17.439,-26.296 17.439,-46.315Z" style="fill:none;fill-rule:nonzero;stroke:#231f20;stroke-width:0.24px;"/><path d="M235.134,119.147l19.542,3.445" style="fill:none;fill-rule:nonzero;stroke:#231f20;stroke-width:0.24px;"/><path d="M272.113,112.523c0,-20.019 -7.808,-31.739 -17.439,-26.178c-9.631,5.561 -17.439,26.297 -17.439,46.316c0,20.018 7.808,31.739 17.439,26.178c9.631,-5.561 17.439,-26.297 17.439,-46.316Zm-8.848,5.109c-0,-9.861 -3.846,-15.635 -8.591,-12.896c-4.744,2.74 -8.591,12.954 -8.591,22.816c0,9.861 3.847,15.635 8.591,12.896c4.745,-2.74 8.591,-12.954 8.591,-22.816Z" style="fill:#bbbdc0;"/><path d="M263.265,117.632c-0,-9.861 -3.846,-15.635 -8.591,-12.896c-4.744,2.74 -8.591,12.954 -8.591,22.816c0,9.861 3.847,15.635 8.591,12.896c4.745,-2.74 8.591,-12.954 8.591,-22.816Zm8.848,-5.109c0,-20.019 -7.808,-31.739 -17.439,-26.178c-9.631,5.561 -17.439,26.297 -17.439,46.316c0,20.018 7.808,31.739 17.439,26.178c9.631,-5.561 17.439,-26.297 17.439,-46.316Z" style="fill:none;fill-rule:nonzero;stroke:#231f20;stroke-width:0.24px;"/><path d="M254.674,122.592l33.714,5.945" style="fill:none;fill-rule:nonzero;stroke:#231f20;stroke-width:0.24px;"/><path d="M292.126,129.195l-3.276,-1.846l-0.434,2.461l3.71,-0.615Z" style="fill:#231f20;fill-rule:nonzero;stroke:#231f20;stroke-width:0.24px;"/><path d="M90.535,22.229l113.323,19.98" style="fill:none;fill-rule:nonzero;stroke:#231f20;stroke-width:0.24px;"/><path d="M207.766,42.898l52.754,9.3" style="fill:none;fill-rule:nonzero;stroke:#231f20;stroke-width:0.24px;"/><path d="M86.627,21.54l-52.755,-9.301" style="fill:none;fill-rule:nonzero;stroke:#231f20;stroke-width:0.24px;"/><text x="297.889px" y="131.831px" style="font-family:'LucidaGrande', 'Lucida Grande', sans-serif;font-weight:500;font-size:10.909px;fill:#231f20;">z</text><g transform="matrix(0.984812,0.173625,-2.46002e-17,0.899985,-2.17558,16.0191)"><text x="141.548px" y="-14.35px" style="font-family:'Georgia', serif;font-size:7.635px;fill:#231f20;">barrel</text></g><g transform="matrix(0.984812,0.173625,-2.46002e-17,0.899985,-2.3179,17.4808)"><text x="213.87px" y="-17.46px" style="font-family:'Georgia', serif;font-size:7.635px;fill:#231f20;">positive endcap</text></g><g transform="matrix(0.984812,0.173625,-2.46002e-17,0.899985,-1.97729,13.9825)"><text x="35.988px" y="-13.507px" style="font-family:'Georgia', serif;font-size:7.635px;fill:#231f20;">negative endcap</text></g><path d="M260.537,123.626l-0,-71.434" style="fill:none;fill-rule:nonzero;stroke:#231f20;stroke-width:0.24px;stroke-dasharray:0.72,0.72;"/></g></g></svg>