<?xml version="1.0" encoding="UTF-8" standalone="no"?><!DOCTYPE svg PUBLIC "-//W3C//DTD SVG 1.1//EN" "http://www.w3.org/Graphics/SVG/1.1/DTD/svg11.dtd"><svg width="100%" height="100%" viewBox="0 0 194 218" version="1.1" xmlns="http://www.w3.org/2000/svg" xmlns:xlink="http://www.w3.org/1999/xlink" xml:space="preserve" xmlns:serif="http://www.serif.com/" style="fill-rule:evenodd;clip-rule:evenodd;stroke-miterlimit:10;"><g><clipPath id="_clip1"><rect x="0.103" y="0.152" width="193.67" height="217.064" clip-rule="nonzero"/></clipPath><g clip-path="url(#_clip1)"><path d="M125.326,91.358c0,-18.787 -15.229,-34.016 -34.016,-34.016c-18.787,0 -34.016,15.229 -34.016,34.016c-0,18.787 15.229,34.016 34.016,34.016c18.787,0 34.016,-15.229 34.016,-34.016Zm-9.638,0c0,-13.464 -10.914,-24.378 -24.378,-24.378c-13.464,-0 -24.378,10.914 -24.378,24.378c-0,13.464 10.914,24.379 24.378,24.379c13.464,-0 24.378,-10.915 24.378,-24.379Z" style="fill:#e5f0d4;stroke:#8cc63f;stroke-width:1px;"/><path d="M109.056,66.334l1.791,-0.874l8.583,17.6l-1.79,0.873l-8.584,-17.599Z" style="fill:#dcddde;stroke:#231f20;stroke-width:1px;"/><path d="M90.957,60.682l0.936,-1.759l17.289,9.193l-0.935,1.759l-17.29,-9.193Z" style="fill:#dcddde;stroke:#231f20;stroke-width:1px;"/><path d="M72.994,66.748l-0.278,-1.973l19.391,-2.725l0.277,1.973l-19.39,2.725Z" style="fill:#dcddde;stroke:#231f20;stroke-width:1px;"/><path d="M62.026,82.215l-1.384,-1.433l14.085,-13.603l1.385,1.433l-14.086,13.603Z" style="fill:#dcddde;stroke:#231f20;stroke-width:1px;"/><path d="M62.244,101.173l-1.962,-0.346l3.4,-19.284l1.963,0.346l-3.401,19.284Z" style="fill:#dcddde;stroke:#231f20;stroke-width:1px;"/><path d="M73.564,116.383l-1.791,0.873l-8.583,-17.6l1.79,-0.873l8.584,17.6Z" style="fill:#dcddde;stroke:#231f20;stroke-width:1px;"/><path d="M91.663,122.034l-0.936,1.759l-17.289,-9.192l0.935,-1.76l17.29,9.193Z" style="fill:#dcddde;stroke:#231f20;stroke-width:1px;"/><path d="M109.626,115.968l0.278,1.973l-19.391,2.726l-0.277,-1.973l19.39,-2.726Z" style="fill:#dcddde;stroke:#231f20;stroke-width:1px;"/><path d="M120.594,100.501l1.384,1.434l-14.085,13.603l-1.385,-1.434l14.086,-13.603Z" style="fill:#dcddde;stroke:#231f20;stroke-width:1px;"/><path d="M120.376,81.543l1.962,0.346l-3.4,19.284l-1.963,-0.346l3.401,-19.284Z" style="fill:#dcddde;stroke:#231f20;stroke-width:1px;"/><path d="M153.673,91.358c-0,-34.442 -27.921,-62.363 -62.363,-62.363c-34.443,0 -62.363,27.921 -62.363,62.363c0,34.443 27.92,62.363 62.363,62.363c34.442,0 62.363,-27.92 62.363,-62.363Zm-9.638,0c0,-29.12 -23.605,-52.725 -52.725,-52.725c-29.12,-0 -52.725,23.605 -52.725,52.725c-0,29.12 23.605,52.725 52.725,52.725c29.12,0 52.725,-23.605 52.725,-52.725Z" style="fill:#c7eafb;stroke:#00aeef;stroke-width:1px;"/><path d="M138.977,55.873l1.934,-0.482l6.316,25.333l-1.934,0.482l-6.316,-25.333Z" style="fill:#dcddde;stroke:#231f20;stroke-width:1px;"/><path d="M120.423,39.554l1.57,-1.227l16.074,20.574l-1.57,1.226l-16.074,-20.573Z" style="fill:#dcddde;stroke:#231f20;stroke-width:1px;"/><path d="M96.836,32.191l0.935,-1.759l23.052,12.257l-0.935,1.759l-23.052,-12.257Z" style="fill:#dcddde;stroke:#231f20;stroke-width:1px;"/><path d="M72.293,35.059l0.139,-1.987l26.044,1.821l-0.139,1.987l-26.044,-1.821Z" style="fill:#dcddde;stroke:#231f20;stroke-width:1px;"/><path d="M51.037,47.661l-0.682,-1.872l24.535,-8.93l0.681,1.872l-24.534,8.93Z" style="fill:#dcddde;stroke:#231f20;stroke-width:1px;"/><path d="M36.746,67.821l-1.384,-1.434l18.78,-18.137l1.384,1.434l-18.78,18.137Z" style="fill:#dcddde;stroke:#231f20;stroke-width:1px;"/><path d="M31.889,92.048l-1.848,-0.747l9.78,-24.207l1.848,0.746l-9.78,24.208Z" style="fill:#dcddde;stroke:#231f20;stroke-width:1px;"/><path d="M37.307,116.157l-1.992,0.07l-0.911,-26.093l1.991,-0.069l0.912,26.092Z" style="fill:#dcddde;stroke:#231f20;stroke-width:1px;"/><path d="M52.062,135.977l-1.791,0.874l-11.445,-23.466l1.791,-0.874l11.445,23.466Z" style="fill:#dcddde;stroke:#231f20;stroke-width:1px;"/><path d="M73.604,148.084l-1.281,1.526l-20.001,-16.781l1.281,-1.527l20.001,16.782Z" style="fill:#dcddde;stroke:#231f20;stroke-width:1px;"/><path d="M98.208,150.38l-0.55,1.916l-25.097,-7.195l0.549,-1.916l25.098,7.195Z" style="fill:#dcddde;stroke:#231f20;stroke-width:1px;"/><path d="M121.618,142.473l0.277,1.973l-25.854,3.634l-0.277,-1.973l25.854,-3.634Z" style="fill:#dcddde;stroke:#231f20;stroke-width:1px;"/><path d="M139.788,125.726l1.056,1.69l-22.141,13.836l-1.056,-1.69l22.141,-13.836Z" style="fill:#dcddde;stroke:#231f20;stroke-width:1px;"/><path d="M149.576,103.038l1.652,1.114l-14.6,21.645l-1.652,-1.114l14.6,-21.645Z" style="fill:#dcddde;stroke:#231f20;stroke-width:1px;"/><path d="M149.289,78.329l1.963,0.346l-4.534,25.712l-1.963,-0.346l4.534,-25.712Z" style="fill:#dcddde;stroke:#231f20;stroke-width:1px;"/><path d="M182.02,91.358c-0,-50.098 -40.612,-90.709 -90.71,-90.709c-50.098,-0 -90.71,40.611 -90.71,90.709c0,50.098 40.612,90.71 90.71,90.71c50.098,-0 90.71,-40.612 90.71,-90.71Zm-9.638,0c0,-44.775 -36.297,-81.072 -81.072,-81.072c-44.775,0 -81.072,36.297 -81.072,81.072c-0,44.776 36.297,81.072 81.072,81.072c44.775,0 81.072,-36.296 81.072,-81.072Z" style="fill:#fee2cd;stroke:#f58038;stroke-width:1px;"/><path d="M171.78,58.575l1.986,-0.153l1.803,23.427l-1.986,0.153l-1.803,-23.427Z" style="fill:#dcddde;stroke:#231f20;stroke-width:1px;"/><path d="M161.097,39.592l1.886,-0.642l7.573,22.243l-1.886,0.642l-7.573,-22.243Z" style="fill:#dcddde;stroke:#231f20;stroke-width:1px;"/><path d="M146.03,23.863l1.667,-1.091l12.867,19.66l-1.667,1.091l-12.867,-19.66Z" style="fill:#dcddde;stroke:#231f20;stroke-width:1px;"/><path d="M127.527,12.375l1.344,-1.471l17.351,15.843l-1.344,1.471l-17.351,-15.843Z" style="fill:#dcddde;stroke:#231f20;stroke-width:1px;"/><path d="M106.745,5.845l0.936,-1.759l20.747,11.03l-0.935,1.76l-20.748,-11.031Z" style="fill:#dcddde;stroke:#231f20;stroke-width:1px;"/><path d="M84.995,4.698l0.469,-1.936l22.837,5.523l-0.468,1.937l-22.838,-5.524Z" style="fill:#dcddde;stroke:#231f20;stroke-width:1px;"/><path d="M63.645,8.988l-0.028,-1.992l23.494,-0.328l0.028,1.992l-23.494,0.328Z" style="fill:#dcddde;stroke:#231f20;stroke-width:1px;"/><path d="M44.028,18.457l-0.522,-1.923l22.674,-6.161l0.522,1.923l-22.674,6.161Z" style="fill:#dcddde;stroke:#231f20;stroke-width:1px;"/><path d="M27.383,32.505l-0.984,-1.732l20.43,-11.605l0.984,1.732l-20.43,11.605Z" style="fill:#dcddde;stroke:#231f20;stroke-width:1px;"/><path d="M14.754,50.252l-1.384,-1.433l16.902,-16.323l1.384,1.433l-16.902,16.323Z" style="fill:#dcddde;stroke:#231f20;stroke-width:1px;"/><path d="M6.94,70.586l-1.697,-1.044l12.31,-20.013l1.697,1.044l-12.31,20.013Z" style="fill:#dcddde;stroke:#231f20;stroke-width:1px;"/><path d="M4.423,92.22l-1.904,-0.589l6.947,-22.447l1.903,0.589l-6.946,22.447Z" style="fill:#dcddde;stroke:#231f20;stroke-width:1px;"/><path d="M7.365,113.797l-1.99,-0.098l1.148,-23.467l1.99,0.097l-1.148,23.468Z" style="fill:#dcddde;stroke:#231f20;stroke-width:1px;"/><path d="M15.584,133.967l-1.952,0.401l-4.723,-23.017l1.951,-0.4l4.724,23.016Z" style="fill:#dcddde;stroke:#231f20;stroke-width:1px;"/><path d="M28.559,151.465l-1.791,0.873l-10.301,-21.118l1.791,-0.874l10.301,21.119Z" style="fill:#dcddde;stroke:#231f20;stroke-width:1px;"/><path d="M45.479,165.178l-1.517,1.291l-15.229,-17.892l1.518,-1.292l15.228,17.893Z" style="fill:#dcddde;stroke:#231f20;stroke-width:1px;"/><path d="M65.278,174.259l-1.148,1.628l-19.2,-13.543l1.148,-1.628l19.2,13.543Z" style="fill:#dcddde;stroke:#231f20;stroke-width:1px;"/><path d="M86.714,178.128l-0.707,1.863l-21.966,-8.343l0.708,-1.862l21.965,8.342Z" style="fill:#dcddde;stroke:#231f20;stroke-width:1px;"/><path d="M108.434,176.545l-0.222,1.979l-23.349,-2.619l0.222,-1.98l23.349,2.62Z" style="fill:#dcddde;stroke:#231f20;stroke-width:1px;"/><path d="M129.082,169.614l0.278,1.973l-23.269,3.27l-0.277,-1.973l23.268,-3.27Z" style="fill:#dcddde;stroke:#231f20;stroke-width:1px;"/><path d="M147.356,157.757l0.759,1.842l-21.722,8.954l-0.759,-1.842l21.722,-8.954Z" style="fill:#dcddde;stroke:#231f20;stroke-width:1px;"/><path d="M162.107,141.734l1.194,1.595l-18.814,14.075l-1.194,-1.595l18.814,-14.075Z" style="fill:#dcddde;stroke:#231f20;stroke-width:1px;"/><path d="M172.411,122.543l1.553,1.249l-14.722,18.312l-1.553,-1.248l14.722,-18.313Z" style="fill:#dcddde;stroke:#231f20;stroke-width:1px;"/><path d="M177.62,101.393l1.815,0.823l-9.706,21.399l-1.814,-0.823l9.705,-21.399Z" style="fill:#dcddde;stroke:#231f20;stroke-width:1px;"/><path d="M177.406,79.615l1.963,0.346l-4.08,23.14l-1.962,-0.346l4.079,-23.14Z" style="fill:#dcddde;stroke:#231f20;stroke-width:1px;"/><path d="M92.057,190.572l26.853,0" style="fill:none;fill-rule:nonzero;stroke:#8cc63f;stroke-width:1px;"/><path d="M91.808,194.059l0,-6.974" style="fill:none;fill-rule:nonzero;stroke:#8cc63f;stroke-width:1px;"/><path d="M119.159,187.085l-0,6.974" style="fill:none;fill-rule:nonzero;stroke:#8cc63f;stroke-width:1px;"/><g transform="matrix(1,0,0,1,-179.44,-84.8878)"><text x="303.23px" y="276.989px" style="font-family:'LucidaGrande', 'Lucida Grande', sans-serif;font-weight:500;font-size:10.909px;fill:#8cc63f;">r</text><text x="308.152px" y="278.626px" style="font-family:'Monaco';font-size:7.97px;fill:#8cc63f;">1</text></g><g transform="matrix(1,0,0,1,-179.44,-84.8878)"><text x="331.577px" y="286.91px" style="font-family:'LucidaGrande', 'Lucida Grande', sans-serif;font-weight:500;font-size:10.909px;fill:#00aeef;">r</text><text x="336.498px" y="288.547px" style="font-family:'Monaco';font-size:7.97px;fill:#00aeef;">2</text><text x="359.923px" y="296.832px" style="font-family:'LucidaGrande', 'Lucida Grande', sans-serif;font-weight:500;font-size:10.909px;fill:#f58038;">r</text><text x="364.845px" y="298.468px" style="font-family:'Monaco';font-size:7.97px;fill:#f58038;">3</text></g><path d="M92.057,200.493l55.199,0" style="fill:none;fill-rule:nonzero;stroke:#00aeef;stroke-width:1px;"/><path d="M91.808,203.98l0,-6.974" style="fill:none;fill-rule:nonzero;stroke:#00aeef;stroke-width:1px;"/><path d="M147.505,197.006l0,6.974" style="fill:none;fill-rule:nonzero;stroke:#00aeef;stroke-width:1px;"/><path d="M92.057,210.415l83.546,-0" style="fill:none;fill-rule:nonzero;stroke:#f58038;stroke-width:1px;"/><path d="M91.808,213.902l0,-6.974" style="fill:none;fill-rule:nonzero;stroke:#f58038;stroke-width:1px;"/><path d="M175.852,206.928l0,6.974" style="fill:none;fill-rule:nonzero;stroke:#f58038;stroke-width:1px;"/></g></g></svg>
