<?xml version="1.0" encoding="UTF-8" standalone="no"?><!DOCTYPE svg PUBLIC "-//W3C//DTD SVG 1.1//EN" "http://www.w3.org/Graphics/SVG/1.1/DTD/svg11.dtd"><svg width="100%" height="100%" viewBox="0 0 87 92" version="1.1" xmlns="http://www.w3.org/2000/svg" xmlns:xlink="http://www.w3.org/1999/xlink" xml:space="preserve" xmlns:serif="http://www.serif.com/" style="fill-rule:evenodd;clip-rule:evenodd;stroke-miterlimit:10;"><g><clipPath id="_clip1"><rect x="0.076" y="0.08" width="86.044" height="91.703" clip-rule="nonzero"/></clipPath><g clip-path="url(#_clip1)"><path d="M68.605,0.577l-0,90.708l-34.016,0l0,-90.708l34.016,-0Z" style="fill:#e6e7e8;stroke:#231f20;stroke-width:1px;"/><path d="M0.573,45.931l34.016,0" style="fill:none;fill-rule:nonzero;stroke:#939598;stroke-width:1px;"/><path d="M34.589,45.931l4.252,4.218" style="fill:none;fill-rule:nonzero;stroke:#939598;stroke-width:1px;"/><path d="M38.841,50.149l4.252,5.149" style="fill:none;fill-rule:nonzero;stroke:#939598;stroke-width:1px;"/><path d="M43.093,55.298l4.252,0.837" style="fill:none;fill-rule:nonzero;stroke:#939598;stroke-width:1px;"/><path d="M47.346,56.135l4.252,1.642" style="fill:none;fill-rule:nonzero;stroke:#939598;stroke-width:1px;"/><path d="M51.598,57.778l4.252,4.156" style="fill:none;fill-rule:nonzero;stroke:#939598;stroke-width:1px;"/><path d="M55.851,61.935l4.252,1.372" style="fill:none;fill-rule:nonzero;stroke:#939598;stroke-width:1px;"/><path d="M60.104,63.307l4.252,-5.435" style="fill:none;fill-rule:nonzero;stroke:#939598;stroke-width:1px;"/><path d="M64.357,57.873l4.252,-1.621" style="fill:none;fill-rule:nonzero;stroke:#939598;stroke-width:1px;"/><path d="M68.61,56.253l11.918,-4.54" style="fill:none;fill-rule:nonzero;stroke:#939598;stroke-width:1px;"/><path d="M84.074,50.362l-3.758,0.095l0.889,2.335l2.869,-2.43Z" style="fill:#939598;fill-rule:nonzero;stroke:#939598;stroke-width:1px;"/></g></g></svg>
