<?xml version="1.0" encoding="UTF-8" standalone="no"?><!DOCTYPE svg PUBLIC "-//W3C//DTD SVG 1.1//EN" "http://www.w3.org/Graphics/SVG/1.1/DTD/svg11.dtd"><svg width="100%" height="100%" viewBox="0 0 37 28" version="1.1" xmlns="http://www.w3.org/2000/svg" xmlns:xlink="http://www.w3.org/1999/xlink" xml:space="preserve" xmlns:serif="http://www.serif.com/" style="fill-rule:evenodd;clip-rule:evenodd;stroke-miterlimit:10;"><g><clipPath id="_clip1"><rect x="0.008" y="0.096" width="36.65" height="26.935" clip-rule="nonzero"/></clipPath><g clip-path="url(#_clip1)"><path d="M5.22,24.921l9.888,0l3.496,-3.496l-9.888,0l-3.496,3.496Z" style="fill:none;fill-rule:nonzero;stroke:#23373b;stroke-width:0.07px;"/><path d="M5.22,16.022l9.888,-0l3.496,-3.496l-9.888,-0l-3.496,3.496Z" style="fill:none;fill-rule:nonzero;stroke:#23373b;stroke-width:0.07px;"/><path d="M5.22,24.921l3.496,-3.496l-0,-8.899l-3.496,3.496l-0,8.899Z" style="fill:none;fill-rule:nonzero;stroke:#23373b;stroke-width:0.07px;"/><path d="M15.108,24.921l3.496,-3.496l-0,-8.899l-3.496,3.496l-0,8.899Z" style="fill:none;fill-rule:nonzero;stroke:#23373b;stroke-width:0.07px;"/><path d="M8.716,21.425l9.888,0l3.496,-3.496l-9.888,0l-3.496,3.496Z" style="fill:none;fill-rule:nonzero;stroke:#23373b;stroke-width:0.07px;"/><path d="M8.716,12.526l9.888,-0l3.496,-3.496l-9.888,-0l-3.496,3.496Z" style="fill:none;fill-rule:nonzero;stroke:#23373b;stroke-width:0.07px;"/><path d="M8.716,21.425l3.496,-3.496l-0,-8.899l-3.496,3.496l-0,8.899Z" style="fill:none;fill-rule:nonzero;stroke:#23373b;stroke-width:0.07px;"/><path d="M18.604,21.425l3.496,-3.496l-0,-8.899l-3.496,3.496l-0,8.899Z" style="fill:none;fill-rule:nonzero;stroke:#23373b;stroke-width:0.07px;"/><path d="M5.22,16.022l9.888,-0l3.496,-3.496l-9.888,-0l-3.496,3.496Z" style="fill:none;fill-rule:nonzero;stroke:#23373b;stroke-width:0.07px;"/><path d="M5.22,7.123l9.888,-0l3.496,-3.496l-9.888,-0l-3.496,3.496Z" style="fill:none;fill-rule:nonzero;stroke:#23373b;stroke-width:0.07px;"/><path d="M5.22,16.022l3.496,-3.496l-0,-8.899l-3.496,3.496l-0,8.899Z" style="fill:none;fill-rule:nonzero;stroke:#23373b;stroke-width:0.07px;"/><path d="M15.108,16.022l3.496,-3.496l-0,-8.899l-3.496,3.496l-0,8.899Z" style="fill:none;fill-rule:nonzero;stroke:#23373b;stroke-width:0.07px;"/><path d="M8.716,12.526l9.888,-0l3.496,-3.496l-9.888,-0l-3.496,3.496Z" style="fill:none;fill-rule:nonzero;stroke:#23373b;stroke-width:0.07px;"/><path d="M8.716,3.627l9.888,-0l3.496,-3.496l-9.888,-0l-3.496,3.496Z" style="fill:none;fill-rule:nonzero;stroke:#23373b;stroke-width:0.07px;"/><path d="M8.716,12.526l3.496,-3.496l-0,-8.899l-3.496,3.496l-0,8.899Z" style="fill:none;fill-rule:nonzero;stroke:#23373b;stroke-width:0.07px;"/><path d="M18.604,12.526l3.496,-3.496l-0,-8.899l-3.496,3.496l-0,8.899Z" style="fill:none;fill-rule:nonzero;stroke:#23373b;stroke-width:0.07px;"/><path d="M15.108,24.921l9.888,0l3.496,-3.496l-9.888,0l-3.496,3.496Z" style="fill:none;fill-rule:nonzero;stroke:#23373b;stroke-width:0.07px;"/><path d="M15.108,16.022l9.888,-0l3.496,-3.496l-9.888,-0l-3.496,3.496Z" style="fill:none;fill-rule:nonzero;stroke:#23373b;stroke-width:0.07px;"/><path d="M15.108,24.921l3.496,-3.496l-0,-8.899l-3.496,3.496l-0,8.899Z" style="fill:none;fill-rule:nonzero;stroke:#23373b;stroke-width:0.07px;"/><path d="M24.996,24.921l3.496,-3.496l-0,-8.899l-3.496,3.496l-0,8.899Z" style="fill:none;fill-rule:nonzero;stroke:#23373b;stroke-width:0.07px;"/><path d="M18.604,21.425l9.888,0l3.496,-3.496l-9.888,0l-3.496,3.496Z" style="fill:none;fill-rule:nonzero;stroke:#23373b;stroke-width:0.07px;"/><path d="M18.604,12.526l9.888,-0l3.496,-3.496l-9.888,-0l-3.496,3.496Z" style="fill:none;fill-rule:nonzero;stroke:#23373b;stroke-width:0.07px;"/><path d="M18.604,21.425l3.496,-3.496l-0,-8.899l-3.496,3.496l-0,8.899Z" style="fill:none;fill-rule:nonzero;stroke:#23373b;stroke-width:0.07px;"/><path d="M28.492,21.425l3.496,-3.496l-0,-8.899l-3.496,3.496l-0,8.899Z" style="fill:none;fill-rule:nonzero;stroke:#23373b;stroke-width:0.07px;"/><path d="M18.604,12.526l9.888,-0l3.496,-3.496l-9.888,-0l-3.496,3.496Z" style="fill:none;fill-rule:nonzero;stroke:#23373b;stroke-width:0.07px;"/><path d="M18.604,3.627l9.888,-0l3.496,-3.496l-9.888,-0l-3.496,3.496Z" style="fill:none;fill-rule:nonzero;stroke:#23373b;stroke-width:0.07px;"/><path d="M18.604,12.526l3.496,-3.496l-0,-8.899l-3.496,3.496l-0,8.899Z" style="fill:none;fill-rule:nonzero;stroke:#23373b;stroke-width:0.07px;"/><path d="M28.492,12.526l3.496,-3.496l-0,-8.899l-3.496,3.496l-0,8.899Z" style="fill:none;fill-rule:nonzero;stroke:#23373b;stroke-width:0.07px;"/><path d="M15.108,16.023l-0,-8.898l3.495,-3.495l0,8.898l-3.495,3.495Z" style="fill:#ed1c24;fill-opacity:0.5;fill-rule:nonzero;stroke:#23373b;stroke-opacity:0.5;stroke-width:0.07px;"/><path d="M16.978,9.703c0,-0.173 -0.055,-0.258 -0.122,-0.19c-0.068,0.068 -0.123,0.263 -0.123,0.435c-0,0.173 0.055,0.258 0.123,0.19c0.067,-0.068 0.122,-0.263 0.122,-0.435Z" style="fill:#808080;fill-rule:nonzero;stroke:#23373b;stroke-width:0.07px;"/><path d="M15.106,16.022l3.496,-3.496l9.886,0l-3.495,3.496l-9.887,-0Z" style="fill:#8cc63f;fill-opacity:0.5;fill-rule:nonzero;stroke:#23373b;stroke-opacity:0.5;stroke-width:0.07px;"/><path d="M22.145,14.274c0.068,-0.068 -0.033,-0.123 -0.225,-0.123c-0.192,0 -0.402,0.055 -0.47,0.123c-0.068,0.068 0.032,0.123 0.224,0.123c0.192,-0 0.403,-0.055 0.471,-0.123Z" style="fill:#808080;fill-rule:nonzero;stroke:#23373b;stroke-width:0.07px;"/><path d="M19.816,14.973c0.135,-0.136 -0.066,-0.246 -0.449,-0.246c-0.384,0 -0.805,0.11 -0.941,0.246c-0.136,0.136 0.065,0.246 0.449,0.246c0.384,-0 0.805,-0.11 0.941,-0.246Z" style="fill:#808080;fill-opacity:0.4;fill-rule:nonzero;stroke:#23373b;stroke-width:0.07px;"/><path d="M28.489,3.629l-0,8.898l-9.887,0l0,-8.898l9.887,0Z" style="fill:#00aeef;fill-opacity:0.5;stroke:#23373b;stroke-opacity:0.5;stroke-width:0.07px;"/><path d="M23.894,8.076c0,-0.173 -0.156,-0.313 -0.347,-0.313c-0.192,-0 -0.348,0.14 -0.348,0.313c0,0.172 0.156,0.312 0.348,0.312c0.191,0 0.347,-0.14 0.347,-0.312Z" style="fill:#808080;stroke:#23373b;stroke-width:0.07px;"/><path d="M26.219,9.856c-0,-0.346 -0.311,-0.626 -0.695,-0.626c-0.384,0 -0.695,0.28 -0.695,0.626c0,0.345 0.311,0.625 0.695,0.625c0.384,-0 0.695,-0.28 0.695,-0.625Z" style="fill:#808080;fill-opacity:0.4;stroke:#23373b;stroke-width:0.07px;"/><g transform="matrix(0.24,0,0,0.24,-61.8522,-29.264)"><text x="309.263px" y="185.231px" style="font-family:'Helvetica-Oblique', 'Helvetica';font-style:italic;font-size:5.792px;fill:#ed1c24;">p</text><text x="312.485px" y="186.144px" style="font-family:'Helvetica';font-size:4.054px;fill:#ed1c24;">AD</text></g><g transform="matrix(0.24,0,0,0.24,-61.8522,-29.264)"><text x="364.112px" y="189.639px" style="font-family:'Helvetica-Oblique', 'Helvetica';font-style:italic;font-size:5.792px;fill:#8cc63f;">p</text><text x="367.333px" y="190.552px" style="font-family:'Helvetica';font-size:4.054px;fill:#8cc63f;">DH</text></g><g transform="matrix(0.24,0,0,0.24,-61.8522,-29.264)"><text x="378.678px" y="138.004px" style="font-family:'Helvetica-Oblique', 'Helvetica';font-style:italic;font-size:5.792px;fill:#00aeef;">p</text><text x="381.9px" y="138.996px" style="font-family:'Helvetica';font-size:4.054px;fill:#00aeef;">CD</text></g><g transform="matrix(1,0,-0.353548,0.353548,-10.3463,-18.9178)"><text x="45.507px" y="69.833px" style="font-family:'Helvetica';font-size:3.127px;fill:#808080;">A</text></g><g transform="matrix(1,0,-0.353548,0.353548,-10.3463,-18.9178)"><text x="45.507px" y="59.947px" style="font-family:'Helvetica';font-size:3.127px;fill:#808080;">B</text></g><g transform="matrix(1,0,-0.353548,0.353548,-10.3463,-18.9178)"><text x="55.307px" y="59.948px" style="font-family:'Helvetica';font-size:3.127px;fill:#808080;">C</text></g><g transform="matrix(1,0,-0.353548,0.353548,-10.3463,-18.9178)"><text x="55.307px" y="69.833px" style="font-family:'Helvetica';font-size:3.127px;fill:#808080;">D</text></g><g transform="matrix(1,0,-0.353548,0.353548,-10.3463,-18.9178)"><text x="63.305px" y="120.176px" style="font-family:'Helvetica';font-size:3.127px;fill:#808080;">E</text></g><g transform="matrix(1,0,-0.353548,0.353548,-10.3463,-18.9178)"><text x="63.393px" y="110.289px" style="font-family:'Helvetica';font-size:3.127px;fill:#808080;">F</text></g><g transform="matrix(1,0,-0.353548,0.353548,-10.3463,-18.9178)"><text x="73.018px" y="110.289px" style="font-family:'Helvetica';font-size:3.127px;fill:#808080;">G</text></g><g transform="matrix(1,0,-0.353548,0.353548,-10.3463,-18.9178)"><text x="73.105px" y="120.176px" style="font-family:'Helvetica';font-size:3.127px;fill:#808080;">H</text></g><text x="6.401px" y="26.524px" style="font-family:'Helvetica-Oblique', 'Helvetica';font-style:italic;font-size:1.39px;fill:#23373b;">x</text><text x="2.24px" y="23.573px" style="font-family:'Helvetica-Oblique', 'Helvetica';font-style:italic;font-size:1.39px;fill:#23373b;">y</text><text x="0.516px" y="21.169px" style="font-family:'Helvetica-Oblique', 'Helvetica';font-style:italic;font-size:1.39px;fill:#23373b;">z</text><path d="M14.471,9.823l4.774,0" style="fill:none;fill-rule:nonzero;stroke:#23373b;stroke-width:0.07px;"/><path d="M14.007,9.823l0.446,0.15l0,-0.3l-0.446,0.15Z" style="fill:#23373b;fill-rule:nonzero;stroke:#23373b;stroke-width:0.07px;"/><path d="M19.709,9.823l-0.446,-0.15l-0,0.3l0.446,-0.15Z" style="fill:#23373b;fill-rule:nonzero;stroke:#23373b;stroke-width:0.07px;"/><path d="M21.801,16.362l-0,-4.181" style="fill:none;fill-rule:nonzero;stroke:#23373b;stroke-width:0.07px;"/><path d="M21.801,16.826l0.15,-0.446l-0.3,-0l0.15,0.446Z" style="fill:#23373b;fill-rule:nonzero;stroke:#23373b;stroke-width:0.07px;"/><path d="M21.801,11.718l-0.15,0.446l0.3,-0l-0.15,-0.446Z" style="fill:#23373b;fill-rule:nonzero;stroke:#23373b;stroke-width:0.07px;"/><path d="M22.91,8.714l1.279,-1.279" style="fill:none;fill-rule:nonzero;stroke:#23373b;stroke-width:0.07px;"/><path d="M22.582,9.042l0.422,-0.21l-0.212,-0.212l-0.21,0.422Z" style="fill:#23373b;fill-rule:nonzero;stroke:#23373b;stroke-width:0.07px;"/><path d="M24.517,7.107l-0.422,0.21l0.212,0.212l0.21,-0.422Z" style="fill:#23373b;fill-rule:nonzero;stroke:#23373b;stroke-width:0.07px;"/><path d="M15.108,16.022l9.888,-0l3.496,-3.496l-9.888,-0l-3.496,3.496Z" style="fill:none;fill-rule:nonzero;stroke:#23373b;stroke-width:0.07px;"/><path d="M15.108,7.123l9.888,-0l3.496,-3.496l-9.888,-0l-3.496,3.496Z" style="fill:none;fill-rule:nonzero;stroke:#23373b;stroke-width:0.07px;"/><path d="M15.108,16.022l3.496,-3.496l-0,-8.899l-3.496,3.496l-0,8.899Z" style="fill:none;fill-rule:nonzero;stroke:#23373b;stroke-width:0.07px;"/><path d="M24.996,16.022l3.496,-3.496l-0,-8.899l-3.496,3.496l-0,8.899Z" style="fill:none;fill-rule:nonzero;stroke:#23373b;stroke-width:0.07px;"/><path d="M4.001,19.612c6.186,0 13.007,1.172 15.123,-4.641c1.097,-3.015 3.388,-4.019 6.403,-5.117c5.132,-1.867 5.601,-8.489 10.301,-8.489" style="fill:none;fill-rule:nonzero;stroke:#23373b;stroke-width:0.14px;"/><path d="M36.358,1.365l-0.495,-0.174l0,0.349l0.495,-0.175Z" style="fill:#23373b;fill-rule:nonzero;stroke:#23373b;stroke-width:0.14px;"/><path d="M0.915,26.161l4.365,-0" style="fill:none;fill-rule:nonzero;stroke:#23373b;stroke-width:0.07px;"/><path d="M5.743,26.161l-0.446,-0.15l-0,0.3l0.446,-0.15Z" style="fill:#23373b;fill-rule:nonzero;stroke:#23373b;stroke-width:0.07px;"/><path d="M0.915,26.161l1.338,-1.339" style="fill:none;fill-rule:nonzero;stroke:#23373b;stroke-width:0.07px;"/><path d="M2.581,24.494l-0.422,0.21l0.212,0.212l0.21,-0.422Z" style="fill:#23373b;fill-rule:nonzero;stroke:#23373b;stroke-width:0.07px;"/><path d="M0.915,26.161l-0,-3.871" style="fill:none;fill-rule:nonzero;stroke:#23373b;stroke-width:0.07px;"/><path d="M0.915,21.827l-0.15,0.446l0.3,-0l-0.15,-0.446Z" style="fill:#23373b;fill-rule:nonzero;stroke:#23373b;stroke-width:0.07px;"/></g></g></svg>