<?xml version="1.0" encoding="UTF-8" standalone="no"?><!DOCTYPE svg PUBLIC "-//W3C//DTD SVG 1.1//EN" "http://www.w3.org/Graphics/SVG/1.1/DTD/svg11.dtd"><svg width="100%" height="100%" viewBox="0 0 428 154" version="1.1" xmlns="http://www.w3.org/2000/svg" xmlns:xlink="http://www.w3.org/1999/xlink" xml:space="preserve" xmlns:serif="http://www.serif.com/" style="fill-rule:evenodd;clip-rule:evenodd;stroke-miterlimit:10;"><g><g><clipPath id="_clip1"><rect x="0.093" y="-5.468" width="204.92" height="143.106" clip-rule="nonzero"/></clipPath><g clip-path="url(#_clip1)"><path d="M37.94,137.14c11.361,-31.213 22.124,-48.91 47.568,-70.261" style="fill:none;fill-rule:nonzero;stroke:#231f20;stroke-width:1px;"/><path d="M0.094,88.523l36.074,-36.074l106.284,0l-36.074,36.074l-106.284,0Z" style="fill:#e6e7e8;fill-opacity:0.7;fill-rule:nonzero;"/><path d="M47.547,76.499l136.26,-0" style="fill:none;fill-rule:nonzero;stroke:#231f20;stroke-width:1px;"/><path d="M187.602,76.499l-3.546,-1.25l0,2.499l3.546,-1.249Z" style="fill:#231f20;fill-rule:nonzero;stroke:#231f20;stroke-width:1px;"/><path d="M47.547,76.499l44.243,-44.244" style="fill:none;fill-rule:nonzero;stroke:#231f20;stroke-width:1px;"/><path d="M94.474,29.571l-3.391,1.624l1.767,1.767l1.624,-3.391Z" style="fill:#231f20;fill-rule:nonzero;stroke:#231f20;stroke-width:1px;"/><path d="M108.194,66.876c2.657,-2.656 -5.341,-4.81 -17.864,-4.81c-12.522,0 -24.827,2.154 -27.484,4.81c-2.656,2.657 5.342,4.81 17.864,4.81c12.523,-0 24.828,-2.153 27.484,-4.81Z" style="fill:#8cc63f;fill-opacity:0.4;fill-rule:nonzero;stroke:#8cc63f;stroke-width:1px;"/><g transform="matrix(1,0,0,1,-99.12,-537.12)"><text x="292.51px" y="616.589px" style="font-family:'LucidaGrande', 'Lucida Grande', sans-serif;font-weight:500;font-size:10.909px;fill:#231f20;">l</text><text x="295.765px" y="618.226px" style="font-family:'Monaco';font-size:7.97px;fill:#231f20;">0</text></g><g transform="matrix(1,0,0,1,-99.12,-537.12)"><text x="190.77px" y="559.751px" style="font-family:'LucidaGrande', 'Lucida Grande', sans-serif;font-weight:500;font-size:10.909px;fill:#231f20;">l</text><text x="194.025px" y="561.387px" style="font-family:'Monaco';font-size:7.97px;fill:#231f20;">1</text></g><path d="M85.508,66.879c18.49,-15.515 29.311,-24.132 50.817,-35.09" style="fill:none;fill-rule:nonzero;stroke:#231f20;stroke-width:1px;"/><path d="M85.507,66.879l60.968,-51.159" style="fill:none;fill-rule:nonzero;stroke:#00aeef;stroke-width:1px;"/><path d="M149.382,13.281l-3.519,1.322l1.606,1.914l1.913,-3.236Z" style="fill:#00aeef;fill-rule:nonzero;stroke:#00aeef;stroke-width:1px;"/><text x="154.783px" y="5.962px" style="font-family:'LucidaGrande', 'Lucida Grande', sans-serif;font-weight:500;font-size:10.909px;fill:#00aeef;">p</text><g transform="matrix(1,0,0,1,-99.12,-537.12)"><text x="211.777px" y="640.609px" style="font-family:'Georgia', serif;font-size:10.909px;fill:#8cc63f;">local position</text><text x="197.348px" y="655.448px" style="font-family:'Georgia', serif;font-size:10.909px;fill:#00aeef;">momentum</text></g><path d="M140.217,39.473c2.399,-2.013 0.264,-8.505 -4.767,-14.502c-5.032,-5.996 -11.055,-9.225 -13.454,-7.213l-36.488,49.121l54.709,-27.406Z" style="fill:#00aeef;fill-opacity:0.5;fill-rule:nonzero;"/><path d="M140.217,39.473l-54.709,27.406l36.488,-49.121" style="fill:none;fill-rule:nonzero;stroke:#00aeef;stroke-opacity:0.85;stroke-width:1px;stroke-dasharray:2.99,2.99;"/><path d="M140.217,39.473c2.397,-2.011 0.261,-8.509 -4.767,-14.502c-5.028,-5.992 -11.057,-9.224 -13.454,-7.213c-2.397,2.012 -0.26,8.51 4.768,14.502c5.028,5.992 11.056,9.224 13.453,7.213Z" style="fill:#00aeef;fill-opacity:0.4;stroke:#00aeef;stroke-width:1px;"/><path d="M136.325,31.789c18.047,-8.416 29.067,-11.606 43.308,-14.117" style="fill:none;fill-rule:nonzero;stroke:#231f20;stroke-width:1px;"/><path d="M183.371,17.013l-3.709,-0.615l0.433,2.461l3.276,-1.846Z" style="fill:#231f20;fill-rule:nonzero;stroke:#231f20;stroke-width:1px;"/><path d="M87.513,66.876c0.622,-0.622 0.235,-1.127 -0.866,-1.127c-1.1,0 -2.497,0.505 -3.119,1.127c-0.622,0.622 -0.235,1.127 0.865,1.127c1.101,0 2.497,-0.505 3.12,-1.127Z" style="fill:#8cc63f;fill-rule:nonzero;"/></g></g><text x="103.5px" y="151.985px" style="font-family:'Georgia', serif;font-size:9.963px;fill:#231f20;">(a)</text><g><path d="M263.716,71.426l119.868,-14.921l43.629,40.997l-119.868,14.921l-43.629,-40.997Z" style="fill:#e6e7e8;fill-rule:nonzero;"/><path d="M318.215,80.118l90.832,14.487" style="fill:none;fill-rule:nonzero;stroke:#00aeef;stroke-width:1px;stroke-dasharray:2.99,2.99;"/><path d="M371.49,73.486c-0,-14.126 -5.615,-26.983 -15.604,-35.728l-37.671,42.36" style="fill:none;fill-rule:nonzero;stroke:#f58038;stroke-width:1px;"/><path d="M371.49,73.486c-0,-14.126 -5.615,-26.983 -15.604,-35.728l-37.671,42.36l53.275,-6.632Z" style="fill:#f58038;fill-opacity:0.3;fill-rule:nonzero;"/><path d="M337.606,98.339c-0,-14.127 -2.044,-29.602 -5.68,-43.008l-13.711,24.787" style="fill:none;fill-rule:nonzero;stroke:#8cc63f;stroke-width:1px;"/><path d="M337.606,98.339c-0,-14.127 -2.044,-29.602 -5.68,-43.008l-13.711,24.787l19.391,18.221Z" style="fill:#8cc63f;fill-opacity:0.3;fill-rule:nonzero;"/><text x="355.505px" y="31.503px" style="font-family:'LucidaGrande', 'Lucida Grande', sans-serif;font-weight:500;font-size:10.909px;fill:#f58038;">φ</text><text x="329.214px" y="51.197px" style="font-family:'LucidaGrande', 'Lucida Grande', sans-serif;font-weight:500;font-size:10.909px;fill:#8cc63f;">θ</text><path d="M355.886,37.758l13.709,12.882" style="fill:none;fill-rule:nonzero;stroke:#231f20;stroke-width:1px;stroke-dasharray:2.99,2.99;"/><path d="M331.926,55.331l37.666,-4.688" style="fill:none;fill-rule:nonzero;stroke:#231f20;stroke-width:1px;stroke-dasharray:2.99,2.99;"/><path d="M318.215,80.118l86.103,-49.394" style="fill:none;fill-rule:nonzero;stroke:#00aeef;stroke-width:1px;"/><path d="M407.61,28.836l-3.697,0.68l1.243,2.168l2.454,-2.848Z" style="fill:#00aeef;fill-rule:nonzero;stroke:#00aeef;stroke-width:1px;"/><path d="M318.215,80.118l74.503,-9.274" style="fill:none;fill-rule:nonzero;stroke:#231f20;stroke-width:1px;"/><path d="M396.483,70.375l-3.673,-0.802l0.309,2.48l3.364,-1.678Z" style="fill:#231f20;fill-rule:nonzero;stroke:#231f20;stroke-width:1px;"/><path d="M318.215,80.118l0,-47.823" style="fill:none;fill-rule:nonzero;stroke:#231f20;stroke-width:1px;"/><path d="M318.215,28.5l-1.25,3.546l2.5,-0l-1.25,-3.546Z" style="fill:#231f20;fill-rule:nonzero;stroke:#231f20;stroke-width:1px;"/><path d="M318.215,80.118l25.113,23.599" style="fill:none;fill-rule:nonzero;stroke:#231f20;stroke-width:1px;"/><path d="M346.094,106.315l-1.729,-3.338l-1.711,1.821l3.44,1.517Z" style="fill:#231f20;fill-rule:nonzero;stroke:#231f20;stroke-width:1px;"/><text x="402.261px" y="72.519px" style="font-family:'LucidaGrande', 'Lucida Grande', sans-serif;font-weight:500;font-size:10.909px;fill:#231f20;">x</text><text x="315.345px" y="20.588px" style="font-family:'LucidaGrande', 'Lucida Grande', sans-serif;font-weight:500;font-size:10.909px;fill:#231f20;">y</text><text x="351.435px" y="116.28px" style="font-family:'LucidaGrande', 'Lucida Grande', sans-serif;font-weight:500;font-size:10.909px;fill:#231f20;">z</text><path d="M409.047,94.605l-0,-66.594" style="fill:none;fill-rule:nonzero;stroke:#00aeef;stroke-width:1px;stroke-dasharray:2.99,2.99;"/></g><text x="344.875px" y="134.262px" style="font-family:'Georgia', serif;font-size:9.963px;fill:#231f20;">(b)</text></g></svg>
