<?xml version="1.0" encoding="UTF-8" standalone="no"?><!DOCTYPE svg PUBLIC "-//W3C//DTD SVG 1.1//EN" "http://www.w3.org/Graphics/SVG/1.1/DTD/svg11.dtd"><svg width="100%" height="100%" viewBox="0 0 288 192" version="1.1" xmlns="http://www.w3.org/2000/svg" xmlns:xlink="http://www.w3.org/1999/xlink" xml:space="preserve" xmlns:serif="http://www.serif.com/" style="fill-rule:evenodd;clip-rule:evenodd;stroke-linejoin:round;stroke-miterlimit:10;"><rect x="68.216" y="10.8" width="208.984" height="149.6" style="fill:#fff;"/><rect x="68.216" y="10.8" width="208.984" height="149.6" style="fill:#fff;"/><path d="M77.715,160.4l0,3.5" style="fill:none;fill-rule:nonzero;"/><path d="M77.715,160.4l0,3.5" style="fill:none;fill-rule:nonzero;stroke:#000;stroke-width:0.8px;"/><path d="M77.443,169.775l-0.136,0.698l-1.792,0l-0.581,2.969c-0.02,0.111 -0.034,0.203 -0.044,0.278c-0.009,0.075 -0.014,0.134 -0.014,0.175c0,0.209 0.063,0.36 0.188,0.455c0.125,0.095 0.326,0.142 0.603,0.142l0.908,0l-0.152,0.752l-0.859,-0c-0.534,-0 -0.932,-0.104 -1.194,-0.313c-0.262,-0.208 -0.392,-0.524 -0.392,-0.947c-0,-0.075 0.004,-0.157 0.014,-0.247c0.009,-0.089 0.024,-0.188 0.044,-0.295l0.581,-2.969l-0.763,0l0.142,-0.698l0.747,-0l0.303,-1.553l0.899,-0l-0.299,1.553l1.797,-0Zm3.593,4.798l-0.448,2.311l-0.632,0l0.448,-2.287c0.021,-0.107 0.036,-0.201 0.047,-0.283c0.012,-0.082 0.018,-0.147 0.018,-0.195c-0,-0.191 -0.061,-0.341 -0.182,-0.447c-0.12,-0.107 -0.289,-0.161 -0.505,-0.161c-0.338,0 -0.628,0.113 -0.872,0.337c-0.243,0.224 -0.403,0.528 -0.479,0.913l-0.42,2.123l-0.629,0l0.742,-3.828l0.629,0l-0.126,0.602c0.175,-0.221 0.385,-0.392 0.631,-0.512c0.246,-0.121 0.505,-0.182 0.777,-0.182c0.337,0 0.599,0.092 0.784,0.274c0.186,0.182 0.279,0.438 0.279,0.769c-0,0.081 -0.005,0.169 -0.016,0.262c-0.01,0.094 -0.025,0.195 -0.046,0.304Z" style="fill-rule:nonzero;"/><path d="M77.443,169.775l-0.136,0.698l-1.792,0l-0.581,2.969c-0.02,0.111 -0.034,0.203 -0.044,0.278c-0.009,0.075 -0.014,0.134 -0.014,0.175c0,0.209 0.063,0.36 0.188,0.455c0.125,0.095 0.326,0.142 0.603,0.142l0.908,0l-0.152,0.752l-0.859,-0c-0.534,-0 -0.932,-0.104 -1.194,-0.313c-0.262,-0.208 -0.392,-0.524 -0.392,-0.947c-0,-0.075 0.004,-0.157 0.014,-0.247c0.009,-0.089 0.024,-0.188 0.044,-0.295l0.581,-2.969l-0.763,0l0.142,-0.698l0.747,-0l0.303,-1.553l0.899,-0l-0.299,1.553l1.797,-0Zm3.593,4.798l-0.448,2.311l-0.632,0l0.448,-2.287c0.021,-0.107 0.036,-0.201 0.047,-0.283c0.012,-0.082 0.018,-0.147 0.018,-0.195c-0,-0.191 -0.061,-0.341 -0.182,-0.447c-0.12,-0.107 -0.289,-0.161 -0.505,-0.161c-0.338,0 -0.628,0.113 -0.872,0.337c-0.243,0.224 -0.403,0.528 -0.479,0.913l-0.42,2.123l-0.629,0l0.742,-3.828l0.629,0l-0.126,0.602c0.175,-0.221 0.385,-0.392 0.631,-0.512c0.246,-0.121 0.505,-0.182 0.777,-0.182c0.337,0 0.599,0.092 0.784,0.274c0.186,0.182 0.279,0.438 0.279,0.769c-0,0.081 -0.005,0.169 -0.016,0.262c-0.01,0.094 -0.025,0.195 -0.046,0.304Z" style="fill-rule:nonzero;"/><path d="M156.876,160.4l-0,3.5" style="fill:none;fill-rule:nonzero;"/><path d="M156.876,160.4l-0,3.5" style="fill:none;fill-rule:nonzero;stroke:#000;stroke-width:0.8px;"/><path d="M142.604,169.852l-0.136,0.698l-1.792,0l-0.581,2.969c-0.02,0.11 -0.035,0.203 -0.044,0.278c-0.01,0.075 -0.014,0.133 -0.014,0.175c-0,0.208 0.062,0.36 0.187,0.455c0.125,0.094 0.326,0.142 0.603,0.142l0.908,-0l-0.151,0.751l-0.86,0c-0.533,0 -0.931,-0.104 -1.193,-0.312c-0.262,-0.209 -0.393,-0.524 -0.393,-0.947c0,-0.075 0.005,-0.157 0.014,-0.247c0.01,-0.09 0.024,-0.188 0.044,-0.295l0.581,-2.969l-0.762,0l0.142,-0.698l0.747,-0l0.303,-1.554l0.899,0l-0.299,1.554l1.797,-0Zm3.593,4.798l-0.448,2.311l-0.633,-0l0.449,-2.287c0.02,-0.107 0.036,-0.202 0.047,-0.283c0.012,-0.083 0.017,-0.148 0.017,-0.195c0,-0.192 -0.06,-0.341 -0.181,-0.447c-0.12,-0.108 -0.289,-0.161 -0.505,-0.161c-0.338,-0 -0.629,0.112 -0.872,0.337c-0.244,0.224 -0.403,0.528 -0.479,0.913l-0.42,2.123l-0.629,-0l0.741,-3.828l0.629,-0l-0.125,0.601c0.175,-0.221 0.385,-0.391 0.631,-0.511c0.246,-0.122 0.505,-0.182 0.776,-0.182c0.338,-0 0.599,0.091 0.784,0.273c0.186,0.183 0.279,0.439 0.279,0.769c0,0.082 -0.005,0.169 -0.015,0.263c-0.01,0.093 -0.026,0.194 -0.046,0.304Zm7.358,-5.6l-0,2.72l2.719,0l-0,0.83l-2.719,-0l-0,2.72l-0.82,0l-0,-2.72l-2.721,-0l0,-0.83l2.721,0l-0,-2.72l0.82,-0Zm11.299,2.969l-0.641,3.301l-0.903,0l0.641,-3.267c0.029,-0.153 0.051,-0.288 0.067,-0.405c0.017,-0.117 0.025,-0.21 0.025,-0.278c0,-0.274 -0.086,-0.487 -0.259,-0.639c-0.172,-0.153 -0.413,-0.229 -0.722,-0.229c-0.483,-0 -0.9,0.163 -1.253,0.489c-0.353,0.325 -0.582,0.757 -0.686,1.297l-0.591,3.032l-0.898,0l1.479,-7.598l0.899,-0l-0.581,2.989c0.228,-0.306 0.519,-0.548 0.873,-0.725c0.355,-0.177 0.728,-0.266 1.119,-0.266c0.482,0 0.855,0.131 1.12,0.391c0.266,0.26 0.398,0.626 0.398,1.098c0,0.117 -0.007,0.242 -0.021,0.375c-0.015,0.134 -0.037,0.278 -0.066,0.435Zm3.305,-3.989l0.83,-0l-2.539,8.218l-0.83,0l2.539,-8.218Zm2.386,6.461l3.443,-0l-0,0.829l-4.629,0l0,-0.829c0.374,-0.388 0.884,-0.908 1.53,-1.56c0.647,-0.653 1.053,-1.074 1.219,-1.264c0.315,-0.354 0.536,-0.654 0.661,-0.9c0.126,-0.246 0.189,-0.487 0.189,-0.725c-0,-0.387 -0.136,-0.703 -0.408,-0.947c-0.272,-0.244 -0.626,-0.367 -1.062,-0.367c-0.31,0 -0.636,0.054 -0.98,0.161c-0.343,0.107 -0.71,0.27 -1.1,0.489l-0,-0.997c0.397,-0.159 0.768,-0.279 1.112,-0.361c0.346,-0.081 0.662,-0.122 0.949,-0.122c0.755,0 1.357,0.189 1.806,0.568c0.449,0.377 0.673,0.881 0.673,1.512c0,0.3 -0.056,0.584 -0.168,0.853c-0.112,0.268 -0.316,0.584 -0.613,0.949c-0.081,0.094 -0.34,0.367 -0.776,0.818c-0.436,0.451 -1.051,1.082 -1.846,1.893Z" style="fill-rule:nonzero;"/><path d="M142.604,169.852l-0.136,0.698l-1.792,0l-0.581,2.969c-0.02,0.11 -0.035,0.203 -0.044,0.278c-0.01,0.075 -0.014,0.133 -0.014,0.175c-0,0.208 0.062,0.36 0.187,0.455c0.125,0.094 0.326,0.142 0.603,0.142l0.908,-0l-0.151,0.751l-0.86,0c-0.533,0 -0.931,-0.104 -1.193,-0.312c-0.262,-0.209 -0.393,-0.524 -0.393,-0.947c0,-0.075 0.005,-0.157 0.014,-0.247c0.01,-0.09 0.024,-0.188 0.044,-0.295l0.581,-2.969l-0.762,0l0.142,-0.698l0.747,-0l0.303,-1.554l0.899,0l-0.299,1.554l1.797,-0Zm3.593,4.798l-0.448,2.311l-0.633,-0l0.449,-2.287c0.02,-0.107 0.036,-0.202 0.047,-0.283c0.012,-0.083 0.017,-0.148 0.017,-0.195c0,-0.192 -0.06,-0.341 -0.181,-0.447c-0.12,-0.108 -0.289,-0.161 -0.505,-0.161c-0.338,-0 -0.629,0.112 -0.872,0.337c-0.244,0.224 -0.403,0.528 -0.479,0.913l-0.42,2.123l-0.629,-0l0.741,-3.828l0.629,-0l-0.125,0.601c0.175,-0.221 0.385,-0.391 0.631,-0.511c0.246,-0.122 0.505,-0.182 0.776,-0.182c0.338,-0 0.599,0.091 0.784,0.273c0.186,0.183 0.279,0.439 0.279,0.769c0,0.082 -0.005,0.169 -0.015,0.263c-0.01,0.093 -0.026,0.194 -0.046,0.304Zm7.358,-5.6l-0,2.72l2.719,0l-0,0.83l-2.719,-0l-0,2.72l-0.82,0l-0,-2.72l-2.721,-0l0,-0.83l2.721,0l-0,-2.72l0.82,-0Zm11.299,2.969l-0.641,3.301l-0.903,0l0.641,-3.267c0.029,-0.153 0.051,-0.288 0.067,-0.405c0.017,-0.117 0.025,-0.21 0.025,-0.278c0,-0.274 -0.086,-0.487 -0.259,-0.639c-0.172,-0.153 -0.413,-0.229 -0.722,-0.229c-0.483,-0 -0.9,0.163 -1.253,0.489c-0.353,0.325 -0.582,0.757 -0.686,1.297l-0.591,3.032l-0.898,0l1.479,-7.598l0.899,-0l-0.581,2.989c0.228,-0.306 0.519,-0.548 0.873,-0.725c0.355,-0.177 0.728,-0.266 1.119,-0.266c0.482,0 0.855,0.131 1.12,0.391c0.266,0.26 0.398,0.626 0.398,1.098c0,0.117 -0.007,0.242 -0.021,0.375c-0.015,0.134 -0.037,0.278 -0.066,0.435Zm3.305,-3.989l0.83,-0l-2.539,8.218l-0.83,0l2.539,-8.218Zm2.386,6.461l3.443,-0l-0,0.829l-4.629,0l0,-0.829c0.374,-0.388 0.884,-0.908 1.53,-1.56c0.647,-0.653 1.053,-1.074 1.219,-1.264c0.315,-0.354 0.536,-0.654 0.661,-0.9c0.126,-0.246 0.189,-0.487 0.189,-0.725c-0,-0.387 -0.136,-0.703 -0.408,-0.947c-0.272,-0.244 -0.626,-0.367 -1.062,-0.367c-0.31,0 -0.636,0.054 -0.98,0.161c-0.343,0.107 -0.71,0.27 -1.1,0.489l-0,-0.997c0.397,-0.159 0.768,-0.279 1.112,-0.361c0.346,-0.081 0.662,-0.122 0.949,-0.122c0.755,0 1.357,0.189 1.806,0.568c0.449,0.377 0.673,0.881 0.673,1.512c0,0.3 -0.056,0.584 -0.168,0.853c-0.112,0.268 -0.316,0.584 -0.613,0.949c-0.081,0.094 -0.34,0.367 -0.776,0.818c-0.436,0.451 -1.051,1.082 -1.846,1.893Z" style="fill-rule:nonzero;"/><path d="M236.036,160.4l0,3.5" style="fill:none;fill-rule:nonzero;"/><path d="M236.036,160.4l0,3.5" style="fill:none;fill-rule:nonzero;stroke:#000;stroke-width:0.8px;"/><path d="M226.265,169.852l-0.136,0.698l-1.793,0l-0.581,2.969c-0.02,0.11 -0.034,0.203 -0.044,0.278c-0.009,0.075 -0.014,0.133 -0.014,0.175c0,0.208 0.063,0.36 0.188,0.455c0.125,0.094 0.326,0.142 0.603,0.142l0.908,-0l-0.152,0.751l-0.859,0c-0.533,0 -0.931,-0.104 -1.194,-0.312c-0.261,-0.209 -0.392,-0.524 -0.392,-0.947c-0,-0.075 0.005,-0.157 0.014,-0.247c0.009,-0.09 0.024,-0.188 0.044,-0.295l0.581,-2.969l-0.762,0l0.142,-0.698l0.747,-0l0.303,-1.554l0.898,0l-0.298,1.554l1.797,-0Zm3.593,4.798l-0.449,2.311l-0.632,-0l0.448,-2.287c0.021,-0.107 0.037,-0.202 0.048,-0.283c0.011,-0.083 0.017,-0.148 0.017,-0.195c0,-0.192 -0.06,-0.341 -0.182,-0.447c-0.12,-0.108 -0.288,-0.161 -0.505,-0.161c-0.337,-0 -0.628,0.112 -0.872,0.337c-0.243,0.224 -0.403,0.528 -0.479,0.913l-0.42,2.123l-0.629,-0l0.742,-3.828l0.629,-0l-0.126,0.601c0.175,-0.221 0.386,-0.391 0.631,-0.511c0.247,-0.122 0.506,-0.182 0.777,-0.182c0.337,-0 0.599,0.091 0.784,0.273c0.186,0.183 0.279,0.439 0.279,0.769c-0,0.082 -0.005,0.169 -0.015,0.263c-0.011,0.093 -0.026,0.194 -0.046,0.304Zm7.358,-5.6l-0,2.72l2.718,0l0,0.83l-2.718,-0l-0,2.72l-0.821,0l0,-2.72l-2.72,-0l-0,-0.83l2.72,0l0,-2.72l0.821,-0Zm11.299,2.969l-0.641,3.301l-0.903,0l0.64,-3.267c0.03,-0.153 0.052,-0.288 0.068,-0.405c0.016,-0.117 0.025,-0.21 0.025,-0.278c-0,-0.274 -0.087,-0.487 -0.26,-0.639c-0.172,-0.153 -0.412,-0.229 -0.722,-0.229c-0.482,-0 -0.9,0.163 -1.253,0.489c-0.353,0.325 -0.581,0.757 -0.686,1.297l-0.59,3.032l-0.899,0l1.48,-7.598l0.898,-0l-0.581,2.989c0.228,-0.306 0.519,-0.548 0.874,-0.725c0.355,-0.177 0.728,-0.266 1.118,-0.266c0.483,0 0.856,0.131 1.121,0.391c0.265,0.26 0.398,0.626 0.398,1.098c0,0.117 -0.007,0.242 -0.022,0.375c-0.014,0.134 -0.036,0.278 -0.065,0.435Z" style="fill-rule:nonzero;"/><path d="M226.265,169.852l-0.136,0.698l-1.793,0l-0.581,2.969c-0.02,0.11 -0.034,0.203 -0.044,0.278c-0.009,0.075 -0.014,0.133 -0.014,0.175c0,0.208 0.063,0.36 0.188,0.455c0.125,0.094 0.326,0.142 0.603,0.142l0.908,-0l-0.152,0.751l-0.859,0c-0.533,0 -0.931,-0.104 -1.194,-0.312c-0.261,-0.209 -0.392,-0.524 -0.392,-0.947c-0,-0.075 0.005,-0.157 0.014,-0.247c0.009,-0.09 0.024,-0.188 0.044,-0.295l0.581,-2.969l-0.762,0l0.142,-0.698l0.747,-0l0.303,-1.554l0.898,0l-0.298,1.554l1.797,-0Zm3.593,4.798l-0.449,2.311l-0.632,-0l0.448,-2.287c0.021,-0.107 0.037,-0.202 0.048,-0.283c0.011,-0.083 0.017,-0.148 0.017,-0.195c0,-0.192 -0.06,-0.341 -0.182,-0.447c-0.12,-0.108 -0.288,-0.161 -0.505,-0.161c-0.337,-0 -0.628,0.112 -0.872,0.337c-0.243,0.224 -0.403,0.528 -0.479,0.913l-0.42,2.123l-0.629,-0l0.742,-3.828l0.629,-0l-0.126,0.601c0.175,-0.221 0.386,-0.391 0.631,-0.511c0.247,-0.122 0.506,-0.182 0.777,-0.182c0.337,-0 0.599,0.091 0.784,0.273c0.186,0.183 0.279,0.439 0.279,0.769c-0,0.082 -0.005,0.169 -0.015,0.263c-0.011,0.093 -0.026,0.194 -0.046,0.304Zm7.358,-5.6l-0,2.72l2.718,0l0,0.83l-2.718,-0l-0,2.72l-0.821,0l0,-2.72l-2.72,-0l-0,-0.83l2.72,0l0,-2.72l0.821,-0Zm11.299,2.969l-0.641,3.301l-0.903,0l0.64,-3.267c0.03,-0.153 0.052,-0.288 0.068,-0.405c0.016,-0.117 0.025,-0.21 0.025,-0.278c-0,-0.274 -0.087,-0.487 -0.26,-0.639c-0.172,-0.153 -0.412,-0.229 -0.722,-0.229c-0.482,-0 -0.9,0.163 -1.253,0.489c-0.353,0.325 -0.581,0.757 -0.686,1.297l-0.59,3.032l-0.899,0l1.48,-7.598l0.898,-0l-0.581,2.989c0.228,-0.306 0.519,-0.548 0.874,-0.725c0.355,-0.177 0.728,-0.266 1.118,-0.266c0.483,0 0.856,0.131 1.121,0.391c0.265,0.26 0.398,0.626 0.398,1.098c0,0.117 -0.007,0.242 -0.022,0.375c-0.014,0.134 -0.036,0.278 -0.065,0.435Z" style="fill-rule:nonzero;"/><path d="M68.216,135.708l-3.5,0" style="fill:none;fill-rule:nonzero;"/><path d="M68.216,135.708l-3.5,0" style="fill:none;fill-rule:nonzero;stroke:#000;stroke-width:0.8px;"/><path d="M52.697,139.521c-0.416,0.7 -0.756,1.137 -1.019,1.311c-0.262,0.174 -0.596,0.261 -1.003,0.261l-0.708,-0l0.15,-0.752l0.519,0c0.25,0 0.463,-0.068 0.639,-0.205c0.176,-0.136 0.373,-0.403 0.591,-0.801l0.278,-0.522l-1.211,-5.269l0.953,0l0.908,4.189l2.509,-4.189l0.943,0l-3.549,5.977Zm7.337,-1.178l-0.448,2.311l-0.632,-0l0.448,-2.287c0.02,-0.108 0.036,-0.202 0.047,-0.284c0.012,-0.082 0.018,-0.147 0.018,-0.194c-0,-0.192 -0.061,-0.341 -0.182,-0.448c-0.12,-0.107 -0.289,-0.16 -0.505,-0.16c-0.338,-0 -0.629,0.112 -0.872,0.336c-0.244,0.224 -0.403,0.529 -0.479,0.914l-0.42,2.123l-0.629,-0l0.742,-3.828l0.628,-0l-0.125,0.601c0.175,-0.221 0.385,-0.391 0.631,-0.512c0.246,-0.121 0.505,-0.181 0.776,-0.181c0.338,-0 0.599,0.091 0.785,0.273c0.185,0.182 0.278,0.439 0.278,0.769c0,0.082 -0.005,0.169 -0.015,0.262c-0.01,0.094 -0.025,0.195 -0.046,0.305Z" style="fill-rule:nonzero;"/><path d="M52.697,139.521c-0.416,0.7 -0.756,1.137 -1.019,1.311c-0.262,0.174 -0.596,0.261 -1.003,0.261l-0.708,-0l0.15,-0.752l0.519,0c0.25,0 0.463,-0.068 0.639,-0.205c0.176,-0.136 0.373,-0.403 0.591,-0.801l0.278,-0.522l-1.211,-5.269l0.953,0l0.908,4.189l2.509,-4.189l0.943,0l-3.549,5.977Zm7.337,-1.178l-0.448,2.311l-0.632,-0l0.448,-2.287c0.02,-0.108 0.036,-0.202 0.047,-0.284c0.012,-0.082 0.018,-0.147 0.018,-0.194c-0,-0.192 -0.061,-0.341 -0.182,-0.448c-0.12,-0.107 -0.289,-0.16 -0.505,-0.16c-0.338,-0 -0.629,0.112 -0.872,0.336c-0.244,0.224 -0.403,0.529 -0.479,0.914l-0.42,2.123l-0.629,-0l0.742,-3.828l0.628,-0l-0.125,0.601c0.175,-0.221 0.385,-0.391 0.631,-0.512c0.246,-0.121 0.505,-0.181 0.776,-0.181c0.338,-0 0.599,0.091 0.785,0.273c0.185,0.182 0.278,0.439 0.278,0.769c0,0.082 -0.005,0.169 -0.015,0.262c-0.01,0.094 -0.025,0.195 -0.046,0.305Z" style="fill-rule:nonzero;"/><path d="M68.216,123.449l-3.5,0" style="fill:none;fill-rule:nonzero;"/><path d="M68.216,123.449l-3.5,0" style="fill:none;fill-rule:nonzero;stroke:#000;stroke-width:0.8px;"/><path d="M13.697,127.955c-0.416,0.7 -0.756,1.137 -1.019,1.311c-0.262,0.174 -0.596,0.261 -1.003,0.261l-0.708,0l0.15,-0.751l0.519,-0c0.25,-0 0.463,-0.068 0.639,-0.205c0.176,-0.136 0.373,-0.404 0.591,-0.801l0.278,-0.522l-1.211,-5.269l0.953,-0l0.908,4.189l2.509,-4.189l0.943,-0l-3.549,5.976Zm7.337,-1.178l-0.448,2.311l-0.632,0l0.448,-2.287c0.02,-0.107 0.036,-0.201 0.047,-0.283c0.012,-0.082 0.018,-0.147 0.018,-0.195c-0,-0.191 -0.061,-0.341 -0.182,-0.447c-0.12,-0.107 -0.289,-0.161 -0.505,-0.161c-0.338,0 -0.629,0.112 -0.872,0.337c-0.244,0.224 -0.403,0.528 -0.479,0.913l-0.42,2.123l-0.629,0l0.742,-3.828l0.628,0l-0.125,0.602c0.175,-0.221 0.385,-0.392 0.631,-0.512c0.246,-0.121 0.505,-0.182 0.776,-0.182c0.338,0 0.599,0.091 0.785,0.274c0.185,0.182 0.278,0.438 0.278,0.769c0,0.081 -0.005,0.169 -0.015,0.262c-0.01,0.093 -0.025,0.195 -0.046,0.304Zm7.358,-5.6l0,2.721l2.719,-0l-0,0.829l-2.719,0l0,2.721l-0.82,-0l-0,-2.721l-2.721,0l0,-0.829l2.721,-0l-0,-2.721l0.82,0Zm11.299,2.969l-0.641,3.302l-0.903,-0l0.641,-3.268c0.029,-0.153 0.052,-0.288 0.067,-0.404c0.017,-0.118 0.025,-0.211 0.025,-0.278c0,-0.274 -0.086,-0.487 -0.259,-0.639c-0.172,-0.154 -0.413,-0.23 -0.722,-0.23c-0.482,-0 -0.9,0.163 -1.253,0.489c-0.353,0.325 -0.582,0.757 -0.686,1.297l-0.591,3.033l-0.898,-0l1.479,-7.599l0.899,0l-0.581,2.989c0.228,-0.306 0.519,-0.548 0.873,-0.725c0.355,-0.177 0.728,-0.265 1.119,-0.265c0.482,-0 0.856,0.13 1.12,0.39c0.266,0.261 0.399,0.627 0.399,1.099c-0,0.116 -0.008,0.241 -0.022,0.375c-0.015,0.133 -0.037,0.278 -0.066,0.434Zm2.597,-4.297l0.899,0l-0.86,4.43l3.082,-2.3l1.167,-0l-3.438,2.617l2.51,2.852l-1.089,-0l-2.335,-2.671l-0.517,2.671l-0.898,-0l1.479,-7.599Zm4.829,8.659l1.127,-0l0,-3.894l-1.227,0.246l0,-0.629l1.221,-0.246l0.69,-0l-0,4.523l1.127,-0l0,0.58l-2.938,0l-0,-0.58Zm6.397,-8.351l0.83,0l-2.539,8.219l-0.83,-0l2.539,-8.219Zm2.387,6.461l3.442,-0l-0,0.83l-4.628,-0l-0,-0.83c0.374,-0.388 0.884,-0.907 1.529,-1.559c0.647,-0.654 1.053,-1.075 1.219,-1.264c0.316,-0.355 0.536,-0.655 0.661,-0.9c0.126,-0.246 0.189,-0.488 0.189,-0.725c0,-0.388 -0.136,-0.704 -0.408,-0.947c-0.272,-0.245 -0.626,-0.368 -1.062,-0.368c-0.31,0 -0.636,0.054 -0.98,0.161c-0.343,0.108 -0.709,0.271 -1.1,0.489l0,-0.996c0.397,-0.16 0.768,-0.28 1.113,-0.361c0.345,-0.082 0.662,-0.122 0.948,-0.122c0.755,-0 1.357,0.189 1.806,0.567c0.449,0.377 0.674,0.881 0.674,1.512c-0,0.3 -0.057,0.585 -0.169,0.854c-0.111,0.267 -0.316,0.583 -0.613,0.948c-0.081,0.095 -0.34,0.368 -0.776,0.819c-0.436,0.451 -1.051,1.082 -1.845,1.892Z" style="fill-rule:nonzero;"/><path d="M13.697,127.955c-0.416,0.7 -0.756,1.137 -1.019,1.311c-0.262,0.174 -0.596,0.261 -1.003,0.261l-0.708,0l0.15,-0.751l0.519,-0c0.25,-0 0.463,-0.068 0.639,-0.205c0.176,-0.136 0.373,-0.404 0.591,-0.801l0.278,-0.522l-1.211,-5.269l0.953,-0l0.908,4.189l2.509,-4.189l0.943,-0l-3.549,5.976Zm7.337,-1.178l-0.448,2.311l-0.632,0l0.448,-2.287c0.02,-0.107 0.036,-0.201 0.047,-0.283c0.012,-0.082 0.018,-0.147 0.018,-0.195c-0,-0.191 -0.061,-0.341 -0.182,-0.447c-0.12,-0.107 -0.289,-0.161 -0.505,-0.161c-0.338,0 -0.629,0.112 -0.872,0.337c-0.244,0.224 -0.403,0.528 -0.479,0.913l-0.42,2.123l-0.629,0l0.742,-3.828l0.628,0l-0.125,0.602c0.175,-0.221 0.385,-0.392 0.631,-0.512c0.246,-0.121 0.505,-0.182 0.776,-0.182c0.338,0 0.599,0.091 0.785,0.274c0.185,0.182 0.278,0.438 0.278,0.769c0,0.081 -0.005,0.169 -0.015,0.262c-0.01,0.093 -0.025,0.195 -0.046,0.304Zm7.358,-5.6l0,2.721l2.719,-0l-0,0.829l-2.719,0l0,2.721l-0.82,-0l-0,-2.721l-2.721,0l0,-0.829l2.721,-0l-0,-2.721l0.82,0Zm11.299,2.969l-0.641,3.302l-0.903,-0l0.641,-3.268c0.029,-0.153 0.052,-0.288 0.067,-0.404c0.017,-0.118 0.025,-0.211 0.025,-0.278c0,-0.274 -0.086,-0.487 -0.259,-0.639c-0.172,-0.154 -0.413,-0.23 -0.722,-0.23c-0.482,-0 -0.9,0.163 -1.253,0.489c-0.353,0.325 -0.582,0.757 -0.686,1.297l-0.591,3.033l-0.898,-0l1.479,-7.599l0.899,0l-0.581,2.989c0.228,-0.306 0.519,-0.548 0.873,-0.725c0.355,-0.177 0.728,-0.265 1.119,-0.265c0.482,-0 0.856,0.13 1.12,0.39c0.266,0.261 0.399,0.627 0.399,1.099c-0,0.116 -0.008,0.241 -0.022,0.375c-0.015,0.133 -0.037,0.278 -0.066,0.434Zm2.597,-4.297l0.899,0l-0.86,4.43l3.082,-2.3l1.167,-0l-3.438,2.617l2.51,2.852l-1.089,-0l-2.335,-2.671l-0.517,2.671l-0.898,-0l1.479,-7.599Zm4.829,8.659l1.127,-0l0,-3.894l-1.227,0.246l0,-0.629l1.221,-0.246l0.69,-0l-0,4.523l1.127,-0l0,0.58l-2.938,0l-0,-0.58Zm6.397,-8.351l0.83,0l-2.539,8.219l-0.83,-0l2.539,-8.219Zm2.387,6.461l3.442,-0l-0,0.83l-4.628,-0l-0,-0.83c0.374,-0.388 0.884,-0.907 1.529,-1.559c0.647,-0.654 1.053,-1.075 1.219,-1.264c0.316,-0.355 0.536,-0.655 0.661,-0.9c0.126,-0.246 0.189,-0.488 0.189,-0.725c0,-0.388 -0.136,-0.704 -0.408,-0.947c-0.272,-0.245 -0.626,-0.368 -1.062,-0.368c-0.31,0 -0.636,0.054 -0.98,0.161c-0.343,0.108 -0.709,0.271 -1.1,0.489l0,-0.996c0.397,-0.16 0.768,-0.28 1.113,-0.361c0.345,-0.082 0.662,-0.122 0.948,-0.122c0.755,-0 1.357,0.189 1.806,0.567c0.449,0.377 0.674,0.881 0.674,1.512c-0,0.3 -0.057,0.585 -0.169,0.854c-0.111,0.267 -0.316,0.583 -0.613,0.948c-0.081,0.095 -0.34,0.368 -0.776,0.819c-0.436,0.451 -1.051,1.082 -1.845,1.892Z" style="fill-rule:nonzero;"/><path d="M68.216,98.758l-3.5,-0" style="fill:none;fill-rule:nonzero;"/><path d="M68.216,98.758l-3.5,-0" style="fill:none;fill-rule:nonzero;stroke:#000;stroke-width:0.8px;"/><path d="M13.697,103.264c-0.416,0.7 -0.756,1.137 -1.019,1.311c-0.262,0.174 -0.596,0.261 -1.003,0.261l-0.708,-0l0.15,-0.752l0.519,0c0.25,0 0.463,-0.068 0.639,-0.205c0.176,-0.136 0.373,-0.403 0.591,-0.801l0.278,-0.522l-1.211,-5.269l0.953,0l0.908,4.189l2.509,-4.189l0.943,0l-3.549,5.977Zm7.337,-1.178l-0.448,2.311l-0.632,-0l0.448,-2.287c0.02,-0.108 0.036,-0.202 0.047,-0.284c0.012,-0.082 0.018,-0.147 0.018,-0.194c-0,-0.192 -0.061,-0.341 -0.182,-0.448c-0.12,-0.107 -0.289,-0.161 -0.505,-0.161c-0.338,0 -0.629,0.113 -0.872,0.337c-0.244,0.224 -0.403,0.529 -0.479,0.914l-0.42,2.123l-0.629,-0l0.742,-3.829l0.628,0l-0.125,0.602c0.175,-0.221 0.385,-0.392 0.631,-0.512c0.246,-0.121 0.505,-0.181 0.776,-0.181c0.338,-0 0.599,0.091 0.785,0.273c0.185,0.182 0.278,0.439 0.278,0.769c0,0.082 -0.005,0.169 -0.015,0.262c-0.01,0.094 -0.025,0.195 -0.046,0.305Zm7.358,-5.6l0,2.72l2.719,-0l-0,0.83l-2.719,-0l0,2.72l-0.82,-0l-0,-2.72l-2.721,-0l0,-0.83l2.721,-0l-0,-2.72l0.82,-0Zm11.299,2.968l-0.641,3.302l-0.903,-0l0.641,-3.267c0.029,-0.153 0.052,-0.288 0.067,-0.405c0.017,-0.118 0.025,-0.21 0.025,-0.278c0,-0.274 -0.086,-0.487 -0.259,-0.639c-0.172,-0.153 -0.413,-0.23 -0.722,-0.23c-0.482,0 -0.9,0.163 -1.253,0.489c-0.353,0.325 -0.582,0.758 -0.686,1.297l-0.591,3.033l-0.898,-0l1.479,-7.598l0.899,-0l-0.581,2.989c0.228,-0.307 0.519,-0.548 0.873,-0.725c0.355,-0.177 0.728,-0.266 1.119,-0.266c0.482,-0 0.856,0.13 1.12,0.391c0.266,0.26 0.399,0.626 0.399,1.098c-0,0.117 -0.008,0.242 -0.022,0.375c-0.015,0.133 -0.037,0.278 -0.066,0.434Zm2.597,-4.296l0.899,-0l-0.86,4.429l3.082,-2.3l1.167,0l-3.438,2.617l2.51,2.852l-1.089,-0l-2.335,-2.67l-0.517,2.67l-0.898,-0l1.479,-7.598Zm5.303,8.658l2.41,-0l-0,0.581l-3.24,-0l0,-0.581c0.262,-0.271 0.619,-0.635 1.071,-1.092c0.453,-0.457 0.737,-0.752 0.853,-0.885c0.221,-0.247 0.375,-0.457 0.463,-0.63c0.088,-0.172 0.132,-0.341 0.132,-0.507c0,-0.271 -0.095,-0.492 -0.285,-0.663c-0.191,-0.171 -0.439,-0.257 -0.744,-0.257c-0.217,0 -0.445,0.038 -0.686,0.113c-0.24,0.075 -0.497,0.189 -0.77,0.342l0,-0.698c0.278,-0.111 0.537,-0.196 0.779,-0.252c0.242,-0.057 0.463,-0.086 0.664,-0.086c0.528,0 0.95,0.133 1.264,0.397c0.314,0.264 0.471,0.617 0.471,1.059c0,0.21 -0.039,0.409 -0.118,0.597c-0.078,0.188 -0.221,0.409 -0.428,0.664c-0.057,0.067 -0.238,0.258 -0.544,0.573c-0.305,0.316 -0.735,0.758 -1.292,1.325Zm5.923,-8.351l0.83,0l-2.539,8.219l-0.83,0l2.539,-8.219Zm2.387,6.461l3.442,0l-0,0.83l-4.628,-0l-0,-0.83c0.374,-0.387 0.884,-0.907 1.529,-1.559c0.647,-0.653 1.053,-1.075 1.219,-1.264c0.316,-0.354 0.536,-0.654 0.661,-0.9c0.126,-0.246 0.189,-0.488 0.189,-0.725c0,-0.388 -0.136,-0.703 -0.408,-0.947c-0.272,-0.245 -0.626,-0.367 -1.062,-0.367c-0.31,-0 -0.636,0.053 -0.98,0.161c-0.343,0.107 -0.709,0.27 -1.1,0.489l0,-0.997c0.397,-0.159 0.768,-0.28 1.113,-0.361c0.345,-0.081 0.662,-0.122 0.948,-0.122c0.755,0 1.357,0.189 1.806,0.567c0.449,0.377 0.674,0.882 0.674,1.513c-0,0.3 -0.057,0.584 -0.169,0.853c-0.111,0.268 -0.316,0.584 -0.613,0.948c-0.081,0.095 -0.34,0.368 -0.776,0.819c-0.436,0.451 -1.051,1.082 -1.845,1.892Z" style="fill-rule:nonzero;"/><path d="M13.697,103.264c-0.416,0.7 -0.756,1.137 -1.019,1.311c-0.262,0.174 -0.596,0.261 -1.003,0.261l-0.708,-0l0.15,-0.752l0.519,0c0.25,0 0.463,-0.068 0.639,-0.205c0.176,-0.136 0.373,-0.403 0.591,-0.801l0.278,-0.522l-1.211,-5.269l0.953,0l0.908,4.189l2.509,-4.189l0.943,0l-3.549,5.977Zm7.337,-1.178l-0.448,2.311l-0.632,-0l0.448,-2.287c0.02,-0.108 0.036,-0.202 0.047,-0.284c0.012,-0.082 0.018,-0.147 0.018,-0.194c-0,-0.192 -0.061,-0.341 -0.182,-0.448c-0.12,-0.107 -0.289,-0.161 -0.505,-0.161c-0.338,0 -0.629,0.113 -0.872,0.337c-0.244,0.224 -0.403,0.529 -0.479,0.914l-0.42,2.123l-0.629,-0l0.742,-3.829l0.628,0l-0.125,0.602c0.175,-0.221 0.385,-0.392 0.631,-0.512c0.246,-0.121 0.505,-0.181 0.776,-0.181c0.338,-0 0.599,0.091 0.785,0.273c0.185,0.182 0.278,0.439 0.278,0.769c0,0.082 -0.005,0.169 -0.015,0.262c-0.01,0.094 -0.025,0.195 -0.046,0.305Zm7.358,-5.6l0,2.72l2.719,-0l-0,0.83l-2.719,-0l0,2.72l-0.82,-0l-0,-2.72l-2.721,-0l0,-0.83l2.721,-0l-0,-2.72l0.82,-0Zm11.299,2.968l-0.641,3.302l-0.903,-0l0.641,-3.267c0.029,-0.153 0.052,-0.288 0.067,-0.405c0.017,-0.118 0.025,-0.21 0.025,-0.278c0,-0.274 -0.086,-0.487 -0.259,-0.639c-0.172,-0.153 -0.413,-0.23 -0.722,-0.23c-0.482,0 -0.9,0.163 -1.253,0.489c-0.353,0.325 -0.582,0.758 -0.686,1.297l-0.591,3.033l-0.898,-0l1.479,-7.598l0.899,-0l-0.581,2.989c0.228,-0.307 0.519,-0.548 0.873,-0.725c0.355,-0.177 0.728,-0.266 1.119,-0.266c0.482,-0 0.856,0.13 1.12,0.391c0.266,0.26 0.399,0.626 0.399,1.098c-0,0.117 -0.008,0.242 -0.022,0.375c-0.015,0.133 -0.037,0.278 -0.066,0.434Zm2.597,-4.296l0.899,-0l-0.86,4.429l3.082,-2.3l1.167,0l-3.438,2.617l2.51,2.852l-1.089,-0l-2.335,-2.67l-0.517,2.67l-0.898,-0l1.479,-7.598Zm5.303,8.658l2.41,-0l-0,0.581l-3.24,-0l0,-0.581c0.262,-0.271 0.619,-0.635 1.071,-1.092c0.453,-0.457 0.737,-0.752 0.853,-0.885c0.221,-0.247 0.375,-0.457 0.463,-0.63c0.088,-0.172 0.132,-0.341 0.132,-0.507c0,-0.271 -0.095,-0.492 -0.285,-0.663c-0.191,-0.171 -0.439,-0.257 -0.744,-0.257c-0.217,0 -0.445,0.038 -0.686,0.113c-0.24,0.075 -0.497,0.189 -0.77,0.342l0,-0.698c0.278,-0.111 0.537,-0.196 0.779,-0.252c0.242,-0.057 0.463,-0.086 0.664,-0.086c0.528,0 0.95,0.133 1.264,0.397c0.314,0.264 0.471,0.617 0.471,1.059c0,0.21 -0.039,0.409 -0.118,0.597c-0.078,0.188 -0.221,0.409 -0.428,0.664c-0.057,0.067 -0.238,0.258 -0.544,0.573c-0.305,0.316 -0.735,0.758 -1.292,1.325Zm5.923,-8.351l0.83,0l-2.539,8.219l-0.83,0l2.539,-8.219Zm2.387,6.461l3.442,0l-0,0.83l-4.628,-0l-0,-0.83c0.374,-0.387 0.884,-0.907 1.529,-1.559c0.647,-0.653 1.053,-1.075 1.219,-1.264c0.316,-0.354 0.536,-0.654 0.661,-0.9c0.126,-0.246 0.189,-0.488 0.189,-0.725c0,-0.388 -0.136,-0.703 -0.408,-0.947c-0.272,-0.245 -0.626,-0.367 -1.062,-0.367c-0.31,-0 -0.636,0.053 -0.98,0.161c-0.343,0.107 -0.709,0.27 -1.1,0.489l0,-0.997c0.397,-0.159 0.768,-0.28 1.113,-0.361c0.345,-0.081 0.662,-0.122 0.948,-0.122c0.755,0 1.357,0.189 1.806,0.567c0.449,0.377 0.674,0.882 0.674,1.513c-0,0.3 -0.057,0.584 -0.169,0.853c-0.111,0.268 -0.316,0.584 -0.613,0.948c-0.081,0.095 -0.34,0.368 -0.776,0.819c-0.436,0.451 -1.051,1.082 -1.845,1.892Z" style="fill-rule:nonzero;"/><path d="M68.216,56.202l-3.5,-0" style="fill:none;fill-rule:nonzero;"/><path d="M68.216,56.202l-3.5,-0" style="fill:none;fill-rule:nonzero;stroke:#000;stroke-width:0.8px;"/><path d="M23.697,60.708c-0.416,0.7 -0.756,1.137 -1.019,1.311c-0.262,0.174 -0.596,0.261 -1.003,0.261l-0.708,0l0.15,-0.751l0.519,-0c0.25,-0 0.463,-0.069 0.639,-0.205c0.176,-0.137 0.373,-0.404 0.591,-0.802l0.278,-0.522l-1.211,-5.268l0.953,-0l0.908,4.189l2.509,-4.189l0.943,-0l-3.549,5.976Zm7.337,-1.178l-0.448,2.311l-0.632,0l0.448,-2.287c0.02,-0.107 0.036,-0.202 0.047,-0.283c0.012,-0.083 0.018,-0.148 0.018,-0.195c-0,-0.192 -0.061,-0.341 -0.182,-0.447c-0.12,-0.108 -0.289,-0.161 -0.505,-0.161c-0.338,-0 -0.629,0.112 -0.872,0.337c-0.244,0.224 -0.403,0.528 -0.479,0.913l-0.42,2.123l-0.629,0l0.742,-3.828l0.628,-0l-0.125,0.601c0.175,-0.22 0.385,-0.391 0.631,-0.511c0.246,-0.121 0.505,-0.182 0.776,-0.182c0.338,0 0.599,0.091 0.785,0.273c0.185,0.183 0.278,0.439 0.278,0.769c0,0.082 -0.005,0.17 -0.015,0.263c-0.01,0.093 -0.025,0.195 -0.046,0.304Zm7.358,-5.6l0,2.72l2.719,0l-0,0.83l-2.719,0l0,2.72l-0.82,0l-0,-2.72l-2.721,0l0,-0.83l2.721,0l-0,-2.72l0.82,0Zm11.299,2.969l-0.641,3.301l-0.903,0l0.641,-3.267c0.029,-0.153 0.052,-0.288 0.067,-0.404c0.017,-0.118 0.025,-0.211 0.025,-0.279c0,-0.274 -0.086,-0.487 -0.259,-0.639c-0.172,-0.153 -0.413,-0.229 -0.722,-0.229c-0.482,-0 -0.9,0.163 -1.253,0.489c-0.353,0.325 -0.582,0.757 -0.686,1.297l-0.591,3.032l-0.898,0l1.479,-7.598l0.899,-0l-0.581,2.989c0.228,-0.306 0.519,-0.548 0.873,-0.725c0.355,-0.177 0.728,-0.266 1.119,-0.266c0.482,0 0.856,0.131 1.12,0.391c0.266,0.26 0.399,0.627 0.399,1.098c-0,0.117 -0.008,0.242 -0.022,0.375c-0.015,0.134 -0.037,0.279 -0.066,0.435Zm2.597,-4.297l0.899,-0l-0.86,4.43l3.082,-2.3l1.167,-0l-3.438,2.617l2.51,2.851l-1.089,0l-2.335,-2.67l-0.517,2.67l-0.898,0l1.479,-7.598Zm6.801,6.487c0.33,0.071 0.588,0.218 0.773,0.442c0.186,0.223 0.279,0.499 0.279,0.827c-0,0.503 -0.173,0.893 -0.52,1.169c-0.346,0.276 -0.838,0.414 -1.476,0.414c-0.214,-0 -0.434,-0.022 -0.661,-0.064c-0.227,-0.042 -0.461,-0.106 -0.702,-0.19l-0,-0.666c0.191,0.111 0.4,0.195 0.628,0.252c0.228,0.057 0.466,0.086 0.715,0.086c0.432,-0 0.762,-0.086 0.989,-0.256c0.227,-0.171 0.34,-0.419 0.34,-0.745c-0,-0.301 -0.105,-0.536 -0.316,-0.706c-0.211,-0.169 -0.504,-0.254 -0.88,-0.254l-0.595,-0l0,-0.568l0.623,-0c0.339,-0 0.598,-0.068 0.779,-0.204c0.18,-0.135 0.27,-0.331 0.27,-0.586c-0,-0.262 -0.093,-0.462 -0.279,-0.602c-0.185,-0.141 -0.451,-0.212 -0.798,-0.212c-0.189,0 -0.392,0.021 -0.609,0.063c-0.216,0.041 -0.454,0.104 -0.714,0.19l0,-0.615c0.263,-0.072 0.508,-0.127 0.737,-0.164c0.229,-0.036 0.445,-0.054 0.648,-0.054c0.524,-0 0.939,0.119 1.243,0.357c0.306,0.238 0.459,0.56 0.459,0.965c-0,0.283 -0.081,0.522 -0.243,0.716c-0.162,0.195 -0.392,0.33 -0.69,0.405Z" style="fill-rule:nonzero;"/><path d="M23.697,60.708c-0.416,0.7 -0.756,1.137 -1.019,1.311c-0.262,0.174 -0.596,0.261 -1.003,0.261l-0.708,0l0.15,-0.751l0.519,-0c0.25,-0 0.463,-0.069 0.639,-0.205c0.176,-0.137 0.373,-0.404 0.591,-0.802l0.278,-0.522l-1.211,-5.268l0.953,-0l0.908,4.189l2.509,-4.189l0.943,-0l-3.549,5.976Zm7.337,-1.178l-0.448,2.311l-0.632,0l0.448,-2.287c0.02,-0.107 0.036,-0.202 0.047,-0.283c0.012,-0.083 0.018,-0.148 0.018,-0.195c-0,-0.192 -0.061,-0.341 -0.182,-0.447c-0.12,-0.108 -0.289,-0.161 -0.505,-0.161c-0.338,-0 -0.629,0.112 -0.872,0.337c-0.244,0.224 -0.403,0.528 -0.479,0.913l-0.42,2.123l-0.629,0l0.742,-3.828l0.628,-0l-0.125,0.601c0.175,-0.22 0.385,-0.391 0.631,-0.511c0.246,-0.121 0.505,-0.182 0.776,-0.182c0.338,0 0.599,0.091 0.785,0.273c0.185,0.183 0.278,0.439 0.278,0.769c0,0.082 -0.005,0.17 -0.015,0.263c-0.01,0.093 -0.025,0.195 -0.046,0.304Zm7.358,-5.6l0,2.72l2.719,0l-0,0.83l-2.719,0l0,2.72l-0.82,0l-0,-2.72l-2.721,0l0,-0.83l2.721,0l-0,-2.72l0.82,0Zm11.299,2.969l-0.641,3.301l-0.903,0l0.641,-3.267c0.029,-0.153 0.052,-0.288 0.067,-0.404c0.017,-0.118 0.025,-0.211 0.025,-0.279c0,-0.274 -0.086,-0.487 -0.259,-0.639c-0.172,-0.153 -0.413,-0.229 -0.722,-0.229c-0.482,-0 -0.9,0.163 -1.253,0.489c-0.353,0.325 -0.582,0.757 -0.686,1.297l-0.591,3.032l-0.898,0l1.479,-7.598l0.899,-0l-0.581,2.989c0.228,-0.306 0.519,-0.548 0.873,-0.725c0.355,-0.177 0.728,-0.266 1.119,-0.266c0.482,0 0.856,0.131 1.12,0.391c0.266,0.26 0.399,0.627 0.399,1.098c-0,0.117 -0.008,0.242 -0.022,0.375c-0.015,0.134 -0.037,0.279 -0.066,0.435Zm2.597,-4.297l0.899,-0l-0.86,4.43l3.082,-2.3l1.167,-0l-3.438,2.617l2.51,2.851l-1.089,0l-2.335,-2.67l-0.517,2.67l-0.898,0l1.479,-7.598Zm6.801,6.487c0.33,0.071 0.588,0.218 0.773,0.442c0.186,0.223 0.279,0.499 0.279,0.827c-0,0.503 -0.173,0.893 -0.52,1.169c-0.346,0.276 -0.838,0.414 -1.476,0.414c-0.214,-0 -0.434,-0.022 -0.661,-0.064c-0.227,-0.042 -0.461,-0.106 -0.702,-0.19l-0,-0.666c0.191,0.111 0.4,0.195 0.628,0.252c0.228,0.057 0.466,0.086 0.715,0.086c0.432,-0 0.762,-0.086 0.989,-0.256c0.227,-0.171 0.34,-0.419 0.34,-0.745c-0,-0.301 -0.105,-0.536 -0.316,-0.706c-0.211,-0.169 -0.504,-0.254 -0.88,-0.254l-0.595,-0l0,-0.568l0.623,-0c0.339,-0 0.598,-0.068 0.779,-0.204c0.18,-0.135 0.27,-0.331 0.27,-0.586c-0,-0.262 -0.093,-0.462 -0.279,-0.602c-0.185,-0.141 -0.451,-0.212 -0.798,-0.212c-0.189,0 -0.392,0.021 -0.609,0.063c-0.216,0.041 -0.454,0.104 -0.714,0.19l0,-0.615c0.263,-0.072 0.508,-0.127 0.737,-0.164c0.229,-0.036 0.445,-0.054 0.648,-0.054c0.524,-0 0.939,0.119 1.243,0.357c0.306,0.238 0.459,0.56 0.459,0.965c-0,0.283 -0.081,0.522 -0.243,0.716c-0.162,0.195 -0.392,0.33 -0.69,0.405Z" style="fill-rule:nonzero;"/><path d="M68.216,160.4l-0,-149.6" style="fill:none;fill-rule:nonzero;stroke:#000;stroke-width:0.8px;stroke-linecap:square;stroke-linejoin:miter;"/><path d="M68.216,160.4l208.984,0" style="fill:none;fill-rule:nonzero;stroke:#000;stroke-width:0.8px;stroke-linecap:square;stroke-linejoin:miter;"/><path d="M180.136,39.429c-0.435,0.748 -0.759,1.489 -0.971,2.222c-0.212,0.732 -0.318,1.474 -0.318,2.226c0,0.752 0.107,1.496 0.321,2.233c0.213,0.738 0.536,1.479 0.968,2.225l-0.781,0c-0.487,-0.765 -0.852,-1.517 -1.095,-2.256c-0.243,-0.739 -0.364,-1.472 -0.364,-2.202c-0,-0.726 0.12,-1.456 0.361,-2.192c0.241,-0.736 0.608,-1.488 1.098,-2.256l0.781,0Zm5.03,2.119l-0.136,0.698l-1.792,0l-0.581,2.969c-0.02,0.11 -0.035,0.203 -0.044,0.278c-0.01,0.075 -0.014,0.133 -0.014,0.175c-0,0.208 0.062,0.36 0.187,0.455c0.125,0.095 0.326,0.142 0.603,0.142l0.908,-0l-0.151,0.752l-0.86,-0c-0.533,-0 -0.931,-0.105 -1.193,-0.313c-0.262,-0.208 -0.393,-0.524 -0.393,-0.947c0,-0.075 0.005,-0.157 0.014,-0.247c0.01,-0.089 0.024,-0.188 0.044,-0.295l0.581,-2.969l-0.762,0l0.142,-0.698l0.747,-0l0.303,-1.553l0.899,-0l-0.299,1.553l1.797,-0Zm3.593,4.798l-0.448,2.311l-0.633,0l0.449,-2.287c0.02,-0.107 0.036,-0.201 0.047,-0.283c0.012,-0.083 0.017,-0.147 0.017,-0.195c0,-0.192 -0.06,-0.341 -0.181,-0.447c-0.12,-0.107 -0.289,-0.161 -0.505,-0.161c-0.338,0 -0.629,0.112 -0.872,0.337c-0.244,0.224 -0.403,0.528 -0.479,0.913l-0.42,2.123l-0.629,0l0.741,-3.828l0.629,0l-0.125,0.602c0.175,-0.221 0.385,-0.392 0.631,-0.512c0.246,-0.121 0.505,-0.182 0.776,-0.182c0.338,0 0.599,0.091 0.784,0.274c0.186,0.182 0.279,0.438 0.279,0.769c0,0.081 -0.005,0.169 -0.015,0.262c-0.01,0.093 -0.026,0.195 -0.046,0.304Zm5.12,-2.078l0,1.904l1.903,0l0,0.581l-1.903,-0l0,1.904l-0.574,0l-0,-1.904l-1.904,-0l-0,-0.581l1.904,0l-0,-1.904l0.574,-0Zm4.877,3.808l1.128,0l0,-3.893l-1.227,0.246l-0,-0.629l1.221,-0.246l0.69,-0l-0,4.522l1.127,0l0,0.581l-2.939,0l0,-0.581Zm5.031,-2.3l1.03,-0l-0,0.841l-0.8,1.562l-0.63,0l0.4,-1.562l-0,-0.841Zm6.436,1.748c-0.416,0.7 -0.756,1.137 -1.018,1.311c-0.263,0.174 -0.597,0.261 -1.004,0.261l-0.707,0l0.15,-0.751l0.518,-0c0.25,-0 0.463,-0.069 0.639,-0.205c0.176,-0.136 0.373,-0.404 0.591,-0.802l0.278,-0.521l-1.211,-5.269l0.953,-0l0.908,4.189l2.51,-4.189l0.942,-0l-3.549,5.976Zm7.337,-1.178l-0.448,2.311l-0.632,0l0.448,-2.287c0.021,-0.107 0.036,-0.201 0.047,-0.283c0.012,-0.083 0.018,-0.147 0.018,-0.195c-0,-0.192 -0.061,-0.341 -0.182,-0.447c-0.12,-0.107 -0.289,-0.161 -0.505,-0.161c-0.338,0 -0.628,0.112 -0.872,0.337c-0.243,0.224 -0.403,0.528 -0.479,0.913l-0.42,2.123l-0.629,0l0.742,-3.828l0.629,0l-0.126,0.602c0.175,-0.221 0.385,-0.392 0.631,-0.512c0.246,-0.121 0.505,-0.182 0.776,-0.182c0.338,0 0.599,0.091 0.785,0.274c0.186,0.182 0.279,0.438 0.279,0.769c-0,0.081 -0.006,0.169 -0.016,0.262c-0.01,0.093 -0.025,0.195 -0.046,0.304Zm5.12,-2.078l0,1.904l1.903,0l0,0.581l-1.903,-0l0,1.904l-0.574,0l0,-1.904l-1.904,-0l-0,-0.581l1.904,0l0,-1.904l0.574,-0Zm4.878,3.808l1.127,0l0,-3.893l-1.227,0.246l0,-0.629l1.221,-0.246l0.69,-0l-0,4.522l1.128,0l-0,0.581l-2.939,0l-0,-0.581Zm4.66,-8.647l0.781,0c0.488,0.768 0.853,1.52 1.095,2.256c0.243,0.736 0.365,1.466 0.365,2.192c-0,0.73 -0.122,1.463 -0.365,2.202c-0.242,0.739 -0.607,1.491 -1.095,2.256l-0.781,0c0.432,-0.746 0.755,-1.487 0.969,-2.225c0.213,-0.737 0.32,-1.481 0.32,-2.233c-0,-0.752 -0.107,-1.494 -0.32,-2.226c-0.214,-0.733 -0.537,-1.474 -0.969,-2.222Z" style="fill:#2ca02c;fill-rule:nonzero;"/><path d="M180.136,39.429c-0.435,0.748 -0.759,1.489 -0.971,2.222c-0.212,0.732 -0.318,1.474 -0.318,2.226c0,0.752 0.107,1.496 0.321,2.233c0.213,0.738 0.536,1.479 0.968,2.225l-0.781,0c-0.487,-0.765 -0.852,-1.517 -1.095,-2.256c-0.243,-0.739 -0.364,-1.472 -0.364,-2.202c-0,-0.726 0.12,-1.456 0.361,-2.192c0.241,-0.736 0.608,-1.488 1.098,-2.256l0.781,0Zm5.03,2.119l-0.136,0.698l-1.792,0l-0.581,2.969c-0.02,0.11 -0.035,0.203 -0.044,0.278c-0.01,0.075 -0.014,0.133 -0.014,0.175c-0,0.208 0.062,0.36 0.187,0.455c0.125,0.095 0.326,0.142 0.603,0.142l0.908,-0l-0.151,0.752l-0.86,-0c-0.533,-0 -0.931,-0.105 -1.193,-0.313c-0.262,-0.208 -0.393,-0.524 -0.393,-0.947c0,-0.075 0.005,-0.157 0.014,-0.247c0.01,-0.089 0.024,-0.188 0.044,-0.295l0.581,-2.969l-0.762,0l0.142,-0.698l0.747,-0l0.303,-1.553l0.899,-0l-0.299,1.553l1.797,-0Zm3.593,4.798l-0.448,2.311l-0.633,0l0.449,-2.287c0.02,-0.107 0.036,-0.201 0.047,-0.283c0.012,-0.083 0.017,-0.147 0.017,-0.195c0,-0.192 -0.06,-0.341 -0.181,-0.447c-0.12,-0.107 -0.289,-0.161 -0.505,-0.161c-0.338,0 -0.629,0.112 -0.872,0.337c-0.244,0.224 -0.403,0.528 -0.479,0.913l-0.42,2.123l-0.629,0l0.741,-3.828l0.629,0l-0.125,0.602c0.175,-0.221 0.385,-0.392 0.631,-0.512c0.246,-0.121 0.505,-0.182 0.776,-0.182c0.338,0 0.599,0.091 0.784,0.274c0.186,0.182 0.279,0.438 0.279,0.769c0,0.081 -0.005,0.169 -0.015,0.262c-0.01,0.093 -0.026,0.195 -0.046,0.304Zm5.12,-2.078l0,1.904l1.903,0l0,0.581l-1.903,-0l0,1.904l-0.574,0l-0,-1.904l-1.904,-0l-0,-0.581l1.904,0l-0,-1.904l0.574,-0Zm4.877,3.808l1.128,0l0,-3.893l-1.227,0.246l-0,-0.629l1.221,-0.246l0.69,-0l-0,4.522l1.127,0l0,0.581l-2.939,0l0,-0.581Zm5.031,-2.3l1.03,-0l-0,0.841l-0.8,1.562l-0.63,0l0.4,-1.562l-0,-0.841Zm6.436,1.748c-0.416,0.7 -0.756,1.137 -1.018,1.311c-0.263,0.174 -0.597,0.261 -1.004,0.261l-0.707,0l0.15,-0.751l0.518,-0c0.25,-0 0.463,-0.069 0.639,-0.205c0.176,-0.136 0.373,-0.404 0.591,-0.802l0.278,-0.521l-1.211,-5.269l0.953,-0l0.908,4.189l2.51,-4.189l0.942,-0l-3.549,5.976Zm7.337,-1.178l-0.448,2.311l-0.632,0l0.448,-2.287c0.021,-0.107 0.036,-0.201 0.047,-0.283c0.012,-0.083 0.018,-0.147 0.018,-0.195c-0,-0.192 -0.061,-0.341 -0.182,-0.447c-0.12,-0.107 -0.289,-0.161 -0.505,-0.161c-0.338,0 -0.628,0.112 -0.872,0.337c-0.243,0.224 -0.403,0.528 -0.479,0.913l-0.42,2.123l-0.629,0l0.742,-3.828l0.629,0l-0.126,0.602c0.175,-0.221 0.385,-0.392 0.631,-0.512c0.246,-0.121 0.505,-0.182 0.776,-0.182c0.338,0 0.599,0.091 0.785,0.274c0.186,0.182 0.279,0.438 0.279,0.769c-0,0.081 -0.006,0.169 -0.016,0.262c-0.01,0.093 -0.025,0.195 -0.046,0.304Zm5.12,-2.078l0,1.904l1.903,0l0,0.581l-1.903,-0l0,1.904l-0.574,0l0,-1.904l-1.904,-0l-0,-0.581l1.904,0l0,-1.904l0.574,-0Zm4.878,3.808l1.127,0l0,-3.893l-1.227,0.246l0,-0.629l1.221,-0.246l0.69,-0l-0,4.522l1.128,0l-0,0.581l-2.939,0l-0,-0.581Zm4.66,-8.647l0.781,0c0.488,0.768 0.853,1.52 1.095,2.256c0.243,0.736 0.365,1.466 0.365,2.192c-0,0.73 -0.122,1.463 -0.365,2.202c-0.242,0.739 -0.607,1.491 -1.095,2.256l-0.781,0c0.432,-0.746 0.755,-1.487 0.969,-2.225c0.213,-0.737 0.32,-1.481 0.32,-2.233c-0,-0.752 -0.107,-1.494 -0.32,-2.226c-0.214,-0.733 -0.537,-1.474 -0.969,-2.222Z" style="fill:#2ca02c;fill-rule:nonzero;"/><path d="M240.308,27.29c-0.417,0.7 -0.756,1.137 -1.019,1.311c-0.262,0.174 -0.597,0.261 -1.003,0.261l-0.708,0l0.15,-0.751l0.519,-0c0.25,-0 0.463,-0.069 0.639,-0.205c0.176,-0.136 0.373,-0.404 0.591,-0.802l0.278,-0.521l-1.211,-5.269l0.953,-0l0.908,4.189l2.509,-4.189l0.942,-0l-3.548,5.976Zm6.537,-8.095c-0.436,0.748 -0.76,1.489 -0.972,2.222c-0.212,0.732 -0.317,1.474 -0.317,2.226c-0,0.752 0.106,1.496 0.32,2.233c0.213,0.738 0.536,1.479 0.969,2.225l-0.782,0c-0.487,-0.765 -0.852,-1.517 -1.095,-2.256c-0.243,-0.738 -0.364,-1.472 -0.364,-2.202c-0,-0.726 0.12,-1.456 0.361,-2.192c0.242,-0.736 0.608,-1.488 1.098,-2.256l0.782,0Zm5.029,2.119l-0.136,0.698l-1.792,0l-0.581,2.969c-0.02,0.11 -0.035,0.203 -0.044,0.278c-0.009,0.075 -0.014,0.133 -0.014,0.175c-0,0.208 0.062,0.36 0.187,0.455c0.125,0.095 0.326,0.142 0.604,0.142l0.907,-0l-0.151,0.752l-0.86,-0c-0.533,-0 -0.931,-0.105 -1.193,-0.313c-0.262,-0.208 -0.393,-0.524 -0.393,-0.947c0,-0.075 0.005,-0.157 0.015,-0.247c0.009,-0.089 0.023,-0.188 0.043,-0.295l0.582,-2.969l-0.763,0l0.142,-0.698l0.747,-0l0.303,-1.553l0.899,-0l-0.299,1.553l1.797,-0Zm0.494,-2.119l0.782,0c0.487,0.768 0.852,1.52 1.095,2.256c0.243,0.736 0.364,1.466 0.364,2.192c0,0.73 -0.121,1.464 -0.364,2.202c-0.243,0.739 -0.608,1.491 -1.095,2.256l-0.782,0c0.433,-0.746 0.756,-1.487 0.969,-2.225c0.214,-0.737 0.32,-1.481 0.32,-2.233c0,-0.752 -0.106,-1.494 -0.32,-2.226c-0.213,-0.733 -0.536,-1.474 -0.969,-2.222Z" style="fill:#1f77b4;fill-rule:nonzero;"/><path d="M240.308,27.29c-0.417,0.7 -0.756,1.137 -1.019,1.311c-0.262,0.174 -0.597,0.261 -1.003,0.261l-0.708,0l0.15,-0.751l0.519,-0c0.25,-0 0.463,-0.069 0.639,-0.205c0.176,-0.136 0.373,-0.404 0.591,-0.802l0.278,-0.521l-1.211,-5.269l0.953,-0l0.908,4.189l2.509,-4.189l0.942,-0l-3.548,5.976Zm6.537,-8.095c-0.436,0.748 -0.76,1.489 -0.972,2.222c-0.212,0.732 -0.317,1.474 -0.317,2.226c-0,0.752 0.106,1.496 0.32,2.233c0.213,0.738 0.536,1.479 0.969,2.225l-0.782,0c-0.487,-0.765 -0.852,-1.517 -1.095,-2.256c-0.243,-0.738 -0.364,-1.472 -0.364,-2.202c-0,-0.726 0.12,-1.456 0.361,-2.192c0.242,-0.736 0.608,-1.488 1.098,-2.256l0.782,0Zm5.029,2.119l-0.136,0.698l-1.792,0l-0.581,2.969c-0.02,0.11 -0.035,0.203 -0.044,0.278c-0.009,0.075 -0.014,0.133 -0.014,0.175c-0,0.208 0.062,0.36 0.187,0.455c0.125,0.095 0.326,0.142 0.604,0.142l0.907,-0l-0.151,0.752l-0.86,-0c-0.533,-0 -0.931,-0.105 -1.193,-0.313c-0.262,-0.208 -0.393,-0.524 -0.393,-0.947c0,-0.075 0.005,-0.157 0.015,-0.247c0.009,-0.089 0.023,-0.188 0.043,-0.295l0.582,-2.969l-0.763,0l0.142,-0.698l0.747,-0l0.303,-1.553l0.899,-0l-0.299,1.553l1.797,-0Zm0.494,-2.119l0.782,0c0.487,0.768 0.852,1.52 1.095,2.256c0.243,0.736 0.364,1.466 0.364,2.192c0,0.73 -0.121,1.464 -0.364,2.202c-0.243,0.739 -0.608,1.491 -1.095,2.256l-0.782,0c0.433,-0.746 0.756,-1.487 0.969,-2.225c0.214,-0.737 0.32,-1.481 0.32,-2.233c0,-0.752 -0.106,-1.494 -0.32,-2.226c-0.213,-0.733 -0.536,-1.474 -0.969,-2.222Z" style="fill:#1f77b4;fill-rule:nonzero;"/><path d="M77.715,135.708l3.958,-0.112l3.958,-0.278l3.958,-0.419l3.958,-0.549l3.958,-0.671l3.958,-0.788l3.958,-0.901l3.958,-1.01l3.958,-1.117l3.959,-1.221l3.958,-1.322l3.958,-1.422l3.958,-1.521l3.958,-1.617l3.958,-1.712l3.958,-1.806l3.958,-1.898l3.958,-1.99l3.958,-2.081l3.958,-2.17l3.958,-2.258l3.958,-2.346l3.958,-2.434l3.958,-2.519l3.958,-2.605l3.958,-2.689l3.958,-2.774l3.958,-2.857l3.958,-2.94l3.958,-3.022l3.958,-3.103l3.958,-3.185l3.958,-3.266l3.958,-3.345l3.958,-3.425l3.958,-3.505l3.958,-3.583l3.958,-3.662l3.958,-3.739l3.958,-3.817l3.959,-3.894l3.958,-3.971l3.958,-4.047l3.958,-4.123l3.958,-4.199l3.958,-4.274l3.958,-4.349l3.958,-4.424" style="fill:none;fill-rule:nonzero;stroke:#1f77b4;stroke-width:1.5px;stroke-linecap:square;"/><path d="M79.716,135.652c11.585,-0.328 22.796,-0.645 33.636,-0.952" style="fill:none;fill-rule:nonzero;stroke:#d62728;stroke-width:1px;stroke-linecap:round;"/><path d="M107.269,131.871l6.083,2.829l-5.913,3.169l-0.17,-5.998Z" style="fill:#d62728;fill-rule:nonzero;"/><path d="M107.269,131.871l6.083,2.829l-5.913,3.169l-0.17,-5.998Z" style="fill:#d62728;fill-rule:nonzero;stroke:#d62728;stroke-width:1px;stroke-linecap:round;"/><path d="M158.614,122.457c8.468,-4.832 16.613,-9.48 24.434,-13.942" style="fill:none;fill-rule:nonzero;stroke:#d62728;stroke-width:1px;stroke-linecap:round;"/><path d="M176.35,108.883l6.698,-0.368l-3.724,5.579l-2.974,-5.211Z" style="fill:#d62728;fill-rule:nonzero;"/><path d="M176.35,108.883l6.698,-0.368l-3.724,5.579l-2.974,-5.211Z" style="fill:#d62728;fill-rule:nonzero;stroke:#d62728;stroke-width:1px;stroke-linecap:round;"/><path d="M158.495,97.581c7.442,-5.407 14.582,-10.595 21.421,-15.564" style="fill:none;fill-rule:nonzero;stroke:#d62728;stroke-width:1px;stroke-linecap:round;"/><path d="M173.299,83.117l6.617,-1.1l-3.091,5.954l-3.526,-4.854Z" style="fill:#d62728;fill-rule:nonzero;"/><path d="M173.299,83.117l6.617,-1.1l-3.091,5.954l-3.526,-4.854Z" style="fill:#d62728;fill-rule:nonzero;stroke:#d62728;stroke-width:1px;stroke-linecap:round;"/><path d="M237.464,54.797c13.097,-12.885 25.928,-25.509 38.494,-37.871" style="fill:none;fill-rule:nonzero;stroke:#d62728;stroke-width:1px;stroke-linecap:round;"/><path d="M269.577,18.995l6.381,-2.069l-2.173,6.346l-4.208,-4.277Z" style="fill:#d62728;fill-rule:nonzero;"/><path d="M269.577,18.995l6.381,-2.069l-2.173,6.346l-4.208,-4.277Z" style="fill:#d62728;fill-rule:nonzero;stroke:#d62728;stroke-width:1px;stroke-linecap:round;"/><path d="M77.715,138.708c0.796,0 1.559,-0.316 2.122,-0.878c0.562,-0.563 0.878,-1.326 0.878,-2.122c0,-0.795 -0.316,-1.558 -0.878,-2.121c-0.563,-0.563 -1.326,-0.879 -2.122,-0.879c-0.795,0 -1.559,0.316 -2.121,0.879c-0.563,0.563 -0.879,1.326 -0.879,2.121c0,0.796 0.316,1.559 0.879,2.122c0.562,0.562 1.326,0.878 2.121,0.878Z" style="fill:#d62728;fill-rule:nonzero;"/><path d="M77.715,138.708c0.796,0 1.559,-0.316 2.122,-0.878c0.562,-0.563 0.878,-1.326 0.878,-2.122c0,-0.795 -0.316,-1.558 -0.878,-2.121c-0.563,-0.563 -1.326,-0.879 -2.122,-0.879c-0.795,0 -1.559,0.316 -2.121,0.879c-0.563,0.563 -0.879,1.326 -0.879,2.121c0,0.796 0.316,1.559 0.879,2.122c0.562,0.562 1.326,0.878 2.121,0.878Z" style="fill:#d62728;fill-rule:nonzero;stroke:#d62728;stroke-width:1px;"/><path d="M156.876,126.449c0.795,0 1.559,-0.316 2.121,-0.878c0.563,-0.563 0.879,-1.326 0.879,-2.122c-0,-0.795 -0.316,-1.558 -0.879,-2.121c-0.562,-0.563 -1.326,-0.879 -2.121,-0.879c-0.796,0 -1.559,0.316 -2.121,0.879c-0.563,0.563 -0.879,1.326 -0.879,2.121c-0,0.796 0.316,1.559 0.879,2.122c0.562,0.562 1.325,0.878 2.121,0.878Z" style="fill:#d62728;fill-rule:nonzero;"/><path d="M156.876,126.449c0.795,0 1.559,-0.316 2.121,-0.878c0.563,-0.563 0.879,-1.326 0.879,-2.122c-0,-0.795 -0.316,-1.558 -0.879,-2.121c-0.562,-0.563 -1.326,-0.879 -2.121,-0.879c-0.796,0 -1.559,0.316 -2.121,0.879c-0.563,0.563 -0.879,1.326 -0.879,2.121c-0,0.796 0.316,1.559 0.879,2.122c0.562,0.562 1.325,0.878 2.121,0.878Z" style="fill:#d62728;fill-rule:nonzero;stroke:#d62728;stroke-width:1px;"/><path d="M156.876,101.758c0.795,-0 1.559,-0.317 2.121,-0.879c0.563,-0.563 0.879,-1.326 0.879,-2.121c-0,-0.796 -0.316,-1.559 -0.879,-2.122c-0.562,-0.562 -1.326,-0.878 -2.121,-0.878c-0.796,-0 -1.559,0.316 -2.121,0.878c-0.563,0.563 -0.879,1.326 -0.879,2.122c-0,0.795 0.316,1.558 0.879,2.121c0.562,0.562 1.325,0.879 2.121,0.879Z" style="fill:#d62728;fill-rule:nonzero;"/><path d="M156.876,101.758c0.795,-0 1.559,-0.317 2.121,-0.879c0.563,-0.563 0.879,-1.326 0.879,-2.121c-0,-0.796 -0.316,-1.559 -0.879,-2.122c-0.562,-0.562 -1.326,-0.878 -2.121,-0.878c-0.796,-0 -1.559,0.316 -2.121,0.878c-0.563,0.563 -0.879,1.326 -0.879,2.122c-0,0.795 0.316,1.558 0.879,2.121c0.562,0.562 1.325,0.879 2.121,0.879Z" style="fill:#d62728;fill-rule:nonzero;stroke:#d62728;stroke-width:1px;"/><path d="M236.036,59.202c0.796,-0 1.559,-0.316 2.122,-0.879c0.562,-0.562 0.878,-1.325 0.878,-2.121c0,-0.796 -0.316,-1.559 -0.878,-2.121c-0.563,-0.563 -1.326,-0.879 -2.122,-0.879c-0.795,-0 -1.558,0.316 -2.121,0.879c-0.562,0.562 -0.879,1.325 -0.879,2.121c0,0.796 0.317,1.559 0.879,2.121c0.563,0.563 1.326,0.879 2.121,0.879Z" style="fill:#d62728;fill-rule:nonzero;"/><path d="M236.036,59.202c0.796,-0 1.559,-0.316 2.122,-0.879c0.562,-0.562 0.878,-1.325 0.878,-2.121c0,-0.796 -0.316,-1.559 -0.878,-2.121c-0.563,-0.563 -1.326,-0.879 -2.122,-0.879c-0.795,-0 -1.558,0.316 -2.121,0.879c-0.562,0.562 -0.879,1.325 -0.879,2.121c0,0.796 0.317,1.559 0.879,2.121c0.563,0.563 1.326,0.879 2.121,0.879Z" style="fill:#d62728;fill-rule:nonzero;stroke:#d62728;stroke-width:1px;"/><path d="M233.036,53.029l6,-6m-6,0l6,6" style="fill:#2ca02c;fill-rule:nonzero;"/><path d="M233.036,53.029l6,-6m-6,0l6,6" style="fill:#2ca02c;fill-rule:nonzero;stroke:#2ca02c;stroke-width:1px;"/><path d="M80.815,118.935c-0.435,0.748 -0.759,1.489 -0.972,2.222c-0.211,0.733 -0.317,1.475 -0.317,2.227c0,0.751 0.107,1.495 0.32,2.233c0.214,0.737 0.537,1.479 0.969,2.225l-0.781,-0c-0.488,-0.766 -0.853,-1.518 -1.095,-2.257c-0.243,-0.738 -0.364,-1.472 -0.364,-2.201c-0,-0.726 0.12,-1.457 0.361,-2.192c0.241,-0.737 0.607,-1.489 1.098,-2.257l0.781,0Zm5.03,2.119l-0.136,0.699l-1.792,-0l-0.582,2.968c-0.019,0.111 -0.034,0.203 -0.043,0.278c-0.01,0.075 -0.015,0.134 -0.015,0.175c0,0.209 0.063,0.36 0.188,0.455c0.125,0.095 0.326,0.142 0.603,0.142l0.908,0l-0.152,0.752l-0.859,-0c-0.533,-0 -0.931,-0.104 -1.194,-0.313c-0.261,-0.208 -0.392,-0.524 -0.392,-0.946c0,-0.075 0.005,-0.158 0.014,-0.247c0.009,-0.09 0.024,-0.188 0.044,-0.296l0.581,-2.968l-0.762,-0l0.142,-0.699l0.747,0l0.303,-1.553l0.898,0l-0.298,1.553l1.797,0Zm3.593,4.798l-0.449,2.312l-0.632,-0l0.449,-2.288c0.02,-0.107 0.036,-0.201 0.047,-0.283c0.011,-0.082 0.017,-0.147 0.017,-0.194c0,-0.192 -0.06,-0.341 -0.181,-0.448c-0.121,-0.107 -0.289,-0.161 -0.506,-0.161c-0.337,0 -0.628,0.113 -0.871,0.337c-0.244,0.224 -0.404,0.529 -0.48,0.914l-0.42,2.123l-0.628,-0l0.741,-3.829l0.629,0l-0.126,0.602c0.175,-0.221 0.386,-0.392 0.631,-0.512c0.247,-0.121 0.506,-0.181 0.777,-0.181c0.338,-0 0.599,0.091 0.784,0.273c0.186,0.182 0.279,0.439 0.279,0.769c0,0.082 -0.005,0.169 -0.015,0.262c-0.01,0.094 -0.026,0.195 -0.046,0.304Zm1.981,-0.57l1.03,0l-0,0.841l-0.8,1.562l-0.63,0l0.4,-1.562l0,-0.841Zm6.437,1.749c-0.417,0.7 -0.757,1.137 -1.019,1.311c-0.263,0.174 -0.597,0.261 -1.003,0.261l-0.708,-0l0.15,-0.752l0.519,0c0.25,0 0.463,-0.068 0.639,-0.205c0.176,-0.136 0.373,-0.403 0.59,-0.801l0.278,-0.522l-1.21,-5.269l0.953,0l0.907,4.189l2.51,-4.189l0.942,0l-3.548,5.977Zm7.337,-1.179l-0.449,2.312l-0.632,-0l0.448,-2.288c0.021,-0.107 0.037,-0.201 0.047,-0.283c0.012,-0.082 0.018,-0.147 0.018,-0.194c-0,-0.192 -0.061,-0.341 -0.182,-0.448c-0.12,-0.107 -0.288,-0.161 -0.505,-0.161c-0.337,0 -0.628,0.113 -0.872,0.337c-0.243,0.224 -0.403,0.529 -0.479,0.914l-0.42,2.123l-0.629,-0l0.742,-3.829l0.629,0l-0.126,0.602c0.175,-0.221 0.385,-0.392 0.631,-0.512c0.247,-0.121 0.506,-0.181 0.777,-0.181c0.337,-0 0.599,0.091 0.784,0.273c0.186,0.182 0.279,0.439 0.279,0.769c-0,0.082 -0.005,0.169 -0.015,0.262c-0.011,0.094 -0.026,0.195 -0.046,0.304Zm1.611,-6.917l0.781,0c0.488,0.768 0.853,1.52 1.095,2.257c0.243,0.735 0.364,1.466 0.364,2.192c0,0.729 -0.121,1.463 -0.364,2.201c-0.242,0.739 -0.607,1.491 -1.095,2.257l-0.781,-0c0.432,-0.746 0.755,-1.488 0.969,-2.225c0.213,-0.738 0.32,-1.482 0.32,-2.233c-0,-0.752 -0.107,-1.494 -0.32,-2.227c-0.214,-0.733 -0.537,-1.474 -0.969,-2.222Z" style="fill-rule:nonzero;"/><path d="M80.815,118.935c-0.435,0.748 -0.759,1.489 -0.972,2.222c-0.211,0.733 -0.317,1.475 -0.317,2.227c0,0.751 0.107,1.495 0.32,2.233c0.214,0.737 0.537,1.479 0.969,2.225l-0.781,-0c-0.488,-0.766 -0.853,-1.518 -1.095,-2.257c-0.243,-0.738 -0.364,-1.472 -0.364,-2.201c-0,-0.726 0.12,-1.457 0.361,-2.192c0.241,-0.737 0.607,-1.489 1.098,-2.257l0.781,0Zm5.03,2.119l-0.136,0.699l-1.792,-0l-0.582,2.968c-0.019,0.111 -0.034,0.203 -0.043,0.278c-0.01,0.075 -0.015,0.134 -0.015,0.175c0,0.209 0.063,0.36 0.188,0.455c0.125,0.095 0.326,0.142 0.603,0.142l0.908,0l-0.152,0.752l-0.859,-0c-0.533,-0 -0.931,-0.104 -1.194,-0.313c-0.261,-0.208 -0.392,-0.524 -0.392,-0.946c0,-0.075 0.005,-0.158 0.014,-0.247c0.009,-0.09 0.024,-0.188 0.044,-0.296l0.581,-2.968l-0.762,-0l0.142,-0.699l0.747,0l0.303,-1.553l0.898,0l-0.298,1.553l1.797,0Zm3.593,4.798l-0.449,2.312l-0.632,-0l0.449,-2.288c0.02,-0.107 0.036,-0.201 0.047,-0.283c0.011,-0.082 0.017,-0.147 0.017,-0.194c0,-0.192 -0.06,-0.341 -0.181,-0.448c-0.121,-0.107 -0.289,-0.161 -0.506,-0.161c-0.337,0 -0.628,0.113 -0.871,0.337c-0.244,0.224 -0.404,0.529 -0.48,0.914l-0.42,2.123l-0.628,-0l0.741,-3.829l0.629,0l-0.126,0.602c0.175,-0.221 0.386,-0.392 0.631,-0.512c0.247,-0.121 0.506,-0.181 0.777,-0.181c0.338,-0 0.599,0.091 0.784,0.273c0.186,0.182 0.279,0.439 0.279,0.769c0,0.082 -0.005,0.169 -0.015,0.262c-0.01,0.094 -0.026,0.195 -0.046,0.304Zm1.981,-0.57l1.03,0l-0,0.841l-0.8,1.562l-0.63,0l0.4,-1.562l0,-0.841Zm6.437,1.749c-0.417,0.7 -0.757,1.137 -1.019,1.311c-0.263,0.174 -0.597,0.261 -1.003,0.261l-0.708,-0l0.15,-0.752l0.519,0c0.25,0 0.463,-0.068 0.639,-0.205c0.176,-0.136 0.373,-0.403 0.59,-0.801l0.278,-0.522l-1.21,-5.269l0.953,0l0.907,4.189l2.51,-4.189l0.942,0l-3.548,5.977Zm7.337,-1.179l-0.449,2.312l-0.632,-0l0.448,-2.288c0.021,-0.107 0.037,-0.201 0.047,-0.283c0.012,-0.082 0.018,-0.147 0.018,-0.194c-0,-0.192 -0.061,-0.341 -0.182,-0.448c-0.12,-0.107 -0.288,-0.161 -0.505,-0.161c-0.337,0 -0.628,0.113 -0.872,0.337c-0.243,0.224 -0.403,0.529 -0.479,0.914l-0.42,2.123l-0.629,-0l0.742,-3.829l0.629,0l-0.126,0.602c0.175,-0.221 0.385,-0.392 0.631,-0.512c0.247,-0.121 0.506,-0.181 0.777,-0.181c0.337,-0 0.599,0.091 0.784,0.273c0.186,0.182 0.279,0.439 0.279,0.769c-0,0.082 -0.005,0.169 -0.015,0.262c-0.011,0.094 -0.026,0.195 -0.046,0.304Zm1.611,-6.917l0.781,0c0.488,0.768 0.853,1.52 1.095,2.257c0.243,0.735 0.364,1.466 0.364,2.192c0,0.729 -0.121,1.463 -0.364,2.201c-0.242,0.739 -0.607,1.491 -1.095,2.257l-0.781,-0c0.432,-0.746 0.755,-1.488 0.969,-2.225c0.213,-0.738 0.32,-1.482 0.32,-2.233c-0,-0.752 -0.107,-1.494 -0.32,-2.227c-0.214,-0.733 -0.537,-1.474 -0.969,-2.222Z" style="fill-rule:nonzero;"/><path d="M74.046,138.499l0.899,0l-0.859,4.43l3.081,-2.3l1.167,0l-3.438,2.617l2.51,2.852l-1.089,-0l-2.335,-2.671l-0.517,2.671l-0.898,-0l1.479,-7.599Zm4.829,8.659l1.127,-0l0,-3.894l-1.227,0.246l0,-0.629l1.221,-0.246l0.69,-0l-0,4.523l1.128,-0l-0,0.58l-2.939,0l-0,-0.58Z" style="fill:#d62728;fill-rule:nonzero;"/><path d="M74.046,138.499l0.899,0l-0.859,4.43l3.081,-2.3l1.167,0l-3.438,2.617l2.51,2.852l-1.089,-0l-2.335,-2.671l-0.517,2.671l-0.898,-0l1.479,-7.599Zm4.829,8.659l1.127,-0l0,-3.894l-1.227,0.246l0,-0.629l1.221,-0.246l0.69,-0l-0,4.523l1.128,-0l-0,0.58l-2.939,0l-0,-0.58Z" style="fill:#d62728;fill-rule:nonzero;"/><path d="M153.207,126.24l0.899,0l-0.86,4.43l3.081,-2.3l1.168,-0l-3.438,2.617l2.509,2.852l-1.089,-0l-2.334,-2.671l-0.517,2.671l-0.899,-0l1.48,-7.599Zm5.303,8.659l2.41,-0l-0,0.58l-3.24,0l-0,-0.58c0.262,-0.272 0.619,-0.636 1.071,-1.092c0.452,-0.457 0.737,-0.752 0.853,-0.885c0.221,-0.248 0.375,-0.458 0.462,-0.63c0.089,-0.172 0.133,-0.341 0.133,-0.507c-0,-0.272 -0.095,-0.493 -0.286,-0.663c-0.19,-0.172 -0.438,-0.257 -0.743,-0.257c-0.217,-0 -0.446,0.037 -0.686,0.112c-0.24,0.076 -0.497,0.19 -0.77,0.343l-0,-0.698c0.278,-0.112 0.537,-0.196 0.778,-0.253c0.243,-0.057 0.464,-0.085 0.664,-0.085c0.529,0 0.95,0.132 1.265,0.397c0.314,0.264 0.471,0.617 0.471,1.059c0,0.21 -0.039,0.409 -0.118,0.597c-0.078,0.187 -0.221,0.409 -0.429,0.664c-0.057,0.066 -0.238,0.257 -0.543,0.573c-0.305,0.316 -0.736,0.757 -1.292,1.325Z" style="fill:#d62728;fill-rule:nonzero;"/><path d="M153.207,126.24l0.899,0l-0.86,4.43l3.081,-2.3l1.168,-0l-3.438,2.617l2.509,2.852l-1.089,-0l-2.334,-2.671l-0.517,2.671l-0.899,-0l1.48,-7.599Zm5.303,8.659l2.41,-0l-0,0.58l-3.24,0l-0,-0.58c0.262,-0.272 0.619,-0.636 1.071,-1.092c0.452,-0.457 0.737,-0.752 0.853,-0.885c0.221,-0.248 0.375,-0.458 0.462,-0.63c0.089,-0.172 0.133,-0.341 0.133,-0.507c-0,-0.272 -0.095,-0.493 -0.286,-0.663c-0.19,-0.172 -0.438,-0.257 -0.743,-0.257c-0.217,-0 -0.446,0.037 -0.686,0.112c-0.24,0.076 -0.497,0.19 -0.77,0.343l-0,-0.698c0.278,-0.112 0.537,-0.196 0.778,-0.253c0.243,-0.057 0.464,-0.085 0.664,-0.085c0.529,0 0.95,0.132 1.265,0.397c0.314,0.264 0.471,0.617 0.471,1.059c0,0.21 -0.039,0.409 -0.118,0.597c-0.078,0.187 -0.221,0.409 -0.429,0.664c-0.057,0.066 -0.238,0.257 -0.543,0.573c-0.305,0.316 -0.736,0.757 -1.292,1.325Z" style="fill:#d62728;fill-rule:nonzero;"/><path d="M147.707,86.61l0.899,0l-0.86,4.43l3.081,-2.3l1.168,-0l-3.438,2.617l2.509,2.852l-1.089,-0l-2.334,-2.671l-0.517,2.671l-0.899,-0l1.48,-7.599Zm6.8,6.487c0.331,0.071 0.588,0.218 0.774,0.442c0.186,0.223 0.279,0.499 0.279,0.827c-0,0.503 -0.174,0.893 -0.52,1.169c-0.346,0.276 -0.839,0.414 -1.477,0.414c-0.213,-0 -0.433,-0.021 -0.66,-0.064c-0.227,-0.042 -0.461,-0.105 -0.702,-0.19l-0,-0.666c0.191,0.112 0.4,0.196 0.627,0.253c0.229,0.057 0.467,0.085 0.716,0.085c0.432,-0 0.762,-0.085 0.988,-0.256c0.227,-0.171 0.341,-0.419 0.341,-0.745c-0,-0.301 -0.106,-0.536 -0.316,-0.705c-0.211,-0.17 -0.504,-0.255 -0.88,-0.255l-0.595,-0l0,-0.568l0.623,0c0.339,0 0.598,-0.068 0.778,-0.203c0.18,-0.136 0.27,-0.331 0.27,-0.586c0,-0.262 -0.093,-0.463 -0.278,-0.603c-0.186,-0.141 -0.451,-0.211 -0.798,-0.211c-0.189,-0 -0.392,0.021 -0.609,0.062c-0.217,0.041 -0.455,0.104 -0.714,0.19l-0,-0.614c0.262,-0.073 0.508,-0.128 0.737,-0.164c0.229,-0.037 0.445,-0.055 0.647,-0.055c0.525,0 0.939,0.119 1.244,0.358c0.306,0.237 0.458,0.559 0.458,0.964c0,0.283 -0.081,0.522 -0.243,0.717c-0.161,0.194 -0.391,0.329 -0.69,0.404Z" style="fill:#d62728;fill-rule:nonzero;"/><path d="M147.707,86.61l0.899,0l-0.86,4.43l3.081,-2.3l1.168,-0l-3.438,2.617l2.509,2.852l-1.089,-0l-2.334,-2.671l-0.517,2.671l-0.899,-0l1.48,-7.599Zm6.8,6.487c0.331,0.071 0.588,0.218 0.774,0.442c0.186,0.223 0.279,0.499 0.279,0.827c-0,0.503 -0.174,0.893 -0.52,1.169c-0.346,0.276 -0.839,0.414 -1.477,0.414c-0.213,-0 -0.433,-0.021 -0.66,-0.064c-0.227,-0.042 -0.461,-0.105 -0.702,-0.19l-0,-0.666c0.191,0.112 0.4,0.196 0.627,0.253c0.229,0.057 0.467,0.085 0.716,0.085c0.432,-0 0.762,-0.085 0.988,-0.256c0.227,-0.171 0.341,-0.419 0.341,-0.745c-0,-0.301 -0.106,-0.536 -0.316,-0.705c-0.211,-0.17 -0.504,-0.255 -0.88,-0.255l-0.595,-0l0,-0.568l0.623,0c0.339,0 0.598,-0.068 0.778,-0.203c0.18,-0.136 0.27,-0.331 0.27,-0.586c0,-0.262 -0.093,-0.463 -0.278,-0.603c-0.186,-0.141 -0.451,-0.211 -0.798,-0.211c-0.189,-0 -0.392,0.021 -0.609,0.062c-0.217,0.041 -0.455,0.104 -0.714,0.19l-0,-0.614c0.262,-0.073 0.508,-0.128 0.737,-0.164c0.229,-0.037 0.445,-0.055 0.647,-0.055c0.525,0 0.939,0.119 1.244,0.358c0.306,0.237 0.458,0.559 0.458,0.964c0,0.283 -0.081,0.522 -0.243,0.717c-0.161,0.194 -0.391,0.329 -0.69,0.404Z" style="fill:#d62728;fill-rule:nonzero;"/><path d="M232.368,58.993l0.898,-0l-0.859,4.43l3.081,-2.3l1.167,-0l-3.437,2.617l2.509,2.851l-1.089,0l-2.334,-2.67l-0.518,2.67l-0.898,0l1.48,-7.598Zm6.605,4.737l-1.743,2.725l1.743,-0l0,-2.725Zm-0.181,-0.601l0.868,-0l0,3.326l0.729,-0l-0,0.574l-0.729,-0l0,1.203l-0.687,0l0,-1.203l-2.303,-0l-0,-0.666l2.122,-3.234Z" style="fill:#d62728;fill-rule:nonzero;"/><path d="M232.368,58.993l0.898,-0l-0.859,4.43l3.081,-2.3l1.167,-0l-3.437,2.617l2.509,2.851l-1.089,0l-2.334,-2.67l-0.518,2.67l-0.898,0l1.48,-7.598Zm6.605,4.737l-1.743,2.725l1.743,-0l0,-2.725Zm-0.181,-0.601l0.868,-0l0,3.326l0.729,-0l-0,0.574l-0.729,-0l0,1.203l-0.687,0l0,-1.203l-2.303,-0l-0,-0.666l2.122,-3.234Z" style="fill:#d62728;fill-rule:nonzero;"/></svg>
