<?xml version="1.0" encoding="UTF-8" standalone="no"?><!DOCTYPE svg PUBLIC "-//W3C//DTD SVG 1.1//EN" "http://www.w3.org/Graphics/SVG/1.1/DTD/svg11.dtd"><svg width="100%" height="100%" viewBox="0 0 190 195" version="1.1" xmlns="http://www.w3.org/2000/svg" xmlns:xlink="http://www.w3.org/1999/xlink" xml:space="preserve" xmlns:serif="http://www.serif.com/" style="fill-rule:evenodd;clip-rule:evenodd;stroke-miterlimit:10;"><g><clipPath id="_clip1"><rect x="0.01" y="0.022" width="189.587" height="194.436" clip-rule="nonzero"/></clipPath><g clip-path="url(#_clip1)"><path d="M109.732,97.241c-0,-10.952 -8.892,-19.843 -19.843,-19.843c-10.951,0 -19.843,8.891 -19.843,19.843c0,10.951 8.892,19.842 19.843,19.842c10.951,0 19.843,-8.891 19.843,-19.842Z" style="fill:none;stroke:#231f20;stroke-width:1px;"/><path d="M129.574,97.241c0,-21.903 -17.782,-39.686 -39.685,-39.686c-21.903,0 -39.685,17.783 -39.685,39.686c-0,21.903 17.782,39.685 39.685,39.685c21.903,0 39.685,-17.782 39.685,-39.685Z" style="fill:none;stroke:#231f20;stroke-width:1px;"/><path d="M149.417,97.241c0,-32.855 -26.674,-59.528 -59.528,-59.528c-32.854,-0 -59.528,26.673 -59.528,59.528c-0,32.854 26.674,59.528 59.528,59.528c32.854,-0 59.528,-26.674 59.528,-59.528Z" style="fill:none;stroke:#231f20;stroke-width:1px;"/><path d="M169.26,97.241c-0,-43.806 -35.565,-79.371 -79.371,-79.371c-43.806,-0 -79.371,35.565 -79.371,79.371c0,43.806 35.565,79.37 79.371,79.37c43.806,0 79.371,-35.564 79.371,-79.37Z" style="fill:none;stroke:#231f20;stroke-width:1px;"/><path d="M95.842,97.241c-0,-3.286 -2.668,-5.953 -5.953,-5.953c-3.285,-0 -5.953,2.667 -5.953,5.953c0,3.285 2.668,5.952 5.953,5.952c3.285,0 5.953,-2.667 5.953,-5.952Z" style="fill:#c7eafb;stroke:#00aeef;stroke-width:1px;"/><path d="M89.889,97.241c16.444,-35.018 31.374,-53.74 57.558,-74.208" style="fill:none;fill-rule:nonzero;stroke:#231f20;stroke-width:1px;stroke-dasharray:2.99,2.99;"/><path d="M150.437,20.696l-3.563,1.199l1.539,1.969l2.024,-3.168Z" style="fill:#231f20;fill-rule:nonzero;stroke:#231f20;stroke-width:1px;"/><path d="M101.682,79.536c-0,-1.539 -1.25,-2.789 -2.79,-2.789c-1.539,-0 -2.789,1.25 -2.789,2.789c-0,1.54 1.25,2.79 2.789,2.79c1.54,0 2.79,-1.25 2.79,-2.79Z" style="fill:#6c738d;"/><path d="M112.093,62.634c-0,-1.54 -1.25,-2.79 -2.79,-2.79c-1.539,0 -2.789,1.25 -2.789,2.79c-0,1.54 1.25,2.79 2.789,2.79c1.54,-0 2.79,-1.25 2.79,-2.79Z" style="fill:#6c738d;"/><path d="M124.548,46.97c-0,-1.539 -1.25,-2.789 -2.79,-2.789c-1.54,-0 -2.789,1.25 -2.789,2.789c-0,1.54 1.249,2.79 2.789,2.79c1.54,-0 2.79,-1.25 2.79,-2.79Z" style="fill:#6c738d;"/><path d="M95.014,76.444c6.609,-14.074 10.616,-22.99 22.866,-32.565c6.095,-4.766 13.852,1.42 7.756,6.185c-12.25,9.576 -16.256,18.492 -22.866,32.565c-3.288,7.004 -11.045,0.818 -7.756,-6.185l-0,0Z" style="fill:none;fill-rule:nonzero;stroke:#ed1c24;stroke-width:1px;"/><path d="M89.889,97.241c-6.66,-38.11 -11.54,-59.496 -20.589,-91.477" style="fill:none;fill-rule:nonzero;stroke:#231f20;stroke-width:1px;stroke-dasharray:2.99,2.99;"/><path d="M68.267,2.113l-0.237,3.752l2.405,-0.68l-2.168,-3.072Z" style="fill:#231f20;fill-rule:nonzero;stroke:#231f20;stroke-width:1px;"/><path d="M89.143,77.7c-0,-1.539 -1.25,-2.789 -2.79,-2.789c-1.539,-0 -2.789,1.25 -2.789,2.789c-0,1.54 1.25,2.79 2.789,2.79c1.54,-0 2.79,-1.25 2.79,-2.79Z" style="fill:#5e7f98;"/><path d="M80.816,38.882c-0,-1.539 -1.25,-2.789 -2.79,-2.789c-1.539,-0 -2.789,1.25 -2.789,2.789c-0,1.54 1.25,2.79 2.789,2.79c1.54,-0 2.79,-1.25 2.79,-2.79Z" style="fill:#5e7f98;"/><path d="M75.91,19.651c-0,-1.54 -1.25,-2.79 -2.79,-2.79c-1.539,0 -2.789,1.25 -2.789,2.79c-0,1.54 1.25,2.79 2.789,2.79c1.54,-0 2.79,-1.25 2.79,-2.79Z" style="fill:#5e7f98;"/><path d="M81.517,78.804c-3.997,-22.872 -6.913,-35.709 -13.233,-58.05c-2.107,-7.445 7.565,-9.653 9.672,-2.207c6.32,22.341 9.236,35.178 13.233,58.049c1.332,7.622 -8.34,9.829 -9.672,2.207l0,0.001Z" style="fill:none;fill-rule:nonzero;stroke:#ed1c24;stroke-width:1px;"/><path d="M89.889,97.241c-38.685,-0.305 -65.024,-12.989 -85.949,-38.809" style="fill:none;fill-rule:nonzero;stroke:#231f20;stroke-width:1px;stroke-dasharray:2.99,2.99;"/><path d="M1.55,55.484l1.262,3.541l1.942,-1.573l-3.204,-1.968Z" style="fill:#231f20;fill-rule:nonzero;stroke:#231f20;stroke-width:1px;"/><path d="M72.884,95.835c-0,-1.54 -1.25,-2.79 -2.79,-2.79c-1.539,0 -2.789,1.25 -2.789,2.79c-0,1.539 1.25,2.789 2.789,2.789c1.54,0 2.79,-1.25 2.79,-2.789Z" style="fill:#508c9f;"/><path d="M53.423,91.282c-0,-1.539 -1.25,-2.789 -2.79,-2.789c-1.539,-0 -2.789,1.25 -2.789,2.789c-0,1.54 1.25,2.79 2.789,2.79c1.54,-0 2.79,-1.25 2.79,-2.79Z" style="fill:#508c9f;"/><path d="M18.11,70.065c-0,-1.54 -1.25,-2.79 -2.79,-2.79c-1.539,-0 -2.789,1.25 -2.789,2.79c-0,1.539 1.25,2.789 2.789,2.789c1.54,0 2.79,-1.25 2.79,-2.789Z" style="fill:#508c9f;"/><path d="M67.943,100.304c-23.695,-0.187 -39.853,-7.36 -54.772,-25.769c-4.872,-6.011 -0.568,-14.949 4.304,-8.938c14.92,18.409 31.077,25.582 54.772,25.769c7.737,0.061 3.433,8.999 -4.304,8.938l-0,0Z" style="fill:none;fill-rule:nonzero;stroke:#ed1c24;stroke-width:1px;"/><path d="M89.889,97.241c-36.178,13.703 -56.111,23.302 -84.694,40.262" style="fill:none;fill-rule:nonzero;stroke:#231f20;stroke-width:1px;stroke-dasharray:2.99,2.99;"/><path d="M1.932,139.439l3.687,-0.734l-1.275,-2.15l-2.412,2.884Z" style="fill:#231f20;fill-rule:nonzero;stroke:#231f20;stroke-width:1px;"/><path d="M74.18,104.477c-0,-1.539 -1.25,-2.789 -2.79,-2.789c-1.539,-0 -2.789,1.25 -2.789,2.789c-0,1.54 1.25,2.79 2.789,2.79c1.54,-0 2.79,-1.25 2.79,-2.79Z" style="fill:#5d9e9b;"/><path d="M55.924,112.28c-0,-1.54 -1.25,-2.79 -2.79,-2.79c-1.539,0 -2.789,1.25 -2.789,2.79c-0,1.539 1.25,2.789 2.789,2.789c1.54,0 2.79,-1.25 2.79,-2.789Z" style="fill:#5d9e9b;"/><path d="M20.499,130.322c-0,-1.539 -1.25,-2.789 -2.79,-2.789c-1.539,-0 -2.789,1.25 -2.789,2.789c-0,1.54 1.25,2.79 2.789,2.79c1.54,-0 2.79,-1.25 2.79,-2.79Z" style="fill:#5d9e9b;"/><path d="M73.543,108.946c-21.726,8.229 -33.699,13.988 -53.679,25.844c-6.654,3.948 -10.958,-4.99 -4.304,-8.938c19.979,-11.856 31.953,-17.615 53.679,-25.844c7.235,-2.741 11.54,6.197 4.305,8.938l-0.001,0Z" style="fill:none;fill-rule:nonzero;stroke:#ed1c24;stroke-width:1px;"/><path d="M89.889,97.241c9.963,37.381 3.121,67.361 -18.522,92.583" style="fill:none;fill-rule:nonzero;stroke:#231f20;stroke-width:1px;stroke-dasharray:2.99,2.99;"/><path d="M68.895,192.703l3.258,-1.877l-1.897,-1.627l-1.361,3.504Z" style="fill:#231f20;fill-rule:nonzero;stroke:#231f20;stroke-width:1px;"/><path d="M96.704,136.701c0,-1.539 -1.25,-2.789 -2.79,-2.789c-1.539,-0 -2.789,1.25 -2.789,2.789c-0,1.54 1.25,2.79 2.789,2.79c1.54,-0 2.79,-1.25 2.79,-2.79Z" style="fill:#99ba81;"/><path d="M92.545,156.756c0,-1.54 -1.25,-2.79 -2.789,-2.79c-1.54,0 -2.79,1.25 -2.79,2.79c0,1.539 1.25,2.789 2.79,2.789c1.539,0 2.789,-1.25 2.789,-2.789Z" style="fill:#99ba81;"/><path d="M83.608,176.087c0,-1.54 -1.25,-2.79 -2.789,-2.79c-1.54,0 -2.79,1.25 -2.79,2.79c-0,1.539 1.25,2.789 2.79,2.789c1.539,0 2.789,-1.25 2.789,-2.789Z" style="fill:#99ba81;"/><path d="M98.75,137.804c4.181,15.688 -2.523,27.063 -13.096,39.384c-5.038,5.872 -14.71,3.664 -9.672,-2.207c10.573,-12.321 17.277,-23.696 13.096,-39.385c-1.992,-7.475 7.679,-5.269 9.672,2.207l0,0.001Z" style="fill:none;fill-rule:nonzero;stroke:#ed1c24;stroke-width:1px;"/><path d="M89.889,97.241c21.612,32.085 35.383,49.353 58.125,73.587" style="fill:none;fill-rule:nonzero;stroke:#231f20;stroke-width:1px;stroke-dasharray:2.99,2.99;"/><path d="M150.611,173.595l-1.516,-3.44l-1.822,1.71l3.338,1.73Z" style="fill:#231f20;fill-rule:nonzero;stroke:#231f20;stroke-width:1px;"/><path d="M103.927,113.609c0,-1.54 -1.25,-2.79 -2.789,-2.79c-1.54,0 -2.79,1.25 -2.79,2.79c0,1.539 1.25,2.789 2.79,2.789c1.539,0 2.789,-1.25 2.789,-2.789Z" style="fill:#eadb50;"/><path d="M128.031,145.125c0,-1.54 -1.25,-2.79 -2.789,-2.79c-1.54,0 -2.79,1.25 -2.79,2.79c0,1.539 1.25,2.789 2.79,2.789c1.539,0 2.789,-1.25 2.789,-2.789Z" style="fill:#eadb50;"/><path d="M141.043,160.134c0,-1.539 -1.25,-2.789 -2.789,-2.789c-1.54,-0 -2.79,1.25 -2.79,2.789c0,1.54 1.25,2.79 2.79,2.79c1.539,-0 2.789,-1.25 2.789,-2.79Z" style="fill:#eadb50;"/><path d="M105.016,110.516c12.965,19.248 21.234,29.601 37.115,46.524c5.295,5.642 -2.462,11.827 -7.756,6.185c-15.881,-16.923 -24.15,-27.275 -37.116,-46.524c-4.322,-6.417 3.434,-12.602 7.757,-6.185l-0,-0Z" style="fill:none;fill-rule:nonzero;stroke:#ed1c24;stroke-width:1px;"/><path d="M89.889,97.241c38.143,6.469 61.068,6.469 93.837,0.911" style="fill:none;fill-rule:nonzero;stroke:#231f20;stroke-width:1px;stroke-dasharray:2.99,2.99;"/><path d="M187.467,97.518l-3.705,-0.639l0.418,2.463l3.287,-1.824Z" style="fill:#231f20;fill-rule:nonzero;stroke:#231f20;stroke-width:1px;"/><path d="M112.299,100.149c0,-1.539 -1.25,-2.789 -2.79,-2.789c-1.539,-0 -2.789,1.25 -2.789,2.789c-0,1.54 1.25,2.79 2.789,2.79c1.54,-0 2.79,-1.25 2.79,-2.79Z" style="fill:#fddf3f;"/><path d="M152.031,101.872c0,-1.54 -1.25,-2.79 -2.789,-2.79c-1.54,0 -2.79,1.25 -2.79,2.79c-0,1.539 1.25,2.789 2.79,2.789c1.539,0 2.789,-1.25 2.789,-2.789Z" style="fill:#fddf3f;"/><path d="M171.995,100.197c-0,-1.54 -1.25,-2.79 -2.79,-2.79c-1.539,-0 -2.789,1.25 -2.789,2.79c-0,1.539 1.25,2.789 2.789,2.789c1.54,0 2.79,-1.25 2.79,-2.789Z" style="fill:#fddf3f;"/><path d="M109.51,95.189c22.952,3.892 36.747,3.94 59.698,0.047c7.629,-1.294 7.629,8.627 0,9.921c-22.951,3.893 -36.746,3.846 -59.698,-0.047c-7.628,-1.294 -7.627,-11.215 0.001,-9.921l-0.001,-0Z" style="fill:none;fill-rule:nonzero;stroke:#ed1c24;stroke-width:1px;"/></g></g></svg>
