<?xml version="1.0" encoding="UTF-8" standalone="no"?><!DOCTYPE svg PUBLIC "-//W3C//DTD SVG 1.1//EN" "http://www.w3.org/Graphics/SVG/1.1/DTD/svg11.dtd"><svg width="100%" height="100%" viewBox="0 0 272 140" version="1.1" xmlns="http://www.w3.org/2000/svg" xmlns:xlink="http://www.w3.org/1999/xlink" xml:space="preserve" xmlns:serif="http://www.serif.com/" style="fill-rule:evenodd;clip-rule:evenodd;stroke-miterlimit:10;"><g><clipPath id="_clip1"><rect x="0.051" y="0.016" width="271.374" height="139.309" clip-rule="nonzero"/></clipPath><g clip-path="url(#_clip1)"><path d="M85.588,16.998l-0,70.866l-85.041,0l0,-70.866l85.041,-0Z" style="fill:none;stroke:#231f20;stroke-width:1px;"/><path d="M8.278,87.864l0,-70.866" style="fill:none;fill-rule:nonzero;stroke:#231f20;stroke-width:0.5px;"/><path d="M16.009,87.864l-0,-70.866" style="fill:none;fill-rule:nonzero;stroke:#231f20;stroke-width:0.5px;"/><path d="M23.74,87.864l-0,-70.866" style="fill:none;fill-rule:nonzero;stroke:#231f20;stroke-width:0.5px;"/><path d="M31.47,87.864l0,-70.866" style="fill:none;fill-rule:nonzero;stroke:#231f20;stroke-width:0.5px;"/><path d="M39.201,87.864l0,-70.866" style="fill:none;fill-rule:nonzero;stroke:#231f20;stroke-width:0.5px;"/><path d="M46.932,87.864l-0,-70.866" style="fill:none;fill-rule:nonzero;stroke:#231f20;stroke-width:0.5px;"/><path d="M54.663,87.864l-0,-70.866" style="fill:none;fill-rule:nonzero;stroke:#231f20;stroke-width:0.5px;"/><path d="M62.393,87.864l0,-70.866" style="fill:none;fill-rule:nonzero;stroke:#231f20;stroke-width:0.5px;"/><path d="M70.124,87.864l0,-70.866" style="fill:none;fill-rule:nonzero;stroke:#231f20;stroke-width:0.5px;"/><path d="M77.855,87.864l-0,-70.866" style="fill:none;fill-rule:nonzero;stroke:#231f20;stroke-width:0.5px;"/><path d="M0.547,102.038l79.589,-0" style="fill:none;fill-rule:nonzero;stroke:#231f20;stroke-width:1px;"/><path d="M83.931,102.038l-3.546,-1.25l0,2.499l3.546,-1.249Z" style="fill:#231f20;fill-rule:nonzero;stroke:#231f20;stroke-width:1px;"/><path d="M255.669,16.998l-0,70.866l-85.041,0l0,-70.866l85.041,-0Z" style="fill:none;stroke:#231f20;stroke-width:1px;"/><path d="M178.359,87.864l-0,-70.866" style="fill:none;fill-rule:nonzero;stroke:#231f20;stroke-width:0.5px;"/><path d="M186.09,87.864l-0,-70.866" style="fill:none;fill-rule:nonzero;stroke:#231f20;stroke-width:0.5px;"/><path d="M193.82,87.864l0,-70.866" style="fill:none;fill-rule:nonzero;stroke:#231f20;stroke-width:0.5px;"/><path d="M201.551,87.864l0,-70.866" style="fill:none;fill-rule:nonzero;stroke:#231f20;stroke-width:0.5px;"/><path d="M209.282,87.864l-0,-70.866" style="fill:none;fill-rule:nonzero;stroke:#231f20;stroke-width:0.5px;"/><path d="M217.013,87.864l-0,-70.866" style="fill:none;fill-rule:nonzero;stroke:#231f20;stroke-width:0.5px;"/><path d="M224.743,87.864l0,-70.866" style="fill:none;fill-rule:nonzero;stroke:#231f20;stroke-width:0.5px;"/><path d="M232.474,87.864l0,-70.866" style="fill:none;fill-rule:nonzero;stroke:#231f20;stroke-width:0.5px;"/><path d="M240.205,87.864l-0,-70.866" style="fill:none;fill-rule:nonzero;stroke:#231f20;stroke-width:0.5px;"/><path d="M247.936,87.864l-0,-70.866" style="fill:none;fill-rule:nonzero;stroke:#231f20;stroke-width:0.5px;"/><path d="M170.628,81.422l85.041,0" style="fill:none;fill-rule:nonzero;stroke:#231f20;stroke-width:0.5px;"/><path d="M170.628,74.98l85.041,0" style="fill:none;fill-rule:nonzero;stroke:#231f20;stroke-width:0.5px;"/><path d="M170.628,68.538l85.041,-0" style="fill:none;fill-rule:nonzero;stroke:#231f20;stroke-width:0.5px;"/><path d="M170.628,62.096l85.041,-0" style="fill:none;fill-rule:nonzero;stroke:#231f20;stroke-width:0.5px;"/><path d="M170.628,55.653l85.041,0" style="fill:none;fill-rule:nonzero;stroke:#231f20;stroke-width:0.5px;"/><path d="M170.628,49.211l85.041,0" style="fill:none;fill-rule:nonzero;stroke:#231f20;stroke-width:0.5px;"/><path d="M170.628,42.769l85.041,-0" style="fill:none;fill-rule:nonzero;stroke:#231f20;stroke-width:0.5px;"/><path d="M170.628,36.327l85.041,-0" style="fill:none;fill-rule:nonzero;stroke:#231f20;stroke-width:0.5px;"/><path d="M170.628,29.885l85.041,-0" style="fill:none;fill-rule:nonzero;stroke:#231f20;stroke-width:0.5px;"/><path d="M170.628,23.442l85.041,0" style="fill:none;fill-rule:nonzero;stroke:#231f20;stroke-width:0.5px;"/><path d="M170.628,102.038l79.589,-0" style="fill:none;fill-rule:nonzero;stroke:#231f20;stroke-width:1px;"/><path d="M254.012,102.038l-3.546,-1.25l0,2.499l3.546,-1.249Z" style="fill:#231f20;fill-rule:nonzero;stroke:#231f20;stroke-width:1px;"/><path d="M156.455,87.864l-0,-65.415" style="fill:none;fill-rule:nonzero;stroke:#231f20;stroke-width:1px;"/><path d="M156.455,18.654l-1.25,3.546l2.499,0l-1.249,-3.546Z" style="fill:#231f20;fill-rule:nonzero;stroke:#231f20;stroke-width:1px;"/><g transform="matrix(1,0,0,1,-140.64,-505.2)"><text x="230.363px" y="610.207px" style="font-family:'LucidaGrande', 'Lucida Grande', sans-serif;font-weight:500;font-size:10.909px;fill:#231f20;">l</text><text x="233.618px" y="611.843px" style="font-family:'Monaco';font-size:7.97px;fill:#231f20;">0</text></g><text x="23.725px" y="133.281px" style="font-family:'Georgia', serif;font-size:10.909px;fill:#231f20;">(a) strip</text><g transform="matrix(1,0,0,1,-140.64,-505.2)"><text x="400.441px" y="610.207px" style="font-family:'LucidaGrande', 'Lucida Grande', sans-serif;font-weight:500;font-size:10.909px;fill:#231f20;">l</text><text x="403.696px" y="611.843px" style="font-family:'Monaco';font-size:7.97px;fill:#231f20;">0</text></g><g transform="matrix(1,0,0,1,-140.64,-505.2)"><text x="293.101px" y="516.427px" style="font-family:'LucidaGrande', 'Lucida Grande', sans-serif;font-weight:500;font-size:10.909px;fill:#231f20;">l</text><text x="296.356px" y="518.064px" style="font-family:'Monaco';font-size:7.97px;fill:#231f20;">1</text></g><text x="193.021px" y="133.324px" style="font-family:'Georgia', serif;font-size:10.909px;fill:#231f20;">(b) pixel</text></g></g></svg>
