<?xml version="1.0" encoding="UTF-8" standalone="no"?><!DOCTYPE svg PUBLIC "-//W3C//DTD SVG 1.1//EN" "http://www.w3.org/Graphics/SVG/1.1/DTD/svg11.dtd"><svg width="100%" height="100%" viewBox="0 0 367 165" version="1.1" xmlns="http://www.w3.org/2000/svg" xmlns:xlink="http://www.w3.org/1999/xlink" xml:space="preserve" xmlns:serif="http://www.serif.com/" style="fill-rule:evenodd;clip-rule:evenodd;stroke-miterlimit:10;"><g><clipPath id="_clip1"><rect x="0.066" y="0.204" width="366.136" height="163.961" clip-rule="nonzero"/></clipPath><g clip-path="url(#_clip1)"><path d="M89.605,35.06l-0,70.867l-85.04,-0l-0,-70.867l85.04,-0Z" style="fill:#bbbdc0;fill-opacity:0.3;stroke:#231f20;stroke-width:1px;"/><path d="M12.295,105.927l0,-70.867" style="fill:none;fill-rule:nonzero;stroke:#231f20;stroke-width:1px;"/><path d="M20.026,105.927l0,-70.867" style="fill:none;fill-rule:nonzero;stroke:#231f20;stroke-width:1px;"/><path d="M27.757,105.927l-0,-70.867" style="fill:none;fill-rule:nonzero;stroke:#231f20;stroke-width:1px;"/><path d="M35.488,105.927l-0,-70.867" style="fill:none;fill-rule:nonzero;stroke:#ed1c24;stroke-width:1px;"/><path d="M43.218,105.927l0,-70.867" style="fill:none;fill-rule:nonzero;stroke:#231f20;stroke-width:1px;"/><path d="M50.949,105.927l0,-70.867" style="fill:none;fill-rule:nonzero;stroke:#231f20;stroke-width:1px;"/><path d="M58.68,105.927l-0,-70.867" style="fill:none;fill-rule:nonzero;stroke:#231f20;stroke-width:1px;"/><path d="M66.411,105.927l-0,-70.867" style="fill:none;fill-rule:nonzero;stroke:#231f20;stroke-width:1px;"/><path d="M74.141,105.927l0,-70.867" style="fill:none;fill-rule:nonzero;stroke:#231f20;stroke-width:1px;"/><path d="M81.872,105.927l0,-70.867" style="fill:none;fill-rule:nonzero;stroke:#231f20;stroke-width:1px;"/><path d="M93.607,40.505l-8.636,70.34l-84.409,-10.364l8.637,-70.34l84.408,10.364Z" style="fill:#bbbdc0;fill-opacity:0.3;stroke:#231f20;stroke-width:1px;"/><path d="M8.235,101.424l8.637,-70.341" style="fill:none;fill-rule:nonzero;stroke:#231f20;stroke-width:1px;"/><path d="M15.908,102.366l8.637,-70.341" style="fill:none;fill-rule:nonzero;stroke:#231f20;stroke-width:1px;"/><path d="M23.581,103.308l8.637,-70.341" style="fill:none;fill-rule:nonzero;stroke:#231f20;stroke-width:1px;"/><path d="M31.255,104.25l8.636,-70.34" style="fill:none;fill-rule:nonzero;stroke:#ed1c24;stroke-width:1px;"/><path d="M38.928,105.193l8.637,-70.341" style="fill:none;fill-rule:nonzero;stroke:#231f20;stroke-width:1px;"/><path d="M46.601,106.135l8.637,-70.341" style="fill:none;fill-rule:nonzero;stroke:#231f20;stroke-width:1px;"/><path d="M54.275,107.077l8.636,-70.341" style="fill:none;fill-rule:nonzero;stroke:#231f20;stroke-width:1px;"/><path d="M61.948,108.019l8.637,-70.341" style="fill:none;fill-rule:nonzero;stroke:#231f20;stroke-width:1px;"/><path d="M69.621,108.961l8.637,-70.341" style="fill:none;fill-rule:nonzero;stroke:#231f20;stroke-width:1px;"/><path d="M77.294,109.903l8.637,-70.34" style="fill:none;fill-rule:nonzero;stroke:#231f20;stroke-width:1px;"/><path d="M37.48,70.493c0,-1.1 -0.893,-1.992 -1.992,-1.992c-1.1,-0 -1.993,0.892 -1.993,1.992c0,1.1 0.893,1.993 1.993,1.993c1.099,-0 1.992,-0.893 1.992,-1.993Z" style="fill:#ed1c24;"/><path d="M288.033,35.06l-0,70.867l-85.041,-0l0,-70.867l85.041,-0Z" style="fill:#e6e7e8;"/><path d="M202.992,105.927l85.041,-0" style="fill:none;fill-rule:nonzero;stroke:#231f20;stroke-width:1px;"/><path d="M202.992,105.927l0,-70.867" style="fill:none;fill-rule:nonzero;stroke:#231f20;stroke-width:1px;"/><path d="M202.992,91.753l85.041,0" style="fill:none;fill-rule:nonzero;stroke:#231f20;stroke-width:1px;"/><path d="M220,105.927l0,-70.867" style="fill:none;fill-rule:nonzero;stroke:#231f20;stroke-width:1px;"/><path d="M202.992,77.58l85.041,-0" style="fill:none;fill-rule:nonzero;stroke:#231f20;stroke-width:1px;"/><path d="M237.008,105.927l-0,-70.867" style="fill:none;fill-rule:nonzero;stroke:#231f20;stroke-width:1px;"/><path d="M202.992,63.407l85.041,-0" style="fill:none;fill-rule:nonzero;stroke:#231f20;stroke-width:1px;"/><path d="M254.016,105.927l-0,-70.867" style="fill:none;fill-rule:nonzero;stroke:#231f20;stroke-width:1px;"/><path d="M202.992,49.233l85.041,0" style="fill:none;fill-rule:nonzero;stroke:#231f20;stroke-width:1px;"/><path d="M271.023,105.927l0,-70.867" style="fill:none;fill-rule:nonzero;stroke:#231f20;stroke-width:1px;"/><path d="M202.992,35.06l85.041,-0" style="fill:none;fill-rule:nonzero;stroke:#231f20;stroke-width:1px;"/><path d="M288.031,105.927l0,-70.867" style="fill:none;fill-rule:nonzero;stroke:#231f20;stroke-width:1px;"/><path d="M274.012,91.753c0,-1.649 -1.339,-2.989 -2.989,-2.989c-1.649,0 -2.988,1.34 -2.988,2.989c-0,1.65 1.339,2.989 2.988,2.989c1.65,0 2.989,-1.339 2.989,-2.989Z" style="fill:#8cc63f;"/><path d="M222.989,49.233c-0,-1.649 -1.339,-2.989 -2.989,-2.989c-1.65,0 -2.989,1.34 -2.989,2.989c0,1.65 1.339,2.989 2.989,2.989c1.65,-0 2.989,-1.339 2.989,-2.989Z" style="fill:#8cc63f;"/><path d="M274.012,49.233c0,-1.649 -1.339,-2.989 -2.989,-2.989c-1.649,0 -2.988,1.34 -2.988,2.989c-0,1.65 1.339,2.989 2.988,2.989c1.65,-0 2.989,-1.339 2.989,-2.989Z" style="fill:#ed1c24;"/><path d="M222.989,91.753c-0,-1.649 -1.339,-2.989 -2.989,-2.989c-1.65,0 -2.989,1.34 -2.989,2.989c0,1.65 1.339,2.989 2.989,2.989c1.65,0 2.989,-1.339 2.989,-2.989Z" style="fill:#ed1c24;"/><path d="M230.935,131.842l76.322,-76.322" style="fill:none;fill-rule:nonzero;stroke:#00aeef;stroke-width:1px;"/><path d="M309.941,52.836l-3.391,1.624l1.767,1.767l1.624,-3.391Z" style="fill:#00aeef;fill-rule:nonzero;stroke:#00aeef;stroke-width:1px;"/><path d="M179.912,89.322l76.322,-76.322" style="fill:none;fill-rule:nonzero;stroke:#00aeef;stroke-width:1px;"/><path d="M258.917,10.316l-3.391,1.624l1.767,1.767l1.624,-3.391Z" style="fill:#00aeef;fill-rule:nonzero;stroke:#00aeef;stroke-width:1px;"/><text x="40.247px" y="144.566px" style="font-family:'Georgia', serif;font-size:10.909px;fill:#231f20;">(a)</text><g transform="matrix(1,0,0,1,-135.764,-163.06)"><text x="451.008px" y="217.665px" style="font-family:'Georgia', serif;font-size:10.909px;fill:#00aeef;">particle</text><text x="490.145px" y="217.665px" style="font-family:'LucidaGrande', 'Lucida Grande', sans-serif;font-weight:500;font-size:10.909px;fill:#00aeef;">A</text></g><g transform="matrix(1,0,0,1,-135.764,-163.06)"><text x="399.985px" y="175.146px" style="font-family:'Georgia', serif;font-size:10.909px;fill:#00aeef;">particle</text><text x="439.122px" y="175.146px" style="font-family:'LucidaGrande', 'Lucida Grande', sans-serif;font-weight:500;font-size:10.909px;fill:#00aeef;">B</text></g><text x="238.366px" y="158.782px" style="font-family:'Georgia', serif;font-size:10.909px;fill:#231f20;">(b)</text></g></g></svg>