<?xml version="1.0" encoding="UTF-8" standalone="no"?><!DOCTYPE svg PUBLIC "-//W3C//DTD SVG 1.1//EN" "http://www.w3.org/Graphics/SVG/1.1/DTD/svg11.dtd"><svg width="100%" height="100%" viewBox="0 0 316 168" version="1.1" xmlns="http://www.w3.org/2000/svg" xmlns:xlink="http://www.w3.org/1999/xlink" xml:space="preserve" xmlns:serif="http://www.serif.com/" style="fill-rule:evenodd;clip-rule:evenodd;stroke-miterlimit:10;"><g><clipPath id="_clip1"><rect x="0.169" y="0.099" width="315.3" height="167.437" clip-rule="nonzero"/></clipPath><g clip-path="url(#_clip1)"><path d="M98.81,67.922l13.81,-3.189l0.773,14.747l-14.068,-1.727l-0.515,-9.831" style="fill:#00a650;fill-opacity:0.7;fill-rule:nonzero;stroke:#231f20;stroke-width:0.4px;"/><path d="M89.787,52.904l9.299,-10.696l9.292,11.476l-12.396,6.871l-6.195,-7.651" style="fill:#00a650;fill-opacity:0.7;fill-rule:nonzero;stroke:#231f20;stroke-width:0.4px;"/><path d="M73.66,46.06l1.235,-14.12l14.264,3.822l-5.99,12.845l-9.509,-2.547" style="fill:#00a650;fill-opacity:0.7;fill-rule:nonzero;stroke:#231f20;stroke-width:0.4px;"/><path d="M56.59,50l-7.3,-12.148l13.786,-5.293l2.705,13.913l-9.191,3.528" style="fill:#00a650;fill-opacity:0.7;fill-rule:nonzero;stroke:#231f20;stroke-width:0.4px;"/><path d="M45.096,63.222l-13.046,-5.538l8.042,-12.385l10.366,9.666l-5.362,8.257" style="fill:#00a650;fill-opacity:0.7;fill-rule:nonzero;stroke:#231f20;stroke-width:0.4px;"/><path d="M43.569,80.675l-13.81,3.188l-0.773,-14.747l14.068,1.728l0.515,9.831" style="fill:#00a650;fill-opacity:0.7;fill-rule:nonzero;stroke:#231f20;stroke-width:0.4px;"/><path d="M52.592,95.692l-9.299,10.697l-9.292,-11.476l12.396,-6.872l6.195,7.651" style="fill:#00a650;fill-opacity:0.7;fill-rule:nonzero;stroke:#231f20;stroke-width:0.4px;"/><path d="M68.719,102.537l-1.235,14.119l-14.264,-3.821l5.989,-12.846l9.51,2.548" style="fill:#00a650;fill-opacity:0.7;fill-rule:nonzero;stroke:#231f20;stroke-width:0.4px;"/><path d="M85.789,98.596l7.3,12.149l-13.786,5.292l-2.705,-13.913l9.191,-3.528" style="fill:#00a650;fill-opacity:0.7;fill-rule:nonzero;stroke:#231f20;stroke-width:0.4px;"/><path d="M97.283,85.374l13.046,5.538l-8.042,12.385l-10.366,-9.666l5.362,-8.257" style="fill:#00a650;fill-opacity:0.7;fill-rule:nonzero;stroke:#231f20;stroke-width:0.4px;"/><path d="M110.614,58.37l26.282,-10.619l4.471,16.684l-28.071,3.946l-2.682,-10.011" style="fill:#f58038;fill-opacity:0.7;fill-rule:nonzero;stroke:#231f20;stroke-width:0.4px;"/><path d="M100.726,43.712l19.691,-20.391l10.871,13.423l-24.039,15.022l-6.523,-8.054" style="fill:#f58038;fill-opacity:0.7;fill-rule:nonzero;stroke:#231f20;stroke-width:0.4px;"/><path d="M85.732,34.342l9.696,-26.637l15.389,7.842l-15.851,23.5l-9.234,-4.705" style="fill:#f58038;fill-opacity:0.7;fill-rule:nonzero;stroke:#231f20;stroke-width:0.4px;"/><path d="M68.223,31.882l-1.977,-28.278l17.249,0.903l-4.922,27.917l-10.35,-0.542" style="fill:#f58038;fill-opacity:0.7;fill-rule:nonzero;stroke:#231f20;stroke-width:0.4px;"/><path d="M51.228,36.755l-13.308,-25.029l16.126,-6.191l6.857,27.506l-9.675,3.714" style="fill:#f58038;fill-opacity:0.7;fill-rule:nonzero;stroke:#231f20;stroke-width:0.4px;"/><path d="M37.683,48.12l-22.337,-17.452l12.213,-12.213l17.452,22.337l-7.328,7.328" style="fill:#f58038;fill-opacity:0.7;fill-rule:nonzero;stroke:#231f20;stroke-width:0.4px;"/><path d="M29.932,64.012l-27.505,-6.857l6.191,-16.126l25.029,13.308l-3.715,9.675" style="fill:#f58038;fill-opacity:0.7;fill-rule:nonzero;stroke:#231f20;stroke-width:0.4px;"/><path d="M29.315,81.682l-27.916,4.922l-0.904,-17.25l28.278,1.978l0.542,10.35" style="fill:#f58038;fill-opacity:0.7;fill-rule:nonzero;stroke:#231f20;stroke-width:0.4px;"/><path d="M35.939,98.075l-23.501,15.851l-7.842,-15.39l26.637,-9.695l4.706,9.234" style="fill:#f58038;fill-opacity:0.7;fill-rule:nonzero;stroke:#231f20;stroke-width:0.4px;"/><path d="M48.657,110.358l-15.021,24.039l-13.424,-10.871l20.391,-19.691l8.054,6.523" style="fill:#f58038;fill-opacity:0.7;fill-rule:nonzero;stroke:#231f20;stroke-width:0.4px;"/><path d="M65.272,116.404l-3.945,28.071l-16.685,-4.47l10.619,-26.283l10.011,2.682" style="fill:#f58038;fill-opacity:0.7;fill-rule:nonzero;stroke:#231f20;stroke-width:0.4px;"/><path d="M82.91,115.171l7.813,27.248l-17.061,2.703l-0.989,-28.33l10.237,-1.621" style="fill:#f58038;fill-opacity:0.7;fill-rule:nonzero;stroke:#231f20;stroke-width:0.4px;"/><path d="M98.521,106.87l18.221,21.715l-14.487,9.407l-12.426,-25.477l8.692,-5.645" style="fill:#f58038;fill-opacity:0.7;fill-rule:nonzero;stroke:#231f20;stroke-width:0.4px;"/><path d="M109.406,92.938l25.478,12.426l-9.408,14.487l-21.715,-18.221l5.645,-8.692" style="fill:#f58038;fill-opacity:0.7;fill-rule:nonzero;stroke:#231f20;stroke-width:0.4px;"/><path d="M113.684,75.782l28.329,0.989l-2.702,17.061l-27.249,-7.814l1.622,-10.236" style="fill:#f58038;fill-opacity:0.7;fill-rule:nonzero;stroke:#231f20;stroke-width:0.4px;"/><path d="M268.89,67.922l13.811,-3.189l0.773,14.747l-14.068,-1.727l-0.516,-9.831" style="fill:#00a650;fill-opacity:0.7;fill-rule:nonzero;stroke:#231f20;stroke-width:0.4px;"/><path d="M259.868,52.904l9.298,-10.696l9.293,11.476l-12.396,6.871l-6.195,-7.651" style="fill:#00a650;fill-opacity:0.7;fill-rule:nonzero;stroke:#231f20;stroke-width:0.4px;"/><path d="M243.741,46.06l1.235,-14.12l14.264,3.822l-5.99,12.845l-9.509,-2.547" style="fill:#00a650;fill-opacity:0.7;fill-rule:nonzero;stroke:#231f20;stroke-width:0.4px;"/><path d="M226.67,50l-7.299,-12.148l13.786,-5.293l2.704,13.913l-9.191,3.528" style="fill:#00a650;fill-opacity:0.7;fill-rule:nonzero;stroke:#231f20;stroke-width:0.4px;"/><path d="M215.177,63.222l-13.047,-5.538l8.043,-12.385l10.366,9.666l-5.362,8.257" style="fill:#00a650;fill-opacity:0.7;fill-rule:nonzero;stroke:#231f20;stroke-width:0.4px;"/><path d="M213.65,80.675l-13.81,3.188l-0.773,-14.747l14.068,1.728l0.515,9.831" style="fill:#00a650;fill-opacity:0.7;fill-rule:nonzero;stroke:#231f20;stroke-width:0.4px;"/><path d="M222.673,95.692l-9.299,10.697l-9.292,-11.476l12.396,-6.872l6.195,7.651" style="fill:#00a650;fill-opacity:0.7;fill-rule:nonzero;stroke:#231f20;stroke-width:0.4px;"/><path d="M238.8,102.537l-1.236,14.119l-14.263,-3.821l5.989,-12.846l9.51,2.548" style="fill:#00a650;fill-opacity:0.7;fill-rule:nonzero;stroke:#231f20;stroke-width:0.4px;"/><path d="M255.87,98.596l7.3,12.149l-13.787,5.292l-2.704,-13.913l9.191,-3.528" style="fill:#00a650;fill-opacity:0.7;fill-rule:nonzero;stroke:#231f20;stroke-width:0.4px;"/><path d="M267.364,85.374l13.046,5.538l-8.042,12.385l-10.366,-9.666l5.362,-8.257" style="fill:#00a650;fill-opacity:0.7;fill-rule:nonzero;stroke:#231f20;stroke-width:0.4px;"/><path d="M280.694,58.37l26.283,-10.619l4.47,16.684l-28.07,3.946l-2.683,-10.011" style="fill:#f58038;fill-opacity:0.7;fill-rule:nonzero;stroke:#231f20;stroke-width:0.4px;"/><path d="M270.807,43.712l19.691,-20.391l10.871,13.423l-24.039,15.022l-6.523,-8.054" style="fill:#f58038;fill-opacity:0.7;fill-rule:nonzero;stroke:#231f20;stroke-width:0.4px;"/><path d="M255.813,34.342l9.695,-26.637l15.39,7.842l-15.851,23.5l-9.234,-4.705" style="fill:#f58038;fill-opacity:0.7;fill-rule:nonzero;stroke:#231f20;stroke-width:0.4px;"/><path d="M238.304,31.882l-1.978,-28.278l17.25,0.903l-4.922,27.917l-10.35,-0.542" style="fill:#f58038;fill-opacity:0.7;fill-rule:nonzero;stroke:#231f20;stroke-width:0.4px;"/><path d="M221.309,36.755l-13.308,-25.029l16.126,-6.191l6.857,27.506l-9.675,3.714" style="fill:#f58038;fill-opacity:0.7;fill-rule:nonzero;stroke:#231f20;stroke-width:0.4px;"/><path d="M207.764,48.12l-22.337,-17.452l12.213,-12.213l17.452,22.337l-7.328,7.328" style="fill:#f58038;fill-opacity:0.7;fill-rule:nonzero;stroke:#231f20;stroke-width:0.4px;"/><path d="M200.013,64.012l-27.505,-6.857l6.191,-16.126l25.028,13.308l-3.714,9.675" style="fill:#f58038;fill-opacity:0.7;fill-rule:nonzero;stroke:#231f20;stroke-width:0.4px;"/><path d="M199.396,81.682l-27.917,4.922l-0.903,-17.25l28.278,1.978l0.542,10.35" style="fill:#f58038;fill-opacity:0.7;fill-rule:nonzero;stroke:#231f20;stroke-width:0.4px;"/><path d="M206.019,98.075l-23.5,15.851l-7.842,-15.39l26.637,-9.695l4.705,9.234" style="fill:#f58038;fill-opacity:0.7;fill-rule:nonzero;stroke:#231f20;stroke-width:0.4px;"/><path d="M218.738,110.358l-15.021,24.039l-13.424,-10.871l20.391,-19.691l8.054,6.523" style="fill:#f58038;fill-opacity:0.7;fill-rule:nonzero;stroke:#231f20;stroke-width:0.4px;"/><path d="M235.353,116.404l-3.945,28.071l-16.685,-4.47l10.619,-26.283l10.011,2.682" style="fill:#f58038;fill-opacity:0.7;fill-rule:nonzero;stroke:#231f20;stroke-width:0.4px;"/><path d="M252.99,115.171l7.814,27.248l-17.061,2.703l-0.989,-28.33l10.236,-1.621" style="fill:#f58038;fill-opacity:0.7;fill-rule:nonzero;stroke:#231f20;stroke-width:0.4px;"/><path d="M268.602,106.87l18.221,21.715l-14.487,9.407l-12.426,-25.477l8.692,-5.645" style="fill:#f58038;fill-opacity:0.7;fill-rule:nonzero;stroke:#231f20;stroke-width:0.4px;"/><path d="M279.487,92.938l25.478,12.426l-9.408,14.487l-21.715,-18.221l5.645,-8.692" style="fill:#f58038;fill-opacity:0.7;fill-rule:nonzero;stroke:#231f20;stroke-width:0.4px;"/><path d="M283.765,75.782l28.329,0.989l-2.702,17.061l-27.249,-7.814l1.622,-10.236" style="fill:#f58038;fill-opacity:0.7;fill-rule:nonzero;stroke:#231f20;stroke-width:0.4px;"/><path d="M99.428,76.769l14.119,1.235l-3.821,14.264l-12.845,-5.99l2.547,-9.509" style="fill:#00a650;fill-opacity:0.7;fill-rule:nonzero;stroke:#231f20;stroke-width:0.4px;"/><path d="M95.487,59.698l12.149,-7.3l5.293,13.787l-13.913,2.704l-3.529,-9.191" style="fill:#00a650;fill-opacity:0.7;fill-rule:nonzero;stroke:#231f20;stroke-width:0.4px;"/><path d="M82.265,48.205l5.538,-13.047l12.386,8.043l-9.667,10.366l-8.257,-5.362" style="fill:#00a650;fill-opacity:0.7;fill-rule:nonzero;stroke:#231f20;stroke-width:0.4px;"/><path d="M64.813,46.678l-3.188,-13.81l14.746,-0.773l-1.727,14.067l-9.831,0.516" style="fill:#00a650;fill-opacity:0.7;fill-rule:nonzero;stroke:#231f20;stroke-width:0.4px;"/><path d="M49.796,55.701l-10.697,-9.299l11.476,-9.293l6.871,12.397l-7.65,6.195" style="fill:#00a650;fill-opacity:0.7;fill-rule:nonzero;stroke:#231f20;stroke-width:0.4px;"/><path d="M42.951,71.828l-14.12,-1.236l3.822,-14.264l12.845,5.99l-2.547,9.51" style="fill:#00a650;fill-opacity:0.7;fill-rule:nonzero;stroke:#231f20;stroke-width:0.4px;"/><path d="M46.892,88.898l-12.149,7.3l-5.293,-13.787l13.913,-2.704l3.529,9.191" style="fill:#00a650;fill-opacity:0.7;fill-rule:nonzero;stroke:#231f20;stroke-width:0.4px;"/><path d="M60.113,100.391l-5.537,13.047l-12.386,-8.043l9.667,-10.365l8.256,5.361" style="fill:#00a650;fill-opacity:0.7;fill-rule:nonzero;stroke:#231f20;stroke-width:0.4px;"/><path d="M77.566,101.918l3.188,13.81l-14.746,0.774l1.727,-14.068l9.831,-0.516" style="fill:#00a650;fill-opacity:0.7;fill-rule:nonzero;stroke:#231f20;stroke-width:0.4px;"/><path d="M92.583,92.896l10.697,9.298l-11.476,9.293l-6.871,-12.396l7.65,-6.195" style="fill:#00a650;fill-opacity:0.7;fill-rule:nonzero;stroke:#231f20;stroke-width:0.4px;"/><path d="M113.064,66.915l27.916,-4.923l0.903,17.25l-28.277,-1.977l-0.542,-10.35" style="fill:#f58038;fill-opacity:0.7;fill-rule:nonzero;stroke:#231f20;stroke-width:0.4px;"/><path d="M106.44,50.522l23.501,-15.852l7.842,15.39l-26.637,9.695l-4.706,-9.233" style="fill:#f58038;fill-opacity:0.7;fill-rule:nonzero;stroke:#231f20;stroke-width:0.4px;"/><path d="M93.722,38.239l15.021,-24.04l13.424,10.871l-20.391,19.691l-8.054,-6.522" style="fill:#f58038;fill-opacity:0.7;fill-rule:nonzero;stroke:#231f20;stroke-width:0.4px;"/><path d="M77.107,32.192l3.945,-28.071l16.684,4.47l-10.618,26.283l-10.011,-2.682" style="fill:#f58038;fill-opacity:0.7;fill-rule:nonzero;stroke:#231f20;stroke-width:0.4px;"/><path d="M59.469,33.426l-7.813,-27.249l17.061,-2.703l0.989,28.33l-10.237,1.622" style="fill:#f58038;fill-opacity:0.7;fill-rule:nonzero;stroke:#231f20;stroke-width:0.4px;"/><path d="M43.858,41.726l-18.221,-21.714l14.487,-9.408l12.426,25.478l-8.692,5.644" style="fill:#f58038;fill-opacity:0.7;fill-rule:nonzero;stroke:#231f20;stroke-width:0.4px;"/><path d="M32.973,55.659l-25.478,-12.427l9.408,-14.487l21.715,18.222l-5.645,8.692" style="fill:#f58038;fill-opacity:0.7;fill-rule:nonzero;stroke:#231f20;stroke-width:0.4px;"/><path d="M28.695,72.815l-28.329,-0.99l2.702,-17.06l27.249,7.813l-1.622,10.237" style="fill:#f58038;fill-opacity:0.7;fill-rule:nonzero;stroke:#231f20;stroke-width:0.4px;"/><path d="M31.765,90.226l-26.282,10.619l-4.471,-16.684l28.071,-3.945l2.682,10.01" style="fill:#f58038;fill-opacity:0.7;fill-rule:nonzero;stroke:#231f20;stroke-width:0.4px;"/><path d="M41.653,104.885l-19.692,20.391l-10.87,-13.424l24.039,-15.022l6.523,8.055" style="fill:#f58038;fill-opacity:0.7;fill-rule:nonzero;stroke:#231f20;stroke-width:0.4px;"/><path d="M56.647,114.254l-9.696,26.638l-15.389,-7.842l15.851,-23.501l9.234,4.705" style="fill:#f58038;fill-opacity:0.7;fill-rule:nonzero;stroke:#231f20;stroke-width:0.4px;"/><path d="M74.156,116.715l1.977,28.277l-17.249,-0.903l4.922,-27.916l10.35,0.542" style="fill:#f58038;fill-opacity:0.7;fill-rule:nonzero;stroke:#231f20;stroke-width:0.4px;"/><path d="M91.151,111.841l13.308,25.029l-16.126,6.191l-6.857,-27.505l9.675,-3.715" style="fill:#f58038;fill-opacity:0.7;fill-rule:nonzero;stroke:#231f20;stroke-width:0.4px;"/><path d="M104.696,100.476l22.337,17.452l-12.213,12.214l-17.452,-22.338l7.328,-7.328" style="fill:#f58038;fill-opacity:0.7;fill-rule:nonzero;stroke:#231f20;stroke-width:0.4px;"/><path d="M112.447,84.584l27.505,6.858l-6.191,16.126l-25.029,-13.308l3.715,-9.676" style="fill:#f58038;fill-opacity:0.7;fill-rule:nonzero;stroke:#231f20;stroke-width:0.4px;"/><path d="M269.509,76.769l14.119,1.235l-3.821,14.264l-12.846,-5.99l2.548,-9.509" style="fill:#00a650;fill-opacity:0.7;fill-rule:nonzero;stroke:#231f20;stroke-width:0.4px;"/><path d="M265.568,59.698l12.149,-7.3l5.292,13.787l-13.913,2.704l-3.528,-9.191" style="fill:#00a650;fill-opacity:0.7;fill-rule:nonzero;stroke:#231f20;stroke-width:0.4px;"/><path d="M252.346,48.205l5.538,-13.047l12.385,8.043l-9.666,10.366l-8.257,-5.362" style="fill:#00a650;fill-opacity:0.7;fill-rule:nonzero;stroke:#231f20;stroke-width:0.4px;"/><path d="M234.894,46.678l-3.188,-13.81l14.746,-0.773l-1.727,14.067l-9.831,0.516" style="fill:#00a650;fill-opacity:0.7;fill-rule:nonzero;stroke:#231f20;stroke-width:0.4px;"/><path d="M219.877,55.701l-10.697,-9.299l11.476,-9.293l6.871,12.397l-7.65,6.195" style="fill:#00a650;fill-opacity:0.7;fill-rule:nonzero;stroke:#231f20;stroke-width:0.4px;"/><path d="M213.032,71.828l-14.12,-1.236l3.822,-14.264l12.845,5.99l-2.547,9.51" style="fill:#00a650;fill-opacity:0.7;fill-rule:nonzero;stroke:#231f20;stroke-width:0.4px;"/><path d="M216.973,88.898l-12.149,7.3l-5.293,-13.787l13.913,-2.704l3.529,9.191" style="fill:#00a650;fill-opacity:0.7;fill-rule:nonzero;stroke:#231f20;stroke-width:0.4px;"/><path d="M230.194,100.391l-5.537,13.047l-12.386,-8.043l9.667,-10.365l8.256,5.361" style="fill:#00a650;fill-opacity:0.7;fill-rule:nonzero;stroke:#231f20;stroke-width:0.4px;"/><path d="M247.647,101.918l3.188,13.81l-14.746,0.774l1.727,-14.068l9.831,-0.516" style="fill:#00a650;fill-opacity:0.7;fill-rule:nonzero;stroke:#231f20;stroke-width:0.4px;"/><path d="M262.664,92.896l10.697,9.298l-11.476,9.293l-6.872,-12.396l7.651,-6.195" style="fill:#00a650;fill-opacity:0.7;fill-rule:nonzero;stroke:#231f20;stroke-width:0.4px;"/><path d="M283.145,66.915l27.916,-4.923l0.903,17.25l-28.277,-1.977l-0.542,-10.35" style="fill:#f58038;fill-opacity:0.7;fill-rule:nonzero;stroke:#231f20;stroke-width:0.4px;"/><path d="M276.521,50.522l23.501,-15.852l7.842,15.39l-26.638,9.695l-4.705,-9.233" style="fill:#f58038;fill-opacity:0.7;fill-rule:nonzero;stroke:#231f20;stroke-width:0.4px;"/><path d="M263.803,38.239l15.021,-24.04l13.424,10.871l-20.391,19.691l-8.054,-6.522" style="fill:#f58038;fill-opacity:0.7;fill-rule:nonzero;stroke:#231f20;stroke-width:0.4px;"/><path d="M247.188,32.192l3.945,-28.071l16.684,4.47l-10.618,26.283l-10.011,-2.682" style="fill:#f58038;fill-opacity:0.7;fill-rule:nonzero;stroke:#231f20;stroke-width:0.4px;"/><path d="M229.55,33.426l-7.813,-27.249l17.061,-2.703l0.989,28.33l-10.237,1.622" style="fill:#f58038;fill-opacity:0.7;fill-rule:nonzero;stroke:#231f20;stroke-width:0.4px;"/><path d="M213.939,41.726l-18.221,-21.714l14.487,-9.408l12.426,25.478l-8.692,5.644" style="fill:#f58038;fill-opacity:0.7;fill-rule:nonzero;stroke:#231f20;stroke-width:0.4px;"/><path d="M203.054,55.659l-25.478,-12.427l9.408,-14.487l21.714,18.222l-5.644,8.692" style="fill:#f58038;fill-opacity:0.7;fill-rule:nonzero;stroke:#231f20;stroke-width:0.4px;"/><path d="M198.776,72.815l-28.329,-0.99l2.702,-17.06l27.249,7.813l-1.622,10.237" style="fill:#f58038;fill-opacity:0.7;fill-rule:nonzero;stroke:#231f20;stroke-width:0.4px;"/><path d="M201.846,90.226l-26.283,10.619l-4.47,-16.684l28.071,-3.945l2.682,10.01" style="fill:#f58038;fill-opacity:0.7;fill-rule:nonzero;stroke:#231f20;stroke-width:0.4px;"/><path d="M211.734,104.885l-19.692,20.391l-10.871,-13.424l24.04,-15.022l6.523,8.055" style="fill:#f58038;fill-opacity:0.7;fill-rule:nonzero;stroke:#231f20;stroke-width:0.4px;"/><path d="M226.728,114.254l-9.696,26.638l-15.39,-7.842l15.852,-23.501l9.234,4.705" style="fill:#f58038;fill-opacity:0.7;fill-rule:nonzero;stroke:#231f20;stroke-width:0.4px;"/><path d="M244.237,116.715l1.977,28.277l-17.249,-0.903l4.922,-27.916l10.35,0.542" style="fill:#f58038;fill-opacity:0.7;fill-rule:nonzero;stroke:#231f20;stroke-width:0.4px;"/><path d="M261.232,111.841l13.308,25.029l-16.126,6.191l-6.857,-27.505l9.675,-3.715" style="fill:#f58038;fill-opacity:0.7;fill-rule:nonzero;stroke:#231f20;stroke-width:0.4px;"/><path d="M274.776,100.476l22.338,17.452l-12.214,12.214l-17.452,-22.338l7.328,-7.328" style="fill:#f58038;fill-opacity:0.7;fill-rule:nonzero;stroke:#231f20;stroke-width:0.4px;"/><path d="M282.528,84.584l27.505,6.858l-6.191,16.126l-25.029,-13.308l3.715,-9.676" style="fill:#f58038;fill-opacity:0.7;fill-rule:nonzero;stroke:#231f20;stroke-width:0.4px;"/><path d="M241.27,74.298l25.512,0c0,-14.09 -11.422,-25.512 -25.512,-25.512c-14.09,0 -25.512,11.422 -25.512,25.512c0,14.09 11.422,25.512 25.512,25.512c14.09,0 25.512,-11.422 25.512,-25.512l-25.512,0Zm73.702,0c0,40.705 -32.997,73.702 -73.702,73.702c-40.705,0 -73.702,-32.997 -73.702,-73.702c0,-40.705 32.997,-73.702 73.702,-73.702c40.705,0 73.702,32.997 73.702,73.702l-73.702,0l73.702,0Z" style="fill:#fff;fill-opacity:0.6;fill-rule:nonzero;"/><path d="M266.642,76.964l47.926,5.038" style="fill:none;fill-rule:nonzero;stroke:#231f20;stroke-width:1px;"/><path d="M266.225,68.994l47.136,-10.019" style="fill:none;fill-rule:nonzero;stroke:#231f20;stroke-width:1px;"/><path d="M263.364,61.542l41.734,-24.095" style="fill:none;fill-rule:nonzero;stroke:#231f20;stroke-width:1px;"/><path d="M258.341,55.34l32.245,-35.812" style="fill:none;fill-rule:nonzero;stroke:#231f20;stroke-width:1px;"/><path d="M251.647,50.992l19.6,-44.024" style="fill:none;fill-rule:nonzero;stroke:#231f20;stroke-width:1px;"/><path d="M243.936,48.926l5.038,-47.926" style="fill:none;fill-rule:nonzero;stroke:#231f20;stroke-width:1px;"/><path d="M235.966,49.344l-10.019,-47.137" style="fill:none;fill-rule:nonzero;stroke:#231f20;stroke-width:1px;"/><path d="M228.514,52.204l-24.095,-41.733" style="fill:none;fill-rule:nonzero;stroke:#231f20;stroke-width:1px;"/><path d="M222.312,57.228l-35.812,-32.246" style="fill:none;fill-rule:nonzero;stroke:#231f20;stroke-width:1px;"/><path d="M217.964,63.922l-44.023,-19.601" style="fill:none;fill-rule:nonzero;stroke:#231f20;stroke-width:1px;"/><path d="M215.899,71.632l-47.927,-5.037" style="fill:none;fill-rule:nonzero;stroke:#231f20;stroke-width:1px;"/><path d="M216.316,79.602l-47.137,10.02" style="fill:none;fill-rule:nonzero;stroke:#231f20;stroke-width:1px;"/><path d="M219.176,87.054l-41.733,24.095" style="fill:none;fill-rule:nonzero;stroke:#231f20;stroke-width:1px;"/><path d="M224.2,93.257l-32.245,35.811" style="fill:none;fill-rule:nonzero;stroke:#231f20;stroke-width:1px;"/><path d="M230.894,97.604l-19.601,44.024" style="fill:none;fill-rule:nonzero;stroke:#231f20;stroke-width:1px;"/><path d="M238.604,99.67l-5.037,47.926" style="fill:none;fill-rule:nonzero;stroke:#231f20;stroke-width:1px;"/><path d="M246.575,99.253l10.019,47.136" style="fill:none;fill-rule:nonzero;stroke:#231f20;stroke-width:1px;"/><path d="M254.026,96.392l24.095,41.734" style="fill:none;fill-rule:nonzero;stroke:#231f20;stroke-width:1px;"/><path d="M260.229,91.369l35.811,32.245" style="fill:none;fill-rule:nonzero;stroke:#231f20;stroke-width:1px;"/><path d="M264.576,84.675l44.024,19.6" style="fill:none;fill-rule:nonzero;stroke:#231f20;stroke-width:1px;"/><path d="M266.782,74.298c0,-14.08 -11.431,-25.512 -25.512,-25.512c-14.08,0 -25.512,11.432 -25.512,25.512c0,14.081 11.432,25.512 25.512,25.512c14.081,0 25.512,-11.431 25.512,-25.512Z" style="fill:none;stroke:#231f20;stroke-width:1px;"/><path d="M283.791,74.298c-0,-23.467 -19.053,-42.52 -42.521,-42.52c-23.467,-0 -42.52,19.053 -42.52,42.52c0,23.468 19.053,42.52 42.52,42.52c23.468,0 42.521,-19.052 42.521,-42.52Z" style="fill:none;stroke:#231f20;stroke-width:1px;"/><path d="M314.972,74.298c0,-40.677 -33.024,-73.702 -73.702,-73.702c-40.677,0 -73.702,33.025 -73.702,73.702c0,40.677 33.025,73.702 73.702,73.702c40.678,0 73.702,-33.025 73.702,-73.702Z" style="fill:none;stroke:#231f20;stroke-width:1px;"/><text x="64.945px" y="162.266px" style="font-family:'Georgia', serif;font-size:9.963px;fill:#231f20;">(a)</text><text x="234.744px" y="162.304px" style="font-family:'Georgia', serif;font-size:9.963px;fill:#231f20;">(b)</text></g></g></svg>
