<?xml version="1.0" encoding="UTF-8" standalone="no"?><!DOCTYPE svg PUBLIC "-//W3C//DTD SVG 1.1//EN" "http://www.w3.org/Graphics/SVG/1.1/DTD/svg11.dtd"><svg width="100%" height="100%" viewBox="0 0 202 134" version="1.1" xmlns="http://www.w3.org/2000/svg" xmlns:xlink="http://www.w3.org/1999/xlink" xml:space="preserve" xmlns:serif="http://www.serif.com/" style="fill-rule:evenodd;clip-rule:evenodd;stroke-miterlimit:10;"><g><clipPath id="_clip1"><rect x="0.146" y="0.009" width="201.669" height="133.867" clip-rule="nonzero"/></clipPath><g clip-path="url(#_clip1)"><path d="M35.804,119.274c1.128,-6.394 -1.243,-12.906 -6.216,-17.08c-4.115,-3.452 -9.549,-4.909 -14.84,-3.976" style="fill:none;fill-rule:nonzero;stroke:#23373b;stroke-width:0.8px;"/><path d="M44.754,120.852c1.691,-9.591 -1.864,-19.359 -9.325,-25.619c-6.173,-5.18 -14.324,-7.364 -22.259,-5.965" style="fill:none;fill-rule:nonzero;stroke:#23373b;stroke-width:0.8px;"/><path d="M53.705,122.43c2.254,-12.788 -2.487,-25.812 -12.434,-34.159c-8.23,-6.906 -19.098,-9.819 -29.679,-7.953" style="fill:none;fill-rule:nonzero;stroke:#23373b;stroke-width:0.8px;"/><path d="M62.654,124.008c2.819,-15.985 -3.107,-32.265 -15.541,-42.699c-10.288,-8.632 -23.873,-12.273 -37.099,-9.941" style="fill:none;fill-rule:nonzero;stroke:#23373b;stroke-width:0.8px;"/><path d="M80.555,127.165c3.945,-22.38 -4.351,-45.172 -21.759,-59.779c-14.403,-12.086 -33.422,-17.183 -51.938,-13.918" style="fill:none;fill-rule:nonzero;stroke:#23373b;stroke-width:0.8px;"/><path d="M98.455,130.321c5.073,-28.774 -5.594,-58.078 -27.975,-76.859c-18.519,-15.538 -42.972,-22.092 -66.779,-17.894" style="fill:none;fill-rule:nonzero;stroke:#23373b;stroke-width:0.8px;"/><path d="M116.355,133.477c6.2,-35.168 -6.837,-70.984 -34.192,-93.938c-22.634,-18.991 -52.521,-27.001 -81.618,-21.872" style="fill:none;fill-rule:nonzero;stroke:#23373b;stroke-width:0.8px;"/><path d="M17.904,116.118c42.503,-19.82 64.721,-51.548 68.245,-91.837" style="fill:none;fill-rule:nonzero;stroke:#8cc63f;stroke-width:1.6px;"/><path d="M86.48,20.496l-1.574,3.275l2.556,0.224l-0.982,-3.499Z" style="fill:#8cc63f;fill-rule:nonzero;stroke:#8cc63f;stroke-width:1.6px;"/><path d="M35.828,107.504c-0,-1.058 -0.859,-1.917 -1.917,-1.917c-1.057,0 -1.916,0.859 -1.916,1.917c0,1.058 0.859,1.916 1.916,1.916c1.058,0 1.917,-0.858 1.917,-1.916Z" style="fill:#231f20;"/><path d="M43.405,102.422c0,-1.058 -0.858,-1.916 -1.916,-1.916c-1.058,-0 -1.916,0.858 -1.916,1.916c-0,1.058 0.858,1.917 1.916,1.917c1.058,-0 1.916,-0.859 1.916,-1.917Z" style="fill:#231f20;"/><path d="M50.586,96.778c0,-1.058 -0.858,-1.916 -1.916,-1.916c-1.058,-0 -1.916,0.858 -1.916,1.916c-0,1.058 0.858,1.917 1.916,1.917c1.058,-0 1.916,-0.859 1.916,-1.917Z" style="fill:#231f20;"/><path d="M57.375,90.524c-0,-1.058 -0.859,-1.916 -1.917,-1.916c-1.057,-0 -1.916,0.858 -1.916,1.916c-0,1.058 0.859,1.916 1.916,1.916c1.058,0 1.917,-0.858 1.917,-1.916Z" style="fill:#231f20;"/><path d="M69.292,76.13c-0,-1.057 -0.859,-1.916 -1.916,-1.916c-1.058,-0 -1.917,0.859 -1.917,1.916c0,1.058 0.859,1.917 1.917,1.917c1.057,-0 1.916,-0.859 1.916,-1.917Z" style="fill:#231f20;"/><path d="M78.635,59.258c-0,-1.057 -0.859,-1.916 -1.917,-1.916c-1.058,-0 -1.916,0.859 -1.916,1.916c-0,1.058 0.858,1.917 1.916,1.917c1.058,-0 1.917,-0.859 1.917,-1.917Z" style="fill:#231f20;"/><path d="M84.99,40.327c0,-1.058 -0.858,-1.917 -1.916,-1.917c-1.058,0 -1.917,0.859 -1.917,1.917c0,1.057 0.859,1.916 1.917,1.916c1.058,0 1.916,-0.859 1.916,-1.916Z" style="fill:#231f20;"/><path d="M17.904,116.118c52.585,-9.271 87.626,-51.03 87.626,-104.426l-33.854,-10.886c-4.342,49.624 -18.548,80.088 -53.772,115.312" style="fill:none;fill-rule:nonzero;stroke:#f58038;stroke-width:1.6px;stroke-dasharray:2.4,2.4;"/><path d="M38.129,107.701l-2.904,-3.46c-1.134,-1.351 -0.958,-3.366 0.394,-4.5l15.991,-13.418c1.351,-1.134 3.366,-0.958 4.5,0.393l2.904,3.461c1.134,1.351 0.957,3.366 -0.394,4.5l-15.991,13.418c-1.352,1.134 -3.366,0.958 -4.5,-0.394Z" style="fill:none;fill-rule:nonzero;stroke:#00aeef;stroke-width:1.6px;"/><path d="M136.049,40.22l-0,-11.788c-0,-1.764 1.43,-3.194 3.194,-3.194l2.7,-0c1.764,-0 3.194,1.43 3.194,3.194l-0,11.788c-0,1.764 -1.43,3.194 -3.194,3.194l-2.7,-0c-1.764,-0 -3.194,-1.43 -3.194,-3.194Z" style="fill:none;fill-rule:nonzero;stroke:#00aeef;stroke-width:1.6px;"/><path d="M142.509,39.779c0,-1.058 -0.859,-1.917 -1.916,-1.917c-1.058,0 -1.917,0.859 -1.917,1.917c0,1.057 0.859,1.916 1.917,1.916c1.057,0 1.916,-0.859 1.916,-1.916Z" style="fill:#231f20;"/><path d="M142.509,34.326c0,-1.058 -0.859,-1.917 -1.916,-1.917c-1.058,0 -1.917,0.859 -1.917,1.917c0,1.057 0.859,1.916 1.917,1.916c1.057,0 1.916,-0.859 1.916,-1.916Z" style="fill:#231f20;"/><path d="M142.509,28.873c0,-1.058 -0.859,-1.916 -1.916,-1.916c-1.058,-0 -1.917,0.858 -1.917,1.916c0,1.058 0.859,1.916 1.917,1.916c1.057,0 1.916,-0.858 1.916,-1.916Z" style="fill:#231f20;"/><path d="M136.049,70.678c5.441,-4.566 7.45,-10.085 6.216,-17.08l-12.433,-0c5.441,4.565 7.45,10.085 6.217,17.08Z" style="fill:none;fill-rule:nonzero;stroke:#f58038;stroke-width:1.6px;stroke-dasharray:2.4,2.4;"/><path d="M136.049,97.942c3.544,-6.139 3.544,-12.038 3.227,-12.586" style="fill:none;fill-rule:nonzero;stroke:#8cc63f;stroke-width:1.6px;"/><path d="M137.376,82.066l0.589,3.585l2.222,-1.283l-2.811,-2.302Z" style="fill:#8cc63f;fill-rule:nonzero;stroke:#8cc63f;stroke-width:1.6px;"/><g transform="matrix(1,0,0,1,-24.96,-102)"><text x="173.808px" y="138.581px" style="font-family:'Helvetica';font-size:8.744px;fill:#23373b;">Seeding</text><text x="173.808px" y="165.805px" style="font-family:'Helvetica';font-size:8.744px;fill:#23373b;">Track ﬁnding</text><text x="173.808px" y="193.068px" style="font-family:'Helvetica';font-size:8.744px;fill:#23373b;">Track ﬁtting</text></g></g></g></svg>
