<?xml version="1.0" encoding="UTF-8" standalone="no"?>
<svg
   xmlns:dc="http://purl.org/dc/elements/1.1/"
   xmlns:cc="http://creativecommons.org/ns#"
   xmlns:rdf="http://www.w3.org/1999/02/22-rdf-syntax-ns#"
   xmlns:svg="http://www.w3.org/2000/svg"
   xmlns="http://www.w3.org/2000/svg"
   viewBox="0 0 478.048 514.36133"
   height="514.36133"
   width="478.048"
   xml:space="preserve"
   id="svg2"
   version="1.1"><metadata
     id="metadata8"><rdf:RDF><cc:Work
         rdf:about=""><dc:format>image/svg+xml</dc:format><dc:type
           rdf:resource="http://purl.org/dc/dcmitype/StillImage" /></cc:Work></rdf:RDF></metadata><defs
     id="defs6" /><g
     transform="matrix(1.3333333,0,0,-1.3333333,0,514.36133)"
     id="g10"><g
       transform="translate(193.441,365.729)"
       id="g12"><g
         id="g14"><g
           id="g16"><g
             id="g18"><g
               id="g20"><path
                 id="path22"
                 style="fill:none;stroke:#000000;stroke-width:0.3985;stroke-linecap:butt;stroke-linejoin:miter;stroke-miterlimit:10;stroke-dasharray:none;stroke-opacity:1"
                 d="m 41.85568,14.17339 h -83.71136 c -2.20095,0 -3.98511,-1.78417 -3.98511,-3.98511 v -20.37656 c 0,-2.20094 1.78416,-3.98511 3.98511,-3.98511 h 83.71136 c 2.20095,0 3.98511,1.78417 3.98511,3.98511 v 20.37656 c 0,2.20094 -1.78416,3.98511 -3.98511,3.98511 z" /></g><g
               transform="translate(-42.52,-2.712)"
               id="g24"><g
                 id="g26"><g
                   transform="translate(-150.921,-363.017)"
                   id="g28"><text
                     id="text32"
                     style="font-variant:normal;font-weight:normal;font-size:9.96259975px;font-family:CMR10;-inkscape-font-specification:CMR10;writing-mode:lr-tb;fill:#000000;fill-opacity:1;fill-rule:nonzero;stroke:none"
                     transform="matrix(1,0,0,-1,162.069,363.017)"><tspan
                       id="tspan30"
                       y="0"
                       x="0 5.5352206 9.9625998 14.389979 23.242746 27.117201 31.019552 36.000851 40.159241 45.4175">Seedtracks</tspan></text>
<text
                     id="text36"
                     style="font-variant:normal;font-weight:normal;font-size:9.96259975px;font-family:CMMI10;-inkscape-font-specification:CMMI10;writing-mode:lr-tb;fill:#000000;fill-opacity:1;fill-rule:nonzero;stroke:none"
                     transform="matrix(1,0,0,-1,214.732,363.017)"><tspan
                       id="tspan34"
                       y="0"
                       x="0">T</tspan></text>
<text
                     id="text40"
                     style="font-variant:normal;font-weight:normal;font-size:6.97380018px;font-family:CMMI7;-inkscape-font-specification:CMMI7;writing-mode:lr-tb;fill:#000000;fill-opacity:1;fill-rule:nonzero;stroke:none"
                     transform="matrix(1,0,0,-1,220.554,361.523)"><tspan
                       id="tspan38"
                       y="0"
                       x="0">s</tspan></text>
<g
                     transform="translate(150.921,363.017)"
                     id="g42" /></g></g><g
                 transform="translate(42.52,2.712)"
                 id="g44" /></g></g><g
             id="g46"><g
               id="g48"><path
                 id="path50"
                 style="fill:#d9d9d9;fill-opacity:1;fill-rule:nonzero;stroke:#000000;stroke-width:0.3985;stroke-linecap:butt;stroke-linejoin:miter;stroke-miterlimit:10;stroke-dasharray:none;stroke-opacity:1"
                 d="m -45.84079,-70.86702 h 91.68158 v 28.34679 h -91.68158 z" /></g><g
               transform="translate(-42.52,-60.152)"
               id="g52"><g
                 id="g54"><g
                   transform="translate(-150.921,-305.577)"
                   id="g56"><text
                     id="text60"
                     style="font-variant:normal;font-weight:normal;font-size:9.96259975px;font-family:CMR10;-inkscape-font-specification:CMR10;writing-mode:lr-tb;fill:#000000;fill-opacity:1;fill-rule:nonzero;stroke:none"
                     transform="matrix(1,0,0,-1,164.19,305.577)"><tspan
                       id="tspan58"
                       y="0"
                       x="0 6.6450543 11.072433 14.974784 18.849239 23.276619 31.852425 35.781673 40.209053 44.636433 50.171654 54.599033">Vertexseeder</tspan></text>
<g
                     transform="translate(150.921,305.577)"
                     id="g62" /></g></g><g
                 transform="translate(42.52,60.152)"
                 id="g64" /></g></g><g
             id="g66"><g
               id="g68"><path
                 id="path70"
                 style="fill:none;stroke:#000000;stroke-width:0.3985;stroke-linecap:butt;stroke-linejoin:miter;stroke-miterlimit:10;stroke-dasharray:none;stroke-opacity:1"
                 d="m 41.85568,-99.21387 h -83.71136 c -2.20095,0 -3.98511,-1.78416 -3.98511,-3.9851 v -20.37658 c 0,-2.20094 1.78416,-3.9851 3.98511,-3.9851 h 83.71136 c 2.20095,0 3.98511,1.78416 3.98511,3.9851 v 20.37658 c 0,2.20094 -1.78416,3.9851 -3.98511,3.9851 z" /></g><g
               transform="translate(-42.52,-116.197)"
               id="g72"><g
                 id="g74"><g
                   transform="translate(-150.921,-249.532)"
                   id="g76"><text
                     id="text80"
                     style="font-variant:normal;font-weight:normal;font-size:9.96259975px;font-family:CMR10;-inkscape-font-specification:CMR10;writing-mode:lr-tb;fill:#000000;fill-opacity:1;fill-rule:nonzero;stroke:none"
                     transform="matrix(1,0,0,-1,162.151,249.532)"><tspan
                       id="tspan78"
                       y="0"
                       x="0 6.6450543 11.072433 14.974784 18.849239 23.276619 31.852425 35.781673 40.209053 44.636433">Vertexseed</tspan></text>
<text
                     id="text84"
                     style="font-variant:normal;font-weight:normal;font-size:9.96259975px;font-family:CMMI10;-inkscape-font-specification:CMMI10;writing-mode:lr-tb;fill:#000000;fill-opacity:1;fill-rule:nonzero;stroke:none"
                     transform="matrix(1,0,0,-1,216.931,249.532)"><tspan
                       id="tspan82"
                       y="0"
                       x="0 -1.2851754">⃗v</tspan></text>
<text
                     id="text88"
                     style="font-variant:normal;font-weight:normal;font-size:6.97380018px;font-family:CMMI7;-inkscape-font-specification:CMMI7;writing-mode:lr-tb;fill:#000000;fill-opacity:1;fill-rule:nonzero;stroke:none"
                     transform="matrix(1,0,0,-1,220.473,248.038)"><tspan
                       id="tspan86"
                       y="0"
                       x="0">s</tspan></text>
<g
                     transform="translate(150.921,249.532)"
                     id="g90" /></g></g><g
                 transform="translate(42.52,116.197)"
                 id="g92" /></g></g><g
             id="g94"><g
               id="g96"><path
                 id="path98"
                 style="fill:#b3b3ff;fill-opacity:1;fill-rule:nonzero;stroke:#000000;stroke-width:0.3985;stroke-linecap:butt;stroke-linejoin:miter;stroke-miterlimit:10;stroke-dasharray:none;stroke-opacity:1"
                 d="m -187.57487,-138.1001 h 91.68158 v 49.42567 h -91.68158 z" /></g><g
               transform="translate(-184.252,-98.912)"
               id="g100"><g
                 id="g102"><g
                   transform="translate(-9.189,-266.817)"
                   id="g104"><text
                     id="text110"
                     style="font-variant:normal;font-weight:normal;font-size:9.96259975px;font-family:CMR10;-inkscape-font-specification:CMR10;writing-mode:lr-tb;fill:#000000;fill-opacity:1;fill-rule:nonzero;stroke:none"
                     transform="matrix(1,0,0,-1,19.911,266.817)"><tspan
                       id="tspan106"
                       y="0"
                       x="0 7.3334699 11.760849 20.062683 24.765032 29.754301 37.499226 41.37368 45.276031 50.257332 54.405758 59.664021">Removetracks</tspan><tspan
                       id="tspan108"
                       y="11.955"
                       x="-2.948 -0.18038972">in</tspan></text>
<text
                     id="text114"
                     style="font-variant:normal;font-weight:normal;font-size:9.96259975px;font-family:CMMI10;-inkscape-font-specification:CMMI10;writing-mode:lr-tb;fill:#000000;fill-opacity:1;fill-rule:nonzero;stroke:none"
                     transform="matrix(1,0,0,-1,28.586,254.862)"><tspan
                       id="tspan112"
                       y="0"
                       x="0">T</tspan></text>
<text
                     id="text118"
                     style="font-variant:normal;font-weight:normal;font-size:6.97380018px;font-family:CMSY7;-inkscape-font-specification:CMSY7;writing-mode:lr-tb;fill:#000000;fill-opacity:1;fill-rule:nonzero;stroke:none"
                     transform="matrix(1,0,0,-1,35.791,258.477)"><tspan
                       id="tspan116"
                       y="0"
                       x="0">∗</tspan></text>
<text
                     id="text122"
                     style="font-variant:normal;font-weight:normal;font-size:9.96259975px;font-family:CMR10;-inkscape-font-specification:CMR10;writing-mode:lr-tb;fill:#000000;fill-opacity:1;fill-rule:nonzero;stroke:none"
                     transform="matrix(1,0,0,-1,43.692,254.862)"><tspan
                       id="tspan120"
                       y="0"
                       x="0 3.0445704 6.9469209 11.928221">from</tspan></text>
<text
                     id="text126"
                     style="font-variant:normal;font-weight:normal;font-size:9.96259975px;font-family:CMMI10;-inkscape-font-specification:CMMI10;writing-mode:lr-tb;fill:#000000;fill-opacity:1;fill-rule:nonzero;stroke:none"
                     transform="matrix(1,0,0,-1,67.242,254.862)"><tspan
                       id="tspan124"
                       y="0"
                       x="0">T</tspan></text>
<text
                     id="text130"
                     style="font-variant:normal;font-weight:normal;font-size:6.97380018px;font-family:CMMI7;-inkscape-font-specification:CMMI7;writing-mode:lr-tb;fill:#000000;fill-opacity:1;fill-rule:nonzero;stroke:none"
                     transform="matrix(1,0,0,-1,73.064,253.368)"><tspan
                       id="tspan128"
                       y="0"
                       x="0">s</tspan></text>
<text
                     id="text138"
                     style="font-variant:normal;font-weight:normal;font-size:9.96259975px;font-family:CMR10;-inkscape-font-specification:CMR10;writing-mode:lr-tb;fill:#000000;fill-opacity:1;fill-rule:nonzero;stroke:none"
                     transform="matrix(1,0,0,-1,80.643,254.862)"><tspan
                       id="tspan132"
                       y="0"
                       x="0 2.7676103">if</tspan><tspan
                       id="tspan134"
                       y="11.955"
                       x="-59.970001 -56.095547 -50.560326 -46.132946 -43.365334 -36.145439 -29.229401 -24.802023 -22.034412 -17.053112 -11.786881 -4.5948806 -1.8272702">theirweightis</tspan><tspan
                       id="tspan136"
                       y="23.91"
                       x="-63.291 -58.3097 -52.495525 -47.793179 -42.813873 -35.068947 -31.194492 -25.659271 -21.75692 -17.32954 -13.400291 -7.8650713 -2.8837712 -0.11616088">abovethreshold</tspan></text>
<g
                     transform="translate(9.189,266.817)"
                     id="g140" /></g></g><g
                 transform="translate(184.252,98.912)"
                 id="g142" /></g></g><g
             id="g144"><g
               id="g146"><path
                 id="path148"
                 style="fill:#d9d9d9;fill-opacity:1;fill-rule:nonzero;stroke:#000000;stroke-width:0.3985;stroke-linecap:butt;stroke-linejoin:miter;stroke-miterlimit:10;stroke-dasharray:none;stroke-opacity:1"
                 d="m -45.84079,-184.25429 h 91.68158 v 28.34679 h -91.68158 z" /></g><g
               transform="translate(-42.52,-167.505)"
               id="g150"><g
                 id="g152"><g
                   transform="translate(-150.921,-198.224)"
                   id="g154"><text
                     id="text160"
                     style="font-variant:normal;font-weight:normal;font-size:9.96259975px;font-family:CMR10;-inkscape-font-specification:CMR10;writing-mode:lr-tb;fill:#000000;fill-opacity:1;fill-rule:nonzero;stroke:none"
                     transform="matrix(1,0,0,-1,165.075,198.224)"><tspan
                       id="tspan156"
                       y="0"
                       x="0 3.5974948 11.899329 17.434549 22.41585 26.843229 34.035229 39.849403 44.830704 47.598312 52.85458">Impactpoint</tspan><tspan
                       id="tspan158"
                       y="11.955"
                       x="7.8460002 12.273379 16.202629 20.077084 22.844694 31.146528 36.127831 40.002285 44.983585">estimator</tspan></text>
<g
                     transform="translate(150.921,198.224)"
                     id="g162" /></g></g><g
                 transform="translate(42.52,167.505)"
                 id="g164" /></g></g><g
             id="g166"><g
               id="g168"><path
                 id="path170"
                 style="fill:none;stroke:#000000;stroke-width:0.3985;stroke-linecap:butt;stroke-linejoin:miter;stroke-miterlimit:10;stroke-dasharray:none;stroke-opacity:1"
                 d="M 155.24295,-155.9075 H 71.53159 c -2.20095,0 -3.98511,-1.78417 -3.98511,-3.98511 v -20.37657 c 0,-2.20094 1.78416,-3.98511 3.98511,-3.98511 h 83.71136 c 2.20095,0 3.98511,1.78417 3.98511,3.98511 v 20.37657 c 0,2.20094 -1.78416,3.98511 -3.98511,3.98511 z" /></g><g
               transform="translate(70.866,-173.538)"
               id="g172"><g
                 id="g174"><g
                   transform="translate(-264.307,-192.191)"
                   id="g176"><text
                     id="text180"
                     style="font-variant:normal;font-weight:normal;font-size:9.96259975px;font-family:CMR10;-inkscape-font-specification:CMR10;writing-mode:lr-tb;fill:#000000;fill-opacity:1;fill-rule:nonzero;stroke:none"
                     transform="matrix(1,0,0,-1,267.345,192.191)"><tspan
                       id="tspan178"
                       y="0"
                       x="0 5.5352206 9.9625998 17.1546 22.1359 28.50798 33.489281 36.256889 42.342045 46.216503 50.118851 55.100151 59.248577 64.506836">Setofalltracks</tspan></text>
<text
                     id="text184"
                     style="font-variant:normal;font-weight:normal;font-size:9.96259975px;font-family:CMMI10;-inkscape-font-specification:CMMI10;writing-mode:lr-tb;fill:#000000;fill-opacity:1;fill-rule:nonzero;stroke:none"
                     transform="matrix(1,0,0,-1,339.103,192.191)"><tspan
                       id="tspan182"
                       y="0"
                       x="0">T</tspan></text>
<g
                     transform="translate(264.307,192.191)"
                     id="g186" /></g></g><g
                 transform="translate(-70.866,173.538)"
                 id="g188" /></g></g><g
             id="g190"><g
               id="g192"><path
                 id="path194"
                 style="fill:none;stroke:#000000;stroke-width:0.3985;stroke-linecap:butt;stroke-linejoin:miter;stroke-miterlimit:10;stroke-dasharray:none;stroke-opacity:1"
                 d="m 41.85568,-207.07074 h -83.71136 c -2.20095,0 -3.98511,-1.78416 -3.98511,-3.98511 v -31.43736 c 0,-2.20094 1.78416,-3.98511 3.98511,-3.98511 h 83.71136 c 2.20095,0 3.98511,1.78417 3.98511,3.98511 v 31.43736 c 0,2.20095 -1.78416,3.98511 -3.98511,3.98511 z" /></g><g
               transform="translate(-42.52,-217.307)"
               id="g196"><g
                 id="g198"><g
                   transform="translate(-150.921,-148.422)"
                   id="g200"><text
                     id="text204"
                     style="font-variant:normal;font-weight:normal;font-size:9.96259975px;font-family:CMR10;-inkscape-font-specification:CMR10;writing-mode:lr-tb;fill:#000000;fill-opacity:1;fill-rule:nonzero;stroke:none"
                     transform="matrix(1,0,0,-1,160.078,148.422)"><tspan
                       id="tspan202"
                       y="0"
                       x="0 6.368094 10.270444 15.251744 19.400171 24.658432">Tracks</tspan></text>
<text
                     id="text208"
                     style="font-variant:normal;font-weight:normal;font-size:9.96259975px;font-family:CMMI10;-inkscape-font-specification:CMMI10;writing-mode:lr-tb;fill:#000000;fill-opacity:1;fill-rule:nonzero;stroke:none"
                     transform="matrix(1,0,0,-1,191.986,148.422)"><tspan
                       id="tspan206"
                       y="0"
                       x="0">T</tspan></text>
<text
                     id="text212"
                     style="font-variant:normal;font-weight:normal;font-size:6.97380018px;font-family:CMSY7;-inkscape-font-specification:CMSY7;writing-mode:lr-tb;fill:#000000;fill-opacity:1;fill-rule:nonzero;stroke:none"
                     transform="matrix(1,0,0,-1,199.191,152.038)"><tspan
                       id="tspan210"
                       y="0"
                       x="0">∗</tspan></text>
<text
                     id="text216"
                     style="font-variant:normal;font-weight:normal;font-size:9.96259975px;font-family:CMSY10;-inkscape-font-specification:CMSY10;writing-mode:lr-tb;fill:#000000;fill-opacity:1;fill-rule:nonzero;stroke:none"
                     transform="matrix(1,0,0,-1,207.811,148.422)"><tspan
                       id="tspan214"
                       y="0"
                       x="0">⊂</tspan></text>
<text
                     id="text220"
                     style="font-variant:normal;font-weight:normal;font-size:9.96259975px;font-family:CMMI10;-inkscape-font-specification:CMMI10;writing-mode:lr-tb;fill:#000000;fill-opacity:1;fill-rule:nonzero;stroke:none"
                     transform="matrix(1,0,0,-1,219.598,148.422)"><tspan
                       id="tspan218"
                       y="0"
                       x="0">T</tspan></text>
<text
                     id="text224"
                     style="font-variant:normal;font-weight:normal;font-size:9.96259975px;font-family:CMR10;-inkscape-font-specification:CMR10;writing-mode:lr-tb;fill:#000000;fill-opacity:1;fill-rule:nonzero;stroke:none"
                     transform="matrix(1,0,0,-1,152.091,136.467)"><tspan
                       id="tspan222"
                       y="0"
                       x="0 4.4273796 9.408679 17.710514 23.245735 28.227036 32.10149 34.869099 40.40432 43.171932 50.916855 58.111847 60.879456 64.753914">compatiblewith</tspan></text>
<text
                     id="text228"
                     style="font-variant:normal;font-weight:normal;font-size:9.96259975px;font-family:CMMI10;-inkscape-font-specification:CMMI10;writing-mode:lr-tb;fill:#000000;fill-opacity:1;fill-rule:nonzero;stroke:none"
                     transform="matrix(1,0,0,-1,226.99,136.467)"><tspan
                       id="tspan226"
                       y="0"
                       x="0 -1.2851754">⃗v</tspan></text>
<text
                     id="text232"
                     style="font-variant:normal;font-weight:normal;font-size:6.97380018px;font-family:CMMI7;-inkscape-font-specification:CMMI7;writing-mode:lr-tb;fill:#000000;fill-opacity:1;fill-rule:nonzero;stroke:none"
                     transform="matrix(1,0,0,-1,230.533,134.973)"><tspan
                       id="tspan230"
                       y="0"
                       x="0">s</tspan></text>
<text
                     id="text236"
                     style="font-variant:normal;font-weight:normal;font-size:9.96259975px;font-family:CMR10;-inkscape-font-specification:CMR10;writing-mode:lr-tb;fill:#000000;fill-opacity:1;fill-rule:nonzero;stroke:none"
                     transform="matrix(1,0,0,-1,155.763,124.512)"><tspan
                       id="tspan234"
                       y="0"
                       x="0 4.9812999 10.516521 19.369287 23.243742 28.778963 33.206341 35.973953 43.193848 50.119846 54.547226 57.314838 62.296139 67.552406 71.426857">andtheirweights</tspan></text>
<g
                     transform="translate(150.921,148.422)"
                     id="g238" /></g></g><g
                 transform="translate(42.52,217.307)"
                 id="g240" /></g></g><g
             id="g242"><g
               id="g244"><path
                 id="path246"
                 style="fill:#d9d9d9;fill-opacity:1;fill-rule:nonzero;stroke:#000000;stroke-width:0.3985;stroke-linecap:butt;stroke-linejoin:miter;stroke-miterlimit:10;stroke-dasharray:none;stroke-opacity:1"
                 d="m -45.84079,-297.64157 h 91.68158 v 28.34679 h -91.68158 z" /></g><g
               transform="translate(-42.52,-286.923)"
               id="g248"><g
                 id="g250"><g
                   transform="translate(-150.921,-78.806)"
                   id="g252"><text
                     id="text256"
                     style="font-variant:normal;font-weight:normal;font-size:9.96259975px;font-family:CMR10;-inkscape-font-specification:CMR10;writing-mode:lr-tb;fill:#000000;fill-opacity:1;fill-rule:nonzero;stroke:none"
                     transform="matrix(1,0,0,-1,153.84,78.806)"><tspan
                       id="tspan254"
                       y="0"
                       x="0 9.1327152 14.667936 17.435547 21.310001 24.077612 27.398146 32.377453 36.804832 40.707184 44.581638 49.009018 57.584824 63.120045 66.994499 70.868958 75.296333">Multi-vertexftter</tspan></text>
<g
                     transform="translate(150.921,78.806)"
                     id="g258" /></g></g><g
                 transform="translate(42.52,286.923)"
                 id="g260" /></g></g><g
             id="g262"><g
               id="g264"><path
                 id="path266"
                 style="fill:none;stroke:#000000;stroke-width:0.3985;stroke-linecap:butt;stroke-linejoin:miter;stroke-miterlimit:10;stroke-dasharray:none;stroke-opacity:1"
                 d="M 155.24295,-269.29477 H 71.53159 c -2.20095,0 -3.98511,-1.78416 -3.98511,-3.98511 v -20.37658 c 0,-2.20094 1.78416,-3.98511 3.98511,-3.98511 h 83.71136 c 2.20095,0 3.98511,1.78417 3.98511,3.98511 v 20.37658 c 0,2.20095 -1.78416,3.98511 -3.98511,3.98511 z" /></g><g
               transform="translate(70.866,-280.946)"
               id="g268"><g
                 id="g270"><g
                   transform="translate(-264.307,-84.783)"
                   id="g272"><text
                     id="text278"
                     style="font-variant:normal;font-weight:normal;font-size:9.96259975px;font-family:CMR10;-inkscape-font-specification:CMR10;writing-mode:lr-tb;fill:#000000;fill-opacity:1;fill-rule:nonzero;stroke:none"
                     transform="matrix(1,0,0,-1,280.26,84.783)"><tspan
                       id="tspan274"
                       y="0"
                       x="0 5.5352206 9.9625998 17.1546 22.1359 28.50798 31.552551 36.533852 42.059109 47.59433">Setoffound</tspan><tspan
                       id="tspan276"
                       y="11.955"
                       x="4.5250001 9.5043077 13.931687 17.834038 21.708492 24.476103 28.903482 33.33086">vertices</tspan></text>
<text
                     id="text282"
                     style="font-variant:normal;font-weight:normal;font-size:9.96259975px;font-family:CMMI10;-inkscape-font-specification:CMMI10;writing-mode:lr-tb;fill:#000000;fill-opacity:1;fill-rule:nonzero;stroke:none"
                     transform="matrix(1,0,0,-1,320.843,72.828)"><tspan
                       id="tspan280"
                       y="0"
                       x="0">V</tspan></text>
<g
                     transform="translate(264.307,84.783)"
                     id="g284" /></g></g><g
                 transform="translate(-70.866,280.946)"
                 id="g286" /></g></g><g
             id="g288"><g
               id="g290"><path
                 id="path292"
                 style="fill:none;stroke:#000000;stroke-width:0.3985;stroke-linecap:butt;stroke-linejoin:miter;stroke-miterlimit:10;stroke-dasharray:none;stroke-opacity:1"
                 d="m 41.85568,-325.9884 h -83.71136 c -2.20095,0 -3.98511,-1.78417 -3.98511,-3.98511 v -20.37659 c 0,-2.20094 1.78416,-3.9851 3.98511,-3.9851 h 83.71136 c 2.20095,0 3.98511,1.78416 3.98511,3.9851 v 20.37659 c 0,2.20094 -1.78416,3.98511 -3.98511,3.98511 z" /></g><g
               transform="translate(-42.52,-343.716)"
               id="g294"><g
                 id="g296"><g
                   transform="translate(-150.921,-22.013)"
                   id="g298"><text
                     id="text302"
                     style="font-variant:normal;font-weight:normal;font-size:9.96259975px;font-family:CMR10;-inkscape-font-specification:CMR10;writing-mode:lr-tb;fill:#000000;fill-opacity:1;fill-rule:nonzero;stroke:none"
                     transform="matrix(1,0,0,-1,152.229,22.013)"><tspan
                       id="tspan300"
                       y="0"
                       x="0 6.6450543 11.072433 14.974784 18.849239 23.276619 31.852425 36.279804 41.261105 46.796326 52.331547 55.099155 60.634377 65.615677 69.490128">Vertexcandidate</tspan></text>
<text
                     id="text306"
                     style="font-variant:normal;font-weight:normal;font-size:9.96259975px;font-family:CMMI10;-inkscape-font-specification:CMMI10;writing-mode:lr-tb;fill:#000000;fill-opacity:1;fill-rule:nonzero;stroke:none"
                     transform="matrix(1,0,0,-1,229.08,22.013)"><tspan
                       id="tspan304"
                       y="0"
                       x="0 0.3885414">⃗v</tspan></text>
<g
                     transform="translate(150.921,22.013)"
                     id="g308" /></g></g><g
                 transform="translate(42.52,343.716)"
                 id="g310" /></g></g><g
             id="g312"><g
               id="g314"><path
                 id="path316"
                 style="fill:#b3b3ff;fill-opacity:1;fill-rule:nonzero;stroke:#000000;stroke-width:0.3985;stroke-linecap:butt;stroke-linejoin:miter;stroke-miterlimit:10;stroke-dasharray:none;stroke-opacity:1"
                 d="m 67.54648,-359.86559 h 91.68158 v 39.40756 H 67.54648 Z" /></g><g
               transform="translate(70.866,-330.693)"
               id="g318"><g
                 id="g320"><g
                   transform="translate(-264.307,-35.036)"
                   id="g322"><text
                     id="text328"
                     style="font-variant:normal;font-weight:normal;font-size:9.96259975px;font-family:CMR10;-inkscape-font-specification:CMR10;writing-mode:lr-tb;fill:#000000;fill-opacity:1;fill-rule:nonzero;stroke:none"
                     transform="matrix(1,0,0,-1,282.46,35.036)"><tspan
                       id="tspan324"
                       y="0"
                       x="0 7.4719501 13.007171 21.859938 26.839245 31.266624 35.168976 39.04343 43.47081">Addvertex</tspan><tspan
                       id="tspan326"
                       y="11.955"
                       x="-12.993 -8.5656204 -3.5843205 1.9509 7.4861207 10.253731 15.788952 20.770252 24.644707 32.389633 36.264088">candidateto</tspan></text>
<text
                     id="text332"
                     style="font-variant:normal;font-weight:normal;font-size:9.96259975px;font-family:CMMI10;-inkscape-font-specification:CMMI10;writing-mode:lr-tb;fill:#000000;fill-opacity:1;fill-rule:nonzero;stroke:none"
                     transform="matrix(1,0,0,-1,327.029,23.081)"><tspan
                       id="tspan330"
                       y="0"
                       x="0">V</tspan></text>
<text
                     id="text338"
                     style="font-variant:normal;font-weight:normal;font-size:9.96259975px;font-family:CMR10;-inkscape-font-specification:CMR10;writing-mode:lr-tb;fill:#000000;fill-opacity:1;fill-rule:nonzero;stroke:none"
                     transform="matrix(1,0,0,-1,338.375,23.081)"><tspan
                       id="tspan334"
                       y="0"
                       x="0 2.7676103">if</tspan><tspan
                       id="tspan336"
                       y="11.955"
                       x="-66.181999 -63.414391 -56.222389 -53.454777 -46.198021 -40.6628 -35.681499 -28.4895 -20.187664 -15.760285 -11.857935 -6.8766346 -2.4492552">itisnotmerged</tspan></text>
<g
                     transform="translate(264.307,35.036)"
                     id="g340" /></g></g><g
                 transform="translate(-70.866,330.693)"
                 id="g342" /></g></g><g
             id="g344"><path
               id="path346"
               style="fill:none;stroke:#000000;stroke-width:0.79701;stroke-linecap:butt;stroke-linejoin:miter;stroke-miterlimit:10;stroke-dasharray:none;stroke-opacity:1"
               d="M 0,-14.37263 V -39.73071" /><g
               transform="rotate(-90,-19.865355,-19.865355)"
               id="g348"><g
                 id="g350"><path
                   id="path352"
                   style="fill:#000000;fill-opacity:1;fill-rule:nonzero;stroke:none"
                   d="M 2.59026,0 -1.55415,2.0722 0,0 -1.55415,-2.0722" /></g></g></g><g
             id="g354"><path
               id="path356"
               style="fill:none;stroke:#000000;stroke-width:0.79701;stroke-linecap:butt;stroke-linejoin:miter;stroke-miterlimit:10;stroke-dasharray:none;stroke-opacity:1"
               d="M 0,-71.06628 V -96.42435" /><g
               transform="rotate(-90,-48.212175,-48.212175)"
               id="g358"><g
                 id="g360"><path
                   id="path362"
                   style="fill:#000000;fill-opacity:1;fill-rule:nonzero;stroke:none"
                   d="M 2.59026,0 -1.55415,2.0722 0,0 -1.55415,-2.0722" /></g></g></g><g
             id="g364"><path
               id="path366"
               style="fill:none;stroke:#000000;stroke-width:0.79701;stroke-linecap:butt;stroke-linejoin:miter;stroke-miterlimit:10;stroke-dasharray:none;stroke-opacity:1"
               d="m 0,-127.75992 v -25.35806" /><g
               transform="rotate(-90,-76.55899,-76.55899)"
               id="g368"><g
                 id="g370"><path
                   id="path372"
                   style="fill:#000000;fill-opacity:1;fill-rule:nonzero;stroke:none"
                   d="M 2.59026,0 -1.55415,2.0722 0,0 -1.55415,-2.0722" /></g></g></g><g
             id="g374"><path
               id="path376"
               style="fill:none;stroke:#000000;stroke-width:0.79701;stroke-linecap:butt;stroke-linejoin:miter;stroke-miterlimit:10;stroke-dasharray:none;stroke-opacity:1"
               d="M 67.34721,-170.0809 H 48.6303" /><g
               transform="rotate(180,24.31515,-85.04045)"
               id="g378"><g
                 id="g380"><path
                   id="path382"
                   style="fill:#000000;fill-opacity:1;fill-rule:nonzero;stroke:none"
                   d="M 2.59026,0 -1.55415,2.0722 0,0 -1.55415,-2.0722" /></g></g></g><g
             id="g384"><path
               id="path386"
               style="fill:none;stroke:#000000;stroke-width:0.79701;stroke-linecap:butt;stroke-linejoin:miter;stroke-miterlimit:10;stroke-dasharray:none;stroke-opacity:1"
               d="m -46.04004,-226.77454 h -95.69405 v 88.47519" /></g><g
             id="g388"><path
               id="path390"
               style="fill:none;stroke:#000000;stroke-width:0.79701;stroke-linecap:butt;stroke-linejoin:miter;stroke-miterlimit:10;stroke-dasharray:none;stroke-opacity:1"
               d="M -141.73409,-88.47517 V 0 h 93.10379" /><g
               transform="translate(-48.6303)"
               id="g392"><g
                 id="g394"><path
                   id="path396"
                   style="fill:#000000;fill-opacity:1;fill-rule:nonzero;stroke:none"
                   d="M 2.59026,0 -1.55415,2.0722 0,0 -1.55415,-2.0722" /></g></g></g><g
             id="g398"><path
               id="path400"
               style="fill:none;stroke:#000000;stroke-width:0.79701;stroke-linecap:butt;stroke-linejoin:miter;stroke-miterlimit:10;stroke-dasharray:none;stroke-opacity:1"
               d="m 0,-184.45355 v -19.82768" /><g
               transform="rotate(-90,-102.14062,-102.14062)"
               id="g402"><g
                 id="g404"><path
                   id="path406"
                   style="fill:#000000;fill-opacity:1;fill-rule:nonzero;stroke:none"
                   d="M 2.59026,0 -1.55415,2.0722 0,0 -1.55415,-2.0722" /></g></g></g><g
             id="g408"><path
               id="path410"
               style="fill:none;stroke:#000000;stroke-width:0.79701;stroke-linecap:butt;stroke-linejoin:miter;stroke-miterlimit:10;stroke-dasharray:none;stroke-opacity:1"
               d="m 0,-246.67757 v -19.82768" /><g
               transform="rotate(-90,-133.25262,-133.25262)"
               id="g412"><g
                 id="g414"><path
                   id="path416"
                   style="fill:#000000;fill-opacity:1;fill-rule:nonzero;stroke:none"
                   d="M 2.59026,0 -1.55415,2.0722 0,0 -1.55415,-2.0722" /></g></g></g><g
             id="g418"><path
               id="path420"
               style="fill:none;stroke:#000000;stroke-width:0.79701;stroke-linecap:butt;stroke-linejoin:miter;stroke-miterlimit:10;stroke-dasharray:none;stroke-opacity:1"
               d="M 67.34721,-283.46817 H 48.6303" /><g
               transform="rotate(180,24.31515,-141.73408)"
               id="g422"><g
                 id="g424"><path
                   id="path426"
                   style="fill:#000000;fill-opacity:1;fill-rule:nonzero;stroke:none"
                   d="M 2.59026,0 -1.55415,2.0722 0,0 -1.55415,-2.0722" /></g></g></g><g
             id="g428"><path
               id="path430"
               style="fill:none;stroke:#000000;stroke-width:0.79701;stroke-linecap:butt;stroke-linejoin:miter;stroke-miterlimit:10;stroke-dasharray:none;stroke-opacity:1"
               d="m -46.04004,-113.38727 h -14.1734 v -170.0809 h 11.58314" /><g
               transform="translate(-48.6303,-283.46817)"
               id="g432"><g
                 id="g434"><path
                   id="path436"
                   style="fill:#000000;fill-opacity:1;fill-rule:nonzero;stroke:none"
                   d="M 2.59026,0 -1.55415,2.0722 0,0 -1.55415,-2.0722" /></g></g></g><g
             id="g438"><path
               id="path440"
               style="fill:none;stroke:#000000;stroke-width:0.79701;stroke-linecap:butt;stroke-linejoin:miter;stroke-miterlimit:10;stroke-dasharray:none;stroke-opacity:1"
               d="m 0,-297.84082 v -25.35806" /><g
               transform="rotate(-90,-161.59944,-161.59944)"
               id="g442"><g
                 id="g444"><path
                   id="path446"
                   style="fill:#000000;fill-opacity:1;fill-rule:nonzero;stroke:none"
                   d="M 2.59026,0 -1.55415,2.0722 0,0 -1.55415,-2.0722" /></g></g></g><g
             id="g448"><path
               id="path450"
               style="fill:none;stroke:#000000;stroke-width:0.79701;stroke-linecap:butt;stroke-linejoin:miter;stroke-miterlimit:10;stroke-dasharray:none;stroke-opacity:1"
               d="M 46.04004,-340.1618 H 67.34721" /></g><g
             id="g452"><path
               id="path454"
               style="fill:none;stroke:#000000;stroke-width:0.79701;stroke-linecap:butt;stroke-linejoin:miter;stroke-miterlimit:10;stroke-dasharray:none;stroke-opacity:1"
               d="m 113.38727,-320.25876 v 19.82768" /><g
               transform="rotate(90,206.90917,-93.521905)"
               id="g456"><g
                 id="g458"><path
                   id="path460"
                   style="fill:#000000;fill-opacity:1;fill-rule:nonzero;stroke:none"
                   d="M 2.59026,0 -1.55415,2.0722 0,0 -1.55415,-2.0722" /></g></g></g></g></g></g></g></svg>